<svg id="Capa_6" data-name="Capa 6" xmlns="http://www.w3.org/2000/svg" xmlns:xlink="http://www.w3.org/1999/xlink" viewBox="0 0 1935.02 658.2"><defs><style>.cls-1{fill:url(#Degradado_sin_nombre_50);}.cls-2,.cls-5{fill:none;}.cls-2{stroke:#000;stroke-miterlimit:10;}.cls-3{fill:#2f3b40;}.cls-4{fill:#303c41;}.cls-6{fill:#2197a3;}.cls-7{fill:#d1d1d1;}.cls-8{fill:#f2f3f3;}.cls-9{fill:#fefefe;}.cls-10{fill:#91e1a7;}.cls-11{fill:#fcfcfc;}.cls-12{fill:#fff;}.cls-13{fill:#354046;}.cls-14{fill:#91e1a8;}.cls-15{fill:#fcfdfd;}</style><linearGradient id="Degradado_sin_nombre_50" x1="960.19" y1="656.32" x2="960.19" y2="-2416.01" gradientUnits="userSpaceOnUse"><stop offset="0.04" stop-color="#2197a3"/><stop offset="0.21" stop-color="#f71e6c"/><stop offset="0.47" stop-color="#f07868"/><stop offset="0.67" stop-color="#ebb970"/><stop offset="0.92" stop-color="#fff"/></linearGradient></defs><title>Banner6</title><rect class="cls-1" y="6.04" width="1920.39" height="650.28"/><path class="cls-2" d="M1306.34,600.39c9.62-24.56,19-50,22.18-76.4,1-15.47,2.1-30.93,0-47.3-3.14-21.84-12.56-41.85-13.61-63.68-1.05-12.73,7.33-23.65,12.57-36.38,1-5.46,1-10.92-5.24-14.56-8.38-4.55-16.75-4.55-24.87-1.93,1.44-3.1,2.36-6.5,4.89-9.12-.22,3.1-1.48,7.52-4.89,9.12,10-20.28,19.41-40.77,28.9-61.23s19-40.82,29.15-61q3.76-7.47,7.67-14.89c2-3.86-.91-7.71-4.65-10a28.92,28.92,0,0,0-12.3-3.89c-6-.55-9.23-.24-12.26,4.8-5.66,9.41-9.77,19.75-14.36,29.59-4.82,10.31-9.55,20.65-14.27,31-9.4,20.64-18.75,41.31-28.55,61.81q-1.86,3.9-3.75,7.8c-1.79-.94.92-1.8,0,0a94.93,94.93,0,0,0-33-20.58c-10.19-3.76-28.34-9-35.22,2-2.57,4.1-2.19,9.09-1,13.5,1.51,5.8,7.3,9.93,11.51,14.5a265.29,265.29,0,0,1,25,31.62c3.27,4.85,8.87,10.94,5.76,16.68-3.92,7.23-8.33,14.22-11,21.9a7.6,7.6,0,0,1,.54-3.11,25.28,25.28,0,0,1-.54,3.11c-.39-.81-2.2-4.84,0-4.78s.45,3.89,0,4.78c-5.21-7-7-15.64-12.54-22.49-10.12-11.88-31.06-13.7-43.63-3.69-13.61,11.82-12.56,28.2-14.66,43.66-9.61-2.76,1.74-9.87,0,0-8.37-1.82-17.8-1.82-25.12,3.64-13.62,10-16.76,27.29-11.21,40.94-2.11-1.07-3-4-2.81-6,1.62,1.64,2.08,3.95,2.81,6-1.68-.47-7.33-2.79-5.75-4.93,2.59-3.49,5.58,3.62,5.75,4.93a14.56,14.56,0,0,1-4.49-.81c1.31-.38,3.59-.18,4.49.81-10.78-.92-23.35,1.81-28.58,10.91a35.73,35.73,0,0,0-3.14,25.47c3.14,8.18,8.37,15.46,9.42,24.56,2.09,18.19,3.14,35.47,4.47,53.23" transform="translate(0.39 6.32)"/><path class="cls-3" d="M1472.79,198.87c-.49-.11-1-.2-1.48-.3-81-15.8-162-31.78-243.18-46.69-7.16-1.32-14.17-2.93-21.7-.74a313.06,313.06,0,0,1-40.19,8.74c-16.45,2.53-33,4.24-49.71,3.76-26.32-.75-51-7.46-75.16-16-.34-.13-.75-.23-.59-.91a77.09,77.09,0,0,0,20.08-4.1c6.13-2.32,12.45-3.09,19-3.63a129.88,129.88,0,0,0,59-19.53c.84-.52,1.93-1.05,1.17-2.06s-1.8-.23-2.55.26a108.88,108.88,0,0,1-14.92,8,131.83,131.83,0,0,1-70.71,10.86c-14.26-1.67-27.92-5.51-41.7-8.86-19.52-4.75-38.68-10.65-58.88-13.14-15-1.86-30-2.32-44.58,2.26-7.06,2.21-14.21,4.61-19.21,9.62a75.88,75.88,0,0,1-22.38,15.44c-13.65,6.26-28.4,10-43,14.06a35.58,35.58,0,0,1-30.53-5c-.9-.61-2.77-1.28-2.15-2.15.86-1.22,2.05.3,3,.71,10.64,4.87,20.86,3.55,29.27-3.9a59.67,59.67,0,0,0,6.49-6.93c1.53-1.86,1.6-3-1-4.29-5.83-2.93-9.64-7.34-11.26-13.1a133.41,133.41,0,0,1-3.71-19.45c-.14-1.09.35-2.59-1-3.09-1.68-.61-2.38,1-3.27,1.84-5.86,5.33-11.61,10.76-17.46,16.1-.71.64-1.28,2.37-2.56,1.43-.89-.66.72-1.6,1.38-2.26C802,103.23,815.18,91,828.83,79.1a20.45,20.45,0,0,1,7.93-4.22c3.54-1,7.12-2,10.75-2.72,13.64-2.8,27.34-5.39,41-8.26,28.24-5.95,55.26-15,82-24.73l7-2.57c.77-.28,1.63-.67,1.24-1.51s-1.31-.92-2.28-.49c-.8.35-1.67.61-2.51.91L950.1,44c-.45.11-1.15.42-1.3.29-.53-.5.28-.62.52-.92Q969.09,26,988.86,8.72H985.5q-21.07,18.33-42.08,36.73a8.65,8.65,0,0,1-2.91,1.84c-27,9.23-54.82,15.6-83.22,20.37-.24.19-.5.3-.74,0a3.5,3.5,0,0,1,.4-.32A153,153,0,0,1,869.27,55.4q27-23.35,54-46.68H919.8Q893.9,31.06,868,53.41c-3.64,3.14-6.92,6.61-10.37,9.92l-.75.77c-3.4,4-8,6.12-13.64,6.82-9.34,1.15-16.13,6-22.24,11.82-3,2.89-6.18,5.69-9.61,8.83,0-1.85-.11-3.2,0-4.54.72-8.07-2.13-15.62-4.49-23.23-.75-2.42-.55-4.12,1.5-6.08,8.2-7.86,13-17.52,17.74-27.08C828.46,26,831.65,24,837.26,23c13-2.36,26.11-4.64,38.35-9.4,3.58-1.4,7.06-3,10.53-4.61l.48-.22h-5a101.13,101.13,0,0,1-15.28,5.65c-11.42,3.2-23.16,5.39-34.85,7.75-.81.16-1.43.31-1.78-.74-1.71-5-5-9-8.84-12.66h-3.31c.71.66,1.41,1.32,2.09,2a36.83,36.83,0,0,1,7,8.89c.8,1.54,1.32,3.19.39,4.82-5.75,10.11-9.87,21.11-18.65,29.64-4.49,4.37-4.93,8.25-2.86,13.38A46.73,46.73,0,0,1,808.57,91a9.07,9.07,0,0,1-3,6.06,258,258,0,0,0-21.36,20.83,35.65,35.65,0,0,0-6.53,10.93c-3.67-3.56-5-7.65-5.95-11.69-3.66-15.71-7.22-31.45-10.42-47.24-1.32-6.56.71-13.1,2-19.56,2.85-14,6.87-27.79,10.5-41.65H771.6a5.49,5.49,0,0,1-.58,0c-3.5,13.44-6.91,26.89-10.09,40.38-1.91,8.13-3.83,16.36-1.49,24.76,1,3.48,1.59,7,2.37,10.58,2.43,11,4.18,22.15,7.28,33.06,1.18,4.16,2.07,8.63,5.67,11.74s1.18,7.39,3,10.78c-2.53,1.66-2.26,4.82-4.48,6.56a45.49,45.49,0,0,0-12.4,14.7c-2.15,4.05-4.79,7.9-7.19,11.85-.37.62-1.13,1.49-.9,1.87,1.48,2.49-.92,4-1.67,6-.27.7-1.18,1.38-.33,2.15s1.84.12,2.7-.26c1.62-.7,3.63-2.32,4.75-1.94,2.41.81,3.91-.33,5.67-.91,2.82-.93,5.54-2.1,8.33-3.12,8.45-3.07,17.08-5.89,22.82-12.66a5.14,5.14,0,0,1,.42-.38,1.1,1.1,0,0,1,1.76,0c1.48,1.69,2.68.79,3.94-.26,1.47-1.2,3-2.34,4.48-3.54a3.41,3.41,0,0,1,2.68-.94,42.5,42.5,0,0,0,14.36-1.3c1.86-.44,2.71,0,3.58,1.37,2.49,3.92,5.1,7.77,7.71,11.63A47.26,47.26,0,0,0,843.94,182a11.91,11.91,0,0,0,9.76,2.45A27.57,27.57,0,0,0,866,179.1a4.5,4.5,0,0,1,4.59-.67c16.51,4.93,33,9.84,49.82,14,6.81,1.69,13.72,2.91,20.91,1.92s12.85-4.73,12.09-12.31a26.62,26.62,0,0,0-.93-6c-.81-2.35.08-2.72,2.59-2.82,8.33-.34,16.45-1.56,23.88-5.15,5.63-2.72,8.07-6.7,7.17-12.21a43.75,43.75,0,0,0-1.9-7.7c-2.73-7.61-8.2-13-17.26-15.24-.58-.15-1.48.09-1.76-.79,5.08,0,10.13,0,15.17,0a24.08,24.08,0,0,1,6.5.93c25.12,6.67,49.39,15.41,74.09,23.09a212.07,212.07,0,0,0,83.52,8.56A355.5,355.5,0,0,0,1208.06,153a22.23,22.23,0,0,1,10.1-.73c9.29,1.67,18.63,3.15,27.89,4.92q91.47,17.5,182.9,35.15c5.46,1,11.06,1.67,16.3,3.49,3.09-.1,6,.85,8.91,1.38,6,1.09,12,2.31,18,3.46.72.14,1.71.55,2-.47S1473.6,199.06,1472.79,198.87ZM788.91,148.69c-1.87-.71-3.07-2.12-4.37-3.49.13-.25.19-.56.38-.65a1,1,0,0,1,.79,0c1.31,1.08,2.61,2.15,3.81,3.31A.51.51,0,0,1,788.91,148.69ZM785.07,121c.07,0,.25.15.39.23l-.45.48-.53-.31A2.92,2.92,0,0,1,785.07,121Zm-.59,6.64a6.49,6.49,0,0,1,1.54-3.36c7.44-7.52,15.38-14.62,23.6-22.26a161.88,161.88,0,0,0,3.78,19.64c1.67,5.9,5.43,10.49,11.16,13.87,1.48.87,1.77,1.49.64,2.86-4.07,4.92-8.53,9.5-15.53,11.18C794.3,153.21,781,141.59,784.48,127.59Zm-2.65-2.26a4.42,4.42,0,0,1,2.07-3.11c.71,1.77-1.41,2.43-1.37,3.73a21.09,21.09,0,0,0,2,17c.28.51,1.11,1.1.33,1.58-1,.58-1.38-.4-1.79-.89C778.16,137.79,778.64,131.62,781.83,125.33Zm.78,45.28-21.05,7.94c-2.46.93-2.95-1.27-4.26-2.11-.85-.55-2.2-1.17-1.34-2.54l11.46-18.48c5.36,4.65,10.47,9.11,15.61,13.53C784,169.8,783.67,170.21,782.61,170.61Zm3.62-2.19a5.85,5.85,0,0,1-1.37-1c-4.85-4.21-9.64-8.46-14.55-12.61-1.28-1.08-1.19-1.7.05-2.67,2.32-1.81,4.36-5.06,6.79-5.26s4.48,3.28,6.7,5.14c3.2,2.66,6.28,5.44,9.41,8.17.42.37.83.76,1.16,1.06C794.48,161.84,786.68,168.61,786.23,168.42Zm17-9.26c-3.74,3.39-3.75,3.4-7.42.17l-9.52-8.41-.6-.53-.59-.53-.61-.56-.6-.57-.61-.48c-.21-.16-.41-.33-.61-.5l-.6-.51-3.7-3.06c-.47-.39-.81-.76-.14-1.26s1.07-.23,1.44.26l2.82,3.69.58.55.58.55.58.55.63.5.64.5.63.5.61.52c5.31,3.13,10.49,6.45,16.81,8A2.84,2.84,0,0,1,803.27,159.16Zm110.08-41.53c.12-.56.84-.69,1.8-.67a7.72,7.72,0,0,1,.82.26c6.18,2.56,11.69,5.85,15.59,10.88.57.73,1.36,1.54.26,2.29-.88.6-1.49-.17-1.92-.74-3.75-4.9-9-8.19-15.06-10.63C914.15,118.74,913.17,118.53,913.35,117.63Zm-23.85,9.68c.32-.33.68-.62,1-.89a3.61,3.61,0,0,1,2,1.24,16.06,16.06,0,0,1,4.91,9.39c.29,1.59,1.1,2.21,2.76,2.57,2,.45,4,1.14,6,1.72.93.27,1.49.56,1.15,1.64-.45,1.4-1.22.32-1.8.29s-.93-.34-1.41-.42c-5.67-1-10-3-10.2-8.85-.09-2.16-2-3.94-3.9-5.44C889.59,128.24,888.9,127.94,889.5,127.31ZM882,138.07c.12-.89.91-1.07,1.77-1,2.07.26,4.13.59,6.2.85.93.11,1.6.47,1.45,1.3s-1.07.89-2.36.76c-1.61-.23-3.67-.52-5.73-.83C882.56,139.08,881.84,138.87,882,138.07Zm-38.71,31.56c-.44,2.53-.08,5.17-.08,7.77-5.29-4.84-8.73-10.51-12.48-16-3.2-4.69-3.19-4.7,2.75-6.44,4.15-1.22,4.14-1.21,6.4,2.17C842.42,161,844.05,165,843.24,169.63Zm9.57,12.85a8.93,8.93,0,0,1-4.14-.41c-1.84-.68-3.48-1.41-3-3.79.36-1.86-.16-3.84-.32-6.23,1.71-6.32-.29-12.39-4.81-17.94-.73-.89-.3-1.15.65-1.45,6.34-2,12.82-3.74,19-6.21a2.85,2.85,0,0,1,2.53.47,34.82,34.82,0,0,0,5.49,2.76c4.35,1.4,5.31,4.21,5.23,7.83a45.8,45.8,0,0,1-.72,8.91C871,174,861.7,181.43,852.81,182.48Zm59.84,5.81c-5.31-1.41-10.56-3-15.86-4.38-1.71-.46-2.7-1-3.11-2.77-.47-2-1.55-4-1.71-6.09-.27-3.49,1.18-4.91,5.14-4.9,10,0,19.52,2.43,29.17,4.2,1.29.24,1.55.87,1.48,1.89a29.22,29.22,0,0,0,3.51,16A124.37,124.37,0,0,1,912.65,188.29Zm28.74,3.87c-9,.92-7,1.83-9.84-5.71a24.71,24.71,0,0,1-1.21-11.18c.1-1.2.07-2.16-1.73-2.55-9.88-2.13-19.75-4.4-30-4.67-7.58-.2-10.24,2.71-8.8,9.23.32,1.45.89,2.86,1.34,4.29.08.19.16.37.23.55l-.7-.09q-9.46-2.73-18.94-5.47c-.74-.22-2.07-.16-.94-1.45,5.26-6,5.39-13,4.79-20.1-.14-1.79.28-2.65,2.15-3.42,8-3.32,16.22-6.23,25.21-7a17.51,17.51,0,0,1,7.46.58c7.1,2.6,14.69,4.24,21.24,7.89,10.34,5.74,16.08,14.22,18.71,24.44a22.45,22.45,0,0,1,.66,6.27C950.87,188.51,947.77,191.51,941.39,192.16ZM975.89,167c-1.47,1.43-3.54,1.59-5.49,2a77.05,77.05,0,0,1-17.48,2.35c-1.95.07-2.38-.89-2.58-2.21-3.56-5.26-6.83-10.7-12.19-14.85-1-.74-.39-1.39.21-2a8.65,8.65,0,0,1,5.45-2.58c8.2-.91,16.42-1.63,24.69-1.92,3.29-.12,5.25,1.06,6.21,3.86a27.72,27.72,0,0,1,2,9.51c0,2.43-1.19,3.86-4.08,4.38a115.77,115.77,0,0,1-19.24,1.54c-1.52,0-3.27-.21-2.84,1.95a97.76,97.76,0,0,0,19.87-.86l5.48-1.18c.07-.38.37-.52.77-.49.09,0,.17.18.26.29Zm7.27-14a24.63,24.63,0,0,1,.68,6.28c-.22,2.91-2.62,5.56-6.16,6.59,2.64-5.63.77-10.87-1.25-16.12-.93-2.44-2.82-3.66-5.76-4-4.89-.49-9.66.31-14.48.68-4.12.33-8.26.54-12.36,1a11.47,11.47,0,0,0-7.7,3.77c-.49.57-.73,1.22-1.83.63-5.76-3.09-12.1-5.13-18.7-7.59,5.78-4.75,11.63-8.72,18.68-11.2a27.69,27.69,0,0,1,14.51-.88c4.44.82,8.94,1.38,13.4,2.09C974.28,136.22,981.2,142.4,983.16,153Z" transform="translate(0.39 6.32)"/><path class="cls-4" d="M1362.54,223.74c2.58-5.4,1.53-7.52-4.75-9.74l-12-4.24c-5.94-2.1-8.37-1.22-10.81,3.94-5.19,11-10.33,22-15.55,32.91q-15.72,33.08-31.51,66.12-7.47,15.66-15,31.38a3.5,3.5,0,0,1-.9-.45c-6.81-7.36-15.93-12.1-25.24-16.52-9.7-4.6-20-7.53-31.29-6.89-8,.46-12.68,4.65-12.58,11.32a23.89,23.89,0,0,0,3.56,11.59c4.26,7.4,10.22,13.65,17.17,19.24a13.11,13.11,0,0,1,3,2.89c6.48,10.22,13,20.44,19.53,30.61a3.52,3.52,0,0,1,.17,3.93c-2.74,5.55-5.34,11.16-8,16.74-1,2.2-2.11,4.39-3.46,7.16-3.3-6.13-7.31-11.18-9.83-16.94-3.44-7.9-8.48-14.42-19.3-15.47a58.34,58.34,0,0,0-8.77.05c-13.76.76-22.21,6.57-26.43,17.89-3.66,9.84-5.27,20-6.05,30.24-.15,1.9-.51,2.41-2.75,1.68a23.81,23.81,0,0,0-17.29,1.05c-12.09,5.21-20.52,19.55-18.87,32.15a78.13,78.13,0,0,0,2.13,11.41c-1.61-.13-2.89-.27-4.17-.33-8.21-.36-15.48,1.37-20.54,7.44a40,40,0,0,0-6.5,11.83c-3.08,8.2-1.92,16.2,1.34,24.2,2.62,6.43,5.94,12.8,6.83,19.57,1.89,14.38,3,28.84,4.54,43.26.31,3.06.69,6.1,1.08,9.15l2.61.1q-2.52-18.74-4.27-37.55c-.28-2.89-1-5.78-.34-8.78,2.49,3.81,4.65,7.72,6.94,11.57,5.48,9.2,13,16.52,25,19.39a58.1,58.1,0,0,0,21.91.8c2.41-.35,4.48-.29,6.51,1a46.3,46.3,0,0,0,5.64,3.06,1.83,1.83,0,0,1,1.18,2.53q-.91,3.66-1.76,7.32c0,.12,0,.24-.08.36a6.83,6.83,0,0,1,1.5.07l.89.12.14,0a1.62,1.62,0,0,1,0-.19c1.82-7.87,3.94-15.69,6.41-23.46,8.11-25.53,22.17-47.84,45.52-65.43,8.41-6.33,15.6-13.72,19.95-22.88,1.3-2.75,3.07-5.33,4.64-8a5.76,5.76,0,0,0,.91-2.74c.42-11.32,1.18-22.65.71-34-1.08-25.68,9-48.17,25.68-68.77a41.24,41.24,0,0,1,21.42-14c4.4-1.23,8.58-.66,13,.58a3,3,0,0,1-2.48.76c-4.88.33-8.53,2-10.7,6.15-3.12,5.91-6,11.89-7.43,18.27-.62,2.72-1.43,5.59.18,8.26,2.38,4,12.15,7.53,17.26,6.44.88-.19,1.94-.3,1.82-1.37-.15-1.25-1.3-.82-2.13-.75a21.4,21.4,0,0,1-11.51-2.57c-3.17-1.61-4.27-3.94-3.7-7.1a65.62,65.62,0,0,1,8.21-21.06,5.52,5.52,0,0,1,2.5-2.58c5.11-2.25,10.59-1.48,16-1.46.26,0,.5.28.76.41,3,1.52,3,3.85,2.41,6.42a110.94,110.94,0,0,1-6.14,17.6c-5.27,12.35-9.12,24.89-8.5,38.23a57.61,57.61,0,0,1-.73,8.66c-1.81,17.92-3.89,35.83-3.92,53.85a275.94,275.94,0,0,1-1.45,29.46c-2.51,23.24-5.75,46.4-9.28,69.54-.36,2.35-.66,4.7-.94,7.06-.08.69-.05,1.48,1.07,1.59s1.22-.72,1.39-1.38a11.74,11.74,0,0,0,.17-1.31c1.93-13.76,3.93-27.51,5.8-41.28,2.16-15.94,4.65-31.87,5.18-47.94.75-22.55,1.37-45.1,4.2-67.55l.93-7.6a46.51,46.51,0,0,1,3.65,8.51c2.52,7.4,5.43,14.71,6.91,22.33,1.84,9.47,1.89,19.05,2,28.62.38,22.25-1,44.37-6.87,66.14a275.65,275.65,0,0,1-15.13,41c-.43.94-.82,1.88-1.22,2.82q1.23.13,2.43.33c1.3-3.22,2.67-6.42,4.18-9.6,5.78-12.18,9.61-24.91,12.9-37.77a202.74,202.74,0,0,0,5.48-37.55c1-16.32,1.36-32.65-.58-48.92-1.42-11.92-6.32-23.18-10.11-34.63-1-2.94-2.35-5.78-2.86-8.84-1.13-6.86.47-13.44,2.7-20,3.49-10.25,8.25-20.17,11-30.62.79-3,1.17-6.06-2.13-8.18-7.3-4.67-15.35-6.9-24.47-5.24-1.24.23-2.29,1.13-4,.8,2.39-5,4.72-9.91,7.07-14.82Q1333.5,284.53,1362.54,223.74Zm-31.36,3.71c2.38-4.64,4.5-9.37,6.8-14,1.33-2.71,2.59-3.14,5.67-2,4.85,1.72,9.68,3.48,14.52,5.23,1.76.64,3.26,1.46,3.07,3.51-.2.5-.4,1.09-.67,1.65-2.18,4.62-4.42,9.21-6.54,13.84-.65,1.41-1.3,1.85-3.1,1.17-6.08-2.32-12.24-4.51-18.4-6.66C1330.91,229.54,1330.37,229,1331.18,227.45Zm-7,14.59c1.58-3.12,3.12-6.26,4.52-9.45.51-1.13,1.1-1.2,2.24-.79,6.51,2.36,13,4.66,19.55,7,.57.2,1.49.23,1.37,1.19-.07.18-.16.44-.28.68-1.51,3.15-3.06,6.28-4.5,9.46-.49,1.07-1,1.26-2.25.81-6.5-2.39-13-4.71-19.56-7C1324.13,243.56,1323.59,243.19,1324.17,242Zm-92.06,127.2a41.18,41.18,0,0,0-8.81-10.19c-7.82-6.57-14.49-13.93-17.24-23.39a16.56,16.56,0,0,1-.58-2.58c-.75-6.37,3-10.2,10.41-10.66a55.12,55.12,0,0,1,22.41,3.64c11.76,4.27,22.32,10.13,31.27,18.11,1.76,1.56,2,3,1,5.07-7,14.36-13.78,28.78-20.67,43.17a4.37,4.37,0,0,1-1.64,2.42C1242.86,386.29,1237.35,377.83,1232.11,369.24Zm-67.23,202.84c-4.39,5.41-13.42,8-20.76,5.91-.93-.26-1.36-.49-1.66-1.45-.66-2.17-2.75-3.82-3.39-6.38,6.31-.19,12.26-.84,17.18-4.45a2.35,2.35,0,0,1,3,0c1.9,1.43,3.75,2.92,5.67,4.33C1165.94,570.83,1165.44,571.39,1164.88,572.08Zm2.73-4.8c-.38,1.35-.84,1.37-1.92.52q-2.34-1.87-4.82-3.6a5.12,5.12,0,0,0-6.54,0c-4.19,3-9.23,3.78-14.49,3.75-3.61,0-4.35.82-3.08,3.74a20.6,20.6,0,0,0,1.35,2.35c.41.69.86,1.37,1.68,2.66a66.87,66.87,0,0,1-16.94-9.71c-9-6.69-14.06-15.46-17.38-25.11-2.37-6.87-5.71-13.5-7.44-20.53-2.5-10.16.84-19.36,7.54-27.58,4.58-5.62,13.94-7.8,21.29-5.8,1.47.4,1.59,1.38,2,2.4,5,14.11,9.79,28.29,16.1,42.05,3.49,7.61,9.37,13.86,14.27,20.66,2.45,3.42,5,6.79,7.73,10.06A4,4,0,0,1,1167.61,567.28Zm30.94-28.21c-1.93,2.77-3.72,5.62-5.41,8.51a3.57,3.57,0,0,1-3.19,1.92c-4.41.42-8.82,1-12.59,3.34-2.63,1.6-3.56,4.1-2.38,6.45s3.23,3,5.9,2.82c1-.07,2.27,0,2.25-1.21s-1.19-.92-2.09-.94c-1.75-.05-3.52-.14-4-2.05s.73-2.95,2.48-3.74a39.52,39.52,0,0,1,11.14-2.7c-1.87,4-3.55,7.76-5.37,11.46-1,2.06-5.07,3-8.28,1.9-4.8-1.6-8.18-4.75-11.34-8.08a113.8,113.8,0,0,1-25.39-41.45c-3.42-9.9-7.24-19.69-9.87-29.78-2.12-8.16-4-16.46-.45-24.62,3.38-7.69,8.42-14.48,17.87-17.51a22.23,22.23,0,0,1,14.19,0c1.85.63,2.42,1.47,2.29,3.13a114.31,114.31,0,0,0,0,18.41c.85,9.76,3.35,18.92,9.82,27.22,5.23,6.72,10.72,13.39,13.88,21.17a28.65,28.65,0,0,1,1.65,4.77c1.37,6.45,5.49,11.81,9,17.4A2.73,2.73,0,0,1,1198.55,539.07ZM1222,514a94.32,94.32,0,0,0-11.85,10.86c-1,1.15-2.31.81-3.14.86-3.82.08-6.49-.9-8.11-3.7-.81-1.4-2-2.64-2.93-4s-3.19-3.3-2.75-4.16c2-3.89.22-8.81,5-12,4.23-2.85,7.52-3.55,12.08-1.09,5.18,2.8,8.65,7,12.13,11.23C1223.1,512.89,1222.75,513.4,1222,514Zm8.93-7.63c-2,1.56-3.76,4.36-5.9,4.59-1.74.18-3-3.24-4.74-4.91a46.07,46.07,0,0,0-7.82-6.57c-6.62-4.12-12.64-2.93-17.89,2.75-2.4,2.6-3,5.78-2.85,9.86-4-5.54-7.55-10.39-11.06-15.25a49,49,0,0,0-2.9-4c-8.36-9.41-10.9-20.42-11.2-31.88-.4-15.37.33-30.71,4.7-45.72,1.31-4.48,2.65-9,5.84-12.88,4.78-5.8,11.61-8.17,19.47-8.8,1.9-.15,3.84,0,5.75-.12,9-.65,14.68,3.52,18.5,10a36,36,0,0,1,4,27.36,34.07,34.07,0,0,0-.67,8.1c0,9.64.33,19.31-3,28.68a4.42,4.42,0,0,0,.44,3.08c3.79,10.52,7.7,21,10.56,31.76C1232.56,504.07,1232.42,505.23,1230.93,506.38Zm63.73-145.95a3.69,3.69,0,0,1-1.74,2.06c-8.32,4-14,10.22-19,17-12.09,16.26-19.81,33.9-21.82,53.25-.5,4.79-.15,9.65-.1,14.48a11.62,11.62,0,0,1-1.19,5.36c-5.87,12.22-11.66,24.48-17.5,36.72a4.93,4.93,0,0,1-1.81,2.54c-2.16-6.08-3.8-12.06-6.46-17.69-2.2-4.67-.55-8.88.22-13.3a18.29,18.29,0,0,0,.64-4.42c-.66-8.63,3.87-16,7.48-23.57q44.09-92.48,88.13-185c1-2,1.74-2.35,4-1.43,5.86,2.32,11.84,4.4,17.83,6.48,1.7.59,2,1.18,1.25,2.69Q1319.59,308,1294.66,360.43Z" transform="translate(0.39 6.32)"/><path class="cls-5" d="M890.68,182c-6.31-1.83-12.63-3.64-18.94-5.48-.74-.22-2.07-.16-.94-1.45,5.26-6,5.39-13,4.79-20.1-.14-1.79.28-2.65,2.15-3.42,8-3.32,16.22-6.23,25.21-7a17.51,17.51,0,0,1,7.46.58c7.1,2.6,14.69,4.24,21.24,7.89,10.34,5.74,16.08,14.22,18.71,24.44a22.45,22.45,0,0,1,.66,6.27c-.15,4.75-3.25,7.75-9.63,8.4-9,.92-7,1.83-9.84-5.71a24.71,24.71,0,0,1-1.21-11.18c.1-1.2.07-2.16-1.73-2.55-9.88-2.13-19.75-4.4-30-4.67-7.58-.2-10.24,2.71-8.8,9.23.32,1.45.89,2.86,1.34,4.29Z" transform="translate(0.39 6.32)"/><path class="cls-5" d="M809.62,102a161.88,161.88,0,0,0,3.78,19.64c1.67,5.9,5.43,10.49,11.16,13.87,1.48.87,1.77,1.49.64,2.86-4.07,4.92-8.53,9.5-15.53,11.18-15.37,3.69-28.63-7.93-25.19-21.93a6.49,6.49,0,0,1,1.54-3.36C793.46,116.71,801.4,109.61,809.62,102Z" transform="translate(0.39 6.32)"/><path class="cls-5" d="M915.6,144.28c5.78-4.75,11.63-8.72,18.68-11.2a27.69,27.69,0,0,1,14.51-.88c4.44.82,8.94,1.38,13.4,2.09,12.09,1.93,19,8.11,21,18.71a24.63,24.63,0,0,1,.68,6.28c-.22,2.91-2.62,5.56-6.16,6.59,2.64-5.63.77-10.87-1.25-16.12-.93-2.44-2.82-3.66-5.76-4-4.89-.49-9.66.31-14.48.68-4.12.33-8.26.54-12.36,1a11.47,11.47,0,0,0-7.7,3.77c-.49.57-.73,1.23-1.83.63C928.54,148.78,922.2,146.74,915.6,144.28Z" transform="translate(0.39 6.32)"/><path class="cls-5" d="M845.33,172.05c1.71-6.32-.29-12.39-4.81-17.94-.73-.89-.3-1.15.65-1.45,6.34-2,12.82-3.74,19-6.21a2.85,2.85,0,0,1,2.53.47,34.82,34.82,0,0,0,5.49,2.76c4.35,1.4,5.31,4.21,5.23,7.83a45.8,45.8,0,0,1-.72,8.91c-1.71,7.61-11,15-19.86,16.06a8.93,8.93,0,0,1-4.14-.41c-1.84-.68-3.48-1.41-3-3.79C846,176.42,845.49,174.44,845.33,172.05Z" transform="translate(0.39 6.32)"/><path class="cls-6" d="M950.34,169.14c-3.56-5.26-6.83-10.7-12.19-14.85-1-.74-.39-1.39.21-2a8.65,8.65,0,0,1,5.45-2.58c8.2-.91,16.42-1.63,24.69-1.92,3.29-.12,5.25,1.06,6.21,3.86a27.72,27.72,0,0,1,2,9.51c0,2.43-1.19,3.86-4.08,4.38a115.77,115.77,0,0,1-19.24,1.54c-1.52,0-3.27-.21-2.84,1.95Z" transform="translate(0.39 6.32)"/><path class="cls-6" d="M931.27,192.27a124.37,124.37,0,0,1-18.62-4c-5.31-1.41-10.56-3-15.86-4.38-1.71-.46-2.7-1-3.11-2.77-.47-2-1.55-4-1.71-6.09-.27-3.49,1.18-4.91,5.14-4.9,10,0,19.52,2.43,29.17,4.2,1.29.24,1.55.87,1.48,1.89A29.22,29.22,0,0,0,931.27,192.27Z" transform="translate(0.39 6.32)"/><path class="cls-7" d="M767.42,155.42c5.36,4.65,10.47,9.11,15.61,13.53,1,.85.64,1.26-.42,1.66l-21.05,7.94c-2.46.93-2.95-1.27-4.26-2.11-.85-.55-2.2-1.17-1.34-2.54Z" transform="translate(0.39 6.32)"/><path class="cls-7" d="M794.42,161.24c.06.6-7.74,7.37-8.19,7.18a5.85,5.85,0,0,1-1.37-1c-4.85-4.21-9.64-8.46-14.55-12.61-1.28-1.08-1.19-1.7.05-2.67,2.32-1.81,4.36-5.06,6.79-5.26s4.48,3.28,6.7,5.14c3.2,2.66,6.28,5.44,9.41,8.17C793.68,160.55,794.09,160.94,794.42,161.24Z" transform="translate(0.39 6.32)"/><path class="cls-6" d="M843.16,177.4c-5.29-4.84-8.73-10.51-12.48-16-3.2-4.69-3.19-4.7,2.75-6.44,4.15-1.22,4.14-1.21,6.4,2.17,2.59,3.86,4.22,7.85,3.41,12.5C842.8,172.16,843.16,174.8,843.16,177.4Z" transform="translate(0.39 6.32)"/><path class="cls-8" d="M890.47,126.42a3.61,3.61,0,0,1,2,1.24,16.06,16.06,0,0,1,4.91,9.39c.29,1.59,1.1,2.21,2.76,2.57,2,.45,4,1.14,6,1.72.93.27,1.49.56,1.15,1.64-.45,1.4-1.22.32-1.8.29s-.93-.34-1.41-.42c-5.67-1-10-3-10.2-8.85-.09-2.16-2-3.94-3.9-5.44-.41-.32-1.1-.62-.5-1.25C889.82,127,890.18,126.69,890.47,126.42Z" transform="translate(0.39 6.32)"/><path class="cls-5" d="M786.78,150.54c5.31,3.13,10.49,6.45,16.81,8a2.84,2.84,0,0,1-.32.66c-3.74,3.39-3.75,3.4-7.42.17q-4.77-4.2-9.51-8.41Z" transform="translate(0.39 6.32)"/><path class="cls-8" d="M970.4,169a77.05,77.05,0,0,1-17.48,2.35c-1.95.07-2.38-.89-2.58-2.21l.18-.14a97.76,97.76,0,0,0,19.87-.86Z" transform="translate(0.39 6.32)"/><path class="cls-9" d="M782.53,126a21.09,21.09,0,0,0,2,17c.28.51,1.11,1.1.33,1.58-1,.58-1.38-.4-1.79-.89-4.9-5.88-4.42-12-1.23-18.34Z" transform="translate(0.39 6.32)"/><path class="cls-8" d="M889,140c-1.61-.23-3.67-.52-5.73-.83-.72-.11-1.44-.32-1.33-1.12s.91-1.07,1.77-1c2.07.26,4.13.59,6.2.85.93.11,1.6.47,1.45,1.3S890.3,140.15,889,140Z" transform="translate(0.39 6.32)"/><path class="cls-10" d="M782.1,147.24l-3.69-3.06c-.47-.39-.81-.76-.14-1.26s1.07-.23,1.44.26l2.82,3.69Z" transform="translate(0.39 6.32)"/><path class="cls-9" d="M784.54,145.2c.13-.25.19-.56.38-.65a1,1,0,0,1,.79,0c1.31,1.08,2.61,2.15,3.81,3.31a.51.51,0,0,1-.61.79C787,148,785.84,146.57,784.54,145.2Z" transform="translate(0.39 6.32)"/><path class="cls-7" d="M970.4,169v-.86l5.48-1.18,0,0C974.42,168.41,972.35,168.57,970.4,169Z" transform="translate(0.39 6.32)"/><path class="cls-7" d="M975.87,167c.07-.38.37-.52.77-.49.09,0,.17.18.26.29l-1,.22Z" transform="translate(0.39 6.32)"/><path class="cls-11" d="M891.15,181.57l.23.55-.7-.09Z" transform="translate(0.39 6.32)"/><path class="cls-10" d="M786.18,150l.6.52-.44.38-.61-.53Z" transform="translate(0.39 6.32)"/><path class="cls-10" d="M782.53,146.87l.58.55c-.14.11-.28.22-.4.33l-.6-.51A5,5,0,0,1,782.53,146.87Z" transform="translate(0.39 6.32)"/><path class="cls-10" d="M783.31,148.26l-.6-.51c.12-.11.26-.22.4-.33l.58.55Z" transform="translate(0.39 6.32)"/><path class="cls-10" d="M783.93,148.73l-.61-.48.37-.28.58.55Z" transform="translate(0.39 6.32)"/><path class="cls-10" d="M784.53,149.31l-.6-.58.34-.21.63.5Z" transform="translate(0.39 6.32)"/><path class="cls-10" d="M784.9,149l.64.5c-.14.11-.27.23-.4.35l-.61-.56Z" transform="translate(0.39 6.32)"/><path class="cls-10" d="M785.54,149.52l.63.5-.44.37-.59-.52C785.27,149.75,785.4,149.63,785.54,149.52Z" transform="translate(0.39 6.32)"/><path class="cls-5" d="M1191.73,512.1c-4-5.54-7.55-10.39-11.06-15.25a49,49,0,0,0-2.9-4c-8.36-9.41-10.9-20.42-11.2-31.88-.4-15.37.33-30.71,4.7-45.72,1.31-4.48,2.65-9,5.84-12.88,4.78-5.8,11.61-8.17,19.47-8.8,1.9-.15,3.84,0,5.75-.12,9-.65,14.68,3.52,18.5,10a36,36,0,0,1,4,27.36,34.07,34.07,0,0,0-.67,8.1c0,9.64.33,19.31-3,28.68a4.42,4.42,0,0,0,.44,3.08c3.79,10.52,7.7,21,10.56,31.76.44,1.65.3,2.81-1.19,4-2,1.56-3.76,4.36-5.9,4.59-1.74.18-3-3.24-4.74-4.91a46.07,46.07,0,0,0-7.82-6.57c-6.62-4.12-12.64-2.93-17.89,2.75C1192.18,504.84,1191.58,508,1191.73,512.1Zm-7.14-36.53a82.13,82.13,0,0,0,14.55-5.76.82.82,0,0,0,.26-1.37,1,1,0,0,0-1.3-.36c-4.56,2.05-9.26,3.83-14,5.49-.64.22-.94.7-.64,1.28A1.21,1.21,0,0,0,1184.59,475.57Zm5.61-9c-.34-1.32-1.29-1-2.3-.68A22.75,22.75,0,0,0,1177,473c-.55.63-1.3,1.33-.3,2s1.68-.06,2.22-.71a20.86,20.86,0,0,1,9.72-6.32C1189.38,467.71,1190.16,467.47,1190.2,466.59Zm4.92-.5c2.13-.36,3.7-.66,5.28-.89.82-.12,1.29-.44,1.19-1.2s-.67-1.07-1.48-.93c-1.67.28-3.32.6-5,.93-.83.17-1.16.68-.9,1.38A1.14,1.14,0,0,0,1195.12,466.09Z" transform="translate(0.39 6.32)"/><path class="cls-5" d="M1190.65,551.47c-1.87,4-3.55,7.76-5.37,11.46-1,2.06-5.07,3-8.28,1.9-4.8-1.6-8.18-4.75-11.34-8.08a113.8,113.8,0,0,1-25.39-41.45c-3.42-9.9-7.24-19.69-9.87-29.78-2.12-8.16-4-16.46-.45-24.62,3.38-7.69,8.42-14.48,17.87-17.51a22.23,22.23,0,0,1,14.19,0c1.85.63,2.42,1.47,2.29,3.13a114.31,114.31,0,0,0,0,18.41c.85,9.76,3.35,18.92,9.82,27.22,5.23,6.72,10.72,13.39,13.88,21.17a28.65,28.65,0,0,1,1.65,4.77c1.37,6.45,5.49,11.81,9,17.4a2.73,2.73,0,0,1-.14,3.55c-1.93,2.77-3.72,5.62-5.41,8.51a3.57,3.57,0,0,1-3.18,1.92c-4.42.42-8.83,1-12.6,3.34-2.63,1.6-3.56,4.1-2.38,6.45s3.23,3,5.9,2.82c1-.07,2.27,0,2.25-1.21s-1.19-.92-2.09-.94c-1.75-.05-3.52-.14-4-2.05s.73-2.95,2.48-3.74A39.52,39.52,0,0,1,1190.65,551.47Zm-19.86-25.39c-.08-.91-.75-1.23-1.65-1.07a24.77,24.77,0,0,0-3.76.88c-3,1-6.07,1.88-8.2,4.15-.53.56-1,1.2-.12,1.83a1.21,1.21,0,0,0,1.61-.12c2.86-2.53,6.63-3.46,10.36-4.44C1169.82,527.1,1170.56,526.87,1170.79,526.08Zm-6,8.48a79.36,79.36,0,0,0,13.63-5.43.85.85,0,0,0,.22-1.39,1.19,1.19,0,0,0-1.58-.29,115.2,115.2,0,0,1-12.84,5.19c-.59.2-1,.66-.68,1.27A1.26,1.26,0,0,0,1164.79,534.56Z" transform="translate(0.39 6.32)"/><path class="cls-12" d="M790.15,184.54c6.1,38.59,36,69,69.63,86.39,35.27,18.28,75.13,24.48,114.45,25.43,68.08,1.65,136.12-11.57,200.25-33.86,65.36-22.71,127.89-53.05,182.26-96.34a486.1,486.1,0,0,0,44.3-40.45,371,371,0,0,1,47.54-40.4A543.51,543.51,0,0,1,1548.66,28,372.9,372.9,0,0,1,1691-3.21c66-1.2,130.93,20.23,182.12,62.14,25.51,20.88,47.62,47.87,55.46,80.5C1939,183,1920.85,226.34,1898.29,263c-12,19.37-25.49,37.68-39.21,55.82-9.43,12.46-20,23.77-29.65,36-22.62,28.73-40.67,61.5-53.78,95.6-12.66,32.92-21.56,69.29-17.8,104.77,3.4,32.08,18.83,59.47,46.27,76.9,26.31,16.71,68.08,29.76,96,9.52,19.71-14.27,28.68-43.09,24.09-66.55a75.5,75.5,0,0,0-17.2-34.36c-1.27-1.46-3.38.67-2.13,2.12,17.86,20.68,22,48.3,11.28,73.18-6.68,15.4-18.78,27.19-35.43,31-17.74,4-36.9.13-53.53-6.48-17-6.76-33.33-17.07-45.1-31.28-10.27-12.4-16.59-27.54-19.66-43.26-6.75-34.54.75-71,12.08-103.78a371.59,371.59,0,0,1,51.92-98.54c8.57-11.63,18.74-21.82,27.55-33.25,13.26-17.2,26.35-34.61,38.38-52.69,22.48-33.76,43.1-72.69,42.2-114.38-.71-33.5-16.58-63.73-39.2-87.74C1856,33.76,1798.59,5.6,1742.29-2.9c-57.79-8.74-118.5-.2-173.34,19.42-21.16,7.57-41.63,17.65-61.38,28.3-36.91,19.91-73.1,43.74-103.12,73.21-13,12.74-25.48,25.7-39.4,37.46a501.5,501.5,0,0,1-55.31,40.37,602.28,602.28,0,0,1-98.34,49.81c-64.08,25.61-131.67,43.57-200.78,47.18-67.2,3.51-145.79-4.18-192.76-58-12.67-14.53-21.79-31.93-24.82-51.07-.3-1.9-3.19-1.1-2.89.8Z" transform="translate(0.39 6.32)"/><path class="cls-3" d="M1137.17,7.25h-7.91c12.1,4.91,25.31,6.05,38.24,8,23.29,3.44,46.7,6.16,70.13,8.77q25.23,2.81,50.47,5.56c1,.11,2.49.7,2.61-.85.09-1.19-1.29-1.14-2.26-1.25-25.33-2.85-50.67-5.6-76-8.56-11.39-1.33-22.8-2.59-34.09-4.53C1164.41,12.66,1150.54,10.92,1137.17,7.25Z" transform="translate(0.39 6.32)"/><path class="cls-4" d="M813,601a6,6,0,0,1,1.7.23l.79-.87h-2.9c-.22.25-.46.48-.68.73A7.39,7.39,0,0,1,813,601Z" transform="translate(0.39 6.32)"/><path class="cls-13" d="M831,84c-.13-.76,0-1.48,1-1.63a1.19,1.19,0,0,1,1.39,1.11A92.41,92.41,0,0,0,839.29,103a1.15,1.15,0,0,1-.79,1.73c-.8.22-1.27-.31-1.54-1A93.21,93.21,0,0,1,831,84Z" transform="translate(0.39 6.32)"/><path class="cls-13" d="M1299.94,440.36a40,40,0,0,1-12.12-2c-.9-.32-1.78-.64-1.37-1.66s1.5-.68,2.28-.4a32.71,32.71,0,0,0,15.1,1.39c.9-.1,1.93-.35,2,.86s-.85,1.23-1.79,1.34Z" transform="translate(0.39 6.32)"/><path class="cls-13" d="M1295.17,453.61c-4.1-.07-7.85-.86-10.71-3.6-.68-.67-1.84-1.49-.57-2.44s1.71.32,2.34.88c2.68,2.43,6.1,2.91,9.73,2.8.9,0,1.8-.21,2.7-.27s2-.37,2.3.69c.31,1.22-.87,1.4-1.9,1.53C1297.77,453.35,1296.47,453.47,1295.17,453.61Z" transform="translate(0.39 6.32)"/><path class="cls-13" d="M851.75,110.06c.1.73.07,1.34-.83,1.54a1.17,1.17,0,0,1-1.5-1,51.29,51.29,0,0,0-6.15-13.34,1,1,0,0,1,.47-1.58c.88-.48,1.33.06,1.68.59A48.14,48.14,0,0,1,851.75,110.06Z" transform="translate(0.39 6.32)"/><path class="cls-13" d="M1301.77,433.85c-2.42.07-5.14-.17-7.77.64-.75.23-1.66.45-2.08-.41s.33-1.33,1.12-1.55c4.82-1.29,9.71-1,14.6-.41.6.07,1.13.47,1,1.09s-.75,1-1.54.93C1305.45,434.06,1303.75,434,1301.77,433.85Z" transform="translate(0.39 6.32)"/><path class="cls-13" d="M848.58,118.26a1.08,1.08,0,0,1-.75,1,1.13,1.13,0,0,1-1.33-.31,45.33,45.33,0,0,1-5.89-8.15,1,1,0,0,1,.32-1.41,1.07,1.07,0,0,1,1.55.21c2,2.7,4,5.41,5.93,8.13A1.64,1.64,0,0,1,848.58,118.26Z" transform="translate(0.39 6.32)"/><path class="cls-5" d="M819.65,10.72c-.68-.68-1.38-1.34-2.09-2H773.83c-3.63,13.86-7.65,27.64-10.5,41.65-1.32,6.46-3.35,13-2,19.56,3.2,15.79,6.76,31.53,10.42,47.24.94,4,2.28,8.13,5.95,11.69a35.65,35.65,0,0,1,6.53-10.93A258,258,0,0,1,805.56,97.1a9.07,9.07,0,0,0,3-6.06,46.73,46.73,0,0,0-3.09-23.59c-2.07-5.13-1.63-9,2.86-13.38,8.78-8.53,12.9-19.53,18.65-29.64.93-1.63.41-3.28-.39-4.82A36.83,36.83,0,0,0,819.65,10.72ZM800.83,58a1.33,1.33,0,0,1-1.8-.47c-.45-.58-.76-1.24-1.18-1.83-2.36-3.35-5.4-5.89-10.14-6.39-.94-.11-1.94-.23-1.67-1.36.22-.93,1.18-.75,1.74-.76,5.22.22,12.24,5.23,13.41,9.4C801.33,57.06,801.48,57.61,800.83,58Z" transform="translate(0.39 6.32)"/><path class="cls-5" d="M892.83,8.72a54.67,54.67,0,0,0,4.39,7.55c.48.72,1.32,1.65,0,2.25s-1.69-.54-2.18-1.25a49.37,49.37,0,0,1-4-6.75c-.36-.78-.61-1.36-.82-1.8h-3.58l-.48.22c-3.47,1.6-6.95,3.21-10.53,4.61-12.24,4.76-25.34,7-38.35,9.4-5.61,1-8.8,3.08-11.09,7.69-4.74,9.56-9.54,19.22-17.74,27.08-2,2-2.25,3.66-1.5,6.08,2.36,7.61,5.21,15.16,4.49,23.23-.12,1.34,0,2.69,0,4.54,3.43-3.14,6.57-5.94,9.61-8.83,6.11-5.81,12.9-10.67,22.24-11.82,5.65-.7,10.24-2.82,13.64-6.82a34.2,34.2,0,0,1-11.25-4c-.75-.4-1.37-.79-.82-1.64s1.09-.6,1.78-.26a36.15,36.15,0,0,0,9,3.49c1.13.21.77,1.63,2,1.6,3.45-3.31,6.73-6.78,10.37-9.92Q893.9,31,919.8,8.72Zm-52,47.2a1,1,0,0,1-1.33-.13,36.78,36.78,0,0,1-7.3-8,.92.92,0,0,1,.37-1.39,1.05,1.05,0,0,1,1.36.11,84.79,84.79,0,0,0,7.27,8.05c.12.12.14.32.24.6A4.06,4.06,0,0,1,840.85,55.92Z" transform="translate(0.39 6.32)"/><path class="cls-5" d="M976.85,8.72,937.73,43.79c-.76.68-1.68,1.68-2.74.6-.9-.93.4-1.56,1-2.13q18.69-16.78,37.41-33.54H923.26q-27,23.33-54,46.68A153,153,0,0,0,857,67.35a3.39,3.39,0,0,1,.34.31c28.4-4.77,56.27-11.14,83.22-20.37a8.65,8.65,0,0,0,2.91-1.84q21-18.37,42.08-36.73Z" transform="translate(0.39 6.32)"/><path class="cls-8" d="M915.15,117a7.72,7.72,0,0,1,.82.26c6.18,2.56,11.69,5.85,15.59,10.88.57.73,1.36,1.55.26,2.29-.88.6-1.49-.17-1.92-.74-3.75-4.9-9-8.19-15.06-10.63-.69-.28-1.67-.49-1.49-1.39C913.47,117.07,914.19,116.94,915.15,117Z" transform="translate(0.39 6.32)"/><path class="cls-13" d="M856.9,64.1a34.2,34.2,0,0,1-11.25-4c-.75-.4-1.37-.79-.82-1.64s1.09-.6,1.78-.26a36.15,36.15,0,0,0,9,3.49c1.13.21.77,1.63,2,1.6Z" transform="translate(0.39 6.32)"/><path class="cls-4" d="M781.83,125.33a4.42,4.42,0,0,1,2.07-3.11c.71,1.77-1.41,2.43-1.37,3.73Z" transform="translate(0.39 6.32)"/><path class="cls-9" d="M785,121.66l-.53-.31a2.92,2.92,0,0,1,.59-.4c.07,0,.25.15.39.23Z" transform="translate(0.39 6.32)"/><path class="cls-9" d="M950.1,44c-.45.11-1.15.42-1.3.29-.53-.5.28-.62.52-.92Z" transform="translate(0.39 6.32)"/><path class="cls-14" d="M857.29,67.66c-.24.19-.5.3-.74,0a3.5,3.5,0,0,1,.4-.32A3.39,3.39,0,0,1,857.29,67.66Z" transform="translate(0.39 6.32)"/><path class="cls-5" d="M1231.48,491.83c-2.16-6.08-3.8-12.06-6.46-17.69-2.2-4.67-.55-8.88.22-13.3a18.29,18.29,0,0,0,.64-4.42c-.66-8.63,3.87-16,7.48-23.57q44.09-92.48,88.13-185c1-2,1.74-2.35,4-1.43,5.86,2.32,11.84,4.4,17.83,6.48,1.7.59,2,1.18,1.25,2.69q-25,52.38-50,104.8a3.69,3.69,0,0,1-1.74,2.06c-8.32,4-14,10.22-19,17-12.09,16.26-19.81,33.9-21.82,53.25-.5,4.79-.15,9.65-.09,14.48a11.75,11.75,0,0,1-1.2,5.36c-5.87,12.22-11.66,24.48-17.5,36.72A4.93,4.93,0,0,1,1231.48,491.83Z" transform="translate(0.39 6.32)"/><path class="cls-5" d="M1139.79,576.67a66.87,66.87,0,0,1-16.94-9.71c-9-6.69-14.06-15.46-17.38-25.11-2.37-6.87-5.71-13.5-7.44-20.53-2.5-10.16.84-19.36,7.54-27.58,4.58-5.62,13.94-7.8,21.29-5.8,1.47.4,1.59,1.38,2,2.4,5,14.11,9.79,28.29,16.1,42.05,3.49,7.61,9.37,13.86,14.27,20.66,2.45,3.42,5,6.79,7.73,10.06a4,4,0,0,1,.7,4.17c-.38,1.35-.84,1.37-1.92.52q-2.34-1.87-4.82-3.6a5.12,5.12,0,0,0-6.54,0c-4.19,3-9.23,3.78-14.49,3.75-3.61,0-4.35.82-3.08,3.74a20.6,20.6,0,0,0,1.35,2.35C1138.52,574.7,1139,575.38,1139.79,576.67Zm-9-25.35a3.47,3.47,0,0,0-.34-.32c.29-.34.58-.69.89-1,.63-.66,1.65-1.31.53-2.18-1-.74-1.67.06-2.29.6-2.14,1.85-4.25,3.74-6.37,5.61-.62.55-1,1.17-.38,1.85s1.24.29,1.93,0c5-1.75,10-3.68,14.83-5.87.75-.35,1.54-.74,1.13-1.58-.54-1.12-1.44-.53-2.25-.2Z" transform="translate(0.39 6.32)"/><path class="cls-5" d="M1248.29,394.83c-5.43-8.54-10.94-17-16.18-25.59a41.18,41.18,0,0,0-8.81-10.19c-7.82-6.57-14.49-13.93-17.24-23.39a16.56,16.56,0,0,1-.58-2.58c-.75-6.37,3-10.2,10.41-10.66a55.12,55.12,0,0,1,22.41,3.64c11.76,4.27,22.32,10.13,31.27,18.11,1.76,1.56,2,3,1,5.07-7,14.36-13.78,28.78-20.67,43.17A4.37,4.37,0,0,1,1248.29,394.83Zm-7.17-29.54a34.13,34.13,0,0,0,18.83-5.47c.79-.49,1.52-1.07.8-1.91s-1.45-.28-2.14.1-1.33.78-2,1.15c-7.62,4-15.63,5.3-24.25,2.75-.79-.23-1.94-1.2-2.43.28-.39,1.21.89,1.4,1.77,1.72A28.13,28.13,0,0,0,1241.12,365.29Z" transform="translate(0.39 6.32)"/><path class="cls-6" d="M1207,525.73c-3.82.08-6.49-.9-8.11-3.7-.81-1.4-2-2.64-2.93-4s-3.19-3.3-2.75-4.16c2-3.89.22-8.81,5-12,4.23-2.85,7.52-3.55,12.08-1.09,5.18,2.8,8.65,7,12.13,11.23.72.86.37,1.37-.38,2a94.32,94.32,0,0,0-11.85,10.86C1209.15,526,1207.84,525.68,1207,525.73Z" transform="translate(0.39 6.32)"/><path class="cls-7" d="M1361.24,220.11c-.2.5-.4,1.09-.67,1.65-2.18,4.62-4.42,9.21-6.54,13.84-.65,1.41-1.3,1.85-3.1,1.17-6.08-2.32-12.24-4.51-18.4-6.66-1.62-.57-2.16-1.09-1.35-2.66,2.38-4.64,4.5-9.37,6.8-14,1.33-2.71,2.59-3.14,5.67-2,4.86,1.72,9.68,3.48,14.52,5.23C1359.93,217.24,1361.43,218.06,1361.24,220.11Z" transform="translate(0.39 6.32)"/><path class="cls-6" d="M1351.85,240a6.6,6.6,0,0,1-.28.68c-1.51,3.15-3.06,6.28-4.5,9.46-.49,1.07-1,1.26-2.25.81-6.5-2.39-13-4.71-19.56-7-1.13-.39-1.67-.76-1.09-1.91,1.58-3.12,3.12-6.26,4.52-9.45.51-1.13,1.1-1.2,2.24-.79,6.51,2.36,13,4.66,19.55,7C1351.05,239,1352,239.05,1351.85,240Z" transform="translate(0.39 6.32)"/><path class="cls-6" d="M1139.07,570.16c6.31-.19,12.26-.84,17.18-4.45a2.35,2.35,0,0,1,3,0c1.9,1.43,3.75,2.92,5.67,4.33,1,.74.51,1.3,0,2-4.39,5.41-13.42,8-20.76,5.91-.93-.26-1.36-.49-1.66-1.45C1141.8,574.37,1139.71,572.72,1139.07,570.16Z" transform="translate(0.39 6.32)"/><path class="cls-4" d="M787.78,47.14c5.22.22,12.24,5.23,13.41,9.4.14.52.29,1.07-.36,1.41a1.33,1.33,0,0,1-1.8-.47c-.45-.58-.76-1.24-1.18-1.83-2.36-3.35-5.4-5.89-10.14-6.39-.94-.11-1.94-.23-1.67-1.36C786.26,47,787.22,47.15,787.78,47.14Z" transform="translate(0.39 6.32)"/><path class="cls-4" d="M841.46,55.16a4.06,4.06,0,0,1-.61.76,1,1,0,0,1-1.33-.13,36.78,36.78,0,0,1-7.3-8,.92.92,0,0,1,.37-1.39,1.05,1.05,0,0,1,1.36.11,84.79,84.79,0,0,0,7.27,8.05C841.34,54.68,841.36,54.88,841.46,55.16Z" transform="translate(0.39 6.32)"/><path class="cls-3" d="M973.44,8.72Q954.72,25.48,936,42.26c-.64.57-1.94,1.2-1,2.13,1.06,1.08,2,.08,2.74-.6L976.85,8.72Z" transform="translate(0.39 6.32)"/><path class="cls-13" d="M1184.59,475.57a1.21,1.21,0,0,1-1.15-.72c-.3-.58,0-1.06.64-1.28,4.76-1.66,9.46-3.44,14-5.49a1,1,0,0,1,1.3.36.82.82,0,0,1-.26,1.37A82.13,82.13,0,0,1,1184.59,475.57Z" transform="translate(0.39 6.32)"/><path class="cls-4" d="M1190.2,466.59c0,.88-.82,1.12-1.57,1.37a20.86,20.86,0,0,0-9.72,6.32c-.54.65-1.25,1.36-2.22.71s-.25-1.38.3-2a22.75,22.75,0,0,1,10.91-7.07C1188.91,465.61,1189.86,465.27,1190.2,466.59Z" transform="translate(0.39 6.32)"/><path class="cls-13" d="M1195.12,466.09a1.14,1.14,0,0,1-.89-.71c-.26-.7.07-1.21.9-1.38,1.66-.33,3.31-.65,5-.93.81-.14,1.38.18,1.48.93s-.37,1.08-1.19,1.2C1198.82,465.43,1197.25,465.73,1195.12,466.09Z" transform="translate(0.39 6.32)"/><path class="cls-4" d="M1170.79,526.08c-.23.79-1,1-1.76,1.23-3.73,1-7.5,1.91-10.36,4.44a1.21,1.21,0,0,1-1.61.12c-.83-.63-.41-1.27.12-1.83,2.13-2.27,5.23-3.14,8.2-4.15a24.77,24.77,0,0,1,3.76-.88C1170,524.85,1170.71,525.17,1170.79,526.08Z" transform="translate(0.39 6.32)"/><path class="cls-13" d="M1164.79,534.56a1.26,1.26,0,0,1-1.25-.65c-.31-.61.09-1.07.68-1.27a115.2,115.2,0,0,0,12.84-5.19,1.19,1.19,0,0,1,1.58.29.85.85,0,0,1-.22,1.39A79.36,79.36,0,0,1,1164.79,534.56Z" transform="translate(0.39 6.32)"/><path class="cls-4" d="M1130.83,551.32l7.68-3.06c.81-.33,1.71-.92,2.25.2.41.84-.38,1.23-1.13,1.58-4.82,2.19-9.78,4.12-14.83,5.87-.69.24-1.38.52-1.93,0s-.24-1.3.38-1.85c2.12-1.87,4.23-3.76,6.37-5.61.62-.54,1.33-1.34,2.29-.6,1.12.87.1,1.52-.53,2.18-.31.33-.6.68-.89,1-.26,0-.58.11-.37.4C1130.16,551.47,1130.58,551.35,1130.83,551.32Z" transform="translate(0.39 6.32)"/><path class="cls-13" d="M1241.12,365.29a28.13,28.13,0,0,1-9.44-1.38c-.88-.32-2.16-.51-1.77-1.72.49-1.48,1.64-.51,2.43-.28,8.62,2.55,16.63,1.24,24.25-2.75.69-.37,1.34-.78,2-1.15s1.5-.84,2.14-.1,0,1.42-.8,1.91A34.13,34.13,0,0,1,1241.12,365.29Z" transform="translate(0.39 6.32)"/><path class="cls-15" d="M1130.83,551.32c-.25,0-.67.15-.71.08-.21-.29.11-.35.37-.4A3.47,3.47,0,0,1,1130.83,551.32Z" transform="translate(0.39 6.32)"/></svg>