<svg id="Capa_3" data-name="Capa 3" xmlns="http://www.w3.org/2000/svg" xmlns:xlink="http://www.w3.org/1999/xlink" viewBox="0 0 1920 654.11"><defs><style>.cls-1{fill:url(#Degradado_sin_nombre_97);}.cls-2,.cls-6{fill:none;}.cls-2{stroke:#000;stroke-miterlimit:10;}.cls-3{fill:#2f3b40;}.cls-4{fill:#303c41;}.cls-5{fill:#354046;}.cls-7{fill:#2197a3;}.cls-8{fill:#d1d1d1;}.cls-9{fill:#f2f3f3;}.cls-10{fill:#fefefe;}.cls-11{fill:#91e1a7;}.cls-12{fill:#fcfcfc;}.cls-13{fill:#f90066;}.cls-14{fill:#fcfdfd;}.cls-15{fill:#ddf5e4;}.cls-16{fill:#fff;}.cls-17{fill:#91e1a8;}</style><linearGradient id="Degradado_sin_nombre_97" x1="960" y1="3156.33" x2="960" y2="-1298.22" gradientUnits="userSpaceOnUse"><stop offset="0.58" stop-color="#f07868"/><stop offset="0.62" stop-color="#ecb06f"/><stop offset="0.73" stop-color="#ebb970" stop-opacity="0.6"/></linearGradient></defs><title>Banner3</title><rect class="cls-1" y="4.11" width="1920" height="650"/><path class="cls-2" d="M602.9,650.22l-3-3c-1-1-3-1-4-2-23-18-39-41-49-68-3-10-6-20-8-31-2-13-3-25-4-37-2-31,1-60,6-91,4-32,7-61,13-93,5-25,10-47,16-71,17-64,35-124,62-183,7-25,21.66-48,33.76-71" transform="translate(0.1 1.85)"/><path class="cls-2" d="M835.94,650.24a75.23,75.23,0,0,0,8-13c16-33,28-67,40.73-101.27,1.08,1.64-5.84,16.11,0,0,.27,3.27,1.27,6.27-1.73,8.27a27.63,27.63,0,0,1,1.73-8.27c5.85,10.26-.48,1.46,0,0,9.27,15.27,23.27,25.27,38.27,35.27l6,6c2,2,5,3,7,4-2.91-16.58-4.77-.2,0,0-5-21-5-43-16-62-6-11-16-20-21-31,3-26,17-52,3-77-3-6-11-7-18-5-2,1-5,2-7,3-2,2-3,3-5,4-1,0-4,1-5,0-8-10-18-17-29-23a57.31,57.31,0,0,1-11-11c-28-49-59-91-89-140-5-8-15-4-21,1a10.82,10.82,0,0,0-2,13c17,33,36,63,57,95,4,7,6,13,11,19-10,12-19,24-28,37-7,10-13,19-20,27-8,8-20,8-30,11-2,1-4,3-6,4-8,3-16,6-21,13-3,6-3,12-3,18,0,1-1,2-2,3-7,2-15,3-20,9-8,12-9,25-10,39-1,9-5,19-12,25-9,32,8,63,13,95,.15.67.31,1.34.47,2" transform="translate(0.1 1.85)"/><path class="cls-2" d="M1304.72,650.22c9.18-27,18.18-55,21.18-84,1-17,2-34,0-52-3-24-12-46-13-70-1-14,7-26,12-40,1-6,1-12-5-16-8-5-16-5-23.75-2.12,1.37-3.41,2.25-7.15,4.67-10-.21,3.41-1.41,8.27-4.67,10,9.53-22.3,18.54-44.82,27.6-67.32s18.12-44.87,27.84-67q3.6-8.22,7.33-16.38c1.94-4.24-.87-8.47-4.45-11a24.84,24.84,0,0,0-11.74-4.27c-5.73-.61-8.82-.27-11.71,5.27-5.41,10.35-9.33,21.72-13.72,32.53q-6.9,17-13.62,34.08c-9,22.69-17.91,45.41-27.27,67.95q-1.79,4.29-3.59,8.57c-1.7-1,.89-2,0,0a90,90,0,0,0-31.51-22.62c-9.73-4.13-27.07-9.87-33.64,2.2-2.45,4.51-2.09,10-1,14.84,1.45,6.37,7,10.92,11,15.94a290.92,290.92,0,0,1,23.9,34.76c3.12,5.33,8.47,12,5.5,18.34-3.75,7.94-8,15.63-10.52,24.08a9.26,9.26,0,0,1,.51-3.42,32.79,32.79,0,0,1-.51,3.42c-.38-.9-2.11-5.32,0-5.26s.44,4.27,0,5.26c-5-7.74-6.69-17.2-12-24.73-9.66-13.06-29.66-15.06-41.66-4.06-13,13-12,31-14,48-9.18-3,1.66-10.85,0,0-8-2-17-2-24,4-13,11-16,30-10.7,45-2-1.18-2.85-4.36-2.68-6.56,1.55,1.82,2,4.35,2.68,6.56-1.61-.51-7-3.07-5.49-5.41,2.47-3.84,5.33,4,5.49,5.41a12.39,12.39,0,0,1-4.29-.88c1.25-.42,3.43-.21,4.29.88-10.3-1-22.3,2-27.3,12a44.67,44.67,0,0,0-3,28c3,9,8,17,9,27,2,20,3,39,4.27,58.53" transform="translate(0.1 1.85)"/><path class="cls-2" d="M791.51.74c-4.61,18.48-8.61,36.48-8.61,54.48a167.29,167.29,0,0,0,16,79c2,5,4,10,0,15-3,3-6,5-9,8a30.39,30.39,0,0,1-5,7c-6,8-9,17-11,27,8.28-1.09,1.31-3.47,0,0,19-3,35-13,51-24,2-1,5-2,7-3,7-3,15-1,19,5s4,14,9,19c3,3,8,7,13,5,13-7,27-6,39,2,2,1,5,1,7,1,1,0,1,2,2,2,13,4,25,8,38,5,9-1,11-13,8-21,8.42-1.49,1.08,5.25,0,0,12-2,28-2,32-17,3-14-6-27-20-29.75a5.14,5.14,0,0,1,2.2.3,1.82,1.82,0,0,1-2.2-.3c13-.25,25,2.75,37,6.75,19,7,38,15,57,22,14,4,28,6,42,8,31,2,63-1,92-15,3-1,5-2,8-2,16,3,30,7,46,10,60,15,117,26,175,40,17,18,24,42,32,65,5,19,9,38,9,57,1,19,2,38-2,58-2,18-5,34-8,52,0,2-2,4-3,6-4,10-3,20-7,30-2,4-3,7-5,11-4,11-5,21-9,32a841.26,841.26,0,0,1-37,81c-10,18-20,35-31.71,51.87" transform="translate(0.1 1.85)"/><path class="cls-3" d="M1463.68,208.81c-.46-.13-.93-.23-1.4-.33-77.37-17.37-154.68-34.94-232.26-51.34-6.84-1.45-13.54-3.21-20.72-.8a267.06,267.06,0,0,1-38.39,9.6c-15.71,2.78-31.5,4.67-47.47,4.14-25.14-.83-48.73-8.21-71.78-17.64-.33-.14-.72-.26-.57-1,6.53-.7,13.09-1.87,19.18-4.51,5.85-2.55,11.89-3.39,18.16-4a113.45,113.45,0,0,0,56.34-21.47c.79-.57,1.83-1.15,1.11-2.26s-1.71-.26-2.44.29a99.35,99.35,0,0,1-14.25,8.81c-21.27,11-43.75,15.16-67.53,11.94-13.61-1.84-26.66-6.06-39.82-9.74-18.64-5.22-37-11.71-56.23-14.45-14.38-2-28.65-2.55-42.59,2.48-6.73,2.43-13.56,5.08-18.34,10.59a73.41,73.41,0,0,1-21.37,17c-13,6.88-27.12,11-41.07,15.45-10.58,3.38-20.37,1.28-29.15-5.52-.86-.67-2.64-1.4-2.05-2.36.82-1.34,2,.33,2.81.79,10.16,5.35,19.92,3.9,28-4.29a63.86,63.86,0,0,0,6.2-7.62c1.46-2.05,1.53-3.28-1-4.72a22.1,22.1,0,0,1-10.75-14.4,168.14,168.14,0,0,1-3.55-21.38c-.13-1.2.34-2.85-1-3.4-1.6-.68-2.27,1.13-3.12,2-5.6,5.86-11.09,11.83-16.68,17.7-.67.7-1.22,2.6-2.44,1.57-.85-.72.68-1.76,1.32-2.48,12.22-13.79,24.77-27.29,37.8-40.33a19,19,0,0,1,7.58-4.63c3.39-1.11,6.8-2.17,10.27-3,13-3.08,26.11-5.93,39.11-9.09,27-6.54,52.79-16.47,78.32-27.18,2.22-.93,4.44-1.88,6.66-2.83.73-.31,1.55-.74,1.19-1.66s-1.26-1-2.18-.54-1.6.67-2.4,1l-22.73,9.34c-.42.12-1.1.46-1.24.31-.51-.54.27-.68.5-1q18.88-19.07,37.77-38.1H998.3q-20.14,20.15-40.19,40.38a8.12,8.12,0,0,1-2.78,2C929.59,52.31,903,59.31,875.85,64.55c-.23.21-.48.34-.71,0,0,0,.25-.22.39-.34a155.94,155.94,0,0,1,11.76-13.14Q913.06,25.4,938.85-.24h-3.3Q910.8,24.32,886.1,48.89c-3.48,3.46-6.61,7.26-9.91,10.91l-.71.84a18.65,18.65,0,0,1-13,7.5c-8.92,1.26-15.41,6.61-21.25,13-2.89,3.17-5.9,6.25-9.17,9.71,0-2-.1-3.53,0-5,.69-8.87-2-17.17-4.29-25.53-.72-2.67-.52-4.54,1.43-6.69,7.84-8.64,12.42-19.26,17-29.77,2.19-5.07,5.23-7.33,10.59-8.45,12.42-2.6,24.93-5.1,36.62-10.34,3.43-1.54,6.75-3.3,10.06-5.07l.46-.24h-4.78A89,89,0,0,1,884.49,6c-10.91,3.51-22.12,5.92-33.28,8.51-.78.18-1.37.34-1.71-.81-1.62-5.5-4.79-9.89-8.44-13.92h-3.15c.67.72,1.34,1.46,2,2.2a40.53,40.53,0,0,1,6.64,9.77c.76,1.7,1.25,3.51.37,5.3-5.49,11.12-9.43,23.21-17.81,32.59-4.29,4.8-4.71,9.07-2.73,14.71a58.44,58.44,0,0,1,2.94,25.93,10.41,10.41,0,0,1-2.87,6.66,268.43,268.43,0,0,0-20.39,22.9,40.3,40.3,0,0,0-6.24,12c-3.51-3.92-4.79-8.41-5.68-12.85-3.5-17.28-6.9-34.58-10-51.94-1.27-7.21.67-14.39,1.93-21.5,2.73-15.4,6.57-30.55,10-45.79H794a5.12,5.12,0,0,1-.56,0c-3.33,14.77-6.59,29.56-9.63,44.4-1.83,8.93-3.66,18-1.43,27.21.93,3.83,1.52,7.75,2.27,11.63,2.32,12.11,4,24.35,7,36.34,1.13,4.58,2,9.5,5.42,12.92s1.13,8.12,2.89,11.84c-2.42,1.83-2.15,5.3-4.28,7.22a49,49,0,0,0-11.84,16.15c-2,4.46-4.57,8.7-6.86,13-.36.67-1.09,1.63-.87,2.05,1.41,2.73-.88,4.44-1.59,6.57-.26.77-1.13,1.52-.32,2.37s1.76.12,2.58-.29c1.54-.77,3.46-2.55,4.54-2.14,2.3.9,3.73-.36,5.41-1,2.7-1,5.29-2.31,8-3.43,8.07-3.38,16.31-6.48,21.79-13.91a5.33,5.33,0,0,1,.4-.42c.57-.61,1.16-.67,1.68,0,1.42,1.86,2.57.87,3.77-.28,1.4-1.32,2.88-2.57,4.28-3.9a3,3,0,0,1,2.55-1,35.73,35.73,0,0,0,13.72-1.43c1.77-.49,2.59,0,3.42,1.5,2.37,4.31,4.87,8.55,7.36,12.79a50.77,50.77,0,0,0,9.47,12.34,10.33,10.33,0,0,0,9.33,2.7,24.77,24.77,0,0,0,11.74-5.93,3.85,3.85,0,0,1,4.38-.74c15.77,5.43,31.54,10.83,47.58,15.41,6.5,1.86,13.1,3.2,20,2.11s12.27-5.21,11.55-13.54a33.32,33.32,0,0,0-.89-6.57c-.78-2.59.08-3,2.48-3.11,7.95-.37,15.71-1.71,22.8-5.65,5.38-3,7.71-7.37,6.85-13.43a52.88,52.88,0,0,0-1.82-8.46c-2.6-8.37-7.82-14.26-16.48-16.75-.56-.16-1.41.1-1.68-.87,4.85,0,9.67,0,14.49,0a19.9,19.9,0,0,1,6.21,1c24,7.33,47.16,16.94,70.75,25.38a177.59,177.59,0,0,0,79.77,9.42,300.43,300.43,0,0,0,60.73-12.86,18.63,18.63,0,0,1,9.65-.8c8.87,1.83,17.79,3.46,26.63,5.41q87.36,19.24,174.69,38.63c5.21,1.16,10.56,1.85,15.57,3.85,2.94-.12,5.69.93,8.5,1.51,5.76,1.2,11.48,2.55,17.22,3.8.69.16,1.64.62,1.93-.51S1464.46,209,1463.68,208.81ZM810.54,153.64c-1.78-.79-2.93-2.33-4.18-3.84.13-.27.19-.61.37-.71a.81.81,0,0,1,.76,0c1.24,1.17,2.49,2.36,3.63,3.63C811.41,153.09,811.14,153.9,810.54,153.64Zm-3.67-30.5c.07,0,.25.17.37.26l-.43.53-.5-.35A2.93,2.93,0,0,1,806.87,123.14Zm-.56,7.3a7.75,7.75,0,0,1,1.47-3.7c7.1-8.26,14.69-16.06,22.54-24.46a202,202,0,0,0,3.61,21.59,25.1,25.1,0,0,0,10.66,15.25c1.41.95,1.69,1.64.61,3.14-3.89,5.41-8.15,10.44-14.83,12.29C815.69,158.6,803,145.84,806.31,130.44ZM803.78,128a5,5,0,0,1,2-3.41c.67,1.94-1.35,2.67-1.31,4.1a26.23,26.23,0,0,0,1.9,18.72c.27.56,1.06,1.21.31,1.73-.92.65-1.31-.44-1.7-1C800.27,141.66,800.73,134.88,803.78,128Zm.74,49.79-20.1,8.72c-2.35,1-2.82-1.4-4.06-2.31-.82-.61-2.11-1.29-1.29-2.8,3.6-6.67,7.19-13.35,10.95-20.32,5.12,5.12,10,10,14.91,14.88C805.88,176.85,805.54,177.3,804.52,177.74Zm3.46-2.42a5.4,5.4,0,0,1-1.31-1.1c-4.62-4.63-9.2-9.31-13.9-13.87-1.21-1.18-1.13-1.87.06-2.93,2.21-2,4.16-5.57,6.48-5.79s4.28,3.61,6.4,5.65c3,2.94,6,6,9,9,.41.41.79.83,1.12,1.17C815.86,168.09,808.41,175.54,808,175.32Zm16.27-10.18c-3.57,3.74-3.58,3.74-7.08.19q-4.56-4.61-9.09-9.24l-.58-.59-.56-.57-.58-.62c-.19-.2-.38-.42-.57-.63l-.59-.52c-.2-.18-.39-.37-.58-.56L804,152l-3.53-3.36c-.45-.42-.77-.84-.13-1.39s1-.25,1.38.3q1.35,2,2.68,4l.56.61.56.6.55.6.6.56.61.54.61.55c.19.19.39.38.58.58,5.07,3.43,10,7.08,16,8.75A2.8,2.8,0,0,1,824.25,165.14Zm105.14-45.65c.11-.62.8-.76,1.72-.73a4.24,4.24,0,0,1,.78.28c5.9,2.82,11.17,6.44,14.89,12,.54.79,1.3,1.69.25,2.51-.85.66-1.42-.19-1.84-.81-3.58-5.39-8.59-9-14.38-11.69C930.15,120.72,929.21,120.48,929.39,119.49Zm-22.78,10.64c.3-.36.65-.68.93-1a3.38,3.38,0,0,1,1.92,1.36,18.74,18.74,0,0,1,4.7,10.32,3,3,0,0,0,2.63,2.83c2,.49,3.83,1.26,5.74,1.89.88.3,1.42.61,1.09,1.8-.43,1.54-1.16.35-1.72.32a12,12,0,0,1-1.35-.46c-5.42-1.07-9.51-3.25-9.74-9.73-.08-2.37-1.91-4.33-3.72-6C906.7,131.15,906,130.83,906.61,130.13ZM899.4,142c.12-1,.87-1.17,1.69-1.05,2,.29,3.95.65,5.92.93.89.12,1.53.52,1.38,1.43s-1,1-2.25.83c-1.53-.25-3.51-.57-5.47-.91C900,143.07,899.29,142.85,899.4,142Zm-37,34.69c-.42,2.79-.08,5.7-.08,8.55-5.05-5.32-8.33-11.56-11.92-17.59-3-5.15-3-5.16,2.63-7.08,4-1.34,4-1.33,6.12,2.38C861.65,167.17,863.2,171.55,862.43,176.65Zm9.14,14.14a7.39,7.39,0,0,1-4-.45c-1.76-.75-3.33-1.56-2.89-4.17.34-2-.15-4.22-.3-6.85,1.63-6.95-.28-13.63-4.6-19.72-.7-1-.29-1.26.63-1.6,6-2.23,12.24-4.11,18.11-6.82.93-.43,1.65.06,2.41.52a33.67,33.67,0,0,0,5.25,3c4.16,1.54,5.08,4.63,5,8.61a58.17,58.17,0,0,1-.68,9.79C888.91,181.5,880.06,189.64,871.57,190.79Zm57.15,6.38c-5.07-1.55-10.08-3.27-15.15-4.82-1.64-.49-2.58-1.08-3-3-.45-2.23-1.48-4.36-1.63-6.7-.25-3.83,1.13-5.4,4.91-5.38,9.53,0,18.64,2.68,27.86,4.62,1.23.26,1.48,1,1.41,2.07a36.24,36.24,0,0,0,3.35,17.62C940.09,200.72,934.4,198.92,928.72,197.17Zm27.45,4.26c-8.57,1-6.66,2-9.4-6.28a31.29,31.29,0,0,1-1.16-12.29c.1-1.32.07-2.38-1.65-2.81-9.44-2.34-18.86-4.83-28.65-5.13-7.24-.22-9.77,3-8.41,10.15.31,1.59.85,3.15,1.29,4.72.07.2.14.4.22.6l-.67-.1q-9-3-18.09-6c-.71-.24-2-.18-.9-1.6,5-6.62,5.14-14.33,4.58-22.1-.14-2,.26-2.91,2-3.75,7.69-3.65,15.49-6.85,24.08-7.71a14.43,14.43,0,0,1,7.12.64c6.78,2.85,14,4.66,20.29,8.67,9.87,6.31,15.36,15.64,17.87,26.87a28.47,28.47,0,0,1,.62,6.9C965.22,197.41,962.26,200.72,956.17,201.43Zm33-27.68c-1.4,1.56-3.39,1.75-5.25,2.22a64.18,64.18,0,0,1-16.69,2.58c-1.86.08-2.27-1-2.46-2.43-3.4-5.78-6.52-11.76-11.64-16.32-.93-.82-.38-1.53.2-2.23a7.77,7.77,0,0,1,5.2-2.84c7.83-1,15.68-1.79,23.58-2.12,3.14-.12,5,1.17,5.93,4.25a34.49,34.49,0,0,1,1.89,10.45c0,2.68-1.14,4.25-3.91,4.82a96,96,0,0,1-18.37,1.69c-1.45,0-3.12-.23-2.71,2.14a81.41,81.41,0,0,0,19-.93l5.24-1.3a.6.6,0,0,1,.73-.55c.09,0,.17.21.25.32Zm6.94-15.38a31.43,31.43,0,0,1,.65,6.91,8.41,8.41,0,0,1-5.88,7.25c2.52-6.19.73-12-1.19-17.73a6,6,0,0,0-5.51-4.35c-4.66-.54-9.23.34-13.82.75-3.94.36-7.89.6-11.81,1.1a10.53,10.53,0,0,0-7.36,4.14c-.46.63-.69,1.35-1.75.7-5.49-3.41-11.55-5.65-17.85-8.35,5.52-5.22,11.1-9.59,17.84-12.31a23.17,23.17,0,0,1,13.85-1c4.24.9,8.54,1.51,12.81,2.3C987.58,139.93,994.18,146.72,996.06,158.37Z" transform="translate(0.1 1.85)"/><path class="cls-4" d="M935.94,578.74c-3-13.11-6.21-26.17-8.81-39.35a57.2,57.2,0,0,0-9.36-22.07c-6.1-8.79-11.65-18-17.51-26.91a5,5,0,0,1-.82-4.31,277,277,0,0,0,7.14-36c1.24-10.68,1.83-21.37-.83-31.93-2.18-8.62-8.83-13.16-17.67-12.24a29.58,29.58,0,0,0-16.2,7c-1.39,1.16-2.11,1.2-3.44-.16-5.65-5.8-11.39-11.54-18.37-15.82-4.76-2.93-9.44-6-14.21-8.91a14.26,14.26,0,0,1-4.69-4.58q-29.76-46.22-59.61-92.38-16-24.8-32-49.59c-2-3.11-4.32-5.82-8.15-6.39-6.66-1-11.6,2.14-15.37,7.26-3.44,4.68-2.93,9.36.06,14.26q22.13,36.32,44,72.78c7.43,12.3,14.82,24.62,22.31,36.89,1.08,1.76,1.21,2.73-.67,4.13-2.78,2.07-4.9,4.9-7.08,7.61-11.19,13.91-21.32,28.62-32,42.91-9.29,12.42-9.3,12.4-23.94,17.42a240.15,240.15,0,0,0-31.42,13.23c-8.61,4.39-13.37,10.74-12.93,20.59a28.35,28.35,0,0,0,.17,4.62c.51,2.45-.51,2.89-2.74,3.31-11,2.05-19.62,7.08-23.25,18.57-3.76,11.92-5.75,24.18-7.48,36.49a14.15,14.15,0,0,1-2.85,7.34c-4,5.08-7.52,10.54-8.54,17.15a85.44,85.44,0,0,0-1,20.35c1.17,14.46,4.88,28.28,9.22,42,2.88,9.12,5.21,18.37,7.2,27.69a5.2,5.2,0,0,1,2-.4h.3c0-.11,0-.23-.07-.34a325.56,325.56,0,0,0-9-33.44,143.82,143.82,0,0,1-7.63-39.33c-.53-12.35,2.32-24,10.62-33.69a6.84,6.84,0,0,0,1.56-3.63c2-13.34,3.74-26.73,8-39.62a25.23,25.23,0,0,1,24.9-17c24.11,1.1,48.24,1,72.37.42a157.24,157.24,0,0,1,22.24.89c7.5.87,13.43,4.1,17.81,10.46a481.58,481.58,0,0,1,32.52,54.65c4.33,8.49,7.72,17.22,7.8,27a26.76,26.76,0,0,1-4,14.57c-3.7,6-6.12,8.6-9.63,10.5a1.31,1.31,0,0,0-.39.42c-2.73,3.7-6.39,3.71-10.41,2.81-5.55-1.25-5.57-1.17-6.21,4.37-.05.46.08,1-.49,1.21-.75.27-1-.43-1.29-.84a54.81,54.81,0,0,1-5.59-8.78,18.09,18.09,0,0,1-2.37-8.77,26.71,26.71,0,0,0-5-16c-6.79-9.6-14.07-18.86-20.14-29-.79-1.33-1.89-1.34-3.18-1.42-5.88-.35-11.61.83-17.7-.7-10.61-2.68-21.62-3.79-32.46-5.55-5.89-1-11.77-1.93-17.67-2.86-1.52-.24-3.86-2.23-4.36.07-.43,1.92,2.54,2,4.24,2.3,14,2.32,27.92,4.83,42,6.74,8.62,1.16,16.35,3.48,22.07,10.47,8.27,10.08,17.52,19.27,26.44,28.75a12,12,0,0,1,3.32,11.63,44.8,44.8,0,0,1-4,11.42c-5.4,10.24-18.68,16.63-29.82,14.4-5.39-1.07-8.19-4.91-7.47-10.22.15-1.15.23-2.25,1.85-1.06,3,2.19,6.38,2.49,9.92,2,1-.14,2.47-.06,2.29-1.53-.2-1.63-1.66-.9-2.6-.81-4.25.37-8.08-.23-10.78-4a5.35,5.35,0,0,0-1.86-1.31c-3.9-2.1-7.88-4.07-11.71-6.29-2.57-1.5-5-2-7.93-1a13.16,13.16,0,0,1-6.88.18,149.05,149.05,0,0,0-22.33-2.29c-6.8-.16-13.39-2-17.91-7.91-.58-.75-1.08-1.91-2.22-1s-.12,1.74.4,2.45c3.85,5.29,9.5,7.36,15.6,8.42,3.14.55,6.36.64,10.16,1-6.82,4.87-13.7,5.27-20.85,3.4a66.17,66.17,0,0,1-7.54-2.85c-.73-.29-1.33-.3-1.76.39s.07,1.26.67,1.63a17,17,0,0,0,1.54.77,33.07,33.07,0,0,0,20.74,2.95c-5.71,5.75-11.83,9-19.54,9A59.92,59.92,0,0,1,659,611.59c-.79-.2-1.89-.5-2.19.67s.65,1.41,1.52,1.68a46,46,0,0,0,19.18,1.54c4.34-.5,8.63-1.8,11.85-4.87,2.81-2.69,5.79-2.79,9.29-2.3,5.34.74,10.77,1.56,16.12.39,4.75-1,8.72.33,12.49,3,4,2.81,8,5.78,12.1,8.42s8.25,4.92,13.37,4.86c11.47-.14,21.27-4.11,29.24-12.38,1.53-1.58,2.22-1.77,3.31.52,1.81,3.81,5,6.69,9.34,5.91a77,77,0,0,1,10.5-1.14,12.72,12.72,0,0,0,11.7-9,53.45,53.45,0,0,1,8.43-15.69c5.31-6.94,6.62-14.83,5.32-23.27-.52-3.35-1.25-6.67-1.93-10.27a29.67,29.67,0,0,0,2.93,1.34c3,1,6.15,2.87,9.12-.21.41-.44.89-.2,1.33,0,5.79,2.5,11.4,1.13,16.84-1s10.36-6.5,9.14-13.32c-.38-2.09-.58-4.2-1-6.28-1.48-7.85-3.49-15.6-2.48-23.75.62-5-.31-9.94-1.43-15.16a4.41,4.41,0,0,1,2.14,2.37c5.45,9,10.82,18,16.36,27a5.6,5.6,0,0,1,.52,5.34c-4.78,14-10.19,27.67-15.78,41.33-7.85,19.17-15,38.62-23.86,57.4a87.27,87.27,0,0,1-9.33,15.6l2.75,0a86.84,86.84,0,0,0,10.66-18.64c12.62-30.05,24.9-60.23,36.4-90.72.55-1.46,1-3,1.65-4.92a29.84,29.84,0,0,1,1.8,2.67,43.8,43.8,0,0,0,13.11,15.1c11.35,8.65,22.3,17.82,33.44,26.76.76.61,1.48,1.77,2.72,1.07S936.16,579.71,935.94,578.74ZM797.57,610.3s-.12-.11-.18-.17l.33-.19.2.19A1.62,1.62,0,0,1,797.57,610.3Zm10.87,4.45c-3.55,1.69-4.77,1.36-6.75-1.85-1.43-2.31-1.67-3.85-1.18-7.59,5.28,1.42,10.64,3.4,15.47-1.94C815,608.53,813.06,612.56,808.44,614.75Zm64-199.38c3.74-3.82,15.55-9.57,22.93-6.29,5,2.21,7.59,6.18,8.51,11.25,2.89,15.77.61,31.32-2.52,46.79-1.19,5.92-2.64,11.78-4.12,18.33-.71-.92-1-1.27-1.28-1.67-1.09-1.7-2.87-3.34-3.06-5.15s2.44-2.83,3.73-4.28c4.3-4.85,4.71-10.06,2.1-15.81-4.09-9-9.74-17.06-15.39-25.11-3.6-5.14-7-10.37-10.57-15.55C872.26,417.08,871.49,416.37,872.47,415.37ZM717.84,254.84c-4.11-6.74.45-14.8,8.74-17.23,4.65-1.36,7.73,0,10.67,4.6Q773.63,298.43,810,354.67c5.91,9.14,11.73,18.34,17.59,27.52.11.11.34.31.32.33-.24.35-.41.13-.58-.09a143.11,143.11,0,0,1-18.77-11.34c-6.33-4.55-13-4.78-20-3.56a2.78,2.78,0,0,1-3.44-1.57Q751.54,310.36,717.84,254.84ZM739.2,429.46c13.68-17.46,26-35.89,40-53.18,6-7.44,13.6-7.37,21.71-6.72a5.32,5.32,0,0,1,2,1c16.07,9.93,32.32,19.61,48.14,29.93a75.48,75.48,0,0,1,21.71,21.39c2.44,3.67,4.9,7.32,7.5,11.18-7.42,0-10.94,5.61-15.43,9.83-4.19,3.94-3.92,8.13-1.9,13,4.34,10.55,20,17,28.37,16.12,1.58-.16,2.84-1.22,4.52-1.72-.23-2-.81-2.78-2.78-1.37-1.47,1.06-3.37,1-5.07.73-7.72-1.15-14.6-4.08-19.93-10a16.11,16.11,0,0,1-1.68-2.34c-3.6-5.85-3.5-8.45.93-13.5,2.27-2.6,4.54-5.27,7.61-7.05,4-2.33,7.08-1.77,9.58,2.07,4.92,7.59,10.49,14.81,13.19,23.65.9,2.94.53,5.57-1.71,8.67a4.13,4.13,0,0,1-1.52,2.08c-9,8.66-22.48,12.45-35.45,1.86-7.32-6-14.06-12.44-18.87-20.57-4.21-7.14-9.74-12.23-17.87-14.31-3-.77-5-2.82-7-5.17-6.36-7.42-13.19-14.36-22.46-18.26a20,20,0,0,0-13.55-.84A346.15,346.15,0,0,0,743,428.82c-1.07.44-2.16.82-3.24,1.23-.3.2-.64.42-.91,0C738.8,430,739.08,429.67,739.2,429.46ZM843,468.25Q832.88,456,822.74,443.77c-.24-.13-.55-.28-.3-.58.08-.09.47.08.72.12,5,1.27,8.71,3.78,11.06,8.66,2.23,4.65,5.28,8.92,7.94,13.37C842.67,466.21,843.61,467,843,468.25Zm22.81,79.16a7.63,7.63,0,0,1-3.45,7.48c-10.6,7-20.63,6.55-29.12-3.81-5.38-6.57-8.14-14.38-11.32-22-1.56-3.73-2.9-7.56-4.22-11.38a8,8,0,0,0-1.64-2.67c-5.72-6.53-11.31-13.18-17.19-19.56-3.61-3.92-8.42-6.41-12.75-9.46-4.88-3.43-8.21-7.75-9.39-13.66-.2-1-.15-2.5-1.68-2.16s-.85,1.75-.67,2.68a22.56,22.56,0,0,0,4.11,9.47c-2.74.21-4.92-.9-7.23-1.16a206.45,206.45,0,0,0-29.21-.77c-20.84.61-41.68.39-62.52-.31-1.8-.06-2.65-.47-2.6-2.41.06-2.69-.22-5.38-.11-8.09.28-6.89,3.4-11.72,9.52-15A181.36,181.36,0,0,1,715.21,442c13.94-4.6,27.16-11,40.95-16,7.16-2.58,14.35-5.06,21.61-7.37,8.57-2.73,15.69-.18,22.36,5,6.38,4.93,11.7,10.88,16.86,17,12.26,14.64,24.9,29,36,44.58A48.39,48.39,0,0,1,862,518.79c-.33,3.39,1.46,7.27-2.62,10.24-3.11,2.26-5.36,5.79-8.74,7.92-1.79,1.12-3.7,2.06-5.59,3-5.4,2.73-6.58,11.19-2.12,15.27.54.49,1.06.92,1.77.44.88-.6.55-1.33.06-2a10,10,0,0,1-2-4.42c-.56-3.33.66-5.83,3.74-7.25a37.35,37.35,0,0,0,14.17-11.15c.42-.53.8-1.09,1.68-2.3C863.84,535.49,865.31,541.35,865.84,547.41Zm22.46-10.72q-20-33-39.94-66.06a16.57,16.57,0,0,1-.82-1.82c-.08-.21-.26-.56-.22-.59.29-.2.4,0,.49.28a141,141,0,0,0,12.44,10.3c9,6.42,18.41,6.73,28,1.73,1.89-1,2.67-.77,3.81,1,8,12.59,16.18,25.11,24.29,37.66.35.55.9,1,.76,1.83-13.66-1.79-23.12,3.44-27.81,16.71C888.63,537.81,888.55,537.11,888.3,536.69Zm20.18,21.07c-4.55-3.72-9.31-7.2-13.68-11.13-3.25-2.92-3.65-6.84-2.14-10.91A20.37,20.37,0,0,1,912.72,523c5.42.45,8.86,3.37,10.09,8.69,1.19,5.13,2.3,10.28,3.52,15.76a13.63,13.63,0,0,0-9.93,2.09,14,14,0,0,0-6.1,7.43C910,558,909.82,558.86,908.48,557.76Zm11.5,8.59c-2.15-1.78-4.23-3.65-6.44-5.35a2.56,2.56,0,0,1-1-3.42c1.75-4.69,7.13-8.38,11.92-8,1.18.1,2.3.21,2.64,1.69,1.93,8.42,3.89,16.83,6,26Z" transform="translate(0.1 1.85)"/><path class="cls-4" d="M1358.39,236.15c2.46-5.94,1.46-8.28-4.54-10.71l-11.47-4.67c-5.67-2.3-8-1.34-10.32,4.34-5,12.06-9.87,24.13-14.85,36.18q-15,36.36-30.09,72.69l-14.3,34.49c-.38-.21-.7-.29-.86-.49-6.49-8.09-15.21-13.3-24.1-18.16-9.26-5.06-19.11-8.28-29.88-7.57-7.64.5-12.11,5.11-12,12.44a29.22,29.22,0,0,0,3.41,12.74,73.86,73.86,0,0,0,16.39,21.15,13.17,13.17,0,0,1,2.91,3.18q9.28,16.86,18.66,33.65a4.38,4.38,0,0,1,.16,4.32c-2.62,6.11-5.1,12.27-7.64,18.41-1,2.41-2,4.82-3.3,7.87-3.16-6.74-7-12.29-9.39-18.63-3.29-8.68-8.1-15.85-18.43-17a46.9,46.9,0,0,0-8.38.05c-13.15.83-21.21,7.22-25.24,19.66-3.5,10.82-5,22-5.79,33.25-.14,2.1-.48,2.65-2.62,1.85-5.64-2.13-11.17-1.49-16.51,1.16-11.54,5.72-19.6,21.49-18,35.33a99.44,99.44,0,0,0,2,12.55c-1.54-.14-2.76-.3-4-.36-7.84-.4-14.79,1.5-19.62,8.18a46.2,46.2,0,0,0-6.21,13c-2.94,9-1.84,17.81,1.28,26.61,2.5,7.07,5.68,14.06,6.53,21.51,1.8,15.81,2.9,31.7,4.33,47.56.3,3.36.66,6.71,1,10.06l2.49.11q-2.41-20.6-4.09-41.28c-.26-3.18-.92-6.35-.32-9.65,2.38,4.18,4.44,8.48,6.63,12.72,5.23,10.11,12.37,18.16,23.83,21.32a48.45,48.45,0,0,0,20.92.87c2.3-.38,4.28-.32,6.22,1.15a43.81,43.81,0,0,0,5.39,3.36c1.24.68,1.42,1.39,1.12,2.77-.57,2.69-1.14,5.37-1.68,8.06,0,.13,0,.26-.07.39a5.81,5.81,0,0,1,1.44.08c.21,0,.88.13.84.14h.13c0-.07,0-.13,0-.2,1.75-8.66,3.77-17.26,6.13-25.79,7.74-28.07,21.17-52.6,43.47-71.93,8-7,14.9-15.09,19-25.16,1.25-3,2.94-5.86,4.44-8.78a6.94,6.94,0,0,0,.86-3c.41-12.44,1.14-24.89.68-37.34-1-28.23,8.61-52.95,24.53-75.61a39.52,39.52,0,0,1,20.46-15.39c4.2-1.35,8.19-.72,12.38.64-.81,1-1.64.78-2.37.83-4.66.38-8.14,2.25-10.22,6.77-3,6.5-5.68,13.07-7.09,20.09-.6,3-1.37,6.14.17,9.08,2.27,4.35,11.61,8.28,16.48,7.07.85-.2,1.86-.32,1.74-1.5-.14-1.37-1.24-.9-2-.83a18.25,18.25,0,0,1-11-2.82c-3-1.77-4.08-4.33-3.52-7.81a78.58,78.58,0,0,1,7.83-23.15,5.8,5.8,0,0,1,2.39-2.83c4.88-2.47,10.12-1.63,15.27-1.61.24,0,.47.31.72.46,2.88,1.66,2.89,4.23,2.3,7.05a135.66,135.66,0,0,1-5.86,19.35c-5,13.57-8.72,27.36-8.12,42a74.49,74.49,0,0,1-.7,9.52c-1.73,19.7-3.71,39.38-3.74,59.2,0,10.81-.38,21.63-1.39,32.39-2.39,25.54-5.49,51-8.86,76.44q-.51,3.87-.9,7.76c-.08.77,0,1.64,1,1.75s1.16-.79,1.33-1.52c.1-.47.1-1,.16-1.44,1.85-15.12,3.76-30.24,5.54-45.37,2.06-17.53,4.44-35,5-52.71.72-24.79,1.31-49.58,4-74.26.3-2.79.59-5.57.89-8.35a56.35,56.35,0,0,1,3.49,9.35c2.4,8.13,5.18,16.17,6.6,24.55,1.75,10.4,1.8,20.94,2,31.46.37,24.47-.92,48.78-6.56,72.71A334,334,0,0,1,1302.49,647c-.41,1-.78,2.06-1.16,3.1.78.1,1.55.22,2.32.37,1.24-3.55,2.55-7.07,4-10.56,5.52-13.39,9.18-27.38,12.32-41.53a254.84,254.84,0,0,0,5.23-41.27c1-17.95,1.3-35.9-.55-53.79-1.35-13.1-6-25.47-9.66-38.07-.93-3.23-2.24-6.35-2.73-9.72-1.08-7.54.45-14.77,2.58-21.94,3.34-11.27,7.88-22.17,10.51-33.66.76-3.3,1.13-6.66-2-9-7-5.13-14.66-7.59-23.37-5.76-1.18.25-2.18,1.24-3.79.88l6.75-16.3Q1330.65,303,1358.39,236.15Zm-30,4.07c2.27-5.09,4.3-10.29,6.49-15.42,1.28-3,2.48-3.45,5.42-2.25,4.64,1.88,9.25,3.82,13.87,5.75,1.68.7,3.11,1.6,2.93,3.85-.19.55-.39,1.2-.64,1.82-2.09,5.07-4.22,10.12-6.25,15.22-.62,1.55-1.24,2-3,1.28-5.82-2.55-11.69-5-17.58-7.33C1328.18,242.52,1327.66,242,1328.44,240.22Zm-6.69,16c1.5-3.44,3-6.89,4.32-10.39.48-1.25,1-1.32,2.13-.87,6.22,2.59,12.45,5.12,18.67,7.71.54.23,1.43.25,1.32,1.31-.08.2-.16.48-.27.75-1.44,3.46-2.93,6.91-4.31,10.39-.46,1.18-1,1.4-2.15.89q-9.3-3.93-18.67-7.69C1321.71,257.93,1321.19,257.52,1321.75,256.27Zm-87.93,139.84a44.22,44.22,0,0,0-8.41-11.21c-7.47-7.23-13.84-15.31-16.46-25.71a19.83,19.83,0,0,1-.57-2.84c-.7-7,2.9-11.22,10-11.72,7.48-.53,14.56,1.15,21.39,4a88.69,88.69,0,0,1,29.87,19.9c1.68,1.72,2,3.27,1,5.58-6.66,15.78-13.16,31.63-19.73,47.45a4.87,4.87,0,0,1-1.58,2.66C1244.09,414.84,1238.82,405.54,1233.82,396.11Zm-64.21,223c-4.18,5.95-12.81,8.77-19.83,6.51a1.93,1.93,0,0,1-1.58-1.61c-.63-2.38-2.63-4.2-3.23-7,6-.22,11.7-.93,16.4-4.9a2,2,0,0,1,2.88.06c1.81,1.57,3.58,3.21,5.41,4.76C1170.63,617.72,1170.15,618.33,1169.61,619.09Zm2.61-5.27c-.36,1.48-.8,1.51-1.83.56q-2.23-2-4.61-4c-2-1.65-4-1.84-6.24,0-4,3.29-8.82,4.15-13.84,4.12-3.45,0-4.16.9-2.94,4.11a25.93,25.93,0,0,0,1.28,2.59c.4.76.83,1.51,1.61,2.92-6.5-2.81-11.42-6.6-16.18-10.67-8.6-7.36-13.42-17-16.6-27.61-2.26-7.56-5.45-14.84-7.1-22.57-2.39-11.17.8-21.28,7.2-30.32,4.37-6.18,13.31-8.57,20.33-6.38,1.4.44,1.52,1.52,1.87,2.64,4.79,15.52,9.34,31.11,15.37,46.23,3.34,8.37,9,15.23,13.63,22.72,2.34,3.76,4.8,7.46,7.39,11.06A5,5,0,0,1,1172.22,613.82Zm29.55-31c-1.85,3.05-3.55,6.19-5.17,9.36a3.4,3.4,0,0,1-3,2.12c-4.22.45-8.43,1.14-12,3.66a5.67,5.67,0,0,0-2.27,7.1c1.06,2.44,3.08,3.29,5.64,3.09.95-.08,2.16,0,2.15-1.33s-1.15-1-2-1c-1.68-.06-3.36-.15-3.83-2.25s.69-3.25,2.37-4.12c3.29-1.71,6.84-2.37,10.64-3-1.79,4.41-3.4,8.53-5.13,12.6-1,2.26-4.84,3.27-7.91,2.09-4.58-1.75-7.81-5.21-10.83-8.88a129.72,129.72,0,0,1-24.25-45.57c-3.26-10.88-6.92-21.65-9.42-32.74-2-9-3.86-18.1-.43-27.06,3.23-8.45,8-15.92,17.06-19.25a18.61,18.61,0,0,1,13.56,0,2.93,2.93,0,0,1,2.18,3.44,143.92,143.92,0,0,0,0,20.24c.81,10.73,3.2,20.8,9.38,29.92,5,7.39,10.23,14.73,13.25,23.28a35,35,0,0,1,1.58,5.24c1.31,7.09,5.25,13,8.61,19.13A3.35,3.35,0,0,1,1201.77,582.8Zm22.4-27.54a95.28,95.28,0,0,0-11.32,11.93c-.95,1.27-2.21.89-3,.95-3.65.08-6.2-1-7.74-4.07-.77-1.54-1.88-2.9-2.8-4.37s-3-3.63-2.63-4.58c1.91-4.27.21-9.68,4.73-13.19,4-3.14,7.18-3.9,11.53-1.19,5,3.07,8.26,7.71,11.59,12.33C1225.22,554,1224.89,554.59,1224.17,555.26Zm8.52-8.4c-1.94,1.72-3.58,4.8-5.63,5-1.66.2-2.9-3.56-4.52-5.4a46.47,46.47,0,0,0-7.48-7.22c-6.31-4.53-12.07-3.22-17.08,3-2.3,2.85-2.87,6.35-2.72,10.84l-10.57-16.77c-.92-1.47-1.71-3-2.76-4.4-8-10.34-10.42-22.45-10.7-35.05-.39-16.9.31-33.76,4.49-50.26,1.25-4.92,2.53-9.91,5.58-14.16,4.56-6.37,11.09-9,18.58-9.67,1.83-.16,3.68,0,5.5-.13,8.62-.71,14,3.87,17.67,11a44.72,44.72,0,0,1,3.82,30.07,43.13,43.13,0,0,0-.64,8.91c0,10.6.32,21.23-2.91,31.54a5.48,5.48,0,0,0,.43,3.38c3.62,11.56,7.35,23.09,10.08,34.91C1234.25,544.33,1234.12,545.6,1232.69,546.86Zm60.88-160.45a4,4,0,0,1-1.67,2.27c-8,4.38-13.36,11.24-18.16,18.68-11.55,17.87-18.93,37.27-20.84,58.54-.48,5.27-.15,10.61-.1,15.92a14.58,14.58,0,0,1-1.14,5.89c-5.61,13.44-11.13,26.91-16.71,40.36a5.39,5.39,0,0,1-1.73,2.8c-2.06-6.68-3.63-13.26-6.17-19.45-2.1-5.13-.53-9.76.22-14.61a24,24,0,0,0,.6-4.87c-.63-9.49,3.7-17.58,7.15-25.91q42.09-101.67,84.17-203.34c.91-2.22,1.66-2.58,3.86-1.57,5.6,2.55,11.31,4.84,17,7.12,1.63.65,1.88,1.31,1.19,3Q1317.36,328.79,1293.57,386.41Z" transform="translate(0.1 1.85)"/><path class="cls-4" d="M777.77,490.47a5.65,5.65,0,0,1-.81,1c-5.72,4.55-9.09,10.86-12.75,17a12.83,12.83,0,0,1-.9,1.47,1,1,0,0,1-1.26.35,1,1,0,0,1-.57-1.2,3.62,3.62,0,0,1,.36-1.08c3.56-6.17,7.11-12.35,12.43-17.25a7.63,7.63,0,0,1,2.13-1.42C777.2,489,777.62,489.53,777.77,490.47Z" transform="translate(0.1 1.85)"/><path class="cls-5" d="M782.26,497.36c-.16.31-.36.74-.6,1.15a42.23,42.23,0,0,1-7.26,9.3c-.63.6-1.32,1.75-2.35.62-.79-.87-.06-1.6.59-2.2a42.41,42.41,0,0,0,7.21-9.33c.34-.57.65-1.31,1.5-1A1.34,1.34,0,0,1,782.26,497.36Z" transform="translate(0.1 1.85)"/><path class="cls-6" d="M907.74,190.3c-6-2-12.06-4-18.09-6-.71-.24-2-.18-.9-1.6,5-6.62,5.14-14.33,4.58-22.1-.14-2,.26-2.91,2-3.75,7.69-3.65,15.49-6.85,24.08-7.71a14.43,14.43,0,0,1,7.12.64c6.78,2.85,14,4.66,20.29,8.67,9.87,6.31,15.36,15.64,17.87,26.87a28.47,28.47,0,0,1,.62,6.9c-.14,5.21-3.1,8.52-9.19,9.23-8.57,1-6.66,2-9.4-6.28a31.29,31.29,0,0,1-1.16-12.29c.1-1.32.07-2.38-1.65-2.81-9.44-2.34-18.86-4.83-28.65-5.13-7.24-.22-9.77,3-8.41,10.15.31,1.59.85,3.15,1.29,4.72Z" transform="translate(0.1 1.85)"/><path class="cls-6" d="M830.32,102.28a202,202,0,0,0,3.61,21.59,25.1,25.1,0,0,0,10.66,15.25c1.41.95,1.69,1.64.61,3.14-3.89,5.41-8.15,10.44-14.83,12.29-14.68,4-27.35-8.71-24.06-24.11a7.75,7.75,0,0,1,1.47-3.7C814.88,118.49,822.47,110.68,830.32,102.28Z" transform="translate(0.1 1.85)"/><path class="cls-6" d="M931.54,148.79c5.52-5.22,11.1-9.59,17.84-12.31a23.17,23.17,0,0,1,13.85-1c4.24.9,8.54,1.51,12.81,2.3,11.54,2.12,18.14,8.91,20,20.56a31.43,31.43,0,0,1,.65,6.91,8.41,8.41,0,0,1-5.88,7.25c2.52-6.19.73-12-1.19-17.73a6,6,0,0,0-5.51-4.35c-4.66-.54-9.23.34-13.82.75-3.94.36-7.89.6-11.81,1.1a10.53,10.53,0,0,0-7.36,4.14c-.46.63-.69,1.35-1.75.7C943.9,153.73,937.84,151.49,931.54,148.79Z" transform="translate(0.1 1.85)"/><path class="cls-6" d="M864.43,179.32c1.63-6.95-.28-13.63-4.6-19.72-.7-1-.29-1.26.63-1.6,6-2.23,12.24-4.11,18.11-6.82.93-.43,1.65.06,2.41.52a33.67,33.67,0,0,0,5.25,3c4.16,1.54,5.08,4.63,5,8.61a58.17,58.17,0,0,1-.68,9.79c-1.63,8.37-10.48,16.51-19,17.66a7.39,7.39,0,0,1-4-.45c-1.76-.75-3.33-1.56-2.89-4.17C865.07,184.13,864.58,182,864.43,179.32Z" transform="translate(0.1 1.85)"/><path class="cls-7" d="M964.72,176.12c-3.4-5.78-6.52-11.76-11.64-16.32-.93-.82-.38-1.53.2-2.23a7.77,7.77,0,0,1,5.2-2.84c7.83-1,15.68-1.79,23.58-2.12,3.14-.12,5,1.17,5.93,4.25a34.49,34.49,0,0,1,1.89,10.45c0,2.68-1.14,4.25-3.91,4.82a96,96,0,0,1-18.37,1.69c-1.45,0-3.12-.23-2.71,2.14Z" transform="translate(0.1 1.85)"/><path class="cls-7" d="M946.5,201.54c-6.41-.82-12.1-2.62-17.78-4.37-5.07-1.55-10.08-3.27-15.15-4.82-1.64-.49-2.58-1.08-3-3-.45-2.23-1.48-4.36-1.63-6.7-.25-3.83,1.13-5.4,4.91-5.38,9.53,0,18.64,2.68,27.86,4.62,1.23.26,1.48,1,1.41,2.07A36.24,36.24,0,0,0,946.5,201.54Z" transform="translate(0.1 1.85)"/><path class="cls-8" d="M790,161c5.12,5.12,10,10,14.91,14.88,1,.94.61,1.39-.41,1.83l-20.1,8.72c-2.35,1-2.82-1.4-4.06-2.31-.82-.61-2.11-1.29-1.29-2.8C782.67,174.68,786.26,168,790,161Z" transform="translate(0.1 1.85)"/><path class="cls-8" d="M815.81,167.44c.05.65-7.4,8.1-7.83,7.88a5.4,5.4,0,0,1-1.31-1.1c-4.62-4.63-9.2-9.31-13.9-13.87-1.21-1.18-1.13-1.87.06-2.93,2.21-2,4.16-5.57,6.48-5.79s4.28,3.61,6.4,5.65c3,2.94,6,6,9,9C815.1,166.68,815.48,167.1,815.81,167.44Z" transform="translate(0.1 1.85)"/><path class="cls-7" d="M862.35,185.2c-5.05-5.32-8.33-11.56-11.92-17.59-3-5.15-3-5.16,2.63-7.08,4-1.34,4-1.33,6.12,2.38,2.47,4.26,4,8.64,3.25,13.74C862,179.44,862.35,182.35,862.35,185.2Z" transform="translate(0.1 1.85)"/><path class="cls-9" d="M907.54,129.16a3.38,3.38,0,0,1,1.92,1.36,18.74,18.74,0,0,1,4.7,10.32,3,3,0,0,0,2.63,2.83c2,.49,3.83,1.26,5.74,1.89.88.3,1.42.61,1.09,1.8-.43,1.54-1.16.35-1.72.32a12,12,0,0,1-1.35-.46c-5.42-1.07-9.51-3.25-9.74-9.73-.08-2.37-1.91-4.33-3.72-6-.39-.36-1.05-.68-.48-1.38C906.91,129.77,907.26,129.45,907.54,129.16Z" transform="translate(0.1 1.85)"/><path class="cls-6" d="M808.51,155.68c5.07,3.43,10,7.08,16,8.75a2.8,2.8,0,0,1-.31.71c-3.57,3.74-3.58,3.74-7.08.19q-4.56-4.61-9.09-9.24Z" transform="translate(0.1 1.85)"/><path class="cls-9" d="M983.87,176a64.18,64.18,0,0,1-16.69,2.58c-1.86.08-2.27-1-2.46-2.43l.17-.16a81.41,81.41,0,0,0,19-.93Z" transform="translate(0.1 1.85)"/><path class="cls-10" d="M804.45,128.64a26.23,26.23,0,0,0,1.9,18.72c.27.56,1.06,1.21.31,1.73-.92.65-1.31-.44-1.7-1-4.69-6.46-4.23-13.24-1.18-20.17Z" transform="translate(0.1 1.85)"/><path class="cls-9" d="M906.14,144.1c-1.53-.25-3.51-.57-5.47-.91-.69-.12-1.38-.34-1.27-1.23s.87-1.17,1.69-1.05c2,.29,3.95.65,5.92.93.89.12,1.53.52,1.38,1.43S907.38,144.25,906.14,144.1Z" transform="translate(0.1 1.85)"/><path class="cls-11" d="M804,152l-3.53-3.36c-.45-.42-.77-.84-.13-1.39s1-.25,1.38.3q1.35,2,2.68,4C804.3,151.77,804.17,151.9,804,152Z" transform="translate(0.1 1.85)"/><path class="cls-10" d="M806.36,149.8c.13-.27.19-.61.37-.71a.81.81,0,0,1,.76,0c1.24,1.17,2.49,2.36,3.63,3.63.29.32,0,1.13-.58.87C808.76,152.85,807.61,151.31,806.36,149.8Z" transform="translate(0.1 1.85)"/><path class="cls-8" d="M983.87,176V175l5.24-1.3,0,0C987.72,175.31,985.73,175.5,983.87,176Z" transform="translate(0.1 1.85)"/><path class="cls-8" d="M989.1,173.73a.6.6,0,0,1,.73-.55c.09,0,.17.21.25.32l-1,.25Z" transform="translate(0.1 1.85)"/><path class="cls-12" d="M908.19,189.79l.22.6-.67-.09Z" transform="translate(0.1 1.85)"/><path class="cls-11" d="M807.93,155.1c.19.19.39.38.58.58l-.43.41-.58-.59Z" transform="translate(0.1 1.85)"/><path class="cls-11" d="M804.44,151.64l.56.61a3.24,3.24,0,0,0-.38.36L804,152C804.17,151.9,804.3,151.77,804.44,151.64Z" transform="translate(0.1 1.85)"/><path class="cls-11" d="M805.2,153.16c-.2-.18-.39-.37-.58-.56a4.26,4.26,0,0,1,.38-.35l.56.6A3.65,3.65,0,0,0,805.2,153.16Z" transform="translate(0.1 1.85)"/><path class="cls-11" d="M805.78,153.69l-.58-.53a3.65,3.65,0,0,1,.36-.31l.55.6Z" transform="translate(0.1 1.85)"/><path class="cls-11" d="M806.36,154.32c-.19-.21-.38-.43-.58-.63l.33-.24.6.56C806.59,154.11,806.47,154.21,806.36,154.32Z" transform="translate(0.1 1.85)"/><path class="cls-11" d="M806.71,154l.61.54c-.13.12-.26.25-.38.38l-.58-.61C806.47,154.21,806.59,154.11,806.71,154Z" transform="translate(0.1 1.85)"/><path class="cls-11" d="M807.32,154.55l.61.55-.43.4-.56-.57C807.06,154.8,807.19,154.67,807.32,154.55Z" transform="translate(0.1 1.85)"/><path class="cls-6" d="M862.37,528.56c1.47,6.93,2.94,12.8,3.47,18.85a7.63,7.63,0,0,1-3.45,7.48c-10.6,7-20.63,6.55-29.12-3.81-5.38-6.57-8.14-14.38-11.32-22-1.56-3.73-2.9-7.56-4.22-11.38a8,8,0,0,0-1.64-2.67c-5.72-6.53-11.31-13.18-17.19-19.56-3.61-3.92-8.42-6.41-12.75-9.46-4.88-3.43-8.21-7.75-9.39-13.66-.2-1-.15-2.5-1.68-2.16s-.85,1.75-.67,2.68a22.56,22.56,0,0,0,4.11,9.47c-2.74.21-4.92-.9-7.23-1.16a206.45,206.45,0,0,0-29.21-.77c-20.84.61-41.68.39-62.52-.31-1.8-.06-2.65-.47-2.6-2.41.06-2.69-.22-5.38-.11-8.09.28-6.89,3.4-11.72,9.53-15A180.86,180.86,0,0,1,715.21,442c13.94-4.6,27.16-11,40.95-16,7.16-2.58,14.35-5.06,21.61-7.37,8.57-2.73,15.69-.18,22.36,5,6.38,4.93,11.7,10.88,16.86,17,12.26,14.64,24.9,29,36,44.58A48.39,48.39,0,0,1,862,518.79c-.33,3.39,1.46,7.27-2.62,10.24-3.11,2.26-5.36,5.79-8.74,7.92-1.79,1.12-3.7,2.06-5.59,3-5.4,2.73-6.58,11.19-2.12,15.27.54.49,1.06.92,1.77.44.88-.6.55-1.33.06-2a10,10,0,0,1-2-4.42c-.56-3.33.66-5.83,3.74-7.25a37.35,37.35,0,0,0,14.17-11.15C861.11,530.33,861.49,529.77,862.37,528.56Zm-87.8-88.42c.08.69-.18,1.61.93,1.75s1.36-.87,1.58-1.69C779,433,782,426.61,789,423c.55-.28,1-.7.74-1.37s-1-.87-1.67-.65a7.93,7.93,0,0,0-1.58.7C779.51,425.85,776.63,432.68,774.57,440.14Zm15.34-5.05a3.16,3.16,0,0,0,.85-.44,61,61,0,0,0,6.41-8.51,1,1,0,0,0-.27-1.51,1.12,1.12,0,0,0-1.73.34l-6.09,8a1.16,1.16,0,0,0-.1,1.57A3.11,3.11,0,0,0,789.91,435.09Z" transform="translate(0.1 1.85)"/><path class="cls-6" d="M739.2,429.46c13.68-17.46,26-35.89,40-53.18,6-7.44,13.6-7.37,21.71-6.72a5.32,5.32,0,0,1,2,1c16.07,9.93,32.32,19.61,48.14,29.93a75.48,75.48,0,0,1,21.71,21.39c2.44,3.67,4.9,7.32,7.5,11.18-7.42,0-10.94,5.61-15.43,9.83-4.19,3.94-3.92,8.13-1.9,13,4.34,10.55,20,17,28.37,16.12,1.64-.17,2.92-1.29,4.69-1.78.2,1.56-.77,2.25-1.55,3-9,8.66-22.48,12.45-35.45,1.86-7.32-6-14.06-12.44-18.87-20.57-4.21-7.14-9.74-12.23-17.87-14.31-3-.77-5-2.82-7-5.17-6.36-7.42-13.19-14.36-22.46-18.26a20,20,0,0,0-13.55-.84A346.15,346.15,0,0,0,743,428.82c-1.07.44-2.16.82-3.24,1.23Zm47.16-44.33c.9.1,1.21-.43,1.54-.89a38.49,38.49,0,0,1,2.34-3.26,26,26,0,0,1,9.06-6.5c.82-.36,2.06-.75,1.52-2s-1.62-.53-2.42-.18a30.62,30.62,0,0,0-6,3.44,22.22,22.22,0,0,0-6.42,6.92C785.51,383.52,785,384.64,786.36,385.13Zm73,27.14c-.1-.82-.75-1.18-1.77-.79-4.28,1.67-8.15,3.95-10.76,7.9a6.41,6.41,0,0,0-.77,1.85c-.15.55-.15,1.2.51,1.49a1,1,0,0,0,1.46-.54c1.9-4.47,6-6.3,9.92-8.38C858.6,413.44,859.35,413.16,859.33,412.27Zm-52.56-36c-.23-1-.72-1.79-1.75-1a53.91,53.91,0,0,1-8.86,5.27,1,1,0,0,0-.48,1.45,1,1,0,0,0,1.37.65,40.17,40.17,0,0,0,9.29-5.62A2.46,2.46,0,0,0,806.77,376.24Zm58.53,40.34c-.2-.75-.48-1.46-1.54-1-2.38,1-4.77,2-7.12,3-.87.39-1.12,1.51-.33,1.78,2.53.85,4.4-1.3,6.62-1.92C863.85,418.17,865.08,418,865.3,416.58Z" transform="translate(0.1 1.85)"/><path class="cls-6" d="M827.31,382.43a143.11,143.11,0,0,1-18.77-11.34c-6.33-4.55-13-4.78-20-3.56a2.78,2.78,0,0,1-3.44-1.57q-33.52-55.6-67.22-111.12c-4.11-6.74.45-14.8,8.74-17.23,4.65-1.36,7.73,0,10.67,4.6Q773.63,298.43,810,354.67c5.91,9.14,11.73,18.34,17.59,27.52Z" transform="translate(0.1 1.85)"/><path class="cls-6" d="M847.81,468.5a141,141,0,0,0,12.44,10.3c9,6.42,18.41,6.73,28,1.73,1.89-1,2.67-.77,3.81,1,8,12.59,16.18,25.11,24.29,37.66.35.55.9,1,.76,1.83-13.66-1.79-23.12,3.44-27.81,16.71-.72.07-.8-.63-1.05-1q-20-33-39.94-66.06a16.57,16.57,0,0,1-.82-1.82Z" transform="translate(0.1 1.85)"/><path class="cls-6" d="M897.27,485.45c-.71-.92-1-1.27-1.28-1.67-1.09-1.7-2.87-3.34-3.06-5.15s2.44-2.83,3.73-4.28c4.3-4.85,4.71-10.06,2.1-15.81-4.09-9-9.74-17.06-15.39-25.11-3.6-5.14-7-10.37-10.57-15.55-.54-.8-1.31-1.51-.33-2.51,3.74-3.82,15.55-9.57,22.93-6.29,5,2.21,7.59,6.18,8.51,11.25,2.89,15.77.61,31.32-2.52,46.79C900.2,473,898.75,478.9,897.27,485.45Z" transform="translate(0.1 1.85)"/><path class="cls-13" d="M895.92,471.29c-.17-2.64-.6-3.92-2.86-2.3-1.47,1.06-3.37,1-5.07.73-7.72-1.15-14.6-4.08-19.93-10a16.11,16.11,0,0,1-1.68-2.34c-3.6-5.85-3.5-8.45.93-13.5,2.27-2.6,4.54-5.27,7.61-7.05,4-2.33,7.08-1.77,9.58,2.07,4.92,7.59,10.49,14.81,13.19,23.65C898.59,465.51,898.22,468.16,895.92,471.29Z" transform="translate(0.1 1.85)"/><path class="cls-6" d="M823.16,443.31c5,1.27,8.71,3.78,11.06,8.66,2.23,4.65,5.28,8.92,7.94,13.37.51.87,1.45,1.64.87,2.91Q832.88,456,822.74,443.77Z" transform="translate(0.1 1.85)"/><path class="cls-14" d="M739.77,430.05c-.3.2-.64.42-.91,0-.06-.08.22-.41.34-.62Z" transform="translate(0.1 1.85)"/><path class="cls-11" d="M847.54,468.81c-.08-.21-.26-.56-.22-.59.29-.2.4,0,.49.28Z" transform="translate(0.1 1.85)"/><path class="cls-11" d="M827.57,382.19c.11.11.34.31.32.33-.24.35-.41.13-.58-.09Z" transform="translate(0.1 1.85)"/><path class="cls-15" d="M822.74,443.77c-.24-.13-.55-.28-.3-.58.08-.09.47.08.72.12Z" transform="translate(0.1 1.85)"/><path class="cls-6" d="M1195.26,553.16l-10.57-16.77c-.92-1.47-1.71-3-2.76-4.4-8-10.34-10.42-22.45-10.7-35.05-.39-16.9.31-33.76,4.49-50.26,1.25-4.92,2.53-9.91,5.58-14.16,4.56-6.37,11.09-9,18.58-9.67,1.83-.16,3.68,0,5.5-.13,8.62-.71,14,3.87,17.67,11a44.72,44.72,0,0,1,3.82,30.07,43.13,43.13,0,0,0-.64,8.91c0,10.6.32,21.23-2.91,31.54a5.48,5.48,0,0,0,.43,3.38c3.62,11.56,7.35,23.09,10.08,34.91.42,1.82.29,3.09-1.14,4.35-1.94,1.72-3.58,4.8-5.63,5-1.66.2-2.9-3.56-4.52-5.4a46.47,46.47,0,0,0-7.48-7.22c-6.31-4.53-12.07-3.22-17.08,3C1195.68,545.17,1195.11,548.67,1195.26,553.16ZM1188.43,513a73.18,73.18,0,0,0,13.91-6.34,1,1,0,0,0,.24-1.51.91.91,0,0,0-1.23-.39c-4.36,2.25-8.85,4.21-13.4,6a1,1,0,0,0-.61,1.4A1.17,1.17,0,0,0,1188.43,513Zm5.37-9.88c-.33-1.44-1.24-1.07-2.2-.74a21.64,21.64,0,0,0-10.42,7.77c-.52.69-1.24,1.46-.29,2.21s1.6-.07,2.12-.78a20,20,0,0,1,9.28-6.95C1193,504.35,1193.76,504.1,1193.8,503.12Zm4.7-.55c2-.4,3.53-.72,5-1,.79-.13,1.24-.48,1.14-1.32a1.08,1.08,0,0,0-1.41-1c-1.59.31-3.17.66-4.75,1a1.06,1.06,0,0,0-.86,1.51A1.08,1.08,0,0,0,1198.5,502.57Z" transform="translate(0.1 1.85)"/><path class="cls-6" d="M1194.23,596.43c-1.79,4.41-3.4,8.53-5.13,12.6-1,2.26-4.84,3.27-7.91,2.09-4.58-1.75-7.81-5.21-10.83-8.88a129.72,129.72,0,0,1-24.25-45.57c-3.26-10.88-6.92-21.65-9.42-32.74-2-9-3.86-18.1-.43-27.06,3.23-8.45,8-15.92,17.06-19.25a18.61,18.61,0,0,1,13.56,0,2.93,2.93,0,0,1,2.18,3.44,143.92,143.92,0,0,0,0,20.24c.81,10.73,3.2,20.8,9.38,29.92,5,7.39,10.23,14.73,13.25,23.28a35,35,0,0,1,1.58,5.24c1.31,7.09,5.25,13,8.61,19.13a3.35,3.35,0,0,1-.13,3.9c-1.85,3.05-3.55,6.19-5.17,9.36a3.4,3.4,0,0,1-3,2.12c-4.22.45-8.43,1.14-12,3.66a5.67,5.67,0,0,0-2.27,7.1c1.06,2.44,3.08,3.29,5.64,3.09.95-.08,2.16,0,2.15-1.33s-1.15-1-2-1c-1.68-.06-3.36-.15-3.83-2.25s.69-3.25,2.37-4.12C1186.88,597.69,1190.43,597,1194.23,596.43Zm-19-27.91a1.19,1.19,0,0,0-1.58-1.18,22.12,22.12,0,0,0-3.59,1c-2.84,1.12-5.8,2.07-7.83,4.57-.51.62-.9,1.32-.12,2a1.06,1.06,0,0,0,1.54-.13c2.73-2.78,6.33-3.8,9.9-4.89C1174.33,569.64,1175,569.4,1175.26,568.52Zm-5.74,9.33a70.26,70.26,0,0,0,13-6,1,1,0,0,0,.22-1.52,1,1,0,0,0-1.51-.32,104.3,104.3,0,0,1-12.27,5.71,1,1,0,0,0-.65,1.39A1.2,1.2,0,0,0,1169.52,577.85Z" transform="translate(0.1 1.85)"/><path class="cls-4" d="M774.57,440.14c2.06-7.46,4.94-14.29,11.94-18.45a7.93,7.93,0,0,1,1.58-.7c.69-.22,1.38-.17,1.67.65s-.19,1.09-.74,1.37c-7.06,3.6-10,10-11.94,17.19-.22.82-.38,1.84-1.58,1.69S774.65,440.83,774.57,440.14Z" transform="translate(0.1 1.85)"/><path class="cls-5" d="M789.91,435.09a3.11,3.11,0,0,1-.93-.51,1.16,1.16,0,0,1,.1-1.57l6.09-8a1.12,1.12,0,0,1,1.73-.34,1,1,0,0,1,.27,1.51,61,61,0,0,1-6.41,8.51A3.16,3.16,0,0,1,789.91,435.09Z" transform="translate(0.1 1.85)"/><path class="cls-5" d="M786.36,385.13c-1.37-.49-.85-1.61-.36-2.49a22.22,22.22,0,0,1,6.42-6.92,30.62,30.62,0,0,1,6-3.44c.8-.35,1.85-1.19,2.42.18s-.7,1.66-1.52,2a26,26,0,0,0-9.06,6.5,38.49,38.49,0,0,0-2.34,3.26C787.57,384.7,787.26,385.23,786.36,385.13Z" transform="translate(0.1 1.85)"/><path class="cls-5" d="M859.33,412.27c0,.89-.73,1.17-1.41,1.53-3.9,2.08-8,3.91-9.92,8.38a1,1,0,0,1-1.46.54c-.66-.29-.66-.94-.51-1.49a6.41,6.41,0,0,1,.77-1.85c2.61-3.95,6.48-6.23,10.76-7.9C858.58,411.09,859.23,411.45,859.33,412.27Z" transform="translate(0.1 1.85)"/><path class="cls-5" d="M806.77,376.24a2.46,2.46,0,0,1-.43.72,40.17,40.17,0,0,1-9.29,5.62,1,1,0,0,1-1.37-.65,1,1,0,0,1,.48-1.45,53.91,53.91,0,0,0,8.86-5.27C806.05,374.45,806.54,375.22,806.77,376.24Z" transform="translate(0.1 1.85)"/><path class="cls-5" d="M865.3,416.58c-.22,1.42-1.45,1.59-2.37,1.85-2.22.62-4.09,2.77-6.62,1.92-.79-.27-.54-1.39.33-1.78,2.35-1,4.74-2,7.12-3C864.82,415.12,865.1,415.83,865.3,416.58Z" transform="translate(0.1 1.85)"/><path class="cls-16" d="M771.6,190.61c6.08,45.72,39.47,83.05,80.11,102.54,34,16.31,71.82,21.05,109.19,20.83,34.84-.2,69.62-5.1,103.44-13.34,50.84-12.39,99.88-32.41,145.45-58.08a626.06,626.06,0,0,0,109.82-78.85q5.49-4.91,10.85-9.93c1.42-1.32-.71-3.44-2.12-2.12a628.25,628.25,0,0,1-103.4,78.57,583.89,583.89,0,0,1-141.35,62.2c-36.35,10.41-73.93,17.05-111.77,18.33-32.84,1.12-66.25-1.22-97.57-11.72-43.61-14.61-82.94-46.81-96.2-92.18a108.74,108.74,0,0,1-3.45-16.25c-.25-1.89-3.25-1.91-3,0Z" transform="translate(0.1 1.85)"/><path class="cls-3" d="M1143.15-1.85h-7.55c11.55,5.39,24.16,6.65,36.52,8.75,22.24,3.78,44.6,6.77,67,9.64q24.11,3.09,48.21,6.11c.94.12,2.37.77,2.48-.93.09-1.31-1.23-1.26-2.15-1.38-24.19-3.13-48.39-6.15-72.56-9.41-10.88-1.46-21.78-2.85-32.56-5C1169.17,4.09,1155.92,2.18,1143.15-1.85Z" transform="translate(0.1 1.85)"/><path class="cls-4" d="M833.55,650.94a5.26,5.26,0,0,1,1.63.24c.24-.32.5-.63.74-.95h-2.76c-.21.28-.44.54-.66.81A5.87,5.87,0,0,1,833.55,650.94Z" transform="translate(0.1 1.85)"/><path class="cls-4" d="M765.89,649.78l67.27.44h0L647.35,649l118.54.78" transform="translate(0.1 1.85)"/><path class="cls-4" d="M758.9,641.74a86.41,86.41,0,0,1,6.21,8.85,19.16,19.16,0,0,1,2.93,0,87.08,87.08,0,0,0-8.4-11.8c-.53-.61-1-1.66-2.07-.9-1.2.87-.25,1.67.27,2.43C758.16,640.84,758.53,641.29,758.9,641.74Z" transform="translate(0.1 1.85)"/><path class="cls-5" d="M850.73,82.51c-.13-.83,0-1.63.94-1.79s1.21.48,1.34,1.21a112.76,112.76,0,0,0,5.64,21.47,1.3,1.3,0,0,1-.74,1.9c-.77.25-1.22-.34-1.48-1A114.36,114.36,0,0,1,850.73,82.51Z" transform="translate(0.1 1.85)"/><path class="cls-5" d="M740.62,575c.51-4.47.47-9,1.81-13.41a9.88,9.88,0,0,1,3.44-5.22c.5-.37,1.1-.59,1.59-.15s.79,1,.23,1.52c-4.83,4.49-3.74,10.64-4.56,16.24a39,39,0,0,0-.17,4c0,.82-.24,1.63-1.25,1.59s-1.09-.9-1.09-1.7Z" transform="translate(0.1 1.85)"/><path class="cls-5" d="M1298.6,474.29A33.7,33.7,0,0,1,1287,472.1c-.86-.35-1.7-.71-1.31-1.82s1.43-.75,2.17-.44a27.55,27.55,0,0,0,14.43,1.53c.86-.12,1.84-.39,2,.94s-.81,1.35-1.72,1.47Z" transform="translate(0.1 1.85)"/><path class="cls-5" d="M1294.05,488.85c-3.92-.07-7.5-.94-10.23-4-.65-.73-1.76-1.63-.54-2.68s1.63.35,2.23,1c2.56,2.67,5.82,3.2,9.29,3.08.86,0,1.72-.23,2.58-.3s1.94-.4,2.19.76c.3,1.35-.82,1.54-1.81,1.68C1296.53,488.57,1295.29,488.7,1294.05,488.85Z" transform="translate(0.1 1.85)"/><path class="cls-5" d="M870.55,111.17c.1.8.07,1.47-.78,1.7s-1.28-.41-1.44-1.06a61.07,61.07,0,0,0-5.87-14.67,1.17,1.17,0,0,1,.45-1.73c.84-.53,1.27.06,1.6.65A56.74,56.74,0,0,1,870.55,111.17Z" transform="translate(0.1 1.85)"/><path class="cls-5" d="M1300.35,467.13c-2.31.07-4.91-.19-7.41.7-.72.26-1.6.5-2-.44s.31-1.47,1.07-1.71c4.6-1.42,9.27-1.08,13.94-.45a1.09,1.09,0,0,1,1,1.2c-.1.82-.72,1.07-1.47,1C1303.87,467.36,1302.24,467.25,1300.35,467.13Z" transform="translate(0.1 1.85)"/><path class="cls-5" d="M809.51,587.22c-.61.13-1.18,0-1.38-.66a1.12,1.12,0,0,1,1-1.48,19.78,19.78,0,0,0,11.5-6.7,1.29,1.29,0,0,1,2-.17c.58.6.13,1.24-.33,1.79A20.5,20.5,0,0,1,809.51,587.22Z" transform="translate(0.1 1.85)"/><path class="cls-5" d="M867.52,120.18a1.17,1.17,0,0,1-.71,1.14,1,1,0,0,1-1.27-.35,49.47,49.47,0,0,1-5.62-9,1.17,1.17,0,0,1,.3-1.55,1,1,0,0,1,1.49.22q2.85,4.45,5.66,9A1.6,1.6,0,0,1,867.52,120.18Z" transform="translate(0.1 1.85)"/><path class="cls-5" d="M746.62,572c-1-.2-1.43-.79-1.19-1.68.62-2.31,1.29-4.62,2-6.92.17-.55.49-1.11,1.21-1s1.16.59,1,1.2c-.65,2.6-1.4,5.17-2.18,7.74C747.35,571.67,746.87,571.84,746.62,572Z" transform="translate(0.1 1.85)"/><path class="cls-6" d="M839.9,2c-.65-.74-1.32-1.48-2-2.2H796.14c-3.46,15.24-7.3,30.39-10,45.79-1.26,7.11-3.2,14.29-1.93,21.5,3.05,17.36,6.45,34.66,10,51.94.89,4.44,2.17,8.93,5.68,12.85a40.3,40.3,0,0,1,6.24-12,268.43,268.43,0,0,1,20.39-22.9,10.41,10.41,0,0,0,2.87-6.66,58.44,58.44,0,0,0-2.94-25.93c-2-5.64-1.56-9.91,2.73-14.71,8.38-9.38,12.32-21.47,17.81-32.59.88-1.79.39-3.6-.37-5.3A40.53,40.53,0,0,0,839.9,2Zm-18,51.92a1.18,1.18,0,0,1-1.72-.51c-.43-.64-.73-1.36-1.13-2-2.25-3.67-5.16-6.47-9.68-7-.9-.11-1.86-.24-1.6-1.48.21-1,1.13-.83,1.67-.84,5,.24,11.68,5.74,12.8,10.34C822.4,52.9,822.54,53.51,821.93,53.88Z" transform="translate(0.1 1.85)"/><path class="cls-6" d="M909.79-.24A62.65,62.65,0,0,0,914,8.06c.46.8,1.27,1.81,0,2.48s-1.61-.59-2.07-1.38a54.44,54.44,0,0,1-3.87-7.42c-.34-.85-.58-1.5-.78-2h-3.42L903.4,0c-3.31,1.77-6.63,3.53-10.06,5.07-11.69,5.24-24.2,7.74-36.62,10.34-5.36,1.12-8.4,3.38-10.59,8.45C841.6,34.37,837,45,829.18,53.63c-1.95,2.15-2.15,4-1.43,6.69,2.25,8.36,5,16.66,4.29,25.53-.11,1.47,0,3,0,5,3.27-3.46,6.28-6.54,9.17-9.71,5.84-6.39,12.33-11.74,21.25-13a18.65,18.65,0,0,0,13-7.5,29.87,29.87,0,0,1-10.75-4.35c-.72-.43-1.31-.86-.78-1.8s1-.66,1.7-.29A31.25,31.25,0,0,0,874.27,58c1.08.24.73,1.8,1.92,1.77,3.3-3.65,6.43-7.45,9.91-10.91Q910.81,24.31,935.55-.24Zm-49.64,51.9c-.45.41-.91.19-1.27-.15a39.24,39.24,0,0,1-7-8.8,1.08,1.08,0,0,1,.35-1.53.91.91,0,0,1,1.3.13,88.3,88.3,0,0,0,6.94,8.85c.12.13.13.35.23.66A4.54,4.54,0,0,1,860.15,51.66Z" transform="translate(0.1 1.85)"/><path class="cls-6" d="M990-.24Q971.36,19,952.67,38.32c-.73.75-1.6,1.84-2.61.66-.87-1,.38-1.72,1-2.35Q968.9,18.18,986.78-.24H938.85q-25.79,25.65-51.56,51.32a155.94,155.94,0,0,0-11.76,13.14,3.34,3.34,0,0,1,.32.33c27.12-5.24,53.74-12.24,79.48-22.38a8.12,8.12,0,0,0,2.78-2Q978.18,19.94,998.3-.24Z" transform="translate(0.1 1.85)"/><path class="cls-9" d="M931.11,118.76a4.24,4.24,0,0,1,.78.28c5.9,2.82,11.17,6.44,14.89,12,.54.79,1.3,1.69.25,2.51-.85.66-1.42-.19-1.84-.81-3.58-5.39-8.59-9-14.38-11.69-.66-.3-1.6-.54-1.42-1.53C929.5,118.87,930.19,118.73,931.11,118.76Z" transform="translate(0.1 1.85)"/><path class="cls-5" d="M875.48,60.64a29.87,29.87,0,0,1-10.75-4.35c-.72-.43-1.31-.86-.78-1.8s1-.66,1.7-.29A31.25,31.25,0,0,0,874.27,58c1.08.24.73,1.8,1.92,1.77Z" transform="translate(0.1 1.85)"/><path class="cls-4" d="M803.78,128a5,5,0,0,1,2-3.41c.67,1.94-1.35,2.68-1.31,4.1Z" transform="translate(0.1 1.85)"/><path class="cls-10" d="M806.81,123.93l-.5-.35a2.93,2.93,0,0,1,.56-.44c.07,0,.25.17.37.26Z" transform="translate(0.1 1.85)"/><path class="cls-10" d="M964.48,38.55c-.42.12-1.1.46-1.24.31-.51-.54.27-.68.5-1Z" transform="translate(0.1 1.85)"/><path class="cls-17" d="M875.85,64.55c-.23.21-.48.34-.71,0,0,0,.25-.22.39-.34A3.34,3.34,0,0,1,875.85,64.55Z" transform="translate(0.1 1.85)"/><path class="cls-6" d="M926.33,547.41a13.63,13.63,0,0,0-9.93,2.09,14,14,0,0,0-6.1,7.43c-.33,1-.48,1.93-1.82.83-4.55-3.72-9.31-7.2-13.68-11.13-3.25-2.92-3.65-6.84-2.14-10.91A20.37,20.37,0,0,1,912.72,523c5.42.45,8.86,3.37,10.09,8.69C924,536.78,925.11,541.93,926.33,547.41Z" transform="translate(0.1 1.85)"/><path class="cls-7" d="M933.08,577.26,920,566.35c-2.15-1.78-4.23-3.65-6.44-5.35a2.56,2.56,0,0,1-1-3.42c1.75-4.69,7.13-8.38,11.92-8,1.18.1,2.3.21,2.64,1.69C929,559.71,931,568.12,933.08,577.26Z" transform="translate(0.1 1.85)"/><path class="cls-7" d="M816,603.37c-1,5.16-2.92,9.19-7.54,11.38-3.55,1.69-4.77,1.36-6.75-1.85-1.43-2.31-1.67-3.85-1.18-7.59C805.79,606.73,811.15,608.71,816,603.37Z" transform="translate(0.1 1.85)"/><path class="cls-10" d="M797.72,609.94l.2.19a1.62,1.62,0,0,1-.35.17s-.12-.11-.18-.17Z" transform="translate(0.1 1.85)"/><path class="cls-6" d="M1233.22,530.87c-2.06-6.68-3.63-13.26-6.17-19.45-2.1-5.13-.53-9.76.22-14.61a24,24,0,0,0,.6-4.87c-.63-9.49,3.7-17.58,7.15-25.91q42.09-101.67,84.17-203.34c.91-2.22,1.66-2.58,3.86-1.57,5.6,2.55,11.31,4.84,17,7.12,1.63.65,1.88,1.31,1.19,3q-23.91,57.58-47.7,115.21a4,4,0,0,1-1.67,2.27c-8,4.38-13.36,11.24-18.16,18.68-11.55,17.87-18.93,37.27-20.84,58.54-.48,5.27-.15,10.61-.1,15.92a14.58,14.58,0,0,1-1.14,5.89c-5.61,13.44-11.13,26.91-16.71,40.36A5.39,5.39,0,0,1,1233.22,530.87Z" transform="translate(0.1 1.85)"/><path class="cls-6" d="M1145.65,624.14c-6.5-2.81-11.42-6.6-16.18-10.67-8.6-7.36-13.42-17-16.6-27.61-2.26-7.56-5.45-14.84-7.1-22.57-2.39-11.17.8-21.28,7.2-30.32,4.37-6.18,13.31-8.57,20.33-6.38,1.4.44,1.52,1.52,1.87,2.64,4.79,15.52,9.34,31.11,15.37,46.23,3.34,8.37,9,15.23,13.63,22.72,2.34,3.76,4.8,7.46,7.39,11.06a5,5,0,0,1,.66,4.58c-.36,1.48-.8,1.51-1.83.56q-2.23-2-4.61-4c-2-1.65-4-1.84-6.24,0-4,3.29-8.82,4.15-13.84,4.12-3.45,0-4.16.9-2.94,4.11a25.93,25.93,0,0,0,1.28,2.59C1144.44,622,1144.87,622.73,1145.65,624.14Zm-8.56-27.87a3.49,3.49,0,0,0-.32-.35c.28-.37.55-.76.85-1.12.6-.72,1.58-1.45.5-2.4-.91-.82-1.59.07-2.18.66-2,2-4.06,4.11-6.09,6.17-.59.6-1,1.29-.36,2s1.18.33,1.84.06a153.2,153.2,0,0,0,14.17-6.46c.72-.37,1.47-.81,1.08-1.73-.52-1.23-1.38-.58-2.15-.22Z" transform="translate(0.1 1.85)"/><path class="cls-6" d="M1249.27,424.23c-5.18-9.39-10.45-18.69-15.45-28.12a44.22,44.22,0,0,0-8.41-11.21c-7.47-7.23-13.84-15.31-16.46-25.71a19.83,19.83,0,0,1-.57-2.84c-.7-7,2.9-11.22,10-11.72,7.48-.53,14.56,1.15,21.39,4a88.69,88.69,0,0,1,29.87,19.9c1.68,1.72,2,3.27,1,5.58-6.66,15.78-13.16,31.63-19.73,47.45A4.87,4.87,0,0,1,1249.27,424.23Zm-6.85-32.47a29.6,29.6,0,0,0,18-6c.76-.54,1.45-1.18.76-2.11s-1.38-.3-2,.12-1.27.86-1.93,1.25c-7.27,4.4-14.93,5.84-23.16,3-.75-.26-1.85-1.33-2.32.3-.37,1.33.85,1.54,1.69,1.9A24,24,0,0,0,1242.42,391.76Z" transform="translate(0.1 1.85)"/><path class="cls-7" d="M1209.85,568.14c-3.65.09-6.2-1-7.74-4.07-.77-1.54-1.88-2.9-2.8-4.37s-3-3.63-2.63-4.58c1.91-4.27.21-9.68,4.73-13.19,4-3.14,7.18-3.9,11.53-1.19,5,3.07,8.26,7.71,11.59,12.33.69,1,.36,1.52-.36,2.19a95.28,95.28,0,0,0-11.32,11.93C1211.9,568.46,1210.64,568.08,1209.85,568.14Z" transform="translate(0.1 1.85)"/><path class="cls-8" d="M1357.15,232.15c-.19.55-.39,1.2-.64,1.82-2.09,5.07-4.22,10.12-6.25,15.22-.62,1.55-1.24,2-3,1.28-5.82-2.55-11.69-5-17.58-7.33-1.55-.62-2.07-1.19-1.29-2.92,2.27-5.09,4.3-10.29,6.49-15.42,1.28-3,2.48-3.45,5.42-2.25,4.64,1.88,9.25,3.82,13.87,5.75C1355.9,229,1357.33,229.9,1357.15,232.15Z" transform="translate(0.1 1.85)"/><path class="cls-7" d="M1348.19,254c-.08.2-.16.48-.27.75-1.44,3.46-2.93,6.91-4.31,10.39-.46,1.18-1,1.4-2.15.89q-9.3-3.93-18.67-7.69c-1.08-.44-1.6-.85-1-2.1,1.5-3.44,3-6.89,4.32-10.39.48-1.25,1-1.32,2.13-.87,6.22,2.59,12.45,5.12,18.67,7.71C1347.41,253,1348.3,253,1348.19,254Z" transform="translate(0.1 1.85)"/><path class="cls-7" d="M1145,617c6-.22,11.7-.93,16.4-4.9a2,2,0,0,1,2.88.06c1.81,1.57,3.58,3.21,5.41,4.76,1,.81.49,1.42-.05,2.18-4.18,5.95-12.81,8.77-19.83,6.51a1.93,1.93,0,0,1-1.58-1.61C1147.57,621.61,1145.57,619.79,1145,617Z" transform="translate(0.1 1.85)"/><path class="cls-4" d="M809.47,42c5,.24,11.68,5.74,12.8,10.34.13.56.27,1.17-.34,1.54a1.18,1.18,0,0,1-1.72-.51c-.43-.64-.73-1.36-1.13-2-2.25-3.67-5.16-6.47-9.68-7-.9-.11-1.86-.24-1.6-1.48C808,41.82,808.93,42,809.47,42Z" transform="translate(0.1 1.85)"/><path class="cls-4" d="M860.73,50.82a4.54,4.54,0,0,1-.58.84c-.45.41-.91.19-1.27-.15a39.24,39.24,0,0,1-7-8.8,1.08,1.08,0,0,1,.35-1.53.91.91,0,0,1,1.3.13,88.3,88.3,0,0,0,6.94,8.85C860.62,50.29,860.63,50.51,860.73,50.82Z" transform="translate(0.1 1.85)"/><path class="cls-3" d="M986.78-.24Q968.9,18.18,951.05,36.63c-.61.63-1.86,1.33-1,2.35,1,1.18,1.88.09,2.61-.66Q971.36,19,990-.24Z" transform="translate(0.1 1.85)"/><path class="cls-5" d="M1188.43,513a1.17,1.17,0,0,1-1.09-.8,1,1,0,0,1,.61-1.4c4.55-1.83,9-3.79,13.4-6a.91.91,0,0,1,1.23.39,1,1,0,0,1-.24,1.51A73.18,73.18,0,0,1,1188.43,513Z" transform="translate(0.1 1.85)"/><path class="cls-4" d="M1193.8,503.12c0,1-.78,1.23-1.51,1.51a20,20,0,0,0-9.28,6.95c-.52.71-1.19,1.5-2.12.78s-.23-1.52.29-2.21a21.64,21.64,0,0,1,10.42-7.77C1192.56,502.05,1193.47,501.68,1193.8,503.12Z" transform="translate(0.1 1.85)"/><path class="cls-5" d="M1198.5,502.57a1.08,1.08,0,0,1-.85-.78,1.06,1.06,0,0,1,.86-1.51c1.58-.37,3.16-.72,4.75-1a1.08,1.08,0,0,1,1.41,1c.1.84-.35,1.19-1.14,1.32C1202,501.85,1200.53,502.17,1198.5,502.57Z" transform="translate(0.1 1.85)"/><path class="cls-4" d="M1175.26,568.52c-.22.88-.93,1.12-1.68,1.35-3.57,1.09-7.17,2.11-9.9,4.89a1.06,1.06,0,0,1-1.54.13c-.78-.69-.39-1.39.12-2,2-2.5,5-3.45,7.83-4.57a22.12,22.12,0,0,1,3.59-1A1.19,1.19,0,0,1,1175.26,568.52Z" transform="translate(0.1 1.85)"/><path class="cls-5" d="M1169.52,577.85a1.2,1.2,0,0,1-1.19-.72,1,1,0,0,1,.65-1.39,104.3,104.3,0,0,0,12.27-5.71,1,1,0,0,1,1.51.32,1,1,0,0,1-.22,1.52A70.26,70.26,0,0,1,1169.52,577.85Z" transform="translate(0.1 1.85)"/><path class="cls-4" d="M1137.09,596.27l7.34-3.36c.77-.36,1.63-1,2.15.22.39.92-.36,1.36-1.08,1.73a153.2,153.2,0,0,1-14.17,6.46c-.66.27-1.31.57-1.84-.06s-.23-1.43.36-2c2-2.06,4-4.13,6.09-6.17.59-.59,1.27-1.48,2.18-.66,1.08,1,.1,1.68-.5,2.4-.3.36-.57.75-.85,1.12-.25.06-.55.12-.36.44C1136.46,596.44,1136.85,596.31,1137.09,596.27Z" transform="translate(0.1 1.85)"/><path class="cls-5" d="M1242.42,391.76a24,24,0,0,1-9-1.51c-.84-.36-2.06-.57-1.69-1.9.47-1.63,1.57-.56,2.32-.3,8.23,2.8,15.89,1.36,23.16-3,.66-.39,1.28-.84,1.93-1.25s1.44-.93,2-.12,0,1.57-.76,2.11A29.6,29.6,0,0,1,1242.42,391.76Z" transform="translate(0.1 1.85)"/><path class="cls-14" d="M1137.09,596.27c-.24,0-.63.17-.68.09-.19-.32.11-.38.36-.44A3.49,3.49,0,0,1,1137.09,596.27Z" transform="translate(0.1 1.85)"/></svg>