<svg id="Capa_2" data-name="Capa 2" xmlns="http://www.w3.org/2000/svg" xmlns:xlink="http://www.w3.org/1999/xlink" viewBox="0 0 1920 654.24"><defs><style>.cls-1{fill:url(#Degradado_sin_nombre_27);}.cls-2,.cls-6{fill:none;}.cls-2{stroke:#000;stroke-miterlimit:10;}.cls-3{fill:#2f3b40;}.cls-4{fill:#303c41;}.cls-5{fill:#354046;}.cls-7{fill:#2197a3;}.cls-8{fill:#d1d1d1;}.cls-9{fill:#f2f3f3;}.cls-10{fill:#fefefe;}.cls-11{fill:#91e1a7;}.cls-12{fill:#fcfcfc;}.cls-13{fill:#91e1a8;}.cls-14{fill:#fcfdfd;}.cls-15{fill:#ddf5e4;}.cls-16{fill:#fff;}</style><linearGradient id="Degradado_sin_nombre_27" x1="960" y1="3894.64" x2="960" y2="-672.12" gradientUnits="userSpaceOnUse"><stop offset="0.55" stop-color="#f07868"/><stop offset="0.72" stop-color="#ebb970"/><stop offset="0.81" stop-color="#fff"/></linearGradient></defs><title>Banner2</title><rect class="cls-1" y="1.58" width="1920" height="652.66"/><path class="cls-2" d="M665.1,1.5l.6-1" transform="translate(0 1.6)"/><path class="cls-2" d="M603,650.48l-3-3c-1-1-3-1-4-2-23-18-39-41-49-68-3-10-6-20-8-31-2-13-3-25-4-37-2-31,1-60,6-91,4-32,7-61,13-93,5-25,10-47,16-71,17-64,35-124,62-183,7-25,21-47,33.1-70" transform="translate(0 1.6)"/><path class="cls-2" d="M836,650.49a75.14,75.14,0,0,0,8-13c16-33,28-67,40.73-101.27,1.07,1.64-5.85,16.1,0,0,.27,3.27,1.27,6.27-1.73,8.27a27.63,27.63,0,0,1,1.73-8.27c5.84,10.25-.49,1.45,0,0C894,551.48,908,561.48,923,571.48l6,6c2,2,5,3,7,4-2.91-16.59-4.78-.2,0,0-5-21-5-43-16-62-6-11-16-20-21-31,3-26,17-52,3-77-3-6-11-7-18-5-2,1-5,2-7,3-2,2-3,3-5,4-1,0-4,1-5,0-8-10-18-17-29-23a57.31,57.31,0,0,1-11-11c-28-49-59-91-89-140-5-8-15-4-21,1a10.82,10.82,0,0,0-2,13c17,33,36,63,57,95,4,7,6,13,11,19-10,12-19,24-28,37-7,10-13,19-20,27-8,8-20,8-30,11-2,1-4,3-6,4-8,3-16,6-21,13-3,6-3,12-3,18,0,1-1,2-2,3-7,2-15,3-20,9-8,12-9,25-10,39-1,9-5,19-12,25-9,32,8,63,13,95,.15.67.3,1.33.46,2" transform="translate(0 1.6)"/><path class="cls-2" d="M1304.82,650.48c9.18-27,18.18-55,21.18-84,1-17,2-34,0-52-3-24-12-46-13-70-1-14,7-26,12-40,1-6,1-12-5-16-8-5-16-5-23.75-2.13,1.37-3.41,2.25-7.15,4.67-10-.21,3.41-1.41,8.26-4.67,10,9.53-22.3,18.54-44.82,27.6-67.31s18.12-44.88,27.84-67q3.6-8.2,7.32-16.37c1.94-4.25-.86-8.47-4.44-11a25,25,0,0,0-11.75-4.28c-5.72-.61-8.81-.27-11.7,5.27-5.41,10.35-9.33,21.72-13.72,32.53q-6.9,17-13.63,34.09c-9,22.69-17.9,45.41-27.26,67.94q-1.79,4.29-3.59,8.58c-1.71-1,.89-2,0,0a90,90,0,0,0-31.51-22.63c-9.73-4.13-27.07-9.87-33.64,2.21-2.46,4.5-2.1,10-1,14.83,1.45,6.38,7,10.92,11,15.94a291.73,291.73,0,0,1,23.9,34.76c3.12,5.34,8.47,12,5.5,18.34-3.75,7.95-8,15.63-10.53,24.08a9.3,9.3,0,0,1,.52-3.42,32.81,32.81,0,0,1-.52,3.42c-.37-.9-2.1-5.32,0-5.26s.44,4.28,0,5.26c-5-7.74-6.68-17.19-12-24.73-9.66-13-29.66-15-41.66-4-13,13-12,31-14,48-9.18-3,1.66-10.86,0,0-8-2-17-2-24,4-13,11-16,30-10.7,45-2-1.18-2.86-4.36-2.68-6.55,1.55,1.81,2,4.34,2.68,6.55-1.61-.51-7-3.06-5.49-5.41,2.47-3.84,5.33,4,5.49,5.41a12.39,12.39,0,0,1-4.29-.88c1.25-.42,3.43-.21,4.29.88-10.3-1-22.3,2-27.3,12a44.67,44.67,0,0,0-3,28c3,9,8,17,9,27,2,20,3,39,4.27,58.52" transform="translate(0 1.6)"/><path class="cls-2" d="M791.6,1C787,19.48,783,37.48,783,55.48a167.29,167.29,0,0,0,16,79c2,5,4,10,0,15-3,3-6,5-9,8a30.39,30.39,0,0,1-5,7c-6,8-9,17-11,27,8.28-1.1,1.31-3.47,0,0,19-3,35-13,51-24,2-1,5-2,7-3,7-3,15-1,19,5s4,14,9,19c3,3,8,7,13,5,13-7,27-6,39,2,2,1,5,1,7,1,1,0,1,2,2,2,13,4,25,8,38,5,9-1,11-13,8-21,8.42-1.5,1.08,5.24,0,0,12-2,28-2,32-17,3-14-6-27-20-29.76a5.14,5.14,0,0,1,2.2.31,1.82,1.82,0,0,1-2.2-.31c13-.24,25,2.76,37,6.76,19,7,38,15,57,22,14,4,28,6,42,8,31,2,63-1,92-15,3-1,5-2,8-2,16,3,30,7,46,10,60,15,117,26,175,40,17,18,24,42,32,65,5,19,9,38,9,57,1,19,2,38-2,58-2,18-5,34-8,52,0,2-2,4-3,6-4,10-3,20-7,30-2,4-3,7-5,11-4,11-5,21-9,32a841.26,841.26,0,0,1-37,81c-10,18-20,35-31.72,51.87" transform="translate(0 1.6)"/><path class="cls-3" d="M1143.25-1.6h-7.55c11.55,5.39,24.16,6.65,36.52,8.75,22.24,3.78,44.6,6.77,67,9.64q24.09,3.09,48.2,6.11c.95.12,2.38.78,2.49-.93.09-1.3-1.23-1.25-2.15-1.37-24.19-3.13-48.39-6.16-72.57-9.41-10.87-1.47-21.77-2.85-32.55-5C1169.27,4.34,1156,2.44,1143.25-1.6Z" transform="translate(0 1.6)"/><path class="cls-3" d="M908.16,2A54.93,54.93,0,0,0,912,9.41c.47.79.86,2,2.08,1.38s.44-1.68,0-2.47A62.17,62.17,0,0,1,909.89,0h-2.52C907.58.5,907.81,1.14,908.16,2Z" transform="translate(0 1.6)"/><path class="cls-3" d="M1463.78,209.06l-1.41-.33c-77.36-17.37-154.68-34.94-232.25-51.34-6.84-1.44-13.54-3.21-20.72-.8A267.09,267.09,0,0,1,1171,166.2c-15.71,2.77-31.5,4.66-47.47,4.13-25.15-.83-48.73-8.21-71.79-17.64-.32-.13-.72-.25-.56-1,6.52-.69,13.09-1.86,19.18-4.51,5.85-2.54,11.89-3.39,18.16-4a113.38,113.38,0,0,0,56.33-21.47c.8-.58,1.84-1.16,1.12-2.27s-1.72-.25-2.44.29a100.88,100.88,0,0,1-14.25,8.82c-21.27,11-43.75,15.16-67.53,11.94-13.62-1.85-26.67-6.06-39.83-9.75-18.64-5.22-36.94-11.7-56.22-14.44-14.38-2-28.65-2.55-42.59,2.48-6.73,2.43-13.57,5.07-18.34,10.58a73.24,73.24,0,0,1-21.37,17c-13,6.88-27.13,11-41.07,15.46-10.59,3.38-20.38,1.28-29.15-5.53-.86-.67-2.65-1.4-2.05-2.36.82-1.34,2,.34,2.81.79,10.16,5.36,19.92,3.9,28-4.29a64,64,0,0,0,6.2-7.62c1.46-2,1.53-3.28-1-4.71a22.12,22.12,0,0,1-10.75-14.41,166.1,166.1,0,0,1-3.55-21.38c-.13-1.2.34-2.85-1-3.4-1.61-.67-2.27,1.14-3.12,2-5.6,5.86-11.09,11.82-16.68,17.69-.67.71-1.22,2.61-2.44,1.58-.85-.72.68-1.77,1.32-2.48,12.22-13.8,24.77-27.3,37.8-40.33a18.77,18.77,0,0,1,7.58-4.64c3.38-1.11,6.8-2.17,10.26-3,13-3.08,26.11-5.93,39.12-9.08,27-6.54,52.78-16.48,78.32-27.19,2.22-.93,4.44-1.88,6.65-2.82.74-.32,1.56-.74,1.19-1.66s-1.25-1-2.18-.54c-.76.39-1.59.67-2.39,1l-22.73,9.34c-.43.11-1.1.46-1.24.3-.51-.54.27-.68.5-1q18.88-19,37.77-38.1h-3.22Q978.26,20.17,958.21,40.4a8.23,8.23,0,0,1-2.78,2C929.69,52.56,903.07,59.57,876,64.81c-.24.21-.48.34-.71,0a3.33,3.33,0,0,1,.39-.35,155.63,155.63,0,0,1,11.76-13.13Q913.15,25.66,939,0h-3.31Q910.91,24.57,886.2,49.14c-3.48,3.46-6.61,7.27-9.91,10.91l-.71.85a18.6,18.6,0,0,1-13,7.49c-8.92,1.27-15.41,6.61-21.25,13-2.9,3.17-5.9,6.25-9.18,9.71,0-2-.09-3.53,0-5,.68-8.87-2-17.18-4.29-25.54-.72-2.66-.52-4.53,1.43-6.69,7.84-8.64,12.41-19.26,17-29.77,2.19-5.07,5.23-7.33,10.59-8.45,12.42-2.6,24.93-5.1,36.62-10.34C896.86,3.79,900.19,2,903.5.26L904,0h-4.77a88.87,88.87,0,0,1-14.59,6.22c-10.91,3.51-22.12,5.93-33.28,8.52-.78.18-1.37.33-1.71-.81C848,8.43,844.8,4.05,841.16,0H838c.67.73,1.33,1.46,2,2.21A40.32,40.32,0,0,1,846.64,12c.76,1.71,1.25,3.51.37,5.31-5.49,11.12-9.43,23.2-17.81,32.58-4.29,4.8-4.71,9.07-2.73,14.71a58.49,58.49,0,0,1,2.94,25.94,10.51,10.51,0,0,1-2.87,6.65,268.54,268.54,0,0,0-20.4,22.9,40.71,40.71,0,0,0-6.24,12c-3.5-3.92-4.78-8.41-5.68-12.86-3.49-17.27-6.89-34.58-10-51.94-1.27-7.21.68-14.39,1.94-21.5,2.72-15.39,6.56-30.55,10-45.79h-2.12a5.12,5.12,0,0,1-.56,0c-3.34,14.78-6.59,29.57-9.63,44.4-1.83,8.93-3.66,18-1.43,27.21.93,3.84,1.52,7.75,2.27,11.63,2.32,12.12,4,24.36,7,36.35,1.13,4.58,2,9.49,5.42,12.91s1.13,8.12,2.89,11.85c-2.42,1.82-2.16,5.3-4.28,7.21a49.05,49.05,0,0,0-11.85,16.16c-2,4.45-4.56,8.69-6.86,13-.35.68-1.08,1.63-.86,2.06,1.41,2.73-.88,4.43-1.59,6.56-.26.77-1.13,1.52-.32,2.38s1.76.12,2.58-.29c1.54-.77,3.46-2.56,4.54-2.14,2.29.89,3.73-.36,5.41-1,2.7-1,5.29-2.31,8-3.42,8.07-3.39,16.32-6.49,21.8-13.92a5.25,5.25,0,0,1,.4-.42c.57-.61,1.16-.67,1.68,0,1.42,1.86,2.56.86,3.77-.28,1.4-1.33,2.88-2.58,4.28-3.9a3,3,0,0,1,2.55-1,35.75,35.75,0,0,0,13.72-1.43c1.77-.49,2.59,0,3.42,1.51,2.37,4.3,4.87,8.54,7.36,12.78a50.63,50.63,0,0,0,9.47,12.35,10.34,10.34,0,0,0,9.33,2.69,24.89,24.89,0,0,0,11.74-5.92,3.85,3.85,0,0,1,4.38-.75C904.4,192,920.18,197.41,936.22,202c6.5,1.86,13.1,3.2,20,2.11s12.27-5.2,11.55-13.53a32.69,32.69,0,0,0-.9-6.58c-.77-2.59.08-3,2.49-3.1,7.95-.37,15.7-1.71,22.79-5.66,5.39-3,7.72-7.36,6.86-13.42a54.11,54.11,0,0,0-1.82-8.47c-2.61-8.36-7.83-14.26-16.48-16.75-.56-.16-1.42.1-1.68-.87,4.85,0,9.67.05,14.49,0a20,20,0,0,1,6.21,1c24,7.34,47.16,16.94,70.75,25.39a177.59,177.59,0,0,0,79.77,9.41A301.09,301.09,0,0,0,1211,158.67a18.51,18.51,0,0,1,9.65-.8c8.87,1.82,17.79,3.45,26.63,5.4q87.36,19.24,174.68,38.64c5.22,1.16,10.56,1.84,15.57,3.84,3-.11,5.69.93,8.51,1.51,5.75,1.2,11.47,2.55,17.22,3.81.69.15,1.63.61,1.93-.51S1464.56,209.26,1463.78,209.06ZM810.64,153.89c-1.79-.78-2.94-2.33-4.18-3.83.13-.28.19-.61.37-.72a.82.82,0,0,1,.75,0c1.25,1.18,2.5,2.36,3.64,3.63C811.5,153.34,811.24,154.16,810.64,153.89ZM807,123.4c.07,0,.24.16.37.25l-.43.53-.51-.34A2.9,2.9,0,0,1,807,123.4Zm-.56,7.29a7.58,7.58,0,0,1,1.47-3.69c7.1-8.26,14.69-16.07,22.53-24.47A202,202,0,0,0,834,124.12a25.06,25.06,0,0,0,10.66,15.25c1.41.95,1.69,1.64.61,3.14-3.89,5.41-8.15,10.45-14.83,12.29C815.79,158.86,803.12,146.09,806.41,130.69Zm-2.54-2.48a5,5,0,0,1,2-3.42c.67,1.95-1.35,2.68-1.31,4.11a26.18,26.18,0,0,0,1.9,18.72c.26.55,1,1.21.31,1.73-.92.64-1.32-.44-1.71-1C800.37,141.91,800.83,135.13,803.87,128.21Zm.75,49.78q-10.05,4.35-20.1,8.73c-2.36,1-2.82-1.4-4.07-2.32-.81-.6-2.1-1.28-1.28-2.79l11-20.32c5.12,5.12,10,10,14.91,14.88C806,177.1,805.64,177.55,804.62,178Zm3.46-2.41a5.89,5.89,0,0,1-1.31-1.1c-4.63-4.63-9.21-9.31-13.9-13.88-1.21-1.18-1.13-1.86.06-2.93,2.21-2,4.16-5.56,6.47-5.78s4.28,3.61,6.41,5.65c3.05,2.93,6,6,9,9,.4.4.79.82,1.12,1.16C816,168.35,808.51,175.79,808.08,175.58Zm16.27-10.18c-3.57,3.73-3.58,3.74-7.08.19q-4.56-4.62-9.09-9.25l-.58-.58-.56-.58c-.19-.2-.39-.4-.58-.61l-.58-.63-.58-.53-.58-.55-.58-.57-3.53-3.35c-.45-.43-.77-.84-.14-1.39s1-.25,1.39.29l2.68,4,.56.61.55.6.56.6.6.56.61.55.61.54c.19.2.38.39.58.58,5.07,3.43,10,7.09,16,8.75A2.75,2.75,0,0,1,824.35,165.4Zm105.14-45.65c.11-.62.79-.76,1.72-.74a6.83,6.83,0,0,1,.78.28c5.9,2.83,11.17,6.44,14.89,12,.54.8,1.3,1.7.24,2.52-.84.65-1.42-.19-1.83-.82-3.58-5.39-8.6-9-14.38-11.68C930.25,121,929.31,120.73,929.49,119.75Zm-22.78,10.64c.3-.36.65-.69.93-1a3.42,3.42,0,0,1,1.92,1.36,18.77,18.77,0,0,1,4.7,10.33,3,3,0,0,0,2.63,2.82c2,.49,3.82,1.26,5.73,1.9.88.29,1.42.61,1.09,1.8-.42,1.54-1.15.35-1.71.31a12,12,0,0,1-1.35-.46c-5.42-1.07-9.51-3.25-9.74-9.72-.09-2.38-1.91-4.34-3.73-6C906.8,131.41,906.13,131.08,906.71,130.39Zm-7.22,11.83c.12-1,.88-1.17,1.7-1.06,2,.29,3.94.65,5.92.93.88.13,1.53.53,1.38,1.44s-1,1-2.25.83c-1.54-.26-3.51-.57-5.48-.91C900.08,143.33,899.39,143.1,899.49,142.22Zm-37,34.69c-.43,2.79-.08,5.69-.08,8.54-5.05-5.32-8.34-11.55-11.92-17.59-3.06-5.15-3-5.16,2.62-7.07,4-1.34,4-1.34,6.12,2.38C861.75,167.42,863.3,171.81,862.53,176.91ZM871.67,191a7.39,7.39,0,0,1-3.95-.45c-1.77-.74-3.33-1.55-2.89-4.17.34-2-.15-4.22-.3-6.84,1.63-7-.28-13.63-4.6-19.73-.7-1-.29-1.26.62-1.59,6.06-2.23,12.24-4.12,18.12-6.82.93-.43,1.65.05,2.41.51a32.15,32.15,0,0,0,5.25,3c4.15,1.54,5.07,4.63,5,8.61a57.27,57.27,0,0,1-.69,9.8C889,181.76,880.16,189.89,871.67,191Zm57.14,6.39c-5.06-1.55-10.08-3.28-15.14-4.82-1.64-.5-2.58-1.09-3-3.05-.45-2.22-1.48-4.36-1.64-6.69-.25-3.84,1.14-5.4,4.92-5.39,9.53,0,18.64,2.68,27.85,4.63,1.24.26,1.49.95,1.42,2.07a36.27,36.27,0,0,0,3.35,17.62C940.18,201,934.5,199.17,928.81,197.43Zm27.46,4.26c-8.57,1-6.66,2-9.4-6.28a31.13,31.13,0,0,1-1.16-12.3c.1-1.32.07-2.38-1.65-2.8-9.44-2.35-18.87-4.83-28.65-5.13-7.24-.22-9.78,3-8.41,10.14.31,1.6.85,3.15,1.28,4.72l.23.6-.67-.09q-9-3-18.09-6c-.71-.24-2-.17-.9-1.59,5-6.63,5.14-14.34,4.58-22.1-.15-2,.26-2.91,2-3.76,7.69-3.65,15.5-6.85,24.08-7.71a14.71,14.71,0,0,1,7.13.64c6.78,2.86,14,4.67,20.29,8.67,9.87,6.32,15.35,15.64,17.86,26.88a27.86,27.86,0,0,1,.63,6.89C965.32,197.67,962.36,201,956.27,201.69Zm33-27.69c-1.4,1.57-3.39,1.75-5.25,2.22a64.19,64.19,0,0,1-16.7,2.58c-1.85.08-2.27-1-2.45-2.42-3.4-5.79-6.53-11.77-11.65-16.33-.92-.82-.37-1.52.2-2.23a7.88,7.88,0,0,1,5.21-2.84c7.83-1,15.68-1.79,23.57-2.11,3.15-.13,5,1.17,5.94,4.24A34.48,34.48,0,0,1,990,167.57c0,2.67-1.14,4.24-3.9,4.81a95.29,95.29,0,0,1-18.37,1.69c-1.45,0-3.12-.23-2.71,2.15a81.44,81.44,0,0,0,19-.94l5.24-1.3a.6.6,0,0,1,.73-.54c.09,0,.17.2.25.31Zm6.93-15.37a30.12,30.12,0,0,1,.65,6.9,8.39,8.39,0,0,1-5.87,7.25c2.52-6.19.73-11.95-1.2-17.72a6,6,0,0,0-5.5-4.35c-4.67-.55-9.23.33-13.83.75-3.93.35-7.88.59-11.8,1.09a10.52,10.52,0,0,0-7.36,4.15c-.47.62-.7,1.34-1.75.69-5.49-3.4-11.55-5.64-17.86-8.34,5.52-5.23,11.11-9.59,17.85-12.32a23.1,23.1,0,0,1,13.85-1c4.24.89,8.54,1.51,12.81,2.29C987.67,140.19,994.28,147,996.15,158.63Z" transform="translate(0 1.6)"/><path class="cls-4" d="M936,579c-3-13.11-6.21-26.16-8.81-39.35a57.16,57.16,0,0,0-9.36-22.06c-6.1-8.79-11.66-18-17.52-26.92a5,5,0,0,1-.81-4.31,275.48,275.48,0,0,0,7.13-36c1.24-10.69,1.84-21.38-.82-31.93-2.18-8.62-8.83-13.17-17.67-12.25a29.71,29.71,0,0,0-16.21,7c-1.38,1.16-2.1,1.21-3.43-.16-5.66-5.8-11.39-11.53-18.37-15.82-4.76-2.93-9.44-6-14.21-8.91a14.16,14.16,0,0,1-4.69-4.58q-29.78-46.22-59.62-92.38-16-24.8-32-49.59c-2-3.11-4.32-5.82-8.15-6.38-6.66-1-11.6,2.13-15.38,7.26-3.44,4.67-2.92,9.36.06,14.26,14.76,24.21,29.37,48.51,44,72.78,7.43,12.29,14.82,24.62,22.31,36.88,1.08,1.76,1.21,2.73-.67,4.14-2.78,2.07-4.91,4.89-7.08,7.6-11.19,13.92-21.33,28.62-32,42.91-9.29,12.43-9.3,12.4-23.94,17.42a240.15,240.15,0,0,0-31.42,13.23c-8.61,4.39-13.37,10.74-12.94,20.6a29.35,29.35,0,0,0,.17,4.61c.52,2.46-.5,2.89-2.73,3.31-11,2.06-19.63,7.08-23.25,18.58-3.76,11.92-5.75,24.17-7.48,36.49a14.18,14.18,0,0,1-2.85,7.34c-4,5.07-7.52,10.53-8.54,17.14a86.05,86.05,0,0,0-1,20.36c1.18,14.45,4.88,28.28,9.22,42,2.89,9.12,5.22,18.37,7.21,27.69a5,5,0,0,1,2-.41l.31,0c0-.12,0-.23-.08-.35a319.69,319.69,0,0,0-9-33.43,144,144,0,0,1-7.62-39.33c-.53-12.36,2.32-24,10.62-33.7a6.81,6.81,0,0,0,1.56-3.62c2-13.34,3.74-26.74,8-39.63a25.21,25.21,0,0,1,24.89-17c24.12,1.09,48.25,1,72.38.42a155.87,155.87,0,0,1,22.24.88c7.49.87,13.43,4.11,17.8,10.46A481.65,481.65,0,0,1,820.82,549c4.33,8.49,7.72,17.23,7.79,27a26.65,26.65,0,0,1-4,14.56c-3.7,6-6.13,8.6-9.63,10.51a1.42,1.42,0,0,0-.4.41c-2.72,3.7-6.38,3.72-10.4,2.81-5.56-1.24-5.58-1.17-6.21,4.37-.05.46.08,1-.49,1.22-.75.27-1-.44-1.3-.85a54.66,54.66,0,0,1-5.58-8.77,18.16,18.16,0,0,1-2.37-8.78,26.68,26.68,0,0,0-5-15.95c-6.79-9.61-14.07-18.87-20.14-29-.8-1.33-1.89-1.35-3.19-1.42-5.87-.36-11.61.82-17.69-.71-10.61-2.68-21.62-3.78-32.46-5.55-5.89-1-11.78-1.92-17.67-2.85-1.53-.25-3.86-2.24-4.37.06-.42,1.92,2.55,2,4.24,2.31,14,2.31,27.93,4.83,42,6.73,8.62,1.17,16.35,3.49,22.07,10.47,8.27,10.09,17.52,19.27,26.44,28.76a12,12,0,0,1,3.32,11.63,44.44,44.44,0,0,1-4,11.42c-5.39,10.23-18.67,16.62-29.81,14.4-5.39-1.08-8.2-4.92-7.47-10.22.15-1.16.23-2.26,1.85-1.07,3,2.2,6.38,2.5,9.92,2,1-.14,2.46-.06,2.28-1.53-.19-1.62-1.66-.89-2.6-.81-4.25.38-8.07-.22-10.77-4a5.43,5.43,0,0,0-1.87-1.31c-3.89-2.1-7.87-4.07-11.7-6.29-2.57-1.49-5-2-7.93-1a13.19,13.19,0,0,1-6.89.19,148.8,148.8,0,0,0-22.32-2.3c-6.8-.16-13.39-2-17.92-7.9-.57-.75-1.07-1.91-2.22-1s-.11,1.74.41,2.45c3.85,5.29,9.49,7.37,15.59,8.43,3.14.54,6.36.64,10.16,1-6.82,4.88-13.69,5.28-20.84,3.41a65.53,65.53,0,0,1-7.54-2.86c-.73-.29-1.33-.3-1.76.4s.07,1.25.66,1.62a14.9,14.9,0,0,0,1.55.77,33.14,33.14,0,0,0,20.74,3c-5.72,5.74-11.83,9-19.54,8.94a59.85,59.85,0,0,1-14.61-1.75c-.79-.21-1.89-.51-2.2.66s.66,1.41,1.53,1.68a46.12,46.12,0,0,0,19.18,1.55c4.34-.5,8.63-1.8,11.85-4.88,2.81-2.68,5.79-2.78,9.28-2.3,5.35.75,10.78,1.56,16.12.39,4.76-1,8.73.33,12.49,3,4,2.81,8,5.78,12.11,8.42s8.24,4.93,13.37,4.86c11.46-.13,21.26-4.1,29.24-12.37,1.53-1.59,2.22-1.78,3.31.51,1.81,3.82,5,6.69,9.34,5.92a77,77,0,0,1,10.5-1.15,12.7,12.7,0,0,0,11.69-9,53.42,53.42,0,0,1,8.44-15.68c5.31-6.94,6.62-14.83,5.32-23.28-.52-3.35-1.25-6.67-1.93-10.26a29.67,29.67,0,0,0,2.93,1.34c3.05,1,6.15,2.86,9.11-.22.42-.43.9-.19,1.34,0,5.78,2.5,11.4,1.13,16.84-1s10.36-6.5,9.13-13.32c-.37-2.08-.57-4.2-1-6.28-1.48-7.84-3.49-15.6-2.48-23.74.62-5-.31-9.95-1.44-15.16a4.38,4.38,0,0,1,2.15,2.36c5.45,9,10.82,18,16.35,27a5.59,5.59,0,0,1,.53,5.35c-4.78,14-10.19,27.66-15.78,41.32-7.85,19.18-15,38.62-23.87,57.41a86,86,0,0,1-9.33,15.59l2.76,0a87.27,87.27,0,0,0,10.66-18.64c12.61-30.05,24.9-60.22,36.4-90.72.55-1.46,1-3,1.65-4.91a30,30,0,0,1,1.8,2.66A43.8,43.8,0,0,0,899.64,554c11.35,8.65,22.3,17.83,33.44,26.76.76.61,1.48,1.77,2.71,1.07S936.26,580,936,579ZM797.67,610.56s-.12-.11-.18-.17l.32-.19.21.18A1.46,1.46,0,0,1,797.67,610.56ZM808.54,615c-3.55,1.69-4.78,1.35-6.75-1.85-1.43-2.32-1.68-3.86-1.18-7.59,5.27,1.42,10.64,3.4,15.47-1.94C815.05,608.78,813.16,612.81,808.54,615Zm64-199.38c3.74-3.83,15.55-9.58,22.93-6.29,5,2.2,7.59,6.18,8.51,11.24,2.88,15.78.61,31.33-2.52,46.79-1.2,5.92-2.64,11.79-4.12,18.34-.71-.93-1-1.28-1.28-1.67-1.09-1.71-2.87-3.35-3.06-5.15s2.44-2.84,3.72-4.29c4.3-4.85,4.72-10.06,2.11-15.81-4.09-9-9.74-17.05-15.39-25.11-3.6-5.13-7.05-10.37-10.58-15.55C872.35,417.34,871.59,416.63,872.57,415.63ZM717.94,255.1c-4.11-6.75.45-14.81,8.74-17.23,4.64-1.36,7.72,0,10.67,4.59q36.38,56.22,72.73,112.46c5.91,9.15,11.73,18.35,17.59,27.52.11.12.34.31.32.34-.24.34-.41.12-.58-.1a142,142,0,0,1-18.77-11.34c-6.33-4.54-13-4.78-20-3.55a2.79,2.79,0,0,1-3.44-1.57Q751.64,310.6,717.94,255.1ZM739.3,429.71c13.68-17.46,26.05-35.89,40-53.17,6-7.44,13.61-7.37,21.72-6.73a5.28,5.28,0,0,1,2,1c16.07,9.93,32.31,19.6,48.14,29.92a75.44,75.44,0,0,1,21.7,21.39c2.45,3.67,4.91,7.32,7.5,11.19-7.41,0-10.93,5.6-15.42,9.83-4.19,3.93-3.92,8.13-1.91,13,4.35,10.56,20,17,28.38,16.12,1.58-.16,2.84-1.21,4.52-1.72-.23-2-.81-2.78-2.79-1.36-1.47,1.05-3.36,1-5.06.72-7.72-1.15-14.6-4.07-19.93-10a15.58,15.58,0,0,1-1.68-2.34c-3.6-5.85-3.5-8.45.93-13.5,2.27-2.59,4.54-5.27,7.61-7,4-2.33,7.08-1.78,9.57,2.07,4.92,7.58,10.5,14.81,13.2,23.65.89,2.93.53,5.57-1.71,8.66a4.21,4.21,0,0,1-1.52,2.09c-9,8.65-22.48,12.44-35.45,1.86-7.32-6-14.07-12.45-18.87-20.58-4.22-7.14-9.74-12.22-17.87-14.31-3-.77-5-2.81-7-5.17C809,427.93,802.16,421,792.89,417.1a19.93,19.93,0,0,0-13.55-.84,343.88,343.88,0,0,0-36.23,12.82c-1.07.43-2.16.82-3.24,1.23-.3.19-.64.42-.91,0C738.9,430.25,739.18,429.93,739.3,429.71ZM843.13,468.5Q833,456.25,822.84,444c-.24-.12-.55-.28-.3-.57.08-.1.47.07.72.12,5,1.26,8.71,3.77,11.06,8.65,2.23,4.66,5.28,8.92,7.94,13.38C842.77,466.46,843.71,467.24,843.13,468.5Zm22.81,79.16a7.64,7.64,0,0,1-3.45,7.48c-10.6,7-20.63,6.55-29.12-3.81-5.38-6.57-8.14-14.38-11.32-22-1.56-3.74-2.9-7.56-4.22-11.39a8,8,0,0,0-1.64-2.67c-5.72-6.53-11.31-13.18-17.2-19.56-3.61-3.91-8.42-6.41-12.74-9.45-4.88-3.43-8.22-7.76-9.4-13.67-.19-1-.14-2.49-1.67-2.16s-.85,1.75-.67,2.69a22.62,22.62,0,0,0,4.1,9.46c-2.73.22-4.91-.9-7.22-1.16a208,208,0,0,0-29.21-.77c-20.84.61-41.68.39-62.52-.3-1.8-.06-2.65-.47-2.61-2.41.07-2.7-.21-5.38-.1-8.1.28-6.89,3.4-11.71,9.52-15a181.92,181.92,0,0,1,28.84-12.63c13.94-4.6,27.16-11,40.94-16,7.17-2.58,14.36-5.05,21.62-7.37,8.57-2.73,15.69-.17,22.36,5,6.38,4.93,11.7,10.88,16.86,17,12.26,14.65,24.9,29,36,44.58a48.41,48.41,0,0,1,9.08,33.57c-.33,3.38,1.46,7.26-2.63,10.23-3.11,2.27-5.35,5.79-8.73,7.92-1.79,1.12-3.7,2.06-5.59,3-5.4,2.73-6.58,11.2-2.12,15.28.54.49,1.06.91,1.77.43.87-.6.55-1.33.06-2a10.09,10.09,0,0,1-2-4.42c-.55-3.32.67-5.83,3.75-7.24a37.27,37.27,0,0,0,14.17-11.16c.41-.53.79-1.08,1.67-2.29C863.94,535.75,865.41,541.61,865.94,547.66ZM888.39,537q-20-33-39.93-66.07a17.72,17.72,0,0,1-.83-1.82c-.07-.2-.25-.55-.21-.58.29-.21.4,0,.49.28a139.57,139.57,0,0,0,12.44,10.3c9,6.41,18.4,6.72,28,1.72,1.89-1,2.67-.77,3.81,1,8,12.6,16.18,25.12,24.28,37.67.36.55.91,1,.77,1.82-13.66-1.79-23.12,3.44-27.81,16.71C888.73,538.06,888.65,537.37,888.39,537ZM908.57,558c-4.55-3.73-9.31-7.21-13.67-11.13-3.25-2.93-3.65-6.84-2.14-10.92a20.37,20.37,0,0,1,20.06-12.76c5.42.45,8.85,3.37,10.08,8.69,1.19,5.13,2.31,10.29,3.53,15.76a13.67,13.67,0,0,0-9.94,2.1,14,14,0,0,0-6.09,7.42C910.07,558.21,909.92,559.12,908.57,558Zm11.5,8.59c-2.14-1.79-4.22-3.66-6.43-5.36a2.56,2.56,0,0,1-1-3.42c1.75-4.69,7.13-8.38,11.91-8,1.19.1,2.31.21,2.65,1.7,1.93,8.41,3.88,16.82,6,26Z" transform="translate(0 1.6)"/><path class="cls-4" d="M1358.49,236.4c2.46-5.93,1.46-8.27-4.54-10.71L1342.48,221c-5.67-2.3-8-1.34-10.32,4.34-5,12-9.87,24.13-14.85,36.18q-15,36.34-30.1,72.68-7.12,17.22-14.29,34.5c-.38-.22-.7-.29-.86-.49-6.5-8.1-15.21-13.3-24.1-18.16-9.26-5.06-19.11-8.29-29.88-7.58-7.64.5-12.11,5.12-12,12.44a29.27,29.27,0,0,0,3.4,12.74,74.11,74.11,0,0,0,16.4,21.16,13.39,13.39,0,0,1,2.91,3.18c6.19,11.23,12.38,22.46,18.66,33.65a4.36,4.36,0,0,1,.16,4.31c-2.62,6.11-5.1,12.27-7.64,18.41-1,2.41-2,4.82-3.31,7.87-3.15-6.74-7-12.29-9.38-18.63-3.29-8.67-8.1-15.85-18.43-17a49,49,0,0,0-8.39.05c-13.14.84-21.21,7.22-25.24,19.67-3.5,10.82-5,22-5.78,33.24-.14,2.1-.48,2.66-2.63,1.85-5.63-2.12-11.16-1.49-16.5,1.16-11.55,5.72-19.6,21.49-18,35.34a99.29,99.29,0,0,0,2,12.54c-1.54-.14-2.76-.29-4-.35-7.83-.4-14.78,1.5-19.62,8.17a46.58,46.58,0,0,0-6.2,13c-2.94,9-1.84,17.81,1.28,26.62,2.5,7.06,5.68,14.06,6.53,21.51,1.8,15.81,2.9,31.7,4.33,47.55.3,3.36.66,6.72,1,10.06l2.49.11q-2.42-20.6-4.09-41.28c-.26-3.17-.92-6.35-.32-9.65,2.38,4.19,4.44,8.49,6.63,12.72,5.23,10.12,12.36,18.16,23.83,21.32a48.45,48.45,0,0,0,20.92.87c2.3-.38,4.28-.32,6.22,1.15a42.63,42.63,0,0,0,5.39,3.36c1.23.68,1.42,1.39,1.12,2.78q-.87,4-1.68,8.06c0,.12,0,.25-.07.38a5.7,5.7,0,0,1,1.43.08l.85.14h.13a1.77,1.77,0,0,1,0-.2q2.61-13,6.12-25.79c7.75-28.07,21.18-52.59,43.48-71.93,8-7,14.89-15.08,19-25.15,1.25-3,2.94-5.86,4.43-8.78a7,7,0,0,0,.87-3c.4-12.45,1.13-24.9.68-37.34-1-28.24,8.6-53,24.53-75.61a39.42,39.42,0,0,1,20.46-15.39c4.2-1.36,8.19-.72,12.38.63-.81,1-1.64.78-2.37.84-4.66.37-8.15,2.25-10.22,6.76-3,6.5-5.68,13.07-7.09,20.09-.6,3-1.37,6.14.17,9.08,2.27,4.35,11.6,8.28,16.48,7.08.84-.21,1.86-.33,1.74-1.51-.14-1.37-1.24-.9-2-.83a18.21,18.21,0,0,1-11-2.81c-3-1.78-4.08-4.33-3.53-7.82a79,79,0,0,1,7.84-23.15,5.87,5.87,0,0,1,2.38-2.83c4.89-2.47,10.13-1.63,15.27-1.61.24,0,.48.32.73.46,2.88,1.66,2.89,4.23,2.3,7.05a134.55,134.55,0,0,1-5.87,19.36c-5,13.57-8.71,27.35-8.11,42a74.49,74.49,0,0,1-.7,9.52c-1.73,19.7-3.71,39.39-3.74,59.2,0,10.81-.38,21.64-1.39,32.39-2.4,25.54-5.49,51-8.86,76.45-.34,2.58-.64,5.16-.9,7.76-.08.76-.05,1.63,1,1.75s1.16-.79,1.33-1.53c.1-.46.1-1,.16-1.43,1.85-15.13,3.76-30.24,5.54-45.38,2.06-17.53,4.44-35,5-52.7.71-24.79,1.31-49.59,4-74.27.3-2.78.59-5.56.89-8.35a56.44,56.44,0,0,1,3.49,9.36c2.4,8.13,5.18,16.16,6.59,24.54,1.76,10.41,1.8,20.94,2,31.46.37,24.47-.92,48.78-6.56,72.72a333.37,333.37,0,0,1-14.45,45.1c-.41,1-.79,2.07-1.17,3.1.78.11,1.56.23,2.33.37,1.24-3.54,2.55-7.07,4-10.55,5.52-13.4,9.18-27.39,12.31-41.53a253.87,253.87,0,0,0,5.24-41.28c1-17.94,1.3-35.9-.55-53.78-1.36-13.11-6-25.48-9.66-38.07-.93-3.23-2.25-6.36-2.73-9.72-1.08-7.55.45-14.77,2.57-21.94,3.35-11.27,7.88-22.17,10.52-33.66.76-3.31,1.12-6.67-2-9-7-5.14-14.66-7.6-23.38-5.76-1.18.24-2.17,1.24-3.78.87l6.75-16.3Zm-30,4.07c2.27-5.09,4.3-10.29,6.49-15.42,1.28-3,2.48-3.45,5.42-2.25,4.63,1.89,9.25,3.83,13.86,5.75,1.68.7,3.12,1.6,2.94,3.85-.2.56-.39,1.2-.65,1.83-2.08,5.07-4.22,10.12-6.24,15.21-.62,1.55-1.25,2-3,1.28-5.81-2.54-11.69-4.95-17.58-7.32C1328.28,242.78,1327.76,242.21,1328.54,240.47Zm-6.7,16c1.51-3.43,3-6.89,4.32-10.39.48-1.25,1-1.32,2.14-.87,6.21,2.59,12.45,5.13,18.67,7.71.54.23,1.42.26,1.31,1.31-.07.21-.16.49-.27.75-1.44,3.46-2.92,6.91-4.3,10.4-.46,1.18-1,1.39-2.15.89q-9.3-3.93-18.68-7.7C1321.81,258.19,1321.29,257.78,1321.84,256.52Zm-87.92,139.84a43.8,43.8,0,0,0-8.42-11.2c-7.46-7.23-13.83-15.32-16.45-25.72a19.7,19.7,0,0,1-.57-2.83c-.71-7,2.9-11.22,10-11.73,7.49-.53,14.57,1.16,21.4,4a88.79,88.79,0,0,1,29.87,19.9c1.68,1.72,2,3.27,1,5.58-6.66,15.79-13.16,31.64-19.74,47.46a4.88,4.88,0,0,1-1.57,2.65C1244.19,415.09,1238.92,405.8,1233.92,396.36Zm-64.21,223c-4.19,6-12.81,8.77-19.83,6.51a1.91,1.91,0,0,1-1.58-1.6c-.63-2.38-2.63-4.2-3.24-7,6-.21,11.71-.92,16.41-4.89a2,2,0,0,1,2.88,0c1.81,1.58,3.58,3.21,5.41,4.76C1170.72,618,1170.25,618.59,1169.71,619.34Zm2.61-5.26c-.36,1.48-.8,1.5-1.83.56q-2.23-2.05-4.61-4c-2.05-1.64-4.05-1.84-6.25,0-4,3.29-8.81,4.15-13.83,4.12-3.45,0-4.16.9-3,4.12a23.87,23.87,0,0,0,1.29,2.58c.4.76.83,1.51,1.61,2.92-6.5-2.8-11.43-6.6-16.18-10.67-8.6-7.36-13.43-17-16.6-27.6-2.26-7.56-5.45-14.85-7.1-22.57-2.39-11.17.8-21.29,7.2-30.33,4.37-6.17,13.31-8.57,20.33-6.37,1.4.44,1.52,1.52,1.87,2.63,4.79,15.52,9.34,31.11,15.37,46.23,3.34,8.37,8.95,15.24,13.62,22.72,2.35,3.76,4.81,7.46,7.39,11.06A5,5,0,0,1,1172.32,614.08Zm29.55-31c-1.85,3.05-3.55,6.19-5.17,9.37a3.39,3.39,0,0,1-3,2.11c-4.22.46-8.43,1.15-12,3.67a5.66,5.66,0,0,0-2.27,7.09c1.05,2.44,3.08,3.3,5.64,3.09,1-.07,2.16,0,2.14-1.33s-1.14-1-2-1c-1.68,0-3.36-.15-3.84-2.25s.7-3.25,2.38-4.12c3.28-1.71,6.84-2.36,10.64-3-1.79,4.41-3.4,8.53-5.13,12.6-1,2.26-4.85,3.26-7.92,2.09-4.58-1.76-7.8-5.22-10.82-8.89a129.39,129.39,0,0,1-24.25-45.57c-3.27-10.88-6.92-21.64-9.43-32.73-2-9-3.85-18.1-.42-27.07,3.22-8.45,8-15.91,17.05-19.24a18.64,18.64,0,0,1,13.57,0,2.94,2.94,0,0,1,2.18,3.44,145.3,145.3,0,0,0,0,20.23c.82,10.73,3.2,20.8,9.38,29.93,5,7.38,10.24,14.72,13.26,23.27a35,35,0,0,1,1.58,5.24c1.31,7.09,5.25,13,8.61,19.14A3.33,3.33,0,0,1,1201.87,583.05Zm22.4-27.54A95.37,95.37,0,0,0,1213,567.45c-1,1.26-2.21.88-3,.95-3.65.08-6.2-1-7.75-4.07-.77-1.54-1.88-2.91-2.79-4.37s-3.05-3.63-2.63-4.59c1.9-4.27.21-9.67,4.73-13.19,4-3.13,7.18-3.9,11.53-1.19,5,3.08,8.26,7.72,11.59,12.34C1225.31,554.28,1225,554.84,1224.27,555.51Zm8.52-8.39c-1.94,1.72-3.59,4.79-5.63,5-1.67.21-2.9-3.55-4.53-5.39a45.57,45.57,0,0,0-7.47-7.22c-6.32-4.53-12.07-3.22-17.09,3-2.29,2.86-2.86,6.35-2.72,10.84l-10.56-16.76c-.92-1.47-1.71-3-2.76-4.41-8-10.34-10.42-22.44-10.7-35-.39-16.9.31-33.76,4.49-50.26,1.25-4.93,2.53-9.91,5.57-14.17,4.56-6.37,11.09-9,18.59-9.66,1.82-.17,3.67,0,5.5-.14,8.62-.71,14,3.87,17.67,11A44.68,44.68,0,0,1,1227,464a44.46,44.46,0,0,0-.64,8.9c0,10.61.32,21.24-2.9,31.54a5.53,5.53,0,0,0,.42,3.38c3.62,11.56,7.36,23.09,10.09,34.92C1234.35,544.58,1234.22,545.86,1232.79,547.12Zm60.87-160.45a4,4,0,0,1-1.66,2.27c-8,4.37-13.36,11.23-18.16,18.67-11.55,17.88-18.93,37.27-20.85,58.54-.47,5.27-.14,10.61-.09,15.92a14.55,14.55,0,0,1-1.14,5.89c-5.61,13.44-11.14,26.92-16.71,40.37a5.53,5.53,0,0,1-1.73,2.8c-2.07-6.68-3.63-13.27-6.17-19.45-2.1-5.13-.53-9.77.21-14.62a23.26,23.26,0,0,0,.61-4.86c-.63-9.49,3.7-17.58,7.15-25.92q42.09-101.65,84.16-203.34c.92-2.21,1.66-2.58,3.87-1.57,5.59,2.56,11.31,4.85,17,7.13,1.63.65,1.88,1.3,1.19,3Q1317.46,329,1293.66,386.67Z" transform="translate(0 1.6)"/><path class="cls-5" d="M850.82,82.76c-.12-.83,0-1.63.95-1.79.8-.13,1.21.49,1.33,1.22a113.73,113.73,0,0,0,5.65,21.47,1.29,1.29,0,0,1-.75,1.89c-.76.25-1.21-.34-1.47-1A114.94,114.94,0,0,1,850.82,82.76Z" transform="translate(0 1.6)"/><path class="cls-4" d="M777.87,490.72a5.33,5.33,0,0,1-.81,1c-5.72,4.56-9.1,10.86-12.75,17a13.62,13.62,0,0,1-.9,1.46,1,1,0,0,1-1.27.35,1,1,0,0,1-.56-1.2,3.2,3.2,0,0,1,.36-1.08c3.56-6.17,7.11-12.35,12.43-17.24a7.45,7.45,0,0,1,2.13-1.43C777.3,489.23,777.72,489.78,777.87,490.72Z" transform="translate(0 1.6)"/><path class="cls-5" d="M740.72,575.26c.51-4.47.47-9,1.81-13.41a9.85,9.85,0,0,1,3.44-5.21c.5-.37,1.09-.59,1.58-.15s.8,1,.24,1.52c-4.83,4.49-3.74,10.63-4.56,16.24a38.64,38.64,0,0,0-.17,4c0,.82-.24,1.63-1.25,1.6s-1.09-.9-1.09-1.71S740.72,576.26,740.72,575.26Z" transform="translate(0 1.6)"/><path class="cls-5" d="M1298.7,474.54a33.8,33.8,0,0,1-11.58-2.19c-.85-.35-1.69-.71-1.3-1.82s1.43-.74,2.17-.44a27.32,27.32,0,0,0,14.42,1.53c.86-.11,1.85-.39,1.95.94s-.81,1.36-1.71,1.47Z" transform="translate(0 1.6)"/><path class="cls-5" d="M1294.15,489.1c-3.92-.07-7.5-.94-10.23-4-.66-.72-1.76-1.63-.55-2.67s1.64.34,2.24,1c2.56,2.66,5.82,3.19,9.29,3.08.86,0,1.72-.24,2.58-.3s1.93-.41,2.19.76c.3,1.34-.83,1.54-1.81,1.67C1296.63,488.82,1295.38,489,1294.15,489.1Z" transform="translate(0 1.6)"/><path class="cls-5" d="M870.65,111.42c.1.8.07,1.47-.78,1.7s-1.28-.41-1.44-1.06a60.83,60.83,0,0,0-5.87-14.66,1.18,1.18,0,0,1,.44-1.74c.85-.52,1.28.07,1.61.65A56.88,56.88,0,0,1,870.65,111.42Z" transform="translate(0 1.6)"/><path class="cls-5" d="M1300.45,467.38c-2.31.08-4.91-.18-7.42.71-.72.25-1.59.49-2-.45s.31-1.47,1.07-1.7c4.6-1.43,9.28-1.08,14-.45a1.07,1.07,0,0,1,1,1.19c-.1.83-.72,1.07-1.47,1Z" transform="translate(0 1.6)"/><path class="cls-5" d="M809.6,587.47c-.6.13-1.18,0-1.38-.65a1.14,1.14,0,0,1,1-1.49,19.84,19.84,0,0,0,11.5-6.7,1.29,1.29,0,0,1,2-.16c.58.59.13,1.24-.33,1.79A20.51,20.51,0,0,1,809.6,587.47Z" transform="translate(0 1.6)"/><path class="cls-5" d="M782.36,497.61c-.16.31-.36.75-.6,1.16a43.07,43.07,0,0,1-7.26,9.3c-.63.6-1.33,1.74-2.35.62-.79-.87-.06-1.6.59-2.21a42.48,42.48,0,0,0,7.21-9.33c.34-.56.65-1.31,1.5-1A1.33,1.33,0,0,1,782.36,497.61Z" transform="translate(0 1.6)"/><path class="cls-5" d="M867.62,120.43a1.17,1.17,0,0,1-.71,1.14,1,1,0,0,1-1.27-.34,49.55,49.55,0,0,1-5.62-9,1.14,1.14,0,0,1,.3-1.54.93.93,0,0,1,1.48.22c1.91,3,3.79,6,5.67,8.94A2.39,2.39,0,0,1,867.62,120.43Z" transform="translate(0 1.6)"/><path class="cls-5" d="M746.72,572.29c-1-.2-1.43-.78-1.19-1.67.62-2.32,1.28-4.62,2-6.92.17-.55.49-1.12,1.2-1s1.16.59,1,1.19c-.66,2.6-1.4,5.18-2.18,7.75C747.44,571.92,747,572.1,746.72,572.29Z" transform="translate(0 1.6)"/><path class="cls-6" d="M840,2.22c-.65-.75-1.31-1.48-2-2.21H796.23c-3.46,15.24-7.3,30.4-10,45.79C785,52.91,783,60.09,784.27,67.3c3.06,17.36,6.46,34.67,10,51.94.9,4.45,2.18,8.94,5.68,12.86a40.71,40.71,0,0,1,6.24-12,268.54,268.54,0,0,1,20.4-22.9,10.51,10.51,0,0,0,2.87-6.65,58.49,58.49,0,0,0-2.94-25.94c-2-5.64-1.56-9.91,2.73-14.71,8.38-9.38,12.32-21.46,17.81-32.58.88-1.8.39-3.6-.37-5.31A40.32,40.32,0,0,0,840,2.22ZM822,54.14c-.74.45-1.32.08-1.73-.52s-.72-1.36-1.12-2c-2.26-3.68-5.16-6.48-9.68-7-.91-.11-1.86-.25-1.61-1.49.22-1,1.14-.83,1.67-.84,5,.25,11.69,5.75,12.8,10.34C822.5,53.16,822.64,53.76,822,54.14Z" transform="translate(0 1.6)"/><path class="cls-6" d="M909.89,0a62.17,62.17,0,0,0,4.19,8.31c.46.79,1.27,1.81,0,2.47s-1.61-.59-2.08-1.38A54.93,54.93,0,0,1,908.16,2c-.35-.85-.58-1.49-.79-2H904l-.45.25c-3.31,1.76-6.64,3.53-10.06,5.06-11.69,5.24-24.2,7.74-36.62,10.34-5.36,1.12-8.4,3.38-10.59,8.45-4.54,10.51-9.11,21.13-17,29.77-1.95,2.16-2.15,4-1.43,6.69,2.25,8.36,5,16.67,4.29,25.54-.11,1.46,0,3,0,5,3.28-3.46,6.28-6.54,9.18-9.71,5.84-6.39,12.33-11.73,21.25-13a18.6,18.6,0,0,0,13-7.49,29.89,29.89,0,0,1-10.75-4.36c-.72-.43-1.31-.86-.78-1.8s1-.66,1.7-.29a31.58,31.58,0,0,0,8.62,3.84c1.07.24.73,1.79,1.92,1.76,3.3-3.64,6.43-7.45,9.91-10.91Q910.89,24.56,935.64,0Zm-49.65,51.9c-.44.41-.9.2-1.27-.15a39,39,0,0,1-7-8.8,1.09,1.09,0,0,1,.34-1.53.92.92,0,0,1,1.31.14,87.05,87.05,0,0,0,6.94,8.84c.12.13.13.35.23.66A4.17,4.17,0,0,1,860.24,51.91Z" transform="translate(0 1.6)"/><path class="cls-6" d="M990.13,0Q971.46,19.3,952.77,38.57c-.73.75-1.61,1.85-2.61.66-.87-1,.37-1.71,1-2.35Q969,18.43,986.87,0H939q-25.79,25.67-51.56,51.33a157.5,157.5,0,0,0-11.77,13.13,3.51,3.51,0,0,1,.33.34c27.12-5.24,53.74-12.25,79.48-22.39a8.23,8.23,0,0,0,2.78-2Q978.28,20.18,998.39,0Z" transform="translate(0 1.6)"/><path class="cls-6" d="M907.83,190.55q-9-3-18.08-6c-.71-.24-2-.17-.9-1.59,5-6.63,5.14-14.34,4.58-22.1-.15-2,.26-2.91,2-3.76,7.69-3.65,15.5-6.85,24.08-7.71a14.71,14.71,0,0,1,7.13.64c6.78,2.86,14,4.67,20.29,8.67,9.87,6.32,15.35,15.64,17.86,26.88a27.86,27.86,0,0,1,.63,6.89c-.14,5.22-3.1,8.52-9.19,9.24-8.57,1-6.66,2-9.4-6.28a31.13,31.13,0,0,1-1.16-12.3c.1-1.32.07-2.38-1.65-2.8-9.44-2.35-18.87-4.83-28.65-5.13-7.24-.22-9.78,3-8.41,10.14.31,1.6.85,3.15,1.28,4.72Z" transform="translate(0 1.6)"/><path class="cls-6" d="M830.41,102.53A202,202,0,0,0,834,124.12a25,25,0,0,0,10.66,15.25c1.41.95,1.69,1.64.61,3.14-3.89,5.41-8.15,10.45-14.83,12.29-14.68,4.06-27.35-8.71-24.06-24.11a7.58,7.58,0,0,1,1.47-3.69C815,118.74,822.57,110.93,830.41,102.53Z" transform="translate(0 1.6)"/><path class="cls-6" d="M931.63,149.05c5.52-5.23,11.11-9.59,17.85-12.32a23.1,23.1,0,0,1,13.85-1c4.24.89,8.54,1.51,12.81,2.29,11.53,2.13,18.14,8.92,20,20.57a30.12,30.12,0,0,1,.65,6.9,8.39,8.39,0,0,1-5.87,7.25c2.52-6.19.73-11.95-1.2-17.72a6,6,0,0,0-5.5-4.35c-4.67-.55-9.23.33-13.83.75-3.93.35-7.88.59-11.8,1.09a10.52,10.52,0,0,0-7.36,4.15c-.47.62-.7,1.34-1.75.69C944,154,937.94,151.75,931.63,149.05Z" transform="translate(0 1.6)"/><path class="cls-6" d="M864.53,179.58c1.63-7-.28-13.63-4.6-19.73-.7-1-.29-1.26.62-1.59,6.06-2.23,12.24-4.12,18.12-6.82.93-.43,1.65.05,2.41.51a32.15,32.15,0,0,0,5.25,3c4.15,1.54,5.07,4.63,5,8.61a57.27,57.27,0,0,1-.69,9.8c-1.63,8.37-10.47,16.5-19,17.65a7.39,7.39,0,0,1-3.95-.45c-1.77-.74-3.33-1.55-2.89-4.17C865.17,184.38,864.68,182.2,864.53,179.58Z" transform="translate(0 1.6)"/><path class="cls-7" d="M964.82,176.38c-3.4-5.79-6.53-11.77-11.65-16.33-.92-.82-.37-1.52.2-2.23a7.88,7.88,0,0,1,5.21-2.84c7.83-1,15.68-1.79,23.57-2.11,3.15-.13,5,1.17,5.94,4.24A34.48,34.48,0,0,1,990,167.57c0,2.67-1.14,4.24-3.9,4.81a95.29,95.29,0,0,1-18.37,1.69c-1.45,0-3.12-.23-2.71,2.15Z" transform="translate(0 1.6)"/><path class="cls-7" d="M946.6,201.8c-6.42-.83-12.1-2.63-17.79-4.37-5.06-1.55-10.08-3.28-15.14-4.82-1.64-.5-2.58-1.09-3-3.05-.45-2.22-1.48-4.36-1.64-6.69-.25-3.84,1.14-5.4,4.92-5.39,9.53,0,18.64,2.68,27.85,4.63,1.24.26,1.49.95,1.42,2.07A36.27,36.27,0,0,0,946.6,201.8Z" transform="translate(0 1.6)"/><path class="cls-8" d="M790.12,161.29c5.12,5.12,10,10,14.91,14.88.94.93.61,1.38-.41,1.82q-10.05,4.35-20.1,8.73c-2.36,1-2.82-1.4-4.07-2.32-.81-.6-2.1-1.28-1.28-2.79Z" transform="translate(0 1.6)"/><path class="cls-8" d="M815.91,167.69c.05.66-7.4,8.1-7.83,7.89a5.89,5.89,0,0,1-1.31-1.1c-4.63-4.63-9.21-9.31-13.9-13.87-1.21-1.19-1.13-1.87.06-2.94,2.21-2,4.16-5.56,6.47-5.78s4.28,3.61,6.41,5.65c3.05,2.93,6,6,9,9C815.19,166.93,815.58,167.35,815.91,167.69Z" transform="translate(0 1.6)"/><path class="cls-7" d="M862.45,185.45c-5.05-5.32-8.34-11.55-11.92-17.59-3.06-5.15-3-5.16,2.62-7.07,4-1.34,4-1.34,6.12,2.38,2.48,4.25,4,8.64,3.26,13.74C862.1,179.7,862.45,182.6,862.45,185.45Z" transform="translate(0 1.6)"/><path class="cls-9" d="M907.64,129.41a3.42,3.42,0,0,1,1.92,1.36,18.77,18.77,0,0,1,4.7,10.33,3,3,0,0,0,2.63,2.82c2,.49,3.82,1.26,5.73,1.9.88.29,1.42.61,1.09,1.8-.42,1.54-1.15.35-1.71.31a12,12,0,0,1-1.35-.46c-5.42-1.07-9.51-3.25-9.74-9.72-.09-2.38-1.91-4.34-3.73-6-.38-.35-1-.68-.47-1.37C907,130,907.36,129.7,907.64,129.41Z" transform="translate(0 1.6)"/><path class="cls-6" d="M808.61,155.93c5.07,3.43,10,7.09,16,8.75a2.75,2.75,0,0,1-.31.72c-3.57,3.73-3.58,3.74-7.08.19q-4.56-4.62-9.09-9.25Z" transform="translate(0 1.6)"/><path class="cls-9" d="M931.21,119a6.83,6.83,0,0,1,.78.28c5.9,2.83,11.17,6.44,14.89,12,.54.8,1.3,1.7.24,2.52-.84.65-1.42-.19-1.83-.82-3.58-5.39-8.6-9-14.38-11.68-.66-.31-1.6-.55-1.42-1.53C929.6,119.13,930.28,119,931.21,119Z" transform="translate(0 1.6)"/><path class="cls-9" d="M984,176.22a64.19,64.19,0,0,1-16.7,2.58c-1.85.08-2.27-1-2.45-2.42l.17-.16a81.44,81.44,0,0,0,19-.94Z" transform="translate(0 1.6)"/><path class="cls-10" d="M804.55,128.9a26.18,26.18,0,0,0,1.9,18.72c.26.55,1,1.21.31,1.73-.92.64-1.32-.44-1.71-1-4.68-6.46-4.22-13.24-1.18-20.16Z" transform="translate(0 1.6)"/><path class="cls-5" d="M875.58,60.9a29.89,29.89,0,0,1-10.75-4.36c-.72-.43-1.31-.86-.78-1.8s1-.66,1.7-.29a31.58,31.58,0,0,0,8.62,3.84c1.07.24.73,1.79,1.92,1.76Z" transform="translate(0 1.6)"/><path class="cls-9" d="M906.24,144.36c-1.54-.26-3.51-.57-5.48-.91-.68-.12-1.37-.35-1.27-1.23s.88-1.17,1.7-1.05c2,.28,3.94.64,5.92.92.88.13,1.53.53,1.38,1.44S907.47,144.5,906.24,144.36Z" transform="translate(0 1.6)"/><path class="cls-11" d="M804.14,152.3l-3.53-3.36c-.45-.43-.77-.84-.14-1.39s1-.25,1.39.29l2.68,4C804.4,152,804.27,152.16,804.14,152.3Z" transform="translate(0 1.6)"/><path class="cls-10" d="M806.46,150.06c.13-.28.19-.61.37-.72a.82.82,0,0,1,.75,0c1.25,1.18,2.5,2.36,3.64,3.63.28.32,0,1.14-.58.87C808.85,153.11,807.7,151.56,806.46,150.06Z" transform="translate(0 1.6)"/><path class="cls-8" d="M984,176.22v-.94l5.24-1.3,0,0C987.82,175.57,985.83,175.75,984,176.22Z" transform="translate(0 1.6)"/><path class="cls-4" d="M803.87,128.21a5,5,0,0,1,2-3.42c.67,1.95-1.35,2.68-1.31,4.11Z" transform="translate(0 1.6)"/><path class="cls-10" d="M806.91,124.18l-.51-.34a2.9,2.9,0,0,1,.57-.44c.07,0,.24.16.37.25Z" transform="translate(0 1.6)"/><path class="cls-8" d="M989.2,174a.6.6,0,0,1,.73-.54c.09,0,.17.2.25.31l-1,.26Z" transform="translate(0 1.6)"/><path class="cls-10" d="M964.58,38.81c-.43.11-1.1.46-1.24.3-.51-.54.27-.68.5-1Z" transform="translate(0 1.6)"/><path class="cls-12" d="M908.28,190l.23.6-.68-.09Z" transform="translate(0 1.6)"/><path class="cls-11" d="M808,155.35c.19.2.38.39.58.58l-.43.41-.58-.58Z" transform="translate(0 1.6)"/><path class="cls-13" d="M876,64.81c-.24.21-.48.34-.71,0a3.93,3.93,0,0,1,.38-.35A3.51,3.51,0,0,1,876,64.81Z" transform="translate(0 1.6)"/><path class="cls-11" d="M804.54,151.89l.56.61a3.24,3.24,0,0,0-.38.36l-.58-.56C804.27,152.16,804.4,152,804.54,151.89Z" transform="translate(0 1.6)"/><path class="cls-11" d="M805.29,153.42l-.57-.56a3.24,3.24,0,0,1,.38-.36l.55.6Z" transform="translate(0 1.6)"/><path class="cls-11" d="M805.88,153.94l-.58-.53.35-.31.56.6Z" transform="translate(0 1.6)"/><path class="cls-11" d="M806.45,154.57l-.57-.63.33-.24.6.56Z" transform="translate(0 1.6)"/><path class="cls-11" d="M806.81,154.26l.61.55a4.54,4.54,0,0,0-.38.38l-.58-.62C806.57,154.46,806.69,154.36,806.81,154.26Z" transform="translate(0 1.6)"/><path class="cls-11" d="M807.42,154.81l.61.54-.43.41-.56-.57A4.54,4.54,0,0,1,807.42,154.81Z" transform="translate(0 1.6)"/><path class="cls-6" d="M862.46,528.82c1.48,6.93,2.95,12.79,3.48,18.84a7.64,7.64,0,0,1-3.45,7.48c-10.6,7-20.63,6.55-29.12-3.81-5.38-6.57-8.14-14.38-11.32-22-1.56-3.74-2.9-7.56-4.22-11.39a8,8,0,0,0-1.64-2.67c-5.72-6.53-11.31-13.18-17.2-19.56-3.61-3.91-8.42-6.41-12.74-9.45-4.88-3.43-8.22-7.76-9.4-13.67-.19-1-.14-2.49-1.67-2.16s-.85,1.75-.67,2.69a22.62,22.62,0,0,0,4.1,9.46c-2.73.22-4.91-.9-7.22-1.16a208,208,0,0,0-29.21-.77c-20.84.61-41.68.39-62.52-.3-1.8-.06-2.65-.47-2.61-2.41.07-2.7-.21-5.38-.1-8.1.28-6.89,3.4-11.71,9.52-15a181.92,181.92,0,0,1,28.84-12.63c13.94-4.6,27.16-11,40.94-16,7.17-2.58,14.36-5.05,21.62-7.37,8.57-2.73,15.69-.17,22.36,5,6.38,4.93,11.7,10.88,16.86,17,12.26,14.65,24.9,29,36,44.58a48.41,48.41,0,0,1,9.08,33.57c-.33,3.38,1.46,7.26-2.63,10.23-3.11,2.27-5.35,5.79-8.73,7.92-1.79,1.12-3.7,2.06-5.59,3-5.4,2.73-6.58,11.2-2.12,15.28.54.49,1.06.91,1.77.43.87-.6.55-1.33.06-2a10.09,10.09,0,0,1-2-4.42c-.55-3.32.67-5.83,3.75-7.24a37.27,37.27,0,0,0,14.17-11.16C861.2,530.58,861.58,530,862.46,528.82ZM774.67,440.4c.08.69-.18,1.61.93,1.74s1.36-.86,1.57-1.68c1.92-7.17,4.89-13.6,12-17.19.55-.28,1-.71.74-1.38s-1-.86-1.67-.64a7.42,7.42,0,0,0-1.58.69C779.61,426.11,776.73,432.93,774.67,440.4ZM790,435.34a2.85,2.85,0,0,0,.86-.44,59.73,59.73,0,0,0,6.4-8.51,1,1,0,0,0-.27-1.51,1.12,1.12,0,0,0-1.73.34q-3,4-6.08,8a1.15,1.15,0,0,0-.1,1.56A2.86,2.86,0,0,0,790,435.34Z" transform="translate(0 1.6)"/><path class="cls-6" d="M739.3,429.71c13.68-17.46,26.05-35.89,40-53.17,6-7.44,13.61-7.37,21.72-6.73a5.28,5.28,0,0,1,2,1c16.07,9.93,32.31,19.6,48.14,29.92a75.44,75.44,0,0,1,21.7,21.39c2.45,3.67,4.91,7.32,7.5,11.19-7.41,0-10.93,5.6-15.42,9.83-4.19,3.93-3.92,8.13-1.91,13,4.35,10.56,20,17,28.38,16.12,1.64-.16,2.92-1.29,4.69-1.77.2,1.55-.77,2.24-1.55,3-9,8.65-22.48,12.44-35.45,1.86-7.32-6-14.07-12.45-18.87-20.58-4.22-7.14-9.74-12.22-17.87-14.31-3-.77-5-2.81-7-5.17C809,427.93,802.16,421,792.89,417.1a19.93,19.93,0,0,0-13.55-.84,343.88,343.88,0,0,0-36.23,12.82c-1.07.43-2.16.82-3.24,1.23Zm47.16-44.33c.9.1,1.21-.42,1.54-.89a37.87,37.87,0,0,1,2.34-3.26,26,26,0,0,1,9.06-6.5c.81-.36,2.05-.75,1.52-2s-1.62-.53-2.42-.17a29.64,29.64,0,0,0-6,3.44,22.34,22.34,0,0,0-6.43,6.91C785.61,383.78,785.09,384.89,786.46,385.38Zm73,27.14c-.1-.81-.75-1.18-1.77-.78-4.28,1.67-8.15,3.94-10.76,7.9a6.35,6.35,0,0,0-.77,1.84c-.15.56-.15,1.2.51,1.49a1,1,0,0,0,1.45-.54c1.91-4.47,6-6.29,9.93-8.37C858.7,413.7,859.45,413.41,859.43,412.52Zm-52.57-36c-.22-1-.71-1.79-1.75-1a53.41,53.41,0,0,1-8.85,5.27,1,1,0,0,0-.48,1.45,1,1,0,0,0,1.37.66,39.87,39.87,0,0,0,9.29-5.63A2.44,2.44,0,0,0,806.86,376.49Zm58.54,40.35c-.2-.76-.48-1.47-1.55-1-2.37,1-4.76,2-7.11,3-.88.39-1.13,1.5-.33,1.77,2.53.86,4.39-1.29,6.62-1.92C864,418.42,865.18,418.25,865.4,416.84Z" transform="translate(0 1.6)"/><path class="cls-6" d="M827.41,382.69a143.17,143.17,0,0,1-18.77-11.35c-6.33-4.54-13-4.78-20-3.55a2.79,2.79,0,0,1-3.44-1.57Q751.64,310.6,717.94,255.1c-4.11-6.75.45-14.81,8.74-17.23,4.64-1.36,7.72,0,10.67,4.59q36.38,56.22,72.73,112.46c5.91,9.15,11.73,18.35,17.59,27.52A3.07,3.07,0,0,0,827.41,382.69Z" transform="translate(0 1.6)"/><path class="cls-6" d="M847.91,468.76a139.57,139.57,0,0,0,12.44,10.3c9,6.41,18.4,6.72,28,1.72,1.89-1,2.67-.77,3.81,1,8,12.6,16.18,25.12,24.28,37.67.36.55.91,1,.77,1.82-13.66-1.79-23.12,3.44-27.81,16.71-.72.07-.8-.62-1.06-1q-20-33-39.93-66.07a17.72,17.72,0,0,1-.83-1.82Z" transform="translate(0 1.6)"/><path class="cls-6" d="M897.37,485.71c-.71-.93-1-1.28-1.28-1.67-1.09-1.71-2.87-3.35-3.06-5.15s2.44-2.84,3.72-4.29c4.3-4.85,4.72-10.06,2.11-15.81-4.09-9-9.74-17.05-15.39-25.11-3.6-5.13-7.05-10.37-10.58-15.55-.54-.79-1.3-1.5-.32-2.5,3.74-3.83,15.55-9.58,22.93-6.29,5,2.2,7.59,6.18,8.51,11.24,2.88,15.78.61,31.33-2.52,46.79C900.29,473.29,898.85,479.16,897.37,485.71Z" transform="translate(0 1.6)"/><path class="cls-6" d="M926.43,547.66a13.67,13.67,0,0,0-9.94,2.1,14,14,0,0,0-6.09,7.42c-.33,1-.48,1.94-1.83.84-4.55-3.73-9.31-7.21-13.67-11.13-3.25-2.93-3.65-6.84-2.14-10.92a20.37,20.37,0,0,1,20.06-12.76c5.42.45,8.85,3.37,10.08,8.69C924.09,537,925.21,542.19,926.43,547.66Z" transform="translate(0 1.6)"/><path class="cls-6" d="M896,471.55c-.17-2.65-.6-3.93-2.87-2.3-1.47,1.05-3.36,1-5.06.72-7.72-1.15-14.6-4.07-19.93-10a15.58,15.58,0,0,1-1.68-2.34c-3.6-5.85-3.5-8.45.93-13.5,2.27-2.59,4.54-5.27,7.61-7,4-2.33,7.08-1.78,9.57,2.07,4.92,7.58,10.5,14.81,13.2,23.65C898.69,465.76,898.32,468.41,896,471.55Z" transform="translate(0 1.6)"/><path class="cls-7" d="M933.18,577.52l-13.11-10.91c-2.14-1.79-4.22-3.66-6.43-5.36a2.56,2.56,0,0,1-1-3.42c1.75-4.69,7.13-8.38,11.91-8,1.19.1,2.31.21,2.65,1.7C929.11,560,931.06,568.37,933.18,577.52Z" transform="translate(0 1.6)"/><path class="cls-7" d="M816.08,603.63c-1,5.15-2.92,9.18-7.54,11.38-3.55,1.69-4.78,1.35-6.75-1.85-1.43-2.32-1.68-3.86-1.18-7.59C805.88,607,811.25,609,816.08,603.63Z" transform="translate(0 1.6)"/><path class="cls-6" d="M823.26,443.56c5,1.27,8.71,3.78,11.06,8.66,2.23,4.66,5.28,8.92,7.94,13.38.51.86,1.45,1.64.87,2.9Q833,456.25,822.84,444Z" transform="translate(0 1.6)"/><path class="cls-14" d="M739.87,430.31c-.3.19-.64.42-.91,0-.06-.09.22-.41.34-.63Z" transform="translate(0 1.6)"/><path class="cls-11" d="M847.63,469.06c-.07-.2-.25-.55-.21-.58.29-.21.4,0,.49.28Z" transform="translate(0 1.6)"/><path class="cls-11" d="M827.67,382.44c.11.12.34.31.32.34-.24.34-.41.12-.58-.1Z" transform="translate(0 1.6)"/><path class="cls-10" d="M797.81,610.2l.21.18a1.46,1.46,0,0,1-.35.18s-.12-.11-.18-.17Z" transform="translate(0 1.6)"/><path class="cls-15" d="M822.84,444c-.24-.12-.55-.28-.3-.57.08-.1.47.07.72.11Z" transform="translate(0 1.6)"/><path class="cls-6" d="M1195.35,553.41l-10.56-16.76c-.92-1.47-1.71-3-2.76-4.41-8-10.34-10.42-22.44-10.7-35-.39-16.9.31-33.76,4.49-50.26,1.25-4.93,2.53-9.91,5.57-14.17,4.56-6.37,11.09-9,18.59-9.66,1.82-.17,3.67,0,5.5-.14,8.62-.71,14,3.87,17.67,11A44.68,44.68,0,0,1,1227,464a44.46,44.46,0,0,0-.64,8.9c0,10.61.32,21.24-2.9,31.54a5.53,5.53,0,0,0,.42,3.38c3.62,11.56,7.36,23.09,10.09,34.92.42,1.81.29,3.09-1.14,4.35-1.94,1.72-3.59,4.79-5.63,5-1.67.21-2.9-3.55-4.53-5.39a45.57,45.57,0,0,0-7.47-7.22c-6.32-4.53-12.07-3.22-17.08,3C1195.78,545.43,1195.21,548.92,1195.35,553.41Zm-6.82-40.16a73.06,73.06,0,0,0,13.9-6.33,1,1,0,0,0,.25-1.51.92.92,0,0,0-1.24-.4c-4.35,2.26-8.85,4.21-13.4,6a1,1,0,0,0-.61,1.4A1.16,1.16,0,0,0,1188.53,513.25Zm5.36-9.88c-.33-1.44-1.23-1.07-2.2-.74a21.74,21.74,0,0,0-10.41,7.78c-.53.69-1.25,1.46-.29,2.2s1.6-.06,2.12-.78a19.91,19.91,0,0,1,9.28-6.95C1193.12,504.61,1193.85,504.35,1193.89,503.37Zm4.7-.54c2-.4,3.54-.73,5-1,.79-.14,1.24-.49,1.14-1.32a1.07,1.07,0,0,0-1.41-1c-1.59.3-3.18.66-4.76,1a1.06,1.06,0,0,0-.85,1.51A1.11,1.11,0,0,0,1198.59,502.83Z" transform="translate(0 1.6)"/><path class="cls-6" d="M1233.32,531.13c-2.07-6.68-3.63-13.27-6.17-19.45-2.1-5.13-.53-9.77.21-14.62a23.26,23.26,0,0,0,.61-4.86c-.63-9.49,3.7-17.58,7.15-25.92q42.09-101.65,84.16-203.34c.92-2.21,1.66-2.58,3.87-1.57,5.59,2.56,11.31,4.85,17,7.13,1.63.65,1.88,1.3,1.19,3q-23.91,57.59-47.71,115.21a4,4,0,0,1-1.66,2.27c-8,4.37-13.36,11.23-18.16,18.67-11.55,17.88-18.93,37.27-20.85,58.54-.47,5.27-.14,10.61-.09,15.92a14.55,14.55,0,0,1-1.14,5.89c-5.61,13.44-11.14,26.92-16.71,40.37A5.53,5.53,0,0,1,1233.32,531.13Z" transform="translate(0 1.6)"/><path class="cls-6" d="M1194.33,596.69c-1.79,4.41-3.4,8.53-5.13,12.6-1,2.26-4.85,3.26-7.92,2.09-4.58-1.76-7.8-5.22-10.82-8.89a129.39,129.39,0,0,1-24.25-45.57c-3.27-10.88-6.92-21.64-9.43-32.73-2-9-3.85-18.1-.42-27.07,3.22-8.45,8-15.91,17.05-19.24a18.64,18.64,0,0,1,13.57,0,2.94,2.94,0,0,1,2.18,3.44,145.3,145.3,0,0,0,0,20.23c.82,10.73,3.2,20.8,9.38,29.93,5,7.38,10.24,14.72,13.26,23.27a35,35,0,0,1,1.58,5.24c1.31,7.09,5.24,13,8.61,19.14a3.33,3.33,0,0,1-.13,3.89c-1.85,3.05-3.55,6.19-5.17,9.37a3.39,3.39,0,0,1-3,2.11c-4.22.46-8.43,1.15-12,3.67a5.66,5.66,0,0,0-2.27,7.09c1.05,2.44,3.08,3.3,5.64,3.09,1-.07,2.16,0,2.14-1.33s-1.14-1-2-1c-1.68,0-3.36-.15-3.84-2.25s.7-3.25,2.38-4.12C1187,597.94,1190.53,597.29,1194.33,596.69Zm-19-27.92a1.17,1.17,0,0,0-1.57-1.17,19.81,19.81,0,0,0-3.59,1c-2.84,1.11-5.8,2.06-7.83,4.56-.51.62-.9,1.32-.12,2a1,1,0,0,0,1.54-.13c2.73-2.78,6.33-3.8,9.89-4.88C1174.43,569.9,1175.14,569.65,1175.35,568.77Zm-5.73,9.33a70.52,70.52,0,0,0,13-6,1,1,0,0,0,.21-1.52,1,1,0,0,0-1.5-.33,102.77,102.77,0,0,1-12.27,5.72,1,1,0,0,0-.65,1.38A1.19,1.19,0,0,0,1169.62,578.1Z" transform="translate(0 1.6)"/><path class="cls-6" d="M1145.75,624.39c-6.5-2.8-11.43-6.6-16.18-10.67-8.6-7.36-13.43-17-16.6-27.6-2.26-7.56-5.45-14.85-7.1-22.57-2.39-11.17.8-21.29,7.2-30.33,4.37-6.17,13.31-8.57,20.33-6.37,1.4.44,1.52,1.52,1.87,2.63,4.79,15.52,9.34,31.11,15.37,46.23,3.34,8.37,8.95,15.24,13.62,22.72,2.35,3.76,4.81,7.46,7.39,11.06a5,5,0,0,1,.67,4.59c-.36,1.48-.8,1.5-1.83.56q-2.23-2.05-4.61-4c-2.05-1.64-4.05-1.84-6.25,0-4,3.29-8.81,4.15-13.83,4.12-3.45,0-4.16.9-3,4.12a23.87,23.87,0,0,0,1.29,2.58C1144.54,622.23,1145,623,1145.75,624.39Zm-8.56-27.86a3.73,3.73,0,0,0-.32-.36c.28-.37.55-.76.85-1.12.6-.72,1.58-1.44.5-2.4-.92-.81-1.59.08-2.18.66-2,2-4.06,4.12-6.09,6.18-.59.6-1,1.28-.36,2s1.18.32,1.84.06c4.83-1.93,9.56-4.06,14.17-6.46.72-.38,1.46-.81,1.08-1.74-.52-1.23-1.38-.58-2.16-.22Z" transform="translate(0 1.6)"/><path class="cls-6" d="M1249.37,424.48c-5.18-9.39-10.45-18.68-15.45-28.12a43.8,43.8,0,0,0-8.42-11.2c-7.46-7.23-13.83-15.32-16.45-25.72a19.7,19.7,0,0,1-.57-2.83c-.71-7,2.9-11.22,10-11.73,7.49-.53,14.57,1.16,21.4,4a88.79,88.79,0,0,1,29.87,19.9c1.68,1.72,2,3.27,1,5.58-6.66,15.79-13.16,31.64-19.74,47.46A4.88,4.88,0,0,1,1249.37,424.48ZM1242.52,392a29.53,29.53,0,0,0,18-6c.76-.54,1.45-1.17.76-2.1s-1.38-.31-2,.11-1.27.86-1.93,1.26c-7.28,4.39-14.93,5.83-23.16,3-.75-.26-1.85-1.32-2.32.31-.37,1.32.85,1.54,1.69,1.89A23.76,23.76,0,0,0,1242.52,392Z" transform="translate(0 1.6)"/><path class="cls-7" d="M1210,568.4c-3.65.08-6.2-1-7.75-4.07-.77-1.54-1.88-2.91-2.79-4.37s-3.05-3.63-2.63-4.59c1.9-4.27.21-9.67,4.73-13.19,4-3.13,7.18-3.9,11.53-1.19,5,3.08,8.26,7.72,11.59,12.34.68.95.35,1.51-.36,2.18A95.37,95.37,0,0,0,1213,567.45C1212,568.71,1210.74,568.33,1210,568.4Z" transform="translate(0 1.6)"/><path class="cls-8" d="M1357.25,232.41c-.2.55-.39,1.19-.65,1.82-2.08,5.07-4.22,10.12-6.24,15.21-.62,1.55-1.25,2-3,1.28-5.81-2.54-11.69-4.95-17.58-7.32-1.54-.62-2.06-1.19-1.28-2.93,2.27-5.09,4.3-10.29,6.49-15.42,1.28-3,2.48-3.45,5.42-2.25,4.63,1.89,9.25,3.83,13.86,5.75C1356,229.25,1357.43,230.15,1357.25,232.41Z" transform="translate(0 1.6)"/><path class="cls-7" d="M1348.28,254.28c-.07.21-.16.49-.27.75-1.44,3.46-2.92,6.91-4.3,10.4-.46,1.18-1,1.39-2.15.89q-9.3-3.93-18.68-7.7c-1.07-.43-1.59-.84-1-2.1,1.51-3.43,3-6.89,4.32-10.39.48-1.25,1-1.32,2.14-.87,6.21,2.59,12.45,5.13,18.67,7.71C1347.51,253.2,1348.39,253.23,1348.28,254.28Z" transform="translate(0 1.6)"/><path class="cls-7" d="M1145.06,617.24c6-.21,11.71-.92,16.41-4.89a2,2,0,0,1,2.88,0c1.81,1.58,3.58,3.21,5.41,4.76,1,.82.49,1.43,0,2.18-4.19,6-12.81,8.77-19.83,6.51a1.91,1.91,0,0,1-1.58-1.6C1147.67,621.87,1145.67,620.05,1145.06,617.24Z" transform="translate(0 1.6)"/><path class="cls-4" d="M809.56,42.25c5,.25,11.69,5.75,12.8,10.34.14.57.28,1.17-.33,1.55s-1.32.08-1.73-.52-.72-1.36-1.12-2c-2.26-3.68-5.16-6.48-9.68-7-.91-.11-1.86-.25-1.61-1.49C808.11,42.07,809,42.26,809.56,42.25Z" transform="translate(0 1.6)"/><path class="cls-4" d="M860.83,51.07a4.17,4.17,0,0,1-.59.84c-.44.41-.9.2-1.27-.15a39,39,0,0,1-7-8.8,1.09,1.09,0,0,1,.34-1.53.92.92,0,0,1,1.31.14,87.05,87.05,0,0,0,6.94,8.84C860.72,50.54,860.73,50.76,860.83,51.07Z" transform="translate(0 1.6)"/><path class="cls-3" d="M986.87,0Q969,18.45,951.15,36.88c-.62.64-1.86,1.33-1,2.35,1,1.19,1.88.09,2.61-.66Q971.46,19.29,990.13,0Z" transform="translate(0 1.6)"/><path class="cls-4" d="M774.67,440.4c2.06-7.47,4.94-14.29,11.94-18.46a7.42,7.42,0,0,1,1.58-.69c.69-.22,1.38-.18,1.67.64s-.19,1.1-.74,1.38c-7.06,3.59-10,10-12,17.19-.21.82-.38,1.83-1.57,1.68S774.75,441.09,774.67,440.4Z" transform="translate(0 1.6)"/><path class="cls-5" d="M790,435.34a2.86,2.86,0,0,1-.92-.51,1.15,1.15,0,0,1,.1-1.56q3-4,6.08-8a1.12,1.12,0,0,1,1.73-.34,1,1,0,0,1,.27,1.51,59.73,59.73,0,0,1-6.4,8.51A2.85,2.85,0,0,1,790,435.34Z" transform="translate(0 1.6)"/><path class="cls-5" d="M786.46,385.38c-1.37-.49-.85-1.6-.37-2.49a22.34,22.34,0,0,1,6.43-6.91,29.64,29.64,0,0,1,6-3.44c.8-.36,1.85-1.19,2.42.17s-.71,1.66-1.52,2a26,26,0,0,0-9.06,6.5,37.87,37.87,0,0,0-2.34,3.26C787.67,385,787.36,385.48,786.46,385.38Z" transform="translate(0 1.6)"/><path class="cls-5" d="M859.43,412.52c0,.89-.73,1.18-1.41,1.54-3.91,2.08-8,3.9-9.93,8.37a1,1,0,0,1-1.45.54c-.66-.29-.66-.93-.51-1.49a6.35,6.35,0,0,1,.77-1.84c2.61-4,6.48-6.23,10.76-7.9C858.68,411.34,859.33,411.71,859.43,412.52Z" transform="translate(0 1.6)"/><path class="cls-5" d="M806.86,376.49a2.44,2.44,0,0,1-.42.72,39.87,39.87,0,0,1-9.29,5.63,1,1,0,0,1-1.37-.66,1,1,0,0,1,.48-1.45,53.41,53.41,0,0,0,8.85-5.27C806.15,374.7,806.64,375.48,806.86,376.49Z" transform="translate(0 1.6)"/><path class="cls-5" d="M865.4,416.84c-.22,1.41-1.45,1.58-2.37,1.84-2.23.63-4.09,2.78-6.62,1.92-.8-.27-.55-1.38.33-1.77,2.35-1.05,4.74-2,7.11-3C864.92,415.37,865.2,416.08,865.4,416.84Z" transform="translate(0 1.6)"/><path class="cls-5" d="M1188.53,513.25a1.16,1.16,0,0,1-1.1-.8,1,1,0,0,1,.61-1.4c4.55-1.83,9-3.78,13.4-6a.92.92,0,0,1,1.24.4,1,1,0,0,1-.25,1.51A73.06,73.06,0,0,1,1188.53,513.25Z" transform="translate(0 1.6)"/><path class="cls-4" d="M1193.89,503.37c0,1-.77,1.24-1.5,1.51a19.91,19.91,0,0,0-9.28,6.95c-.52.72-1.19,1.5-2.12.78s-.24-1.51.29-2.2a21.74,21.74,0,0,1,10.41-7.78C1192.66,502.3,1193.56,501.93,1193.89,503.37Z" transform="translate(0 1.6)"/><path class="cls-5" d="M1198.59,502.83a1.11,1.11,0,0,1-.84-.79,1.06,1.06,0,0,1,.85-1.51c1.58-.36,3.17-.72,4.76-1a1.07,1.07,0,0,1,1.41,1c.1.83-.35,1.18-1.14,1.32C1202.13,502.1,1200.63,502.43,1198.59,502.83Z" transform="translate(0 1.6)"/><path class="cls-4" d="M1175.36,568.78c-.22.87-.93,1.12-1.69,1.35-3.56,1.08-7.16,2.1-9.89,4.88a1,1,0,0,1-1.54.13c-.78-.69-.39-1.39.12-2,2-2.5,5-3.45,7.83-4.56a19.81,19.81,0,0,1,3.59-1A1.19,1.19,0,0,1,1175.36,568.78Z" transform="translate(0 1.6)"/><path class="cls-5" d="M1169.62,578.1a1.19,1.19,0,0,1-1.19-.72,1,1,0,0,1,.65-1.38,102.77,102.77,0,0,0,12.27-5.72,1,1,0,0,1,1.5.33,1,1,0,0,1-.21,1.52A70.52,70.52,0,0,1,1169.62,578.1Z" transform="translate(0 1.6)"/><path class="cls-4" d="M1137.19,596.53l7.33-3.37c.78-.36,1.64-1,2.16.22.38.93-.36,1.36-1.08,1.74-4.61,2.4-9.34,4.53-14.17,6.46-.66.26-1.31.57-1.84-.06s-.23-1.43.36-2c2-2.06,4-4.14,6.09-6.18.59-.58,1.26-1.47,2.18-.66,1.08,1,.1,1.68-.5,2.4-.3.36-.57.75-.85,1.12-.25.06-.56.12-.36.45C1136.56,596.7,1137,596.56,1137.19,596.53Z" transform="translate(0 1.6)"/><path class="cls-5" d="M1242.52,392a23.76,23.76,0,0,1-9-1.51c-.84-.35-2.06-.57-1.69-1.89.47-1.63,1.57-.57,2.32-.31,8.23,2.8,15.88,1.36,23.16-3,.66-.4,1.28-.85,1.93-1.26s1.43-.93,2-.11,0,1.56-.76,2.1A29.53,29.53,0,0,1,1242.52,392Z" transform="translate(0 1.6)"/><path class="cls-14" d="M1137.19,596.53c-.24,0-.63.17-.68.09-.2-.33.11-.39.36-.45A3.73,3.73,0,0,1,1137.19,596.53Z" transform="translate(0 1.6)"/><path class="cls-16" d="M771.7,190.86c3.2,24.32,14.42,46.82,30.45,65.24,17.06,19.6,39.22,33.91,63.37,43.21,26.13,10.05,54.25,14.28,82.15,14.73,30.55.49,61-3.52,90.85-9.81,30.19-6.36,59.83-15,89.34-24l10.71-3.25c1.84-.56,1-3.46-.8-2.89-28.83,8.78-57.71,17.52-87.08,24.35s-59,11.7-89.1,12.5c-28,.75-56.21-2-83-10.3-24.92-7.74-48.38-20.46-67-38.9-17.1-16.94-30.11-38.33-35.3-62-.65-3-1.18-5.94-1.57-8.94-.25-1.88-3.25-1.91-3,0Z" transform="translate(0 1.6)"/></svg>