<svg id="Capa_1" data-name="Capa 1" xmlns="http://www.w3.org/2000/svg" xmlns:xlink="http://www.w3.org/1999/xlink" viewBox="0 0 1920 653.49"><defs><style>.cls-1{fill:url(#Degradado_sin_nombre_50);}.cls-12,.cls-2{fill:none;}.cls-2{stroke:#000;stroke-miterlimit:10;}.cls-3{fill:#2f3b40;}.cls-4{fill:#303c41;}.cls-5{fill:#354046;}.cls-6{fill:#fdfdfd;}.cls-7{fill:#fff;}.cls-8{fill:#fcfcfc;}.cls-9{fill:#fbfbfb;}.cls-10{fill:#d1d1d1;}.cls-11{fill:#f2f3f3;}.cls-13{fill:#fefefe;}.cls-14{fill:#91e1a7;}.cls-15{fill:#91e1a8;}.cls-16{fill:#fcfdfd;}.cls-17{fill:#ddf5e4;}</style><linearGradient id="Degradado_sin_nombre_50" x1="960" y1="4488.23" x2="960" gradientUnits="userSpaceOnUse"><stop offset="0.04" stop-color="#2197a3"/><stop offset="0.21" stop-color="#f71e6c"/><stop offset="0.47" stop-color="#f07868"/><stop offset="0.67" stop-color="#ebb970"/><stop offset="0.92" stop-color="#fff"/></linearGradient></defs><title>Banner1</title><rect class="cls-1" width="1920" height="653.49"/><path class="cls-2" d="M665.1-.67l.6-1" transform="translate(0 3.76)"/><path class="cls-2" d="M603,648.31l-3-3c-1-1-3-1-4-2-23-18-39-41-49-68-3-10-6-20-8-31-2-13-3-25-4-37-2-31,1-60,6-91,4-32,7-61,13-93,5-25,10-47,16-71,17-64,35-124,62-183,7-25,21-47,33.1-70" transform="translate(0 3.76)"/><path class="cls-2" d="M836,648.33a75.23,75.23,0,0,0,8-13c16-33,28-67,40.73-101.27,1.07,1.64-5.85,16.1,0,0,.27,3.27,1.27,6.27-1.73,8.27a27.63,27.63,0,0,1,1.73-8.27c5.84,10.26-.49,1.46,0,0C894,549.31,908,559.31,923,569.31l6,6c2,2,5,3,7,4-2.91-16.58-4.78-.2,0,0-5-21-5-43-16-62-6-11-16-20-21-31,3-26,17-52,3-77-3-6-11-7-18-5-2,1-5,2-7,3-2,2-3,3-5,4-1,0-4,1-5,0-8-10-18-17-29-23a57.31,57.31,0,0,1-11-11c-28-49-59-91-89-140-5-8-15-4-21,1a10.82,10.82,0,0,0-2,13c17,33,36,63,57,95,4,7,6,13,11,19-10,12-19,24-28,37-7,10-13,19-20,27-8,8-20,8-30,11-2,1-4,3-6,4-8,3-16,6-21,13-3,6-3,12-3,18,0,1-1,2-2,3-7,2-15,3-20,9-8,12-9,25-10,39-1,9-5,19-12,25-9,32,8,63,13,95,.15.67.3,1.34.46,2" transform="translate(0 3.76)"/><path class="cls-2" d="M1304.82,648.31c9.18-27,18.18-55,21.18-84,1-17,2-34,0-52-3-24-12-46-13-70-1-14,7-26,12-40,1-6,1-12-5-16-8-5-16-5-23.75-2.12,1.37-3.42,2.25-7.15,4.67-10-.21,3.41-1.41,8.26-4.67,10,9.53-22.3,18.54-44.82,27.6-67.32s18.12-44.87,27.84-67q3.6-8.22,7.32-16.38c1.94-4.24-.86-8.47-4.44-11a25,25,0,0,0-11.75-4.28c-5.72-.61-8.81-.26-11.7,5.27-5.41,10.35-9.33,21.72-13.72,32.53q-6.9,17-13.63,34.09c-9,22.69-17.9,45.41-27.26,67.95q-1.79,4.29-3.59,8.57c-1.71-1,.89-2,0,0a89.83,89.83,0,0,0-31.51-22.62c-9.73-4.13-27.07-9.88-33.64,2.2-2.46,4.51-2.1,10-1,14.83,1.45,6.38,7,10.92,11,15.94a291,291,0,0,1,23.9,34.77c3.12,5.33,8.47,12,5.5,18.33-3.75,7.95-8,15.64-10.53,24.09a9.32,9.32,0,0,1,.52-3.43,33.41,33.41,0,0,1-.52,3.43c-.37-.9-2.1-5.33,0-5.26s.44,4.27,0,5.26c-5-7.74-6.68-17.2-12-24.74-9.66-13.05-29.66-15.05-41.66-4.05-13,13-12,31-14,48-9.18-3,1.66-10.86,0,0-8-2-17-2-24,4-13,11-16,30-10.7,45-2-1.18-2.86-4.37-2.68-6.56,1.55,1.81,2,4.34,2.68,6.56-1.61-.52-7-3.07-5.49-5.42,2.47-3.83,5.33,4,5.49,5.42a12.18,12.18,0,0,1-4.29-.89c1.25-.42,3.43-.2,4.29.89-10.3-1-22.3,2-27.3,12a44.67,44.67,0,0,0-3,28c3,9,8,17,9,27,2,20,3,39,4.27,58.52" transform="translate(0 3.76)"/><path class="cls-2" d="M791.6-1.18C787,17.31,783,35.31,783,53.31a167.29,167.29,0,0,0,16,79c2,5,4,10,0,15-3,3-6,5-9,8a30.39,30.39,0,0,1-5,7c-6,8-9,17-11,27,8.28-1.09,1.31-3.47,0,0,19-3,35-13,51-24,2-1,5-2,7-3,7-3,15-1,19,5s4,14,9,19c3,3,8,7,13,5,13-7,27-6,39,2,2,1,5,1,7,1,1,0,1,2,2,2,13,4,25,8,38,5,9-1,11-13,8-21,8.42-1.49,1.08,5.24,0,0,12-2,28-2,32-17,3-14-6-27-20-29.76a5.3,5.3,0,0,1,2.2.31,1.82,1.82,0,0,1-2.2-.31c13-.24,25,2.76,37,6.76,19,7,38,15,57,22,14,4,28,6,42,8,31,2,63-1,92-15,3-1,5-2,8-2,16,3,30,7,46,10,60,15,117,26,175,40,17,18,24,42,32,65,5,19,9,38,9,57,1,19,2,38-2,58-2,18-5,34-8,52,0,2-2,4-3,6-4,10-3,20-7,30-2,4-3,7-5,11-4,11-5,21-9,32a841.26,841.26,0,0,1-37,81c-10,18-20,35-31.72,51.87" transform="translate(0 3.76)"/><path class="cls-3" d="M1143.25-3.76h-7.55c11.55,5.39,24.16,6.64,36.52,8.74,22.24,3.78,44.6,6.77,67,9.64q24.09,3.11,48.2,6.12c.95.11,2.38.77,2.49-.93.09-1.31-1.23-1.26-2.15-1.38-24.19-3.13-48.39-6.15-72.57-9.41-10.87-1.46-21.77-2.85-32.55-5C1169.27,2.18,1156,.27,1143.25-3.76Z" transform="translate(0 3.76)"/><path class="cls-3" d="M908.16-.17A56.14,56.14,0,0,0,912,7.25c.47.78.86,2,2.08,1.37s.44-1.68,0-2.47a62.17,62.17,0,0,1-4.19-8.31h-2.52C907.58-1.67,907.81-1,908.16-.17Z" transform="translate(0 3.76)"/><path class="cls-3" d="M1463.78,206.89l-1.41-.33c-77.36-17.36-154.68-34.93-232.25-51.33-6.84-1.45-13.54-3.22-20.72-.81A265.78,265.78,0,0,1,1171,164c-15.71,2.78-31.5,4.66-47.47,4.14-25.15-.84-48.73-8.21-71.79-17.65-.32-.13-.72-.25-.56-1,6.52-.7,13.09-1.87,19.18-4.52,5.85-2.54,11.89-3.39,18.16-4a113.38,113.38,0,0,0,56.33-21.47c.8-.57,1.84-1.16,1.12-2.26s-1.72-.26-2.44.28a100,100,0,0,1-14.25,8.82c-21.27,11-43.75,15.16-67.53,11.94-13.62-1.85-26.67-6.06-39.83-9.75-18.64-5.22-36.94-11.7-56.22-14.44-14.38-2-28.65-2.55-42.59,2.48-6.73,2.43-13.57,5.08-18.34,10.58a73.24,73.24,0,0,1-21.37,17c-13,6.88-27.13,11-41.07,15.46-10.59,3.38-20.38,1.28-29.15-5.52-.86-.67-2.65-1.4-2.05-2.37.82-1.34,2,.34,2.81.79,10.16,5.36,19.92,3.9,28-4.29a63.25,63.25,0,0,0,6.2-7.62c1.46-2,1.53-3.27-1-4.71a22.1,22.1,0,0,1-10.75-14.41,166.23,166.23,0,0,1-3.55-21.37c-.13-1.21.34-2.86-1-3.41-1.61-.67-2.27,1.14-3.12,2-5.6,5.86-11.09,11.83-16.68,17.69-.67.71-1.22,2.61-2.44,1.58-.85-.72.68-1.76,1.32-2.48,12.22-13.8,24.77-27.29,37.8-40.33a18.86,18.86,0,0,1,7.58-4.63c3.38-1.11,6.8-2.17,10.26-3,13-3.08,26.11-5.94,39.12-9.09C932.7,52,958.5,42,984,31.33l6.65-2.83c.74-.31,1.56-.74,1.19-1.66s-1.25-1-2.18-.54c-.76.39-1.59.67-2.39,1l-22.73,9.34c-.43.11-1.1.46-1.24.31-.51-.55.27-.68.5-1q18.88-19,37.77-38.1h-3.22Q978.26,18,958.21,38.23a8.23,8.23,0,0,1-2.78,2C929.69,50.4,903.07,57.4,876,62.64c-.24.21-.48.34-.71,0a3.33,3.33,0,0,1,.39-.35,155.63,155.63,0,0,1,11.76-13.13Q913.15,23.49,939-2.16h-3.31Q910.91,22.4,886.2,47c-3.48,3.47-6.61,7.27-9.91,10.92l-.71.84a18.6,18.6,0,0,1-13,7.49c-8.92,1.27-15.41,6.62-21.25,13-2.9,3.18-5.9,6.25-9.18,9.72,0-2-.09-3.53,0-5,.68-8.87-2-17.18-4.29-25.54-.72-2.66-.52-4.53,1.43-6.69,7.84-8.63,12.41-19.25,17-29.76,2.19-5.08,5.23-7.34,10.59-8.46,12.42-2.59,24.93-5.1,36.62-10.34,3.42-1.53,6.75-3.3,10.06-5.06l.45-.25h-4.77a88.87,88.87,0,0,1-14.59,6.22c-10.91,3.52-22.12,5.93-33.28,8.52-.78.18-1.37.34-1.71-.81-1.63-5.51-4.8-9.89-8.44-13.93H838c.67.73,1.33,1.46,2,2.21a40.38,40.38,0,0,1,6.65,9.77c.76,1.7,1.25,3.51.37,5.3-5.49,11.12-9.43,23.21-17.81,32.59-4.29,4.8-4.71,9.06-2.73,14.71a58.44,58.44,0,0,1,2.94,25.93A10.54,10.54,0,0,1,826.54,95a268.41,268.41,0,0,0-20.4,22.89,40.71,40.71,0,0,0-6.24,12c-3.5-3.92-4.78-8.41-5.68-12.85-3.49-17.28-6.89-34.58-10-51.94-1.27-7.21.68-14.4,1.94-21.5,2.72-15.4,6.56-30.56,10-45.8h-2.12l-.56,0c-3.34,14.77-6.59,29.56-9.63,44.39-1.83,8.93-3.66,18-1.43,27.21.93,3.84,1.52,7.76,2.27,11.64,2.32,12.11,4,24.35,7,36.34,1.13,4.58,2,9.5,5.42,12.91,3.57,3.56,1.13,8.13,2.89,11.85-2.42,1.82-2.16,5.3-4.28,7.21a49.16,49.16,0,0,0-11.85,16.16c-2,4.45-4.56,8.69-6.86,13-.35.67-1.08,1.62-.86,2.05,1.41,2.73-.88,4.44-1.59,6.57-.26.77-1.13,1.52-.32,2.37s1.76.12,2.58-.29c1.54-.77,3.46-2.56,4.54-2.14,2.29.89,3.73-.36,5.41-1,2.7-1,5.29-2.32,8-3.43,8.07-3.38,16.32-6.48,21.8-13.92a5.14,5.14,0,0,1,.4-.41c.57-.62,1.16-.67,1.68,0,1.42,1.86,2.56.87,3.77-.28,1.4-1.33,2.88-2.57,4.28-3.9a3,3,0,0,1,2.55-1,35.75,35.75,0,0,0,13.72-1.44c1.77-.48,2.59,0,3.42,1.51,2.37,4.3,4.87,8.54,7.36,12.78a50.63,50.63,0,0,0,9.47,12.35,10.34,10.34,0,0,0,9.33,2.69,24.89,24.89,0,0,0,11.74-5.92,3.83,3.83,0,0,1,4.38-.74c15.76,5.42,31.54,10.82,47.58,15.41,6.5,1.85,13.1,3.19,20,2.1s12.27-5.2,11.55-13.53a32.5,32.5,0,0,0-.9-6.57c-.77-2.59.08-3,2.49-3.11,7.95-.37,15.7-1.71,22.79-5.65,5.39-3,7.72-7.37,6.86-13.43a54,54,0,0,0-1.82-8.46c-2.61-8.37-7.83-14.27-16.48-16.76-.56-.16-1.42.1-1.68-.87,4.85,0,9.67,0,14.49,0a20.25,20.25,0,0,1,6.21,1c24,7.34,47.16,16.95,70.75,25.39a177.59,177.59,0,0,0,79.77,9.41A299.73,299.73,0,0,0,1211,156.5a18.62,18.62,0,0,1,9.65-.8c8.87,1.83,17.79,3.45,26.63,5.4q87.36,19.25,174.68,38.64c5.22,1.16,10.56,1.84,15.57,3.84,3-.11,5.69.93,8.51,1.52,5.75,1.19,11.47,2.54,17.22,3.8.69.15,1.63.61,1.93-.51S1464.56,207.1,1463.78,206.89ZM810.64,151.73c-1.79-.79-2.94-2.33-4.18-3.84.13-.28.19-.61.37-.71a.79.79,0,0,1,.75,0c1.25,1.18,2.5,2.36,3.64,3.64C811.5,151.17,811.24,152,810.64,151.73ZM807,121.23c.07,0,.24.16.37.26l-.43.52-.51-.34A3.35,3.35,0,0,1,807,121.23Zm-.56,7.29a7.58,7.58,0,0,1,1.47-3.69c7.1-8.26,14.69-16.06,22.53-24.47A201.53,201.53,0,0,0,834,122a25,25,0,0,0,10.66,15.25c1.41,1,1.69,1.64.61,3.15-3.89,5.4-8.15,10.44-14.83,12.28C815.79,156.69,803.12,143.92,806.41,128.52ZM803.87,126a5,5,0,0,1,2-3.41c.67,1.94-1.35,2.67-1.31,4.1a26.18,26.18,0,0,0,1.9,18.72c.26.55,1,1.21.31,1.73-.92.64-1.32-.44-1.71-1C800.37,139.74,800.83,133,803.87,126Zm.75,49.78q-10.05,4.35-20.1,8.73c-2.36,1-2.82-1.4-4.07-2.32-.81-.6-2.1-1.28-1.28-2.79,3.6-6.67,7.19-13.35,11-20.32,5.12,5.12,10,10,14.91,14.88C806,174.94,805.64,175.38,804.62,175.82Zm3.46-2.41a5.89,5.89,0,0,1-1.31-1.1c-4.63-4.63-9.21-9.31-13.9-13.87-1.21-1.18-1.13-1.87.06-2.94,2.21-2,4.16-5.56,6.47-5.78s4.28,3.61,6.41,5.65c3.05,2.94,6,6,9,9,.4.4.79.83,1.12,1.17C816,166.18,808.51,173.62,808.08,173.41Zm16.27-10.18c-3.57,3.73-3.58,3.74-7.08.19q-4.56-4.6-9.09-9.24l-.58-.59L807,153l-.58-.62-.58-.63-.58-.53-.58-.55-.58-.56-3.53-3.36c-.45-.43-.77-.84-.14-1.39s1-.25,1.39.29l2.68,4.06.56.6.55.6.56.6.6.56.61.55.61.54c.19.2.38.39.58.58,5.07,3.44,10,7.09,16,8.76A2.8,2.8,0,0,1,824.35,163.23Zm105.14-45.65c.11-.62.79-.76,1.72-.73a4.79,4.79,0,0,1,.78.27c5.9,2.83,11.17,6.44,14.89,12,.54.8,1.3,1.7.24,2.52-.84.65-1.42-.19-1.83-.81-3.58-5.4-8.6-9-14.38-11.69C930.25,118.81,929.31,118.57,929.49,117.58Zm-22.78,10.64c.3-.36.65-.68.93-1a3.38,3.38,0,0,1,1.92,1.37,18.71,18.71,0,0,1,4.7,10.32,3,3,0,0,0,2.63,2.83c2,.49,3.82,1.25,5.73,1.89.88.29,1.42.61,1.09,1.8-.42,1.54-1.15.35-1.71.32a10.31,10.31,0,0,1-1.35-.47c-5.42-1.06-9.51-3.24-9.74-9.72-.09-2.38-1.91-4.33-3.73-6C906.8,129.24,906.13,128.91,906.71,128.22Zm-7.22,11.83c.12-1,.88-1.17,1.7-1.05,2,.28,3.94.64,5.92.93.88.12,1.53.52,1.38,1.43s-1,1-2.25.83c-1.54-.25-3.51-.57-5.48-.91C900.08,141.16,899.39,140.93,899.49,140.05Zm-37,34.69c-.43,2.79-.08,5.69-.08,8.54-5.05-5.32-8.34-11.55-11.92-17.59-3.06-5.15-3-5.15,2.62-7.07,4-1.34,4-1.34,6.12,2.38C861.75,165.25,863.3,169.64,862.53,174.74Zm9.14,14.13a7.39,7.39,0,0,1-3.95-.45c-1.77-.74-3.33-1.55-2.89-4.16.34-2-.15-4.22-.3-6.85,1.63-7-.28-13.63-4.6-19.72-.7-1-.29-1.26.62-1.6,6.06-2.23,12.24-4.11,18.12-6.82.93-.43,1.65,0,2.41.51a32.15,32.15,0,0,0,5.25,3c4.15,1.55,5.07,4.63,5,8.62a57.22,57.22,0,0,1-.69,9.79C889,179.59,880.16,187.72,871.67,188.87Zm57.14,6.39c-5.06-1.55-10.08-3.27-15.14-4.82-1.64-.5-2.58-1.08-3-3-.45-2.23-1.48-4.36-1.64-6.7-.25-3.83,1.14-5.4,4.92-5.38,9.53,0,18.64,2.67,27.85,4.62,1.24.26,1.49.95,1.42,2.07a36.24,36.24,0,0,0,3.35,17.62C940.18,198.8,934.5,197,928.81,195.26Zm27.46,4.26c-8.57,1-6.66,2-9.4-6.28a31.13,31.13,0,0,1-1.16-12.3c.1-1.32.07-2.37-1.65-2.8-9.44-2.34-18.87-4.83-28.65-5.13-7.24-.22-9.78,3-8.41,10.14.31,1.6.85,3.15,1.28,4.73l.23.6-.67-.1q-9-3-18.09-6c-.71-.24-2-.17-.9-1.59,5-6.63,5.14-14.34,4.58-22.1-.15-2,.26-2.91,2-3.76,7.69-3.64,15.5-6.84,24.08-7.7a14.59,14.59,0,0,1,7.13.63c6.78,2.86,14,4.67,20.29,8.68,9.87,6.31,15.35,15.63,17.86,26.87a27.94,27.94,0,0,1,.63,6.9C965.32,195.5,962.36,198.8,956.27,199.52Zm33-27.68c-1.4,1.56-3.39,1.74-5.25,2.21a64.19,64.19,0,0,1-16.7,2.58c-1.85.09-2.27-1-2.45-2.42-3.4-5.79-6.53-11.77-11.65-16.32-.92-.83-.37-1.53.2-2.24a7.82,7.82,0,0,1,5.21-2.83c7.83-1,15.68-1.8,23.57-2.12,3.15-.13,5,1.17,5.94,4.24A34.54,34.54,0,0,1,990,165.4c0,2.68-1.14,4.25-3.9,4.82a96.9,96.9,0,0,1-18.37,1.69c-1.45,0-3.12-.23-2.71,2.14a80.89,80.89,0,0,0,19-.94l5.24-1.3a.6.6,0,0,1,.73-.54c.09,0,.17.21.25.32Zm6.93-15.38a30.23,30.23,0,0,1,.65,6.9,8.39,8.39,0,0,1-5.87,7.26c2.52-6.19.73-12-1.2-17.73a6,6,0,0,0-5.5-4.35c-4.67-.54-9.23.33-13.83.75-3.93.35-7.88.59-11.8,1.1a10.47,10.47,0,0,0-7.36,4.14c-.47.62-.7,1.35-1.75.69-5.49-3.4-11.55-5.64-17.86-8.34,5.52-5.22,11.11-9.59,17.85-12.32a23.17,23.17,0,0,1,13.85-1c4.24.89,8.54,1.51,12.81,2.29C987.67,138,994.28,144.81,996.15,156.46Z" transform="translate(0 3.76)"/><path class="cls-4" d="M833.64,649a5.16,5.16,0,0,1,1.63.25c.25-.32.51-.63.75-1h-2.77c-.21.28-.44.54-.65.81A5.73,5.73,0,0,1,833.64,649Z" transform="translate(0 3.76)"/><path class="cls-4" d="M936,576.83c-3-13.11-6.21-26.17-8.81-39.35a57.14,57.14,0,0,0-9.36-22.07c-6.1-8.79-11.66-18-17.52-26.92a5,5,0,0,1-.81-4.31,275.48,275.48,0,0,0,7.13-36c1.24-10.68,1.84-21.37-.82-31.93-2.18-8.62-8.83-13.17-17.67-12.25a29.71,29.71,0,0,0-16.21,7c-1.38,1.16-2.1,1.21-3.43-.16-5.66-5.8-11.39-11.53-18.37-15.82-4.76-2.92-9.44-6-14.21-8.91a14.16,14.16,0,0,1-4.69-4.58q-29.78-46.21-59.62-92.38-16-24.78-32-49.59c-2-3.11-4.32-5.82-8.15-6.38-6.66-1-11.6,2.14-15.38,7.26-3.44,4.68-2.92,9.36.06,14.26,14.76,24.21,29.37,48.51,44,72.78,7.43,12.3,14.82,24.62,22.31,36.88,1.08,1.76,1.21,2.74-.67,4.14-2.78,2.07-4.91,4.9-7.08,7.61-11.19,13.91-21.33,28.61-32,42.9-9.29,12.43-9.3,12.41-23.94,17.42a241.52,241.52,0,0,0-31.42,13.23c-8.61,4.4-13.37,10.75-12.94,20.6a29.52,29.52,0,0,0,.17,4.62c.52,2.45-.5,2.89-2.73,3.3-11,2.06-19.63,7.09-23.25,18.58-3.76,11.92-5.75,24.17-7.48,36.49a14.18,14.18,0,0,1-2.85,7.34c-4,5.07-7.52,10.53-8.54,17.15a85.94,85.94,0,0,0-1,20.35c1.18,14.45,4.88,28.28,9.22,42,2.89,9.12,5.22,18.37,7.21,27.69a5,5,0,0,1,2-.4h.31c0-.12,0-.23-.08-.35a320.35,320.35,0,0,0-9-33.43,143.8,143.8,0,0,1-7.62-39.33c-.53-12.36,2.32-24,10.62-33.69A6.87,6.87,0,0,0,643,537c2-13.34,3.74-26.74,8-39.62a25.22,25.22,0,0,1,24.89-17c24.12,1.09,48.25,1,72.38.42a157.36,157.36,0,0,1,22.24.89c7.49.87,13.43,4.1,17.8,10.46a480.65,480.65,0,0,1,32.53,54.64c4.33,8.49,7.72,17.23,7.79,27a26.69,26.69,0,0,1-4,14.57c-3.7,6-6.13,8.6-9.63,10.5a1.46,1.46,0,0,0-.4.42c-2.72,3.69-6.38,3.71-10.4,2.81-5.56-1.25-5.58-1.18-6.21,4.36-.05.47.08,1-.49,1.22-.75.27-1-.44-1.3-.85a54.23,54.23,0,0,1-5.58-8.77,18.16,18.16,0,0,1-2.37-8.78,26.68,26.68,0,0,0-5-16c-6.79-9.6-14.07-18.87-20.14-29-.8-1.33-1.89-1.34-3.19-1.42-5.87-.36-11.61.83-17.69-.71-10.61-2.67-21.62-3.78-32.46-5.54-5.89-1-11.78-1.93-17.67-2.86-1.53-.24-3.86-2.23-4.37.06-.42,1.93,2.55,2,4.24,2.31,14,2.31,27.93,4.83,42,6.73,8.62,1.17,16.35,3.49,22.07,10.48,8.27,10.08,17.52,19.27,26.44,28.75a12,12,0,0,1,3.32,11.63,44.44,44.44,0,0,1-4,11.42c-5.39,10.24-18.67,16.63-29.81,14.4-5.39-1.08-8.2-4.92-7.47-10.22.15-1.15.23-2.26,1.85-1.06,3,2.19,6.38,2.49,9.92,2,1-.15,2.46-.07,2.28-1.54s-1.66-.89-2.6-.81c-4.25.38-8.07-.22-10.77-4a5.3,5.3,0,0,0-1.87-1.31c-3.89-2.11-7.87-4.08-11.7-6.3-2.57-1.49-5-2-7.93-1a13.19,13.19,0,0,1-6.89.19,147.49,147.49,0,0,0-22.32-2.29c-6.8-.17-13.39-2-17.92-7.91-.57-.75-1.07-1.91-2.22-1s-.11,1.74.41,2.45c3.85,5.29,9.49,7.37,15.59,8.43,3.14.54,6.36.64,10.16,1-6.82,4.87-13.69,5.27-20.84,3.4a67.36,67.36,0,0,1-7.54-2.85c-.73-.3-1.33-.3-1.76.39s.07,1.26.66,1.62a17.27,17.27,0,0,0,1.55.78,33.21,33.21,0,0,0,20.74,3c-5.72,5.75-11.83,9-19.54,9a60.35,60.35,0,0,1-14.61-1.76c-.79-.2-1.89-.51-2.2.67s.66,1.4,1.53,1.67a45.79,45.79,0,0,0,19.18,1.55c4.34-.5,8.63-1.8,11.85-4.88,2.81-2.68,5.79-2.78,9.28-2.29,5.35.74,10.78,1.55,16.12.39,4.76-1,8.73.32,12.49,3,4,2.82,8,5.79,12.11,8.43s8.24,4.92,13.37,4.86c11.46-.14,21.26-4.11,29.24-12.38,1.53-1.59,2.22-1.78,3.31.52,1.81,3.81,5,6.69,9.34,5.91a77,77,0,0,1,10.5-1.15,12.69,12.69,0,0,0,11.69-9,53.47,53.47,0,0,1,8.44-15.69c5.31-6.94,6.62-14.83,5.32-23.28-.52-3.35-1.25-6.67-1.93-10.26a29.67,29.67,0,0,0,2.93,1.34c3.05,1,6.15,2.87,9.11-.22.42-.43.9-.19,1.34,0,5.78,2.5,11.4,1.13,16.84-1s10.36-6.5,9.13-13.32c-.37-2.09-.57-4.2-1-6.29-1.48-7.84-3.49-15.6-2.48-23.74.62-5-.31-9.94-1.44-15.16a4.41,4.41,0,0,1,2.15,2.36c5.45,9,10.82,18,16.35,27a5.59,5.59,0,0,1,.53,5.35c-4.78,14-10.19,27.67-15.78,41.32-7.85,19.18-15,38.63-23.87,57.41a86.45,86.45,0,0,1-9.33,15.6H836a86.78,86.78,0,0,0,10.66-18.64c12.61-30,24.9-60.22,36.4-90.71.55-1.46,1-3,1.65-4.92a29.84,29.84,0,0,1,1.8,2.67,43.76,43.76,0,0,0,13.11,15.09c11.35,8.66,22.3,17.83,33.44,26.76.76.61,1.48,1.78,2.71,1.08S936.26,577.8,936,576.83ZM797.67,608.39s-.12-.11-.18-.17l.32-.19.21.19A1.87,1.87,0,0,1,797.67,608.39Zm10.87,4.45c-3.55,1.69-4.78,1.35-6.75-1.85-1.43-2.31-1.68-3.86-1.18-7.59,5.27,1.42,10.64,3.4,15.47-1.94C815.05,606.62,813.16,610.64,808.54,612.84Zm64-199.38c3.74-3.83,15.55-9.58,22.93-6.29,5,2.21,7.59,6.18,8.51,11.24,2.88,15.78.61,31.33-2.52,46.8-1.2,5.91-2.64,11.78-4.12,18.33-.71-.92-1-1.28-1.28-1.67-1.09-1.7-2.87-3.34-3.06-5.15s2.44-2.84,3.72-4.29c4.3-4.85,4.72-10.06,2.11-15.8-4.09-9-9.74-17.06-15.39-25.12-3.6-5.13-7.05-10.36-10.58-15.55C872.35,415.17,871.59,414.46,872.57,413.46ZM717.94,252.93c-4.11-6.75.45-14.8,8.74-17.23,4.64-1.36,7.72,0,10.67,4.59q36.38,56.23,72.73,112.47c5.91,9.14,11.73,18.34,17.59,27.52.11.11.34.31.32.33-.24.35-.41.12-.58-.1a143,143,0,0,1-18.77-11.33c-6.33-4.55-13-4.79-20-3.56a2.79,2.79,0,0,1-3.44-1.57Q751.64,308.45,717.94,252.93ZM739.3,427.54c13.68-17.45,26.05-35.89,40-53.17,6-7.44,13.61-7.37,21.72-6.72a5.25,5.25,0,0,1,2,1c16.07,9.93,32.31,19.61,48.14,29.92a75.35,75.35,0,0,1,21.7,21.4l7.5,11.18c-7.41,0-10.93,5.61-15.42,9.83-4.19,3.93-3.92,8.13-1.91,13,4.35,10.55,20,16.95,28.38,16.11,1.58-.15,2.84-1.21,4.52-1.72-.23-2-.81-2.78-2.79-1.36-1.47,1.06-3.36,1-5.06.72-7.72-1.15-14.6-4.07-19.93-10a15.67,15.67,0,0,1-1.68-2.35c-3.6-5.84-3.5-8.44.93-13.49,2.27-2.6,4.54-5.27,7.61-7,4-2.33,7.08-1.78,9.57,2.07,4.92,7.59,10.5,14.81,13.2,23.65.89,2.94.53,5.57-1.71,8.67a4.19,4.19,0,0,1-1.52,2.08c-9,8.65-22.48,12.44-35.45,1.86-7.32-6-14.07-12.44-18.87-20.58-4.22-7.14-9.74-12.22-17.87-14.3-3-.78-5-2.82-7-5.17-6.36-7.43-13.19-14.37-22.46-18.26a19.93,19.93,0,0,0-13.55-.84,346.15,346.15,0,0,0-36.23,12.82c-1.07.43-2.16.82-3.24,1.23-.3.2-.64.42-.91,0C738.9,428.08,739.18,427.76,739.3,427.54Zm103.83,38.8-20.29-24.49c-.24-.12-.55-.28-.3-.57.08-.09.47.07.72.12,5,1.26,8.71,3.77,11.06,8.66,2.23,4.65,5.28,8.91,7.94,13.37C842.77,464.29,843.71,465.07,843.13,466.34Zm22.81,79.15a7.64,7.64,0,0,1-3.45,7.48c-10.6,7-20.63,6.56-29.12-3.8-5.38-6.57-8.14-14.39-11.32-22-1.56-3.73-2.9-7.56-4.22-11.38a7.82,7.82,0,0,0-1.64-2.67c-5.72-6.54-11.31-13.19-17.2-19.57-3.61-3.91-8.42-6.41-12.74-9.45-4.88-3.43-8.22-7.75-9.4-13.66-.19-1-.14-2.5-1.67-2.17s-.85,1.75-.67,2.69a22.66,22.66,0,0,0,4.1,9.47c-2.73.21-4.91-.9-7.22-1.16a208,208,0,0,0-29.21-.78c-20.84.62-41.68.4-62.52-.3-1.8-.06-2.65-.47-2.61-2.41.07-2.69-.21-5.38-.1-8.09.28-6.9,3.4-11.72,9.52-15A181.92,181.92,0,0,1,715.31,440c13.94-4.6,27.16-11,40.94-16,7.17-2.58,14.36-5.05,21.62-7.36,8.57-2.74,15.69-.18,22.36,5,6.38,4.93,11.7,10.88,16.86,17,12.26,14.64,24.9,29,36,44.58a48.37,48.37,0,0,1,9.08,33.56c-.33,3.39,1.46,7.26-2.63,10.24-3.11,2.26-5.35,5.79-8.73,7.91-1.79,1.13-3.7,2.06-5.59,3-5.4,2.72-6.58,11.19-2.12,15.27.54.49,1.06.92,1.77.43.87-.6.55-1.32.06-2a10.13,10.13,0,0,1-2-4.43c-.55-3.32.67-5.83,3.75-7.24A37.35,37.35,0,0,0,860.79,529c.41-.53.79-1.09,1.67-2.3C863.94,533.58,865.41,539.44,865.94,545.49Zm22.45-10.71q-20-33-39.93-66.06a18.93,18.93,0,0,1-.83-1.83c-.07-.2-.25-.55-.21-.58.29-.2.4.05.49.28a139.57,139.57,0,0,0,12.44,10.3c9,6.42,18.4,6.72,28,1.72,1.89-1,2.67-.77,3.81,1,8,12.6,16.18,25.12,24.28,37.67.36.55.91,1,.77,1.83-13.66-1.79-23.12,3.43-27.81,16.7C888.73,535.89,888.65,535.2,888.39,534.78Zm20.18,21.07c-4.55-3.72-9.31-7.21-13.67-11.13-3.25-2.93-3.65-6.84-2.14-10.92A20.39,20.39,0,0,1,912.82,521c5.42.45,8.85,3.37,10.08,8.69,1.19,5.14,2.31,10.29,3.53,15.77a13.61,13.61,0,0,0-9.94,2.09A14,14,0,0,0,910.4,555C910.07,556,909.92,557,908.57,555.85Zm11.5,8.59c-2.14-1.79-4.22-3.66-6.43-5.35a2.56,2.56,0,0,1-1-3.42c1.75-4.7,7.13-8.39,11.91-8,1.19.1,2.31.2,2.65,1.69,1.93,8.42,3.88,16.83,6,26Z" transform="translate(0 3.76)"/><path class="cls-4" d="M766,647.87l67.26.44h0l-185.82-1.22,118.55.79" transform="translate(0 3.76)"/><path class="cls-4" d="M1358.49,234.23c2.46-5.93,1.46-8.27-4.54-10.71l-11.47-4.66c-5.67-2.3-8-1.34-10.32,4.34-5,12.06-9.87,24.13-14.85,36.18q-15,36.35-30.1,72.68-7.12,17.22-14.29,34.5c-.38-.21-.7-.29-.86-.49-6.5-8.09-15.21-13.3-24.1-18.16-9.26-5.06-19.11-8.29-29.88-7.58-7.64.51-12.11,5.12-12,12.45a29.34,29.34,0,0,0,3.4,12.74,74.07,74.07,0,0,0,16.4,21.15,13.58,13.58,0,0,1,2.91,3.18c6.19,11.23,12.38,22.46,18.66,33.65a4.38,4.38,0,0,1,.16,4.32c-2.62,6.1-5.1,12.27-7.64,18.4-1,2.42-2,4.82-3.31,7.88-3.15-6.75-7-12.29-9.38-18.64-3.29-8.67-8.1-15.84-18.43-17a48,48,0,0,0-8.39.06c-13.14.83-21.21,7.21-25.24,19.66-3.5,10.82-5,22-5.78,33.24-.14,2.1-.48,2.66-2.63,1.85-5.63-2.12-11.16-1.49-16.5,1.16-11.55,5.72-19.6,21.49-18,35.34a99.73,99.73,0,0,0,2,12.55c-1.54-.14-2.76-.3-4-.36-7.83-.4-14.78,1.5-19.62,8.18a46.44,46.44,0,0,0-6.2,13c-2.94,9-1.84,17.81,1.28,26.61,2.5,7.06,5.68,14.06,6.53,21.51,1.8,15.81,2.9,31.7,4.33,47.55.3,3.37.66,6.72,1,10.07l2.49.11q-2.42-20.61-4.09-41.29c-.26-3.17-.92-6.35-.32-9.65,2.38,4.19,4.44,8.49,6.63,12.72,5.23,10.12,12.36,18.17,23.83,21.32a48.45,48.45,0,0,0,20.92.88c2.3-.38,4.28-.33,6.22,1.14a42.7,42.7,0,0,0,5.39,3.37c1.23.67,1.42,1.38,1.12,2.77q-.87,4-1.68,8.06c0,.13,0,.26-.07.39a5.7,5.7,0,0,1,1.43.07l.85.14.13,0a1.18,1.18,0,0,1,0-.2q2.61-13,6.12-25.8c7.75-28.07,21.18-52.59,43.48-71.93,8-7,14.89-15.08,19-25.15,1.25-3,2.94-5.86,4.43-8.78a7,7,0,0,0,.87-3c.4-12.44,1.13-24.9.68-37.34-1-28.23,8.6-53,24.53-75.61a39.48,39.48,0,0,1,20.46-15.39c4.2-1.35,8.19-.72,12.38.64-.81,1-1.64.77-2.37.83-4.66.37-8.15,2.25-10.22,6.77-3,6.49-5.68,13.07-7.09,20.08-.6,3-1.37,6.14.17,9.09,2.27,4.35,11.6,8.27,16.48,7.07.84-.21,1.86-.33,1.74-1.51-.14-1.37-1.24-.89-2-.82a18.22,18.22,0,0,1-11-2.82c-3-1.78-4.08-4.33-3.53-7.81a78.79,78.79,0,0,1,7.84-23.15,5.78,5.78,0,0,1,2.38-2.83c4.89-2.48,10.13-1.64,15.27-1.62.24,0,.48.32.73.46,2.88,1.67,2.89,4.24,2.3,7a134.17,134.17,0,0,1-5.87,19.36c-5,13.57-8.71,27.36-8.11,42a74.47,74.47,0,0,1-.7,9.51c-1.73,19.71-3.71,39.39-3.74,59.21,0,10.81-.38,21.63-1.39,32.39-2.4,25.54-5.49,51-8.86,76.44q-.51,3.87-.9,7.76c-.08.76-.05,1.63,1,1.75s1.16-.79,1.33-1.52c.1-.47.1-1,.16-1.44,1.85-15.12,3.76-30.24,5.54-45.37,2.06-17.53,4.44-35,5-52.71.71-24.79,1.31-49.58,4-74.27.3-2.78.59-5.56.89-8.34a56,56,0,0,1,3.49,9.35c2.4,8.13,5.18,16.17,6.59,24.55,1.76,10.4,1.8,20.94,2,31.46.37,24.47-.92,48.78-6.56,72.71a334,334,0,0,1-14.45,45.11c-.41,1-.79,2.06-1.17,3.1.78.1,1.56.22,2.33.36,1.24-3.54,2.55-7.06,4-10.55,5.52-13.4,9.18-27.39,12.31-41.53a253.75,253.75,0,0,0,5.24-41.27c1-18,1.3-35.91-.55-53.79-1.36-13.1-6-25.48-9.66-38.07-.93-3.23-2.25-6.36-2.73-9.72-1.08-7.54.45-14.77,2.57-21.94,3.35-11.27,7.88-22.17,10.52-33.66.76-3.3,1.12-6.67-2-9-7-5.13-14.66-7.6-23.38-5.76-1.18.25-2.17,1.24-3.78.88,2.28-5.5,4.51-10.91,6.75-16.3Q1330.75,301,1358.49,234.23Zm-30,4.08c2.27-5.1,4.3-10.3,6.49-15.43,1.28-3,2.48-3.45,5.42-2.25,4.63,1.89,9.25,3.83,13.86,5.75,1.68.7,3.12,1.6,2.94,3.86-.2.55-.39,1.2-.65,1.82-2.08,5.07-4.22,10.12-6.24,15.22-.62,1.54-1.25,2-3,1.28-5.81-2.55-11.69-5-17.58-7.33C1328.28,240.61,1327.76,240,1328.54,238.31Zm-6.7,16c1.51-3.43,3-6.88,4.32-10.38.48-1.26,1-1.32,2.14-.87,6.21,2.58,12.45,5.12,18.67,7.71.54.22,1.42.25,1.31,1.3-.07.21-.16.49-.27.75-1.44,3.47-2.92,6.91-4.3,10.4-.46,1.18-1,1.39-2.15.89-6.2-2.62-12.43-5.17-18.68-7.7C1321.81,256,1321.29,255.61,1321.84,254.35Zm-87.92,139.84a44,44,0,0,0-8.42-11.2c-7.46-7.23-13.83-15.32-16.45-25.72a19.7,19.7,0,0,1-.57-2.83c-.71-7,2.9-11.22,10-11.72,7.49-.54,14.57,1.15,21.4,4a88.93,88.93,0,0,1,29.87,19.9c1.68,1.73,2,3.28,1,5.59-6.66,15.78-13.16,31.63-19.74,47.45a4.94,4.94,0,0,1-1.57,2.66C1244.19,412.93,1238.92,403.63,1233.92,394.19Zm-64.21,223c-4.19,6-12.81,8.77-19.83,6.5a1.9,1.9,0,0,1-1.58-1.6c-.63-2.38-2.63-4.2-3.24-7,6-.22,11.71-.93,16.41-4.9a2,2,0,0,1,2.88.06c1.81,1.57,3.58,3.2,5.41,4.75C1170.72,615.81,1170.25,616.42,1169.71,617.18Zm2.61-5.27c-.36,1.48-.8,1.51-1.83.56q-2.23-2.06-4.61-4c-2.05-1.65-4.05-1.84-6.25,0-4,3.3-8.81,4.16-13.83,4.13-3.45,0-4.16.89-3,4.11a23,23,0,0,0,1.29,2.58c.4.77.83,1.51,1.61,2.93-6.5-2.81-11.43-6.61-16.18-10.67-8.6-7.37-13.43-17-16.6-27.61-2.26-7.56-5.45-14.85-7.1-22.57-2.39-11.17.8-21.29,7.2-30.33,4.37-6.17,13.31-8.56,20.33-6.37,1.4.44,1.52,1.52,1.87,2.64,4.79,15.51,9.34,31.1,15.37,46.23,3.34,8.36,8.95,15.23,13.62,22.72,2.35,3.75,4.81,7.46,7.39,11.05A5,5,0,0,1,1172.32,611.91Zm29.55-31c-1.85,3-3.55,6.18-5.17,9.36a3.39,3.39,0,0,1-3,2.11c-4.22.46-8.43,1.15-12,3.67a5.66,5.66,0,0,0-2.27,7.09c1.05,2.45,3.08,3.3,5.64,3.1,1-.08,2.16,0,2.14-1.33s-1.14-1-2-1c-1.68-.06-3.36-.15-3.84-2.25s.7-3.25,2.38-4.12c3.28-1.71,6.84-2.37,10.64-3-1.79,4.41-3.4,8.53-5.13,12.6-1,2.26-4.85,3.26-7.92,2.09-4.58-1.76-7.8-5.22-10.82-8.88a129.52,129.52,0,0,1-24.25-45.58c-3.27-10.87-6.92-21.64-9.43-32.73-2-9-3.85-18.1-.42-27.06,3.22-8.45,8-15.92,17.05-19.25a18.64,18.64,0,0,1,13.57,0,2.94,2.94,0,0,1,2.18,3.44,145.45,145.45,0,0,0,0,20.24c.82,10.72,3.2,20.79,9.38,29.92,5,7.39,10.24,14.73,13.26,23.28a34.69,34.69,0,0,1,1.58,5.24c1.31,7.09,5.25,13,8.61,19.13A3.35,3.35,0,0,1,1201.87,580.89Zm22.4-27.55A96.06,96.06,0,0,0,1213,565.28c-1,1.26-2.21.89-3,1-3.65.08-6.2-1-7.75-4.07-.77-1.54-1.88-2.9-2.79-4.37s-3.05-3.63-2.63-4.58c1.9-4.28.21-9.68,4.73-13.19,4-3.14,7.18-3.9,11.53-1.2,5,3.08,8.26,7.72,11.59,12.34C1225.31,552.11,1225,552.67,1224.27,553.34Zm8.52-8.39c-1.94,1.72-3.59,4.8-5.63,5-1.67.2-2.9-3.56-4.53-5.4a45.57,45.57,0,0,0-7.47-7.22c-6.32-4.53-12.07-3.22-17.09,3-2.29,2.85-2.86,6.35-2.72,10.83l-10.56-16.76c-.92-1.47-1.71-3-2.76-4.4-8-10.34-10.42-22.45-10.7-35.05-.39-16.9.31-33.76,4.49-50.26,1.25-4.93,2.53-9.91,5.57-14.16,4.56-6.37,11.09-9,18.59-9.67,1.82-.17,3.67,0,5.5-.13,8.62-.72,14,3.86,17.67,11a44.69,44.69,0,0,1,3.81,30.08,44.51,44.51,0,0,0-.64,8.91c0,10.6.32,21.23-2.9,31.53a5.53,5.53,0,0,0,.42,3.38c3.62,11.57,7.36,23.09,10.09,34.92C1234.35,542.41,1234.22,543.69,1232.79,545Zm60.87-160.45a4,4,0,0,1-1.66,2.27c-8,4.37-13.36,11.24-18.16,18.67-11.55,17.88-18.93,37.27-20.85,58.55-.47,5.26-.14,10.61-.09,15.91a14.6,14.6,0,0,1-1.14,5.9c-5.61,13.44-11.14,26.91-16.71,40.36a5.53,5.53,0,0,1-1.73,2.8c-2.07-6.68-3.63-13.26-6.17-19.45-2.1-5.13-.53-9.76.21-14.62A23.17,23.17,0,0,0,1228,490c-.63-9.49,3.7-17.58,7.15-25.91q42.09-101.67,84.16-203.34c.92-2.22,1.66-2.58,3.87-1.57,5.59,2.55,11.31,4.84,17,7.12,1.63.65,1.88,1.3,1.19,3Q1317.46,326.88,1293.66,384.5Z" transform="translate(0 3.76)"/><path class="cls-4" d="M759,639.82a87.75,87.75,0,0,1,6.22,8.86,18,18,0,0,1,2.93.05,87.15,87.15,0,0,0-8.41-11.8c-.52-.62-1-1.66-2.06-.9-1.2.86-.25,1.67.26,2.42C758.26,638.93,758.63,639.37,759,639.82Z" transform="translate(0 3.76)"/><path class="cls-5" d="M850.82,80.59c-.12-.83,0-1.62.95-1.78.8-.14,1.21.48,1.33,1.21a113.73,113.73,0,0,0,5.65,21.47c.32.85.12,1.62-.75,1.89s-1.21-.33-1.47-1A114.94,114.94,0,0,1,850.82,80.59Z" transform="translate(0 3.76)"/><path class="cls-4" d="M777.87,488.56a5.6,5.6,0,0,1-.81,1c-5.72,4.56-9.1,10.87-12.75,17a14.83,14.83,0,0,1-.9,1.47,1,1,0,0,1-1.27.34,1,1,0,0,1-.56-1.2,3.08,3.08,0,0,1,.36-1.07c3.56-6.17,7.11-12.36,12.43-17.25a7.45,7.45,0,0,1,2.13-1.43C777.3,487.06,777.72,487.61,777.87,488.56Z" transform="translate(0 3.76)"/><path class="cls-5" d="M740.72,573.09c.51-4.46.47-9,1.81-13.4a9.88,9.88,0,0,1,3.44-5.22c.5-.37,1.09-.59,1.58-.15s.8,1,.24,1.52c-4.83,4.49-3.74,10.64-4.56,16.24a38.76,38.76,0,0,0-.17,4c0,.83-.24,1.64-1.25,1.6s-1.09-.9-1.09-1.7C740.71,575.05,740.72,574.09,740.72,573.09Z" transform="translate(0 3.76)"/><path class="cls-5" d="M1298.7,472.37a33.56,33.56,0,0,1-11.58-2.19c-.85-.35-1.69-.7-1.3-1.82s1.43-.74,2.17-.43a27.41,27.41,0,0,0,14.42,1.52c.86-.11,1.85-.38,1.95.94s-.81,1.36-1.71,1.47Z" transform="translate(0 3.76)"/><path class="cls-5" d="M1294.15,486.94c-3.92-.07-7.5-.94-10.23-4-.66-.73-1.76-1.63-.55-2.68s1.64.35,2.24,1c2.56,2.67,5.82,3.19,9.29,3.08.86,0,1.72-.24,2.58-.3s1.93-.41,2.19.76c.3,1.34-.83,1.54-1.81,1.68C1296.63,486.66,1295.38,486.79,1294.15,486.94Z" transform="translate(0 3.76)"/><path class="cls-5" d="M870.65,109.25c.1.81.07,1.48-.78,1.7s-1.28-.4-1.44-1a60.9,60.9,0,0,0-5.87-14.67,1.18,1.18,0,0,1,.44-1.74c.85-.52,1.28.07,1.61.65A57,57,0,0,1,870.65,109.25Z" transform="translate(0 3.76)"/><path class="cls-5" d="M1300.45,465.22c-2.31.07-4.91-.19-7.42.7-.72.26-1.59.5-2-.45s.31-1.46,1.07-1.7c4.6-1.43,9.28-1.08,14-.45a1.08,1.08,0,0,1,1,1.2c-.1.82-.72,1.06-1.47,1C1304,465.45,1302.34,465.34,1300.45,465.22Z" transform="translate(0 3.76)"/><path class="cls-5" d="M809.6,585.3c-.6.13-1.18,0-1.38-.65a1.14,1.14,0,0,1,1-1.49,19.84,19.84,0,0,0,11.5-6.7,1.29,1.29,0,0,1,2-.16c.58.6.13,1.24-.33,1.79A20.47,20.47,0,0,1,809.6,585.3Z" transform="translate(0 3.76)"/><path class="cls-5" d="M782.36,495.45c-.16.3-.36.74-.6,1.15a42.83,42.83,0,0,1-7.26,9.3c-.63.6-1.33,1.75-2.35.62-.79-.87-.06-1.6.59-2.2A42.72,42.72,0,0,0,780,495c.34-.57.65-1.32,1.5-1A1.34,1.34,0,0,1,782.36,495.45Z" transform="translate(0 3.76)"/><path class="cls-5" d="M867.62,118.27a1.15,1.15,0,0,1-.71,1.13,1,1,0,0,1-1.27-.34,49.82,49.82,0,0,1-5.62-9,1.15,1.15,0,0,1,.3-1.55.94.94,0,0,1,1.48.22c1.91,3,3.79,6,5.67,8.94A2.48,2.48,0,0,1,867.62,118.27Z" transform="translate(0 3.76)"/><path class="cls-5" d="M746.72,570.12c-1-.2-1.43-.78-1.19-1.67.62-2.32,1.28-4.62,2-6.92.17-.55.49-1.12,1.2-1s1.16.59,1,1.19c-.66,2.6-1.4,5.18-2.18,7.75C747.44,569.76,747,569.93,746.72,570.12Z" transform="translate(0 3.76)"/><path class="cls-6" d="M840,.05c-.65-.75-1.31-1.48-2-2.21H796.23c-3.46,15.24-7.3,30.4-10,45.8-1.26,7.1-3.21,14.29-1.94,21.5,3.06,17.36,6.46,34.66,10,51.94.9,4.44,2.18,8.93,5.68,12.85a40.71,40.71,0,0,1,6.24-12A268.41,268.41,0,0,1,826.54,95a10.54,10.54,0,0,0,2.87-6.66,58.44,58.44,0,0,0-2.94-25.93c-2-5.65-1.56-9.91,2.73-14.71,8.38-9.38,12.32-21.47,17.81-32.59.88-1.79.39-3.6-.37-5.3A40.38,40.38,0,0,0,840,.05ZM822,52c-.74.45-1.32.08-1.73-.52s-.72-1.36-1.12-2c-2.26-3.68-5.16-6.47-9.68-7-.91-.11-1.86-.24-1.61-1.49.22-1,1.14-.82,1.67-.83,5,.24,11.69,5.74,12.8,10.33C822.5,51,822.64,51.6,822,52Z" transform="translate(0 3.76)"/><path class="cls-6" d="M909.89-2.16a62.17,62.17,0,0,0,4.19,8.31c.46.79,1.27,1.81,0,2.47S912.49,8,912,7.25a56.14,56.14,0,0,1-3.86-7.42c-.35-.86-.58-1.5-.79-2H904l-.45.25c-3.31,1.76-6.64,3.53-10.06,5.06-11.69,5.24-24.2,7.75-36.62,10.34-5.36,1.12-8.4,3.38-10.59,8.46-4.54,10.51-9.11,21.13-17,29.76-1.95,2.16-2.15,4-1.43,6.69,2.25,8.36,5,16.67,4.29,25.54-.11,1.47,0,3,0,5,3.28-3.47,6.28-6.54,9.18-9.72,5.84-6.38,12.33-11.73,21.25-13a18.6,18.6,0,0,0,13-7.49,29.71,29.71,0,0,1-10.75-4.36c-.72-.43-1.31-.86-.78-1.8s1-.66,1.7-.28a31.86,31.86,0,0,0,8.62,3.83c1.07.24.73,1.8,1.92,1.77,3.3-3.65,6.43-7.45,9.91-10.92q24.69-24.58,49.44-49.13Zm-49.65,51.9c-.44.42-.9.2-1.27-.14a39.48,39.48,0,0,1-7-8.8,1.08,1.08,0,0,1,.34-1.53.92.92,0,0,1,1.31.13,87.05,87.05,0,0,0,6.94,8.84,2.24,2.24,0,0,1,.23.66A3.91,3.91,0,0,1,860.24,49.74Z" transform="translate(0 3.76)"/><path class="cls-6" d="M841.16-2.16c3.64,4,6.81,8.42,8.44,13.93.34,1.15.93,1,1.71.81,11.16-2.59,22.37-5,33.28-8.52a88.87,88.87,0,0,0,14.59-6.22Z" transform="translate(0 3.76)"/><path class="cls-7" d="M990.13-2.16q-18.68,19.29-37.36,38.57c-.73.74-1.61,1.84-2.61.65-.87-1,.37-1.71,1-2.34Q969,16.26,986.87-2.16H939q-25.79,25.67-51.56,51.33A157.5,157.5,0,0,0,875.62,62.3a3.51,3.51,0,0,1,.33.34c27.12-5.24,53.74-12.24,79.48-22.39a8.23,8.23,0,0,0,2.78-2Q978.28,18,998.39-2.16Z" transform="translate(0 3.76)"/><path class="cls-8" d="M907.83,188.38q-9-3-18.08-6c-.71-.24-2-.17-.9-1.59,5-6.63,5.14-14.34,4.58-22.1-.15-2,.26-2.91,2-3.76,7.69-3.64,15.5-6.84,24.08-7.7a14.59,14.59,0,0,1,7.13.63c6.78,2.86,14,4.67,20.29,8.68,9.87,6.31,15.35,15.63,17.86,26.87a27.94,27.94,0,0,1,.63,6.9c-.14,5.21-3.1,8.51-9.19,9.23-8.57,1-6.66,2-9.4-6.28a31.13,31.13,0,0,1-1.16-12.3c.1-1.32.07-2.37-1.65-2.8-9.44-2.34-18.87-4.83-28.65-5.13-7.24-.22-9.78,3-8.41,10.14.31,1.6.85,3.15,1.28,4.73Z" transform="translate(0 3.76)"/><path class="cls-8" d="M830.41,100.36A201.53,201.53,0,0,0,834,122a25,25,0,0,0,10.66,15.25c1.41,1,1.69,1.64.61,3.15-3.89,5.4-8.15,10.44-14.83,12.28-14.68,4.06-27.35-8.71-24.06-24.11a7.58,7.58,0,0,1,1.47-3.69C815,116.57,822.57,108.77,830.41,100.36Z" transform="translate(0 3.76)"/><path class="cls-9" d="M931.63,146.88c5.52-5.22,11.11-9.59,17.85-12.32a23.17,23.17,0,0,1,13.85-1c4.24.89,8.54,1.51,12.81,2.29,11.53,2.13,18.14,8.92,20,20.57a30.23,30.23,0,0,1,.65,6.9,8.39,8.39,0,0,1-5.87,7.26c2.52-6.19.73-12-1.2-17.73a6,6,0,0,0-5.5-4.35c-4.67-.54-9.23.33-13.83.75-3.93.35-7.88.59-11.8,1.1a10.47,10.47,0,0,0-7.36,4.14c-.47.62-.7,1.35-1.75.69C944,151.82,937.94,149.58,931.63,146.88Z" transform="translate(0 3.76)"/><path class="cls-8" d="M864.53,177.41c1.63-7-.28-13.63-4.6-19.72-.7-1-.29-1.26.62-1.6,6.06-2.23,12.24-4.11,18.12-6.82.93-.43,1.65,0,2.41.51a32.15,32.15,0,0,0,5.25,3c4.15,1.55,5.07,4.63,5,8.62a57.22,57.22,0,0,1-.69,9.79c-1.63,8.37-10.47,16.5-19,17.65a7.39,7.39,0,0,1-3.95-.45c-1.77-.74-3.33-1.55-2.89-4.17C865.17,182.22,864.68,180,864.53,177.41Z" transform="translate(0 3.76)"/><path class="cls-8" d="M964.82,174.21c-3.4-5.79-6.53-11.77-11.65-16.32-.92-.83-.37-1.53.2-2.24a7.82,7.82,0,0,1,5.21-2.83c7.83-1,15.68-1.8,23.57-2.12,3.15-.13,5,1.17,5.94,4.24A34.54,34.54,0,0,1,990,165.4c0,2.68-1.14,4.25-3.9,4.82a96.9,96.9,0,0,1-18.37,1.69c-1.45,0-3.12-.23-2.71,2.14Z" transform="translate(0 3.76)"/><path class="cls-9" d="M946.6,199.63c-6.42-.83-12.1-2.63-17.79-4.37-5.06-1.55-10.08-3.27-15.14-4.82-1.64-.5-2.58-1.08-3-3-.45-2.23-1.48-4.36-1.64-6.7-.25-3.83,1.14-5.4,4.92-5.38,9.53,0,18.64,2.67,27.85,4.62,1.24.26,1.49.95,1.42,2.07A36.24,36.24,0,0,0,946.6,199.63Z" transform="translate(0 3.76)"/><path class="cls-10" d="M790.12,159.12c5.12,5.12,10,10,14.91,14.88.94.94.61,1.38-.41,1.82q-10.05,4.35-20.1,8.73c-2.36,1-2.82-1.4-4.07-2.32-.81-.6-2.1-1.28-1.28-2.79C782.77,172.77,786.36,166.09,790.12,159.12Z" transform="translate(0 3.76)"/><path class="cls-10" d="M815.91,165.53c.05.65-7.4,8.09-7.83,7.88a5.89,5.89,0,0,1-1.31-1.1c-4.63-4.63-9.21-9.31-13.9-13.87-1.21-1.18-1.13-1.87.06-2.94,2.21-2,4.16-5.56,6.47-5.78s4.28,3.61,6.41,5.65c3.05,2.94,6,6,9,9C815.19,164.76,815.58,165.19,815.91,165.53Z" transform="translate(0 3.76)"/><path class="cls-9" d="M862.45,183.28c-5.05-5.32-8.34-11.55-11.92-17.59-3.06-5.15-3-5.15,2.62-7.07,4-1.34,4-1.34,6.12,2.38,2.48,4.25,4,8.64,3.26,13.74C862.1,177.53,862.45,180.43,862.45,183.28Z" transform="translate(0 3.76)"/><path class="cls-11" d="M907.64,127.24a3.38,3.38,0,0,1,1.92,1.37,18.71,18.71,0,0,1,4.7,10.32,3,3,0,0,0,2.63,2.83c2,.49,3.82,1.25,5.73,1.89.88.29,1.42.61,1.09,1.8-.42,1.54-1.15.35-1.71.32a10.31,10.31,0,0,1-1.35-.47c-5.42-1.06-9.51-3.24-9.74-9.72-.09-2.38-1.91-4.33-3.73-6-.38-.35-1-.68-.47-1.37C907,127.86,907.36,127.54,907.64,127.24Z" transform="translate(0 3.76)"/><path class="cls-12" d="M808.61,153.76c5.07,3.44,10,7.09,16,8.76a2.8,2.8,0,0,1-.31.71c-3.57,3.73-3.58,3.74-7.08.19q-4.56-4.6-9.09-9.25Z" transform="translate(0 3.76)"/><path class="cls-11" d="M931.21,116.85a4.79,4.79,0,0,1,.78.27c5.9,2.83,11.17,6.44,14.89,12,.54.8,1.3,1.7.24,2.52-.84.65-1.42-.19-1.83-.81-3.58-5.4-8.6-9-14.38-11.69-.66-.3-1.6-.54-1.42-1.53C929.6,117,930.28,116.82,931.21,116.85Z" transform="translate(0 3.76)"/><path class="cls-11" d="M984,174.05a64.19,64.19,0,0,1-16.7,2.58c-1.85.09-2.27-1-2.45-2.42l.17-.16a80.89,80.89,0,0,0,19-.94Z" transform="translate(0 3.76)"/><path class="cls-13" d="M804.55,126.73a26.18,26.18,0,0,0,1.9,18.72c.26.55,1,1.21.31,1.73-.92.64-1.32-.44-1.71-1-4.68-6.46-4.22-13.24-1.18-20.16Z" transform="translate(0 3.76)"/><path class="cls-5" d="M875.58,58.73a29.71,29.71,0,0,1-10.75-4.36c-.72-.43-1.31-.86-.78-1.8s1-.66,1.7-.28a31.86,31.86,0,0,0,8.62,3.83c1.07.24.73,1.8,1.92,1.77Z" transform="translate(0 3.76)"/><path class="cls-11" d="M906.24,142.19c-1.54-.25-3.51-.57-5.48-.91-.68-.12-1.37-.35-1.27-1.23s.88-1.17,1.7-1.05c2,.28,3.94.64,5.92.93.88.12,1.53.52,1.38,1.43S907.47,142.33,906.24,142.19Z" transform="translate(0 3.76)"/><path class="cls-14" d="M804.14,150.13l-3.53-3.36c-.45-.43-.77-.84-.14-1.39s1-.25,1.39.29l2.68,4.06A5,5,0,0,0,804.14,150.13Z" transform="translate(0 3.76)"/><path class="cls-13" d="M806.46,147.89c.13-.27.19-.61.37-.71a.79.79,0,0,1,.75,0c1.25,1.18,2.5,2.36,3.64,3.64.28.31,0,1.13-.58.87C808.85,150.94,807.7,149.4,806.46,147.89Z" transform="translate(0 3.76)"/><path class="cls-10" d="M984,174.05v-.94l5.24-1.3,0,0C987.82,173.4,985.83,173.58,984,174.05Z" transform="translate(0 3.76)"/><path class="cls-4" d="M803.87,126a5,5,0,0,1,2-3.41c.67,1.94-1.35,2.67-1.31,4.1Z" transform="translate(0 3.76)"/><path class="cls-13" d="M806.91,122l-.51-.34a3.35,3.35,0,0,1,.57-.44c.07,0,.24.16.37.26Z" transform="translate(0 3.76)"/><path class="cls-10" d="M989.2,171.81a.6.6,0,0,1,.73-.54c.09,0,.17.21.25.32l-1,.25Z" transform="translate(0 3.76)"/><path class="cls-13" d="M964.58,36.64c-.43.11-1.1.46-1.24.31-.51-.55.27-.68.5-1Z" transform="translate(0 3.76)"/><path class="cls-8" d="M908.28,187.88l.23.6-.68-.1Z" transform="translate(0 3.76)"/><path class="cls-14" d="M808,153.18c.19.2.38.39.58.58l-.43.41c-.19-.19-.39-.38-.58-.58Z" transform="translate(0 3.76)"/><path class="cls-15" d="M876,62.64c-.24.21-.48.34-.71,0a3.93,3.93,0,0,1,.38-.35A3.51,3.51,0,0,1,876,62.64Z" transform="translate(0 3.76)"/><path class="cls-14" d="M804.54,149.73l.56.6c-.14.12-.26.24-.38.36l-.58-.56A5,5,0,0,1,804.54,149.73Z" transform="translate(0 3.76)"/><path class="cls-14" d="M805.29,151.25l-.57-.56c.12-.12.24-.24.38-.36l.55.6Z" transform="translate(0 3.76)"/><path class="cls-14" d="M805.88,151.77l-.58-.52.35-.32.56.6Z" transform="translate(0 3.76)"/><path class="cls-14" d="M806.45,152.41l-.57-.64.33-.24.6.56Z" transform="translate(0 3.76)"/><path class="cls-14" d="M806.81,152.09l.61.55c-.13.12-.26.25-.38.38l-.58-.62Z" transform="translate(0 3.76)"/><path class="cls-14" d="M807.42,152.64l.61.54-.43.41L807,153C807.16,152.89,807.29,152.76,807.42,152.64Z" transform="translate(0 3.76)"/><path class="cls-6" d="M862.46,526.65c1.48,6.93,2.95,12.79,3.48,18.84a7.64,7.64,0,0,1-3.45,7.48c-10.6,7-20.63,6.56-29.12-3.8-5.38-6.57-8.14-14.39-11.32-22-1.56-3.73-2.9-7.56-4.22-11.38a7.82,7.82,0,0,0-1.64-2.67c-5.72-6.54-11.31-13.19-17.2-19.57-3.61-3.91-8.42-6.41-12.74-9.45-4.88-3.43-8.22-7.75-9.4-13.66-.19-1-.14-2.5-1.67-2.17s-.85,1.75-.67,2.69a22.66,22.66,0,0,0,4.1,9.47c-2.73.21-4.91-.9-7.22-1.16a208,208,0,0,0-29.21-.78c-20.84.62-41.68.4-62.52-.3-1.8-.06-2.65-.47-2.61-2.41.07-2.69-.21-5.38-.1-8.09.28-6.9,3.4-11.72,9.52-15A181.92,181.92,0,0,1,715.31,440c13.94-4.6,27.16-11,40.94-16,7.17-2.58,14.36-5.05,21.62-7.36,8.57-2.74,15.69-.18,22.36,5,6.38,4.93,11.7,10.88,16.86,17,12.26,14.64,24.9,29,36,44.58a48.37,48.37,0,0,1,9.08,33.56c-.33,3.39,1.46,7.26-2.63,10.24-3.11,2.26-5.35,5.79-8.73,7.91-1.79,1.13-3.7,2.06-5.59,3-5.4,2.72-6.58,11.19-2.12,15.27.54.49,1.06.92,1.77.43.87-.6.55-1.32.06-2a10.13,10.13,0,0,1-2-4.43c-.55-3.32.67-5.83,3.75-7.24A37.35,37.35,0,0,0,860.79,529C861.2,528.42,861.58,527.86,862.46,526.65Zm-87.79-88.42c.08.69-.18,1.61.93,1.75s1.36-.87,1.57-1.69c1.92-7.17,4.89-13.6,12-17.19.55-.28,1-.71.74-1.38-.29-.82-1-.86-1.67-.64a7.45,7.45,0,0,0-1.58.7C779.61,423.94,776.73,430.77,774.67,438.23ZM790,433.18a3.39,3.39,0,0,0,.86-.44,60.39,60.39,0,0,0,6.4-8.52,1,1,0,0,0-.27-1.51,1.12,1.12,0,0,0-1.73.35l-6.08,8a1.15,1.15,0,0,0-.1,1.56A3.09,3.09,0,0,0,790,433.18Z" transform="translate(0 3.76)"/><path class="cls-12" d="M739.3,427.54c13.68-17.45,26.05-35.89,40-53.17,6-7.44,13.61-7.37,21.72-6.72a5.25,5.25,0,0,1,2,1c16.07,9.93,32.31,19.61,48.14,29.92a75.35,75.35,0,0,1,21.7,21.4l7.5,11.18c-7.41,0-10.93,5.61-15.42,9.83-4.19,3.93-3.92,8.13-1.91,13,4.35,10.55,20,16.95,28.38,16.11,1.64-.16,2.92-1.29,4.69-1.77.2,1.56-.77,2.25-1.55,3-9,8.65-22.48,12.44-35.45,1.86-7.32-6-14.07-12.44-18.87-20.58-4.22-7.14-9.74-12.22-17.87-14.3-3-.78-5-2.82-7-5.17-6.36-7.43-13.19-14.37-22.46-18.26a19.93,19.93,0,0,0-13.55-.84,346.15,346.15,0,0,0-36.23,12.82c-1.07.43-2.16.82-3.24,1.23Zm47.16-44.32c.9.09,1.21-.43,1.54-.89a36.53,36.53,0,0,1,2.34-3.27,26.08,26.08,0,0,1,9.06-6.5c.81-.35,2.05-.74,1.52-2s-1.62-.53-2.42-.17a30.12,30.12,0,0,0-6,3.44,22.26,22.26,0,0,0-6.43,6.92C785.61,381.61,785.09,382.73,786.46,383.22Zm73,27.14c-.1-.82-.75-1.18-1.77-.79-4.28,1.67-8.15,3.95-10.76,7.9a6.41,6.41,0,0,0-.77,1.85c-.15.55-.15,1.2.51,1.48a1,1,0,0,0,1.45-.54c1.91-4.47,6-6.29,9.93-8.37C858.7,411.53,859.45,411.25,859.43,410.36Zm-52.57-36c-.22-1-.71-1.78-1.75-1a52.07,52.07,0,0,1-8.85,5.27,1,1,0,0,0-.48,1.45,1,1,0,0,0,1.37.66,39.87,39.87,0,0,0,9.29-5.63A2.44,2.44,0,0,0,806.86,374.32Zm58.54,40.35c-.2-.75-.48-1.47-1.55-1-2.37,1-4.76,2-7.11,3-.88.39-1.13,1.51-.33,1.77,2.53.86,4.39-1.29,6.62-1.92C864,416.26,865.18,416.09,865.4,414.67Z" transform="translate(0 3.76)"/><path class="cls-7" d="M827.41,380.52a144.21,144.21,0,0,1-18.77-11.34c-6.33-4.55-13-4.79-20-3.56a2.79,2.79,0,0,1-3.44-1.57q-33.52-55.6-67.22-111.12c-4.11-6.75.45-14.8,8.74-17.23,4.64-1.36,7.72,0,10.67,4.59q36.38,56.23,72.73,112.47c5.91,9.14,11.73,18.34,17.59,27.52Z" transform="translate(0 3.76)"/><path class="cls-7" d="M847.91,466.59a139.57,139.57,0,0,0,12.44,10.3c9,6.42,18.4,6.72,28,1.72,1.89-1,2.67-.77,3.81,1,8,12.6,16.18,25.12,24.28,37.67.36.55.91,1,.77,1.83-13.66-1.79-23.12,3.43-27.81,16.7-.72.07-.8-.62-1.06-1q-20-33-39.93-66.06a18.93,18.93,0,0,1-.83-1.83A4,4,0,0,0,847.91,466.59Z" transform="translate(0 3.76)"/><path class="cls-9" d="M897.37,483.54c-.71-.92-1-1.28-1.28-1.67-1.09-1.7-2.87-3.34-3.06-5.15s2.44-2.84,3.72-4.29c4.3-4.85,4.72-10.06,2.11-15.8-4.09-9-9.74-17.06-15.39-25.12-3.6-5.13-7.05-10.36-10.58-15.55-.54-.79-1.3-1.5-.32-2.5,3.74-3.83,15.55-9.58,22.93-6.29,5,2.21,7.59,6.18,8.51,11.24,2.88,15.78.61,31.33-2.52,46.8C900.29,471.12,898.85,477,897.37,483.54Z" transform="translate(0 3.76)"/><path class="cls-8" d="M926.43,545.5a13.61,13.61,0,0,0-9.94,2.09A14,14,0,0,0,910.4,555c-.33,1-.48,1.94-1.83.84-4.55-3.72-9.31-7.21-13.67-11.13-3.25-2.93-3.65-6.84-2.14-10.92A20.39,20.39,0,0,1,912.82,521c5.42.45,8.85,3.37,10.08,8.69C924.09,534.87,925.21,540,926.43,545.5Z" transform="translate(0 3.76)"/><path class="cls-16" d="M896,469.38c-.17-2.65-.6-3.92-2.87-2.3-1.47,1.06-3.36,1-5.06.72-7.72-1.15-14.6-4.07-19.93-10a15.67,15.67,0,0,1-1.68-2.35c-3.6-5.84-3.5-8.44.93-13.49,2.27-2.6,4.54-5.27,7.61-7,4-2.33,7.08-1.78,9.57,2.07,4.92,7.59,10.5,14.81,13.2,23.65C898.69,463.59,898.32,466.25,896,469.38Z" transform="translate(0 3.76)"/><path class="cls-7" d="M933.18,575.35l-13.11-10.91c-2.14-1.79-4.22-3.66-6.43-5.35a2.56,2.56,0,0,1-1-3.42c1.75-4.7,7.13-8.39,11.91-8,1.19.1,2.31.2,2.65,1.69C929.11,557.8,931.06,566.21,933.18,575.35Z" transform="translate(0 3.76)"/><path class="cls-9" d="M816.08,601.46c-1,5.16-2.92,9.18-7.54,11.38-3.55,1.69-4.78,1.35-6.75-1.85-1.43-2.31-1.68-3.86-1.18-7.59C805.88,604.82,811.25,606.8,816.08,601.46Z" transform="translate(0 3.76)"/><path class="cls-17" d="M823.26,441.4c5,1.26,8.71,3.77,11.06,8.66,2.23,4.65,5.28,8.91,7.94,13.37.51.86,1.45,1.64.87,2.91l-20.29-24.49Z" transform="translate(0 3.76)"/><path class="cls-16" d="M739.87,428.14c-.3.2-.64.42-.91,0-.06-.09.22-.41.34-.63Z" transform="translate(0 3.76)"/><path class="cls-14" d="M847.63,466.89c-.07-.2-.25-.55-.21-.58.29-.2.4.05.49.28A4,4,0,0,1,847.63,466.89Z" transform="translate(0 3.76)"/><path class="cls-14" d="M827.67,380.28c.11.11.34.31.32.33-.24.35-.41.12-.58-.09Z" transform="translate(0 3.76)"/><path class="cls-13" d="M797.81,608l.21.19a1.87,1.87,0,0,1-.35.17s-.12-.11-.18-.17Z" transform="translate(0 3.76)"/><path class="cls-17" d="M822.84,441.85c-.24-.12-.55-.28-.3-.57.08-.09.47.07.72.12Z" transform="translate(0 3.76)"/><path class="cls-6" d="M1195.35,551.24l-10.56-16.76c-.92-1.47-1.71-3-2.76-4.4-8-10.34-10.42-22.45-10.7-35.05-.39-16.9.31-33.76,4.49-50.26,1.25-4.93,2.53-9.91,5.57-14.16,4.56-6.37,11.09-9,18.59-9.67,1.82-.17,3.67,0,5.5-.13,8.62-.72,14,3.86,17.67,11a44.69,44.69,0,0,1,3.81,30.08,44.51,44.51,0,0,0-.64,8.91c0,10.6.32,21.23-2.9,31.53a5.53,5.53,0,0,0,.42,3.38c3.62,11.57,7.36,23.09,10.09,34.92.42,1.81.29,3.09-1.14,4.35-1.94,1.72-3.59,4.8-5.63,5-1.67.2-2.9-3.56-4.53-5.4a45.57,45.57,0,0,0-7.47-7.22c-6.32-4.53-12.07-3.22-17.08,3C1195.78,543.26,1195.21,546.76,1195.35,551.24Zm-6.82-40.16a72.44,72.44,0,0,0,13.9-6.33,1,1,0,0,0,.25-1.51.92.92,0,0,0-1.24-.4c-4.35,2.26-8.85,4.21-13.4,6.05a1,1,0,0,0-.61,1.4A1.17,1.17,0,0,0,1188.53,511.08Zm5.36-9.87c-.33-1.45-1.23-1.07-2.2-.74a21.66,21.66,0,0,0-10.41,7.77c-.53.69-1.25,1.46-.29,2.2s1.6-.06,2.12-.77a19.85,19.85,0,0,1,9.28-6.95C1193.12,502.44,1193.85,502.18,1193.89,501.21Zm4.7-.55c2-.4,3.54-.72,5-1,.79-.13,1.24-.49,1.14-1.32a1.07,1.07,0,0,0-1.41-1c-1.59.3-3.18.66-4.76,1a1.05,1.05,0,0,0-.85,1.5A1.07,1.07,0,0,0,1198.59,500.66Z" transform="translate(0 3.76)"/><path class="cls-12" d="M1233.32,529c-2.07-6.68-3.63-13.26-6.17-19.45-2.1-5.13-.53-9.76.21-14.62A23.17,23.17,0,0,0,1228,490c-.63-9.49,3.7-17.58,7.15-25.91q42.09-101.67,84.16-203.34c.92-2.22,1.66-2.58,3.87-1.57,5.59,2.55,11.31,4.84,17,7.12,1.63.65,1.88,1.3,1.19,3q-23.91,57.58-47.71,115.21a4,4,0,0,1-1.66,2.27c-8,4.37-13.36,11.24-18.16,18.67-11.55,17.88-18.93,37.27-20.85,58.55-.47,5.26-.14,10.61-.09,15.91a14.6,14.6,0,0,1-1.14,5.9c-5.61,13.44-11.14,26.91-16.71,40.36A5.53,5.53,0,0,1,1233.32,529Z" transform="translate(0 3.76)"/><path class="cls-16" d="M1194.33,594.52c-1.79,4.41-3.4,8.53-5.13,12.6-1,2.26-4.85,3.26-7.92,2.09-4.58-1.76-7.8-5.22-10.82-8.88a129.52,129.52,0,0,1-24.25-45.58c-3.27-10.87-6.92-21.64-9.43-32.73-2-9-3.85-18.1-.42-27.06,3.22-8.45,8-15.92,17.05-19.25a18.64,18.64,0,0,1,13.57,0,2.94,2.94,0,0,1,2.18,3.44,145.45,145.45,0,0,0,0,20.24c.82,10.72,3.2,20.79,9.38,29.92,5,7.39,10.24,14.73,13.26,23.28a34.69,34.69,0,0,1,1.58,5.24c1.31,7.09,5.24,13,8.61,19.13a3.35,3.35,0,0,1-.13,3.9c-1.85,3-3.55,6.18-5.17,9.36a3.39,3.39,0,0,1-3,2.11c-4.22.46-8.43,1.15-12,3.67a5.66,5.66,0,0,0-2.27,7.09c1.05,2.45,3.08,3.3,5.64,3.1,1-.08,2.16,0,2.14-1.33s-1.14-1-2-1c-1.68-.06-3.36-.15-3.84-2.25s.7-3.25,2.38-4.12C1187,595.78,1190.53,595.12,1194.33,594.52Zm-19-27.91a1.18,1.18,0,0,0-1.57-1.18,20.66,20.66,0,0,0-3.59,1c-2.84,1.12-5.8,2.07-7.83,4.56-.51.62-.9,1.32-.12,2a1,1,0,0,0,1.54-.13c2.73-2.78,6.33-3.8,9.89-4.88C1174.43,567.73,1175.14,567.48,1175.35,566.61Zm-5.73,9.33a70.56,70.56,0,0,0,13-6,1,1,0,0,0,.21-1.52,1,1,0,0,0-1.5-.33,102.77,102.77,0,0,1-12.27,5.72,1,1,0,0,0-.65,1.38A1.18,1.18,0,0,0,1169.62,575.94Z" transform="translate(0 3.76)"/><path class="cls-16" d="M1145.75,622.23c-6.5-2.81-11.43-6.61-16.18-10.67-8.6-7.37-13.43-17-16.6-27.61-2.26-7.56-5.45-14.85-7.1-22.57-2.39-11.17.8-21.29,7.2-30.33,4.37-6.17,13.31-8.56,20.33-6.37,1.4.44,1.52,1.52,1.87,2.64,4.79,15.51,9.34,31.1,15.37,46.23,3.34,8.36,8.95,15.23,13.62,22.72,2.35,3.75,4.81,7.46,7.39,11.05a5,5,0,0,1,.67,4.59c-.36,1.48-.8,1.51-1.83.56q-2.23-2.06-4.61-4c-2.05-1.65-4.05-1.84-6.25,0-4,3.3-8.81,4.16-13.83,4.13-3.45,0-4.16.89-3,4.11a23,23,0,0,0,1.29,2.58C1144.54,620.07,1145,620.81,1145.75,622.23Zm-8.56-27.87a3.59,3.59,0,0,0-.32-.35c.28-.38.55-.77.85-1.13.6-.72,1.58-1.44.5-2.39-.92-.82-1.59.07-2.18.66-2,2-4.06,4.11-6.09,6.17-.59.6-1,1.28-.36,2s1.18.32,1.84.06A153.2,153.2,0,0,0,1145.6,593c.72-.38,1.46-.81,1.08-1.74-.52-1.23-1.38-.58-2.16-.22Z" transform="translate(0 3.76)"/><path class="cls-8" d="M1249.37,422.32c-5.18-9.39-10.45-18.69-15.45-28.13a44,44,0,0,0-8.42-11.2c-7.46-7.23-13.83-15.32-16.45-25.72a19.7,19.7,0,0,1-.57-2.83c-.71-7,2.9-11.22,10-11.72,7.49-.54,14.57,1.15,21.4,4a88.93,88.93,0,0,1,29.87,19.9c1.68,1.73,2,3.28,1,5.59-6.66,15.78-13.16,31.63-19.74,47.45A4.94,4.94,0,0,1,1249.37,422.32Zm-6.85-32.48a29.59,29.59,0,0,0,18-6c.76-.54,1.45-1.18.76-2.11s-1.38-.3-2,.11-1.27.87-1.93,1.26c-7.28,4.39-14.93,5.84-23.16,3-.75-.25-1.85-1.32-2.32.31-.37,1.33.85,1.54,1.69,1.89A23.56,23.56,0,0,0,1242.52,389.84Z" transform="translate(0 3.76)"/><path class="cls-9" d="M1210,566.23c-3.65.08-6.2-1-7.75-4.07-.77-1.54-1.88-2.9-2.79-4.37s-3.05-3.63-2.63-4.58c1.9-4.28.21-9.68,4.73-13.19,4-3.14,7.18-3.9,11.53-1.2,5,3.08,8.26,7.72,11.59,12.34.68,1,.35,1.51-.36,2.18A96.06,96.06,0,0,0,1213,565.28C1212,566.54,1210.74,566.17,1210,566.23Z" transform="translate(0 3.76)"/><path class="cls-10" d="M1357.25,230.24c-.2.55-.39,1.2-.65,1.82-2.08,5.07-4.22,10.12-6.24,15.22-.62,1.54-1.25,2-3,1.28-5.81-2.55-11.69-5-17.58-7.33-1.54-.62-2.06-1.19-1.28-2.92,2.27-5.1,4.3-10.3,6.49-15.43,1.28-3,2.48-3.45,5.42-2.25,4.63,1.89,9.25,3.83,13.86,5.75C1356,227.08,1357.43,228,1357.25,230.24Z" transform="translate(0 3.76)"/><path class="cls-9" d="M1348.28,252.11c-.07.21-.16.49-.27.75-1.44,3.47-2.92,6.91-4.3,10.4-.46,1.18-1,1.39-2.15.89-6.2-2.62-12.43-5.17-18.68-7.7-1.07-.43-1.59-.84-1-2.1,1.51-3.43,3-6.88,4.32-10.38.48-1.26,1-1.32,2.14-.87,6.21,2.58,12.45,5.12,18.67,7.71C1347.51,251,1348.39,251.06,1348.28,252.11Z" transform="translate(0 3.76)"/><path class="cls-9" d="M1145.06,615.08c6-.22,11.71-.93,16.41-4.9a2,2,0,0,1,2.88.06c1.81,1.57,3.58,3.2,5.41,4.75,1,.82.49,1.43,0,2.19-4.19,6-12.81,8.77-19.83,6.5a1.9,1.9,0,0,1-1.58-1.6C1147.67,619.7,1145.67,617.88,1145.06,615.08Z" transform="translate(0 3.76)"/><path class="cls-4" d="M809.56,40.09c5,.24,11.69,5.74,12.8,10.33.14.57.28,1.18-.33,1.55s-1.32.08-1.73-.52-.72-1.36-1.12-2c-2.26-3.68-5.16-6.47-9.68-7-.91-.11-1.86-.24-1.61-1.49C808.11,39.9,809,40.1,809.56,40.09Z" transform="translate(0 3.76)"/><path class="cls-4" d="M860.83,48.9a3.91,3.91,0,0,1-.59.84c-.44.42-.9.2-1.27-.14a39.48,39.48,0,0,1-7-8.8,1.08,1.08,0,0,1,.34-1.53.92.92,0,0,1,1.31.13,87.05,87.05,0,0,0,6.94,8.84A2.24,2.24,0,0,1,860.83,48.9Z" transform="translate(0 3.76)"/><path class="cls-3" d="M986.87-2.16Q969,16.28,951.15,34.72c-.62.63-1.86,1.32-1,2.34,1,1.19,1.88.09,2.61-.65q18.69-19.27,37.36-38.57Z" transform="translate(0 3.76)"/><path class="cls-4" d="M774.67,438.23c2.06-7.46,4.94-14.29,11.94-18.45a7.45,7.45,0,0,1,1.58-.7c.69-.22,1.38-.18,1.67.64.23.67-.19,1.1-.74,1.38-7.06,3.59-10,10-12,17.19-.21.82-.38,1.83-1.57,1.69S774.75,438.92,774.67,438.23Z" transform="translate(0 3.76)"/><path class="cls-5" d="M790,433.18a3.09,3.09,0,0,1-.92-.52,1.15,1.15,0,0,1,.1-1.56l6.08-8a1.12,1.12,0,0,1,1.73-.35,1,1,0,0,1,.27,1.51,60.39,60.39,0,0,1-6.4,8.52A3.39,3.39,0,0,1,790,433.18Z" transform="translate(0 3.76)"/><path class="cls-5" d="M786.46,383.22c-1.37-.49-.85-1.61-.37-2.49a22.26,22.26,0,0,1,6.43-6.92,30.12,30.12,0,0,1,6-3.44c.8-.36,1.85-1.19,2.42.17s-.71,1.67-1.52,2a26.08,26.08,0,0,0-9.06,6.5,36.53,36.53,0,0,0-2.34,3.27C787.67,382.79,787.36,383.31,786.46,383.22Z" transform="translate(0 3.76)"/><path class="cls-5" d="M859.43,410.36c0,.89-.73,1.17-1.41,1.53-3.91,2.08-8,3.9-9.93,8.37a1,1,0,0,1-1.45.54c-.66-.28-.66-.93-.51-1.48a6.41,6.41,0,0,1,.77-1.85c2.61-4,6.48-6.23,10.76-7.9C858.68,409.18,859.33,409.54,859.43,410.36Z" transform="translate(0 3.76)"/><path class="cls-5" d="M806.86,374.32a2.44,2.44,0,0,1-.42.72,39.87,39.87,0,0,1-9.29,5.63,1,1,0,0,1-1.37-.66,1,1,0,0,1,.48-1.45,52.07,52.07,0,0,0,8.85-5.27C806.15,372.54,806.64,373.31,806.86,374.32Z" transform="translate(0 3.76)"/><path class="cls-5" d="M865.4,414.67c-.22,1.42-1.45,1.59-2.37,1.84-2.23.63-4.09,2.78-6.62,1.92-.8-.26-.55-1.38.33-1.77,2.35-1.05,4.74-2,7.11-3C864.92,413.2,865.2,413.92,865.4,414.67Z" transform="translate(0 3.76)"/><path class="cls-5" d="M1188.53,511.08a1.17,1.17,0,0,1-1.1-.79,1,1,0,0,1,.61-1.4c4.55-1.84,9-3.79,13.4-6.05a.92.92,0,0,1,1.24.4,1,1,0,0,1-.25,1.51A72.44,72.44,0,0,1,1188.53,511.08Z" transform="translate(0 3.76)"/><path class="cls-4" d="M1193.89,501.21c0,1-.77,1.23-1.5,1.51a19.85,19.85,0,0,0-9.28,6.95c-.52.71-1.19,1.49-2.12.77s-.24-1.51.29-2.2a21.66,21.66,0,0,1,10.41-7.77C1192.66,500.14,1193.56,499.76,1193.89,501.21Z" transform="translate(0 3.76)"/><path class="cls-5" d="M1198.59,500.66a1.07,1.07,0,0,1-.84-.79,1.05,1.05,0,0,1,.85-1.5c1.58-.37,3.17-.73,4.76-1a1.07,1.07,0,0,1,1.41,1c.1.83-.35,1.19-1.14,1.32C1202.13,499.94,1200.63,500.26,1198.59,500.66Z" transform="translate(0 3.76)"/><path class="cls-4" d="M1175.36,566.61c-.22.87-.93,1.12-1.69,1.35-3.56,1.08-7.16,2.1-9.89,4.88a1,1,0,0,1-1.54.13c-.78-.69-.39-1.39.12-2,2-2.49,5-3.44,7.83-4.56a20.66,20.66,0,0,1,3.59-1A1.19,1.19,0,0,1,1175.36,566.61Z" transform="translate(0 3.76)"/><path class="cls-5" d="M1169.62,575.94a1.18,1.18,0,0,1-1.19-.73,1,1,0,0,1,.65-1.38,102.77,102.77,0,0,0,12.27-5.72,1,1,0,0,1,1.5.33,1,1,0,0,1-.21,1.52A70.56,70.56,0,0,1,1169.62,575.94Z" transform="translate(0 3.76)"/><path class="cls-4" d="M1137.19,594.36l7.33-3.37c.78-.36,1.64-1,2.16.22.38.93-.36,1.36-1.08,1.74a153.2,153.2,0,0,1-14.17,6.46c-.66.26-1.31.57-1.84-.06s-.23-1.43.36-2c2-2.06,4-4.13,6.09-6.17.59-.59,1.26-1.48,2.18-.66,1.08,1,.1,1.67-.5,2.39-.3.36-.57.75-.85,1.13-.25,0-.56.11-.36.44C1136.56,594.53,1137,594.4,1137.19,594.36Z" transform="translate(0 3.76)"/><path class="cls-5" d="M1242.52,389.84a23.56,23.56,0,0,1-9-1.51c-.84-.35-2.06-.56-1.69-1.89.47-1.63,1.57-.56,2.32-.31,8.23,2.81,15.88,1.36,23.16-3,.66-.39,1.28-.85,1.93-1.26s1.43-.92,2-.11,0,1.57-.76,2.11A29.59,29.59,0,0,1,1242.52,389.84Z" transform="translate(0 3.76)"/><path class="cls-16" d="M1137.19,594.36c-.24,0-.63.17-.68.09-.2-.33.11-.39.36-.44A3.59,3.59,0,0,1,1137.19,594.36Z" transform="translate(0 3.76)"/></svg>