<svg id="Capa_4" data-name="Capa 4" xmlns="http://www.w3.org/2000/svg" xmlns:xlink="http://www.w3.org/1999/xlink" viewBox="0 0 1920 669.47"><defs><style>.cls-1{fill:url(#Degradado_sin_nombre_61);}.cls-2,.cls-6{fill:none;}.cls-2{stroke:#000;stroke-miterlimit:10;}.cls-3{fill:#2f3b40;}.cls-4{fill:#303c41;}.cls-5{fill:#354046;}.cls-7{fill:#fff;}.cls-8{fill:#2197a3;}.cls-9{fill:#d1d1d1;}.cls-10{fill:#f2f3f3;}.cls-11{fill:#fefefe;}.cls-12{fill:#91e1a7;}.cls-13{fill:#fcfcfc;}.cls-14{fill:#f90066;}.cls-15{fill:#fcfdfd;}.cls-16{fill:#ddf5e4;}.cls-17{fill:#91e1a8;}</style><linearGradient id="Degradado_sin_nombre_61" x1="960" y1="1840.3" x2="960" y2="-1413.77" gradientUnits="userSpaceOnUse"><stop offset="0.47" stop-color="#f07868"/><stop offset="0.47" stop-color="#f07b68"/><stop offset="0.5" stop-color="#ed9d6d"/><stop offset="0.52" stop-color="#ecb16f"/><stop offset="0.53" stop-color="#ebb970"/></linearGradient></defs><title>Banner4</title><rect class="cls-1" y="18.69" width="1920" height="650.19"/><path class="cls-2" d="M603.23,650.23l-3-3c-1-1-3-1-4-2-23-18-39-41-49-68-3-10-6-20-8-31-2-13-3-25-4-37-2-31,1-60,6-91,4-32,7-61,13-93,5-25,10-47,16-71,17-64,35-124,62-183,7-25,21-47,33.1-70" transform="translate(0 18.88)"/><path class="cls-2" d="M836,647.94a74.85,74.85,0,0,0,8-13c16-33,28-67,40.73-101.29,1.07,1.64-5.85,16.11,0,0,.27,3.27,1.27,6.27-1.73,8.27a27.63,27.63,0,0,1,1.73-8.27c5.84,10.26-.49,1.46,0,0C894,548.9,908,558.91,923,568.91l6,6c2,2,5,3,7,4-2.91-16.59-4.78-.2,0,0-5-21-5-43-16-62-6-11-16-20-21-31,3-26,17-52,3-77-3-6-11-7-18-5-2,1-5,2-7,3-2,2-3,3-5,4-1,0-4,1-5,0-8-10-18-17-29-23a57.36,57.36,0,0,1-11-11c-28-49-59-91-89-140-5-8-15-4-21,1a10.82,10.82,0,0,0-2,13c17,33,36,63,57,95,4,7,6,13,11,19-10,12-19,24-28,37-7,10-13,19-20,27-8,8-20,8-30,11-2,1-4,3-6,4-8,3-16,6-21,13-3,6-3,12-3,18,0,1-1,2-2,3-7,2-15,3-20,9-8,12-9,25-10,39-1,9-5,19-12,25-9,32,8,63,13,95,.15.67.3,1.33.46,2" transform="translate(0 18.88)"/><path class="cls-2" d="M1304.82,647.93c9.18-27,18.18-55,21.18-84,1-17,2-34,0-52-3-24-12-46-13-70-1-14,7-26,12-40,1-6,1-12-5-16-8-5-16-5-23.75-2.13,1.37-3.41,2.25-7.15,4.67-10-.21,3.42-1.41,8.27-4.67,10,9.53-22.3,18.54-44.83,27.6-67.33s18.12-44.88,27.84-67.05q3.6-8.22,7.32-16.38c1.94-4.24-.86-8.47-4.44-11a25,25,0,0,0-11.75-4.28c-5.72-.61-8.81-.27-11.7,5.27-5.41,10.35-9.33,21.73-13.72,32.54q-6.9,17-13.63,34.09c-9,22.7-17.9,45.42-27.26,68q-1.79,4.29-3.59,8.57c-1.71-1,.89-2,0,0a90,90,0,0,0-31.51-22.63c-9.73-4.13-27.07-9.87-33.64,2.21-2.46,4.5-2.1,10-1,14.83,1.45,6.38,7,10.93,11,16a291,291,0,0,1,23.9,34.77c3.12,5.33,8.47,12,5.5,18.34-3.75,7.95-8,15.64-10.53,24.09a9.24,9.24,0,0,1,.52-3.42,32.81,32.81,0,0,1-.52,3.42c-.37-.9-2.1-5.32,0-5.26s.44,4.27,0,5.26c-5-7.74-6.68-17.2-12-24.74-9.66-13.06-29.66-15.06-41.66-4.06-13,13-12,31-14,48-9.18-3,1.66-10.86,0,0-8-2-17-2-24,4-13,11-16,30-10.7,45-2-1.18-2.86-4.37-2.68-6.56,1.55,1.81,2,4.34,2.68,6.56-1.61-.52-7-3.07-5.49-5.42,2.47-3.84,5.33,4,5.49,5.42A12.4,12.4,0,0,1,1130,521c1.25-.42,3.43-.21,4.29.89-10.3-1-22.3,2-27.3,12a44.69,44.69,0,0,0-3,28c3,9,8,17,9,27,2,20,3,39,4.27,58.54" transform="translate(0 18.88)"/><path class="cls-2" d="M791.6-1.71C787,16.78,783,34.78,783,52.79a167.4,167.4,0,0,0,16,79c2,5,4,10,0,15-3,3-6,5-9,8a30.39,30.39,0,0,1-5,7c-6,8-9,17-11,27,8.28-1.09,1.31-3.47,0,0,19-3,35-13,51-24,2-1,5-2,7-3,7-3,15-1,19,5s4,14,9,19c3,3,8,7,13,5,13-7,27-6,39,2,2,1,5,1,7,1,1,0,1,2,2,2,13,4,25,8,38,5,9-1,11-13,8-21,8.42-1.49,1.08,5.24,0,0,12-2,28-2,32-17,3-14-6-27-20-29.76a5.14,5.14,0,0,1,2.2.31,1.82,1.82,0,0,1-2.2-.31c13-.24,25,2.76,37,6.76,19,7,38,15,57,22,14,4,28,6,42,8,31,2,63-1,92-15,3-1,5-2,8-2,16,3,30,7,46,10,60,15,117,26,175,40,17,18,24,42,32,65,5,19,9,38,9,57,1,19,2,38-2,58-2,18-5,34-8,52,0,2-2,4-3,6-4,10-3,20-7,30-2,4-3,7-5,11-4,11-5,21-9,32a841.43,841.43,0,0,1-37,81c-10,18-20,35-31.72,51.89" transform="translate(0 18.88)"/><path class="cls-3" d="M1463.78,206.42l-1.41-.33C1385,188.8,1307.69,171.31,1230.12,155c-6.84-1.44-13.54-3.2-20.72-.8a268.26,268.26,0,0,1-38.39,9.56c-15.71,2.76-31.5,4.64-47.47,4.12-25.15-.83-48.73-8.18-71.79-17.57-.32-.13-.72-.25-.56-1,6.52-.69,13.09-1.86,19.18-4.49,5.85-2.53,11.89-3.37,18.16-4a113.72,113.72,0,0,0,56.33-21.37c.8-.57,1.84-1.15,1.12-2.25s-1.72-.26-2.44.28a99.72,99.72,0,0,1-14.25,8.78c-21.27,11-43.75,15.09-67.53,11.88-13.62-1.83-26.67-6-39.83-9.7-18.64-5.19-36.94-11.65-56.22-14.37-14.38-2-28.65-2.55-42.59,2.46-6.73,2.42-13.57,5.06-18.34,10.54A73.3,73.3,0,0,1,883.41,144c-13,6.85-27.13,11-41.07,15.39-10.59,3.36-20.38,1.27-29.15-5.5-.86-.67-2.65-1.39-2.05-2.35.82-1.33,2,.33,2.81.79,10.16,5.33,19.92,3.88,28-4.27a64.55,64.55,0,0,0,6.2-7.59c1.46-2,1.53-3.26-1-4.69a22,22,0,0,1-10.75-14.35,164.72,164.72,0,0,1-3.55-21.27c-.13-1.2.34-2.84-1-3.39-1.61-.67-2.27,1.13-3.12,2-5.6,5.83-11.09,11.77-16.68,17.61-.67.7-1.22,2.59-2.44,1.57-.85-.72.68-1.76,1.32-2.47,12.22-13.74,24.77-27.17,37.8-40.15a18.81,18.81,0,0,1,7.58-4.61c3.38-1.11,6.8-2.16,10.26-3,13-3.06,26.11-5.9,39.12-9,27-6.51,52.78-16.4,78.32-27.06q3.33-1.39,6.65-2.82c.74-.31,1.56-.73,1.19-1.65s-1.25-1-2.18-.54c-.76.39-1.59.67-2.39,1l-22.73,9.29c-.43.12-1.1.46-1.24.31-.51-.54.27-.68.5-1q18.88-19,37.77-37.92h-3.22q-20.13,20.06-40.18,40.2a8.2,8.2,0,0,1-2.78,2C929.69,50.63,903.07,57.6,876,62.82c-.24.21-.48.34-.71,0a3.33,3.33,0,0,1,.39-.35,154.84,154.84,0,0,1,11.76-13.07Q913.15,23.85,939-1.68h-3.31q-24.74,24.44-49.44,48.9c-3.48,3.45-6.61,7.24-9.91,10.87l-.71.83a18.69,18.69,0,0,1-13,7.47c-8.92,1.26-15.41,6.58-21.25,12.94-2.9,3.15-5.9,6.22-9.18,9.66,0-2-.09-3.51,0-5,.68-8.83-2-17.1-4.29-25.42-.72-2.65-.52-4.51,1.43-6.66,7.84-8.6,12.41-19.17,17-29.63,2.19-5,5.23-7.3,10.59-8.42,12.42-2.58,24.93-5.07,36.62-10.29,3.42-1.53,6.75-3.29,10.06-5l.45-.24h-4.77a90.5,90.5,0,0,1-14.59,6.19C873.68,8,862.47,10.41,851.31,13c-.78.18-1.37.34-1.71-.8C848,6.7,844.8,2.33,841.16-1.68H838q1,1.08,2,2.19a40.29,40.29,0,0,1,6.65,9.72c.76,1.7,1.25,3.5.37,5.28C841.52,26.58,837.58,38.62,829.2,48c-4.29,4.78-4.71,9-2.73,14.65a57.92,57.92,0,0,1,2.94,25.81A10.46,10.46,0,0,1,826.54,95a267.11,267.11,0,0,0-20.4,22.79,40.37,40.37,0,0,0-6.24,12c-3.5-3.9-4.78-8.37-5.68-12.79-3.49-17.2-6.89-34.42-10-51.71C783,58.12,785,51,786.21,43.9c2.72-15.33,6.56-30.41,10-45.58h-2.12a5.12,5.12,0,0,1-.56,0C790.21,13,787,27.72,783.92,42.48c-1.83,8.89-3.66,17.9-1.43,27.09.93,3.82,1.52,7.72,2.27,11.58,2.32,12.06,4,24.24,7,36.18,1.13,4.56,2,9.45,5.42,12.86s1.13,8.08,2.89,11.79c-2.42,1.81-2.16,5.27-4.28,7.18a49,49,0,0,0-11.85,16.08c-2,4.44-4.56,8.66-6.86,13-.35.67-1.08,1.62-.86,2,1.41,2.72-.88,4.42-1.59,6.54-.26.77-1.13,1.51-.32,2.36s1.76.13,2.58-.28c1.54-.77,3.46-2.55,4.54-2.13,2.29.88,3.73-.36,5.41-1,2.7-1,5.29-2.3,8-3.41,8.07-3.36,16.32-6.45,21.8-13.85.11-.15.27-.27.4-.42.57-.6,1.16-.66,1.68,0,1.42,1.85,2.56.86,3.77-.28,1.4-1.32,2.88-2.56,4.28-3.88a3,3,0,0,1,2.55-1,35.75,35.75,0,0,0,13.72-1.43c1.77-.48,2.59,0,3.42,1.5,2.37,4.29,4.87,8.51,7.36,12.73A50.32,50.32,0,0,0,863.19,188a10.36,10.36,0,0,0,9.33,2.68,24.93,24.93,0,0,0,11.74-5.89,3.85,3.85,0,0,1,4.38-.75c15.76,5.41,31.54,10.78,47.58,15.34,6.5,1.85,13.1,3.19,20,2.1s12.27-5.18,11.55-13.47a32.21,32.21,0,0,0-.9-6.54c-.77-2.58.08-3,2.49-3.1,7.95-.37,15.7-1.7,22.79-5.63,5.39-3,7.72-7.33,6.86-13.36a53.87,53.87,0,0,0-1.82-8.43c-2.61-8.33-7.83-14.19-16.48-16.67-.56-.16-1.42.1-1.68-.87,4.85,0,9.67.05,14.49,0a20,20,0,0,1,6.21,1c24,7.3,47.16,16.86,70.75,25.27a178.41,178.41,0,0,0,79.77,9.37,301.68,301.68,0,0,0,60.73-12.8,18.72,18.72,0,0,1,9.65-.79c8.87,1.82,17.79,3.44,26.63,5.37q87.36,19.17,174.68,38.47c5.22,1.15,10.56,1.83,15.57,3.83,3-.12,5.69.92,8.51,1.5,5.75,1.19,11.47,2.54,17.22,3.79.69.15,1.63.61,1.93-.51S1464.56,206.62,1463.78,206.42ZM810.64,151.5c-1.79-.78-2.94-2.32-4.18-3.82.13-.27.19-.61.37-.71a.79.79,0,0,1,.75.05c1.25,1.17,2.5,2.35,3.64,3.62C811.5,151,811.24,151.76,810.64,151.5ZM807,121.14c.07,0,.24.17.37.26l-.43.52-.51-.34A3.35,3.35,0,0,1,807,121.14Zm-.56,7.26a7.51,7.51,0,0,1,1.47-3.67c7.1-8.22,14.69-16,22.53-24.36A199.61,199.61,0,0,0,834,121.86,24.88,24.88,0,0,0,844.69,137c1.41,1,1.69,1.64.61,3.13-3.89,5.38-8.15,10.4-14.83,12.24C815.79,156.44,803.12,143.73,806.41,128.4Zm-2.54-2.47a5,5,0,0,1,2-3.4c.67,1.94-1.35,2.67-1.31,4.09a25.94,25.94,0,0,0,1.9,18.63c.26.55,1,1.21.31,1.73-.92.64-1.32-.44-1.71-1C800.37,139.57,800.83,132.82,803.87,125.93Zm.75,49.56-20.1,8.69c-2.36,1-2.82-1.4-4.07-2.31-.81-.6-2.1-1.28-1.28-2.78,3.6-6.64,7.19-13.29,11-20.23,5.12,5.1,10,10,14.91,14.81C806,174.61,805.64,175.05,804.62,175.49Zm3.46-2.4a5.89,5.89,0,0,1-1.31-1.1c-4.63-4.61-9.21-9.27-13.9-13.81-1.21-1.17-1.13-1.86.06-2.92,2.21-2,4.16-5.54,6.47-5.76s4.28,3.6,6.41,5.63c3.05,2.92,6,6,9,9,.4.4.79.82,1.12,1.16C816,165.89,808.51,173.3,808.08,173.09ZM824.35,163c-3.57,3.72-3.58,3.72-7.08.19q-4.56-4.59-9.09-9.2c-.19-.2-.39-.39-.58-.58l-.56-.57-.58-.62c-.2-.2-.39-.41-.58-.63l-.58-.52-.58-.55c-.2-.18-.39-.37-.58-.56l-3.53-3.34c-.45-.43-.77-.84-.14-1.39s1-.25,1.39.3l2.68,4,.56.6.55.6.56.6.6.56.61.54.61.54c.19.2.38.39.58.58,5.07,3.42,10,7.05,16,8.71A2.64,2.64,0,0,1,824.35,163Zm105.14-45.44c.11-.62.79-.76,1.72-.73a4.24,4.24,0,0,1,.78.28c5.9,2.81,11.17,6.4,14.89,11.91.54.8,1.3,1.69.24,2.51-.84.65-1.42-.19-1.83-.82-3.58-5.36-8.6-9-14.38-11.63C930.25,118.73,929.31,118.49,929.49,117.51ZM906.71,128.1c.3-.36.65-.68.93-1a3.42,3.42,0,0,1,1.92,1.36,18.59,18.59,0,0,1,4.7,10.27,3,3,0,0,0,2.63,2.82c2,.48,3.82,1.25,5.73,1.88.88.29,1.42.61,1.09,1.79-.42,1.54-1.15.35-1.71.32a12,12,0,0,1-1.35-.46c-5.42-1.07-9.51-3.23-9.74-9.68-.09-2.37-1.91-4.32-3.73-6C906.8,129.12,906.13,128.79,906.71,128.1Zm-7.22,11.78c.12-1,.88-1.17,1.7-1,2,.29,3.94.64,5.92.92.88.13,1.53.53,1.38,1.43s-1,1-2.25.83c-1.54-.25-3.51-.57-5.48-.91C900.08,141,899.39,140.76,899.49,139.88Zm-37,34.53c-.43,2.78-.08,5.67-.08,8.51-5.05-5.3-8.34-11.5-11.92-17.52-3.06-5.12-3-5.13,2.62-7,4-1.33,4-1.33,6.12,2.37C861.75,165,863.3,169.33,862.53,174.41Zm9.14,14.07a7.39,7.39,0,0,1-3.95-.45c-1.77-.74-3.33-1.54-2.89-4.15.34-2-.15-4.2-.3-6.81,1.63-6.93-.28-13.57-4.6-19.64-.7-1-.29-1.25.62-1.59,6.06-2.22,12.24-4.09,18.12-6.79.93-.42,1.65.06,2.41.52a32.77,32.77,0,0,0,5.25,3c4.15,1.54,5.07,4.61,5,8.58a56.69,56.69,0,0,1-.69,9.75C889,179.24,880.16,187.34,871.67,188.48Zm57.14,6.36c-5.06-1.55-10.08-3.26-15.14-4.8-1.64-.5-2.58-1.08-3-3-.45-2.22-1.48-4.34-1.64-6.66-.25-3.82,1.14-5.38,4.92-5.37,9.53,0,18.64,2.67,27.85,4.61,1.24.26,1.49.94,1.42,2.06a35.94,35.94,0,0,0,3.35,17.54C940.18,198.37,934.5,196.57,928.81,194.84Zm27.46,4.24c-8.57,1-6.66,2-9.4-6.25a30.85,30.85,0,0,1-1.16-12.24c.1-1.32.07-2.37-1.65-2.79-9.44-2.34-18.87-4.81-28.65-5.11-7.24-.22-9.78,3-8.41,10.1.31,1.59.85,3.13,1.28,4.7.08.2.15.4.23.59l-.67-.09q-9-3-18.09-6c-.71-.24-2-.17-.9-1.59,5-6.59,5.14-14.27,4.58-22-.15-1.95.26-2.89,2-3.74,7.69-3.63,15.5-6.81,24.08-7.67a14.71,14.71,0,0,1,7.13.64c6.78,2.84,14,4.64,20.29,8.63,9.87,6.29,15.35,15.57,17.86,26.75a27.75,27.75,0,0,1,.63,6.87C965.32,195.08,962.36,198.36,956.27,199.08Zm33-27.56c-1.4,1.56-3.39,1.74-5.25,2.21a64.16,64.16,0,0,1-16.7,2.56c-1.85.09-2.27-1-2.45-2.41-3.4-5.76-6.53-11.71-11.65-16.25-.92-.82-.37-1.52.2-2.22a7.81,7.81,0,0,1,5.21-2.82c7.83-1,15.68-1.79,23.57-2.11,3.15-.13,5,1.16,5.94,4.22A34.28,34.28,0,0,1,990,165.11c0,2.67-1.14,4.23-3.9,4.8a96.89,96.89,0,0,1-18.37,1.68c-1.45,0-3.12-.23-2.71,2.13a81.43,81.43,0,0,0,19-.93l5.24-1.29a.6.6,0,0,1,.73-.54c.09,0,.17.2.25.31Zm6.93-15.3a29.86,29.86,0,0,1,.65,6.87,8.37,8.37,0,0,1-5.87,7.22c2.52-6.16.73-11.91-1.2-17.65a6,6,0,0,0-5.5-4.33c-4.67-.54-9.23.33-13.83.75-3.93.35-7.88.59-11.8,1.09a10.48,10.48,0,0,0-7.36,4.12c-.47.62-.7,1.34-1.75.69-5.49-3.38-11.55-5.61-17.86-8.3,5.52-5.2,11.11-9.55,17.85-12.26a23.17,23.17,0,0,1,13.85-1c4.24.89,8.54,1.5,12.81,2.28C987.67,137.86,994.28,144.62,996.15,156.22Z" transform="translate(0 18.88)"/><path class="cls-4" d="M936,576.43c-3-13.12-6.21-26.18-8.81-39.36A57.25,57.25,0,0,0,917.87,515c-6.1-8.79-11.66-17.95-17.52-26.92a5,5,0,0,1-.81-4.31,275.3,275.3,0,0,0,7.13-36c1.24-10.69,1.84-21.38-.82-31.93-2.18-8.63-8.83-13.18-17.67-12.25a29.7,29.7,0,0,0-16.21,7c-1.38,1.17-2.1,1.21-3.43-.15-5.66-5.81-11.39-11.54-18.37-15.83-4.76-2.92-9.44-6-14.21-8.91a14.26,14.26,0,0,1-4.69-4.58q-29.78-46.23-59.62-92.4-16-24.8-32-49.6c-2-3.11-4.32-5.83-8.15-6.39-6.66-1-11.6,2.14-15.38,7.26-3.44,4.68-2.92,9.37.06,14.27,14.76,24.21,29.37,48.52,44,72.79,7.43,12.3,14.82,24.63,22.31,36.89,1.08,1.77,1.21,2.74-.67,4.14-2.78,2.07-4.91,4.9-7.08,7.61-11.19,13.92-21.33,28.63-32,42.92-9.29,12.43-9.3,12.4-23.94,17.42a240.2,240.2,0,0,0-31.42,13.24c-8.61,4.39-13.37,10.74-12.94,20.6a29.35,29.35,0,0,0,.17,4.61c.52,2.46-.5,2.89-2.73,3.31-11,2.06-19.63,7.09-23.25,18.58-3.76,11.93-5.75,24.18-7.48,36.5a14.15,14.15,0,0,1-2.85,7.34c-4,5.08-7.52,10.54-8.54,17.15a86.05,86.05,0,0,0-1,20.36c1.18,14.46,4.88,28.29,9.22,42,2.89,9.13,5.22,18.37,7.21,27.7a5,5,0,0,1,2-.41l.31,0c0-.12,0-.23-.08-.35a320.53,320.53,0,0,0-9-33.44,144,144,0,0,1-7.62-39.34c-.53-12.36,2.32-24,10.62-33.7a6.84,6.84,0,0,0,1.56-3.63c2-13.34,3.74-26.74,8-39.63a25.22,25.22,0,0,1,24.89-17c24.12,1.09,48.25,1,72.38.42a155.87,155.87,0,0,1,22.24.88c7.49.88,13.43,4.11,17.8,10.47a480.91,480.91,0,0,1,32.53,54.66c4.33,8.49,7.72,17.23,7.79,27a26.66,26.66,0,0,1-4,14.57c-3.7,6-6.13,8.6-9.63,10.51a1.42,1.42,0,0,0-.4.41c-2.72,3.7-6.38,3.72-10.4,2.81-5.56-1.25-5.58-1.17-6.21,4.37-.05.46.08,1-.49,1.22-.75.27-1-.44-1.3-.85a54.66,54.66,0,0,1-5.58-8.77,18.16,18.16,0,0,1-2.37-8.78,26.69,26.69,0,0,0-5-16c-6.79-9.61-14.07-18.87-20.14-29-.8-1.33-1.89-1.34-3.19-1.42-5.87-.35-11.61.83-17.69-.7-10.61-2.68-21.62-3.79-32.46-5.55-5.89-1-11.78-1.93-17.67-2.86-1.53-.24-3.86-2.23-4.37.06-.42,1.93,2.55,2,4.24,2.31,14,2.32,27.93,4.83,42,6.74,8.62,1.16,16.35,3.48,22.07,10.47,8.27,10.09,17.52,19.28,26.44,28.76a12,12,0,0,1,3.32,11.63,44.38,44.38,0,0,1-4,11.43c-5.39,10.24-18.67,16.63-29.81,14.4-5.39-1.08-8.2-4.92-7.47-10.22.15-1.16.23-2.26,1.85-1.07,3,2.2,6.38,2.5,9.92,2,1-.14,2.46-.06,2.28-1.53s-1.66-.89-2.6-.81c-4.25.38-8.07-.22-10.77-4a5.43,5.43,0,0,0-1.87-1.31c-3.89-2.1-7.87-4.07-11.7-6.29-2.57-1.49-5-2-7.93-1a13.3,13.3,0,0,1-6.89.19,147.5,147.5,0,0,0-22.32-2.3c-6.8-.16-13.39-2-17.92-7.91-.57-.75-1.07-1.91-2.22-1s-.11,1.74.41,2.45c3.85,5.29,9.49,7.36,15.59,8.42,3.14.55,6.36.64,10.16,1-6.82,4.87-13.69,5.28-20.84,3.41a65.53,65.53,0,0,1-7.54-2.86c-.73-.29-1.33-.3-1.76.39s.07,1.26.66,1.63a14.9,14.9,0,0,0,1.55.77,33.14,33.14,0,0,0,20.74,3c-5.72,5.74-11.83,9-19.54,8.94a59.85,59.85,0,0,1-14.61-1.75c-.79-.21-1.89-.51-2.2.67s.66,1.4,1.53,1.67a45.79,45.79,0,0,0,19.18,1.55c4.34-.5,8.63-1.8,11.85-4.88,2.81-2.68,5.79-2.78,9.28-2.3,5.35.75,10.78,1.56,16.12.39,4.76-1,8.73.33,12.49,3,4,2.82,8,5.79,12.11,8.43s8.24,4.92,13.37,4.86c11.46-.14,21.26-4.11,29.24-12.38,1.53-1.59,2.22-1.78,3.31.52,1.81,3.81,5,6.69,9.34,5.91a77,77,0,0,1,10.5-1.15,12.68,12.68,0,0,0,11.69-9,53.47,53.47,0,0,1,8.44-15.69c5.31-6.94,6.62-14.83,5.32-23.28-.52-3.35-1.25-6.67-1.93-10.26a27.21,27.21,0,0,0,2.93,1.33c3.05,1,6.15,2.88,9.11-.21.42-.43.9-.19,1.34,0,5.78,2.51,11.4,1.14,16.84-1s10.36-6.5,9.13-13.32c-.37-2.09-.57-4.2-1-6.28-1.48-7.85-3.49-15.61-2.48-23.75.62-5-.31-9.95-1.44-15.17a4.39,4.39,0,0,1,2.15,2.37c5.45,9,10.82,18,16.35,27a5.59,5.59,0,0,1,.53,5.35c-4.78,14-10.19,27.67-15.78,41.33-7.85,19.19-15,38.63-23.87,57.42a86.11,86.11,0,0,1-9.33,15.6l2.76,0a87.27,87.27,0,0,0,10.66-18.64c12.61-30.06,24.9-60.24,36.4-90.74.55-1.46,1-3,1.65-4.92a29.84,29.84,0,0,1,1.8,2.67,43.8,43.8,0,0,0,13.11,15.1c11.35,8.65,22.3,17.83,33.44,26.76.76.62,1.48,1.78,2.71,1.08S936.26,577.4,936,576.43ZM797.67,608s-.12-.11-.18-.17l.32-.19.21.18A1.46,1.46,0,0,1,797.67,608Zm10.87,4.45c-3.55,1.69-4.78,1.35-6.75-1.85-1.43-2.32-1.68-3.86-1.18-7.59,5.27,1.42,10.64,3.4,15.47-1.94C815.05,606.22,813.16,610.25,808.54,612.45Zm64-199.43c3.74-3.82,15.55-9.58,22.93-6.29,5,2.21,7.59,6.18,8.51,11.25,2.88,15.78.61,31.33-2.52,46.8-1.2,5.92-2.64,11.79-4.12,18.34-.71-.93-1-1.28-1.28-1.67-1.09-1.7-2.87-3.35-3.06-5.15s2.44-2.84,3.72-4.29c4.3-4.85,4.72-10.06,2.11-15.81-4.09-9-9.74-17.06-15.39-25.12-3.6-5.13-7.05-10.37-10.58-15.55C872.35,414.73,871.59,414,872.57,413ZM717.94,252.45c-4.11-6.74.45-14.8,8.74-17.23,4.64-1.36,7.72,0,10.67,4.6q36.38,56.24,72.73,112.48c5.91,9.15,11.73,18.35,17.59,27.53.11.12.34.31.32.34-.24.34-.41.12-.58-.1a143.11,143.11,0,0,1-18.77-11.34c-6.33-4.55-13-4.79-20-3.56a2.78,2.78,0,0,1-3.44-1.57Q751.64,308,717.94,252.45ZM739.3,427.11c13.68-17.46,26.05-35.9,40-53.19,6-7.44,13.61-7.37,21.72-6.72a5.39,5.39,0,0,1,2,1c16.07,9.94,32.31,19.61,48.14,29.93a75.35,75.35,0,0,1,21.7,21.4c2.45,3.67,4.91,7.32,7.5,11.19-7.41,0-10.93,5.6-15.42,9.83-4.19,3.93-3.92,8.13-1.91,13,4.35,10.55,20,16.95,28.38,16.12,1.58-.16,2.84-1.21,4.52-1.72-.23-2-.81-2.78-2.79-1.36-1.47,1-3.36,1-5.06.72-7.72-1.15-14.6-4.07-19.93-10a16.11,16.11,0,0,1-1.68-2.34c-3.6-5.85-3.5-8.45.93-13.51,2.27-2.59,4.54-5.26,7.61-7,4-2.33,7.08-1.78,9.57,2.07,4.92,7.59,10.5,14.81,13.2,23.65.89,2.94.53,5.57-1.71,8.67a4.21,4.21,0,0,1-1.52,2.09c-9,8.65-22.48,12.44-35.45,1.86-7.32-6-14.07-12.45-18.87-20.58-4.22-7.15-9.74-12.23-17.87-14.31-3-.78-5-2.82-7-5.18-6.36-7.42-13.19-14.36-22.46-18.26a20,20,0,0,0-13.55-.84,343.94,343.94,0,0,0-36.23,12.83c-1.07.43-2.16.82-3.24,1.23-.3.19-.64.41-.91,0C738.9,427.65,739.18,427.33,739.3,427.11Zm103.83,38.8Q833,453.66,822.84,441.42c-.24-.12-.55-.28-.3-.57.08-.1.47.07.72.12,5,1.26,8.71,3.77,11.06,8.66,2.23,4.65,5.28,8.92,7.94,13.37C842.77,463.87,843.71,464.65,843.13,465.91Zm22.81,79.18a7.65,7.65,0,0,1-3.45,7.48c-10.6,7-20.63,6.55-29.12-3.81-5.38-6.57-8.14-14.38-11.32-22-1.56-3.74-2.9-7.56-4.22-11.39a8,8,0,0,0-1.64-2.67c-5.72-6.53-11.31-13.18-17.2-19.56-3.61-3.92-8.42-6.42-12.74-9.46-4.88-3.43-8.22-7.76-9.4-13.67-.19-1-.14-2.49-1.67-2.16s-.85,1.75-.67,2.69a22.72,22.72,0,0,0,4.1,9.47c-2.73.21-4.91-.91-7.22-1.16a206.45,206.45,0,0,0-29.21-.78c-20.84.61-41.68.4-62.52-.3-1.8-.06-2.65-.47-2.61-2.41.07-2.7-.21-5.39-.1-8.1.28-6.89,3.4-11.72,9.52-15a181.92,181.92,0,0,1,28.84-12.63c13.94-4.6,27.16-11,40.94-16,7.17-2.58,14.36-5.06,21.62-7.37,8.57-2.73,15.69-.18,22.36,5,6.38,4.93,11.7,10.88,16.86,17,12.26,14.65,24.9,29,36,44.59a48.43,48.43,0,0,1,9.08,33.58c-.33,3.39,1.46,7.26-2.63,10.24-3.11,2.26-5.35,5.79-8.73,7.91-1.79,1.13-3.7,2.06-5.59,3-5.4,2.73-6.58,11.19-2.12,15.28.54.49,1.06.91,1.77.43.87-.6.55-1.33.06-2a10.14,10.14,0,0,1-2-4.42c-.55-3.33.67-5.83,3.75-7.25a37.35,37.35,0,0,0,14.17-11.15c.41-.53.79-1.09,1.67-2.3C863.94,533.17,865.41,539,865.94,545.09Zm22.45-10.72q-20-33-39.93-66.08a17.72,17.72,0,0,1-.83-1.82c-.07-.2-.25-.56-.21-.59.29-.2.4.05.49.29a141.31,141.31,0,0,0,12.44,10.3c9,6.42,18.4,6.72,28,1.72,1.89-1,2.67-.77,3.81,1,8,12.6,16.18,25.12,24.28,37.68.36.55.91,1,.77,1.82-13.66-1.79-23.12,3.44-27.81,16.71C888.73,535.49,888.65,534.79,888.39,534.37Zm20.18,21.08c-4.55-3.73-9.31-7.21-13.67-11.14-3.25-2.92-3.65-6.84-2.14-10.92a20.37,20.37,0,0,1,20.06-12.76c5.42.45,8.85,3.37,10.08,8.69,1.19,5.14,2.31,10.29,3.53,15.77a13.71,13.71,0,0,0-9.94,2.09,14,14,0,0,0-6.09,7.43C910.07,555.64,909.92,556.55,908.57,555.45Zm11.5,8.59c-2.14-1.79-4.22-3.66-6.43-5.36a2.56,2.56,0,0,1-1-3.42c1.75-4.69,7.13-8.38,11.91-8,1.19.1,2.31.21,2.65,1.7,1.93,8.41,3.88,16.83,6,26Z" transform="translate(0 18.88)"/><path class="cls-4" d="M1358.49,233.75c2.46-5.93,1.46-8.27-4.54-10.71l-11.47-4.66c-5.67-2.3-8-1.34-10.32,4.34-5,12.06-9.87,24.14-14.85,36.19q-15,36.36-30.1,72.7-7.12,17.22-14.29,34.5c-.38-.21-.7-.29-.86-.49-6.5-8.09-15.21-13.3-24.1-18.16-9.26-5.06-19.11-8.29-29.88-7.58-7.64.5-12.11,5.12-12,12.44a29.35,29.35,0,0,0,3.4,12.75,74.25,74.25,0,0,0,16.4,21.16,13.39,13.39,0,0,1,2.91,3.18c6.19,11.23,12.38,22.47,18.66,33.66a4.36,4.36,0,0,1,.16,4.31c-2.62,6.11-5.1,12.27-7.64,18.41-1,2.42-2,4.82-3.31,7.88-3.15-6.74-7-12.3-9.38-18.64-3.29-8.68-8.1-15.85-18.43-17a48,48,0,0,0-8.39.05c-13.14.84-21.21,7.22-25.24,19.67-3.5,10.82-5,22-5.78,33.25-.14,2.1-.48,2.66-2.63,1.85-5.63-2.12-11.16-1.49-16.5,1.16-11.55,5.72-19.6,21.5-18,35.34a99.88,99.88,0,0,0,2,12.56c-1.54-.15-2.76-.3-4-.36-7.83-.4-14.78,1.5-19.62,8.18a46.44,46.44,0,0,0-6.2,13c-2.94,9-1.84,17.81,1.28,26.62,2.5,7.07,5.68,14.06,6.53,21.51,1.8,15.82,2.9,31.71,4.33,47.57.3,3.36.66,6.71,1,10.07l2.49.1q-2.42-20.6-4.09-41.29c-.26-3.17-.92-6.35-.32-9.65,2.38,4.19,4.44,8.49,6.63,12.72,5.23,10.12,12.36,18.17,23.83,21.33a48.45,48.45,0,0,0,20.92.87c2.3-.38,4.28-.32,6.22,1.15a43.81,43.81,0,0,0,5.39,3.36c1.23.68,1.42,1.39,1.12,2.78q-.87,4-1.68,8.06c0,.13,0,.25-.07.38a5.7,5.7,0,0,1,1.43.08l.85.14h.13a1.77,1.77,0,0,1,0-.2q2.61-13,6.12-25.79c7.75-28.08,21.18-52.61,43.48-71.95,8-7,14.89-15.09,19-25.16,1.25-3,2.94-5.86,4.43-8.78a7,7,0,0,0,.87-3c.4-12.44,1.13-24.89.68-37.34-1-28.24,8.6-53,24.53-75.63a39.42,39.42,0,0,1,20.46-15.39c4.2-1.36,8.19-.72,12.38.63-.81,1-1.64.78-2.37.84-4.66.37-8.15,2.25-10.22,6.76-3,6.5-5.68,13.08-7.09,20.1-.6,3-1.37,6.14.17,9.08,2.27,4.35,11.6,8.28,16.48,7.08.84-.21,1.86-.33,1.74-1.51-.14-1.37-1.24-.9-2-.83a18.15,18.15,0,0,1-11-2.82c-3-1.77-4.08-4.32-3.53-7.81a78.79,78.79,0,0,1,7.84-23.15,5.78,5.78,0,0,1,2.38-2.83c4.89-2.48,10.13-1.64,15.27-1.62.24,0,.48.32.73.46,2.88,1.66,2.89,4.23,2.3,7a134.17,134.17,0,0,1-5.87,19.36c-5,13.58-8.71,27.37-8.11,42a74.49,74.49,0,0,1-.7,9.52c-1.73,19.71-3.71,39.4-3.74,59.21,0,10.82-.38,21.64-1.39,32.4-2.4,25.55-5.49,51-8.86,76.46q-.51,3.87-.9,7.76c-.08.77-.05,1.64,1,1.76s1.16-.79,1.33-1.53c.1-.46.1-1,.16-1.43,1.85-15.13,3.76-30.25,5.54-45.39,2.06-17.53,4.44-35,5-52.72.71-24.79,1.31-49.59,4-74.28.3-2.78.59-5.57.89-8.35a56.12,56.12,0,0,1,3.49,9.36c2.4,8.13,5.18,16.17,6.59,24.55,1.76,10.41,1.8,20.94,2,31.47.37,24.47-.92,48.79-6.56,72.72a333.63,333.63,0,0,1-14.45,45.12c-.41,1-.79,2.07-1.17,3.1.78.11,1.56.23,2.33.37,1.24-3.54,2.55-7.07,4-10.55,5.52-13.4,9.18-27.4,12.31-41.54a254,254,0,0,0,5.24-41.29c1-18,1.3-35.91-.55-53.8-1.36-13.1-6-25.48-9.66-38.07-.93-3.24-2.25-6.36-2.73-9.73-1.08-7.54.45-14.77,2.57-21.94,3.35-11.28,7.88-22.18,10.52-33.67.76-3.3,1.12-6.67-2-9-7-5.14-14.66-7.6-23.38-5.77-1.18.25-2.17,1.24-3.78.88l6.75-16.3Q1330.75,300.6,1358.49,233.75Zm-30,4.08c2.27-5.09,4.3-10.3,6.49-15.43,1.28-3,2.48-3.45,5.42-2.25,4.63,1.89,9.25,3.83,13.86,5.75,1.68.7,3.12,1.6,2.94,3.86-.2.55-.39,1.2-.65,1.82-2.08,5.07-4.22,10.12-6.24,15.22-.62,1.55-1.25,2-3,1.28-5.81-2.55-11.69-5-17.58-7.33C1328.28,240.13,1327.76,239.56,1328.54,237.83Zm-6.7,16c1.51-3.44,3-6.89,4.32-10.39.48-1.25,1-1.32,2.14-.87,6.21,2.59,12.45,5.12,18.67,7.71.54.23,1.42.25,1.31,1.31-.07.21-.16.48-.27.75-1.44,3.46-2.92,6.91-4.3,10.4-.46,1.18-1,1.39-2.15.89q-9.3-3.93-18.68-7.7C1321.81,255.54,1321.29,255.14,1321.84,253.88Zm-87.92,139.87a43.8,43.8,0,0,0-8.42-11.2c-7.46-7.24-13.83-15.32-16.45-25.73a19.7,19.7,0,0,1-.57-2.83c-.71-7,2.9-11.22,10-11.73,7.49-.53,14.57,1.16,21.4,4a88.93,88.93,0,0,1,29.87,19.9c1.68,1.73,2,3.28,1,5.59-6.66,15.79-13.16,31.64-19.74,47.47a4.92,4.92,0,0,1-1.57,2.65C1244.19,412.49,1238.92,403.19,1233.92,393.75Zm-64.21,223c-4.19,6-12.81,8.77-19.83,6.5a1.89,1.89,0,0,1-1.58-1.6c-.63-2.38-2.63-4.2-3.24-7,6-.22,11.71-.93,16.41-4.9a2,2,0,0,1,2.88.05c1.81,1.58,3.58,3.21,5.41,4.76C1170.72,615.42,1170.25,616,1169.71,616.79Zm2.61-5.27c-.36,1.48-.8,1.51-1.83.56q-2.23-2.05-4.61-4c-2.05-1.64-4.05-1.84-6.25,0-4,3.3-8.81,4.16-13.83,4.13-3.45,0-4.16.89-3,4.11a23,23,0,0,0,1.29,2.58c.4.77.83,1.52,1.61,2.93-6.5-2.81-11.43-6.61-16.18-10.68-8.6-7.36-13.43-17-16.6-27.61-2.26-7.56-5.45-14.85-7.1-22.57-2.39-11.18.8-21.29,7.2-30.34,4.37-6.17,13.31-8.57,20.33-6.37,1.4.44,1.52,1.52,1.87,2.63,4.79,15.53,9.34,31.12,15.37,46.25,3.34,8.37,8.95,15.23,13.62,22.72,2.35,3.76,4.81,7.46,7.39,11.06A5,5,0,0,1,1172.32,611.52Zm29.55-31c-1.85,3-3.55,6.19-5.17,9.37a3.39,3.39,0,0,1-3,2.11c-4.22.45-8.43,1.14-12,3.66a5.67,5.67,0,0,0-2.27,7.1c1.05,2.44,3.08,3.3,5.64,3.09,1-.07,2.16,0,2.14-1.33s-1.14-1-2-1c-1.68-.05-3.36-.15-3.84-2.25s.7-3.25,2.38-4.12c3.28-1.71,6.84-2.36,10.64-3-1.79,4.41-3.4,8.53-5.13,12.6-1,2.26-4.85,3.26-7.92,2.09-4.58-1.76-7.8-5.22-10.82-8.89a129.52,129.52,0,0,1-24.25-45.58c-3.27-10.88-6.92-21.65-9.43-32.74-2-9-3.85-18.1-.42-27.07,3.22-8.45,8-15.92,17.05-19.25a18.64,18.64,0,0,1,13.57,0,2.94,2.94,0,0,1,2.18,3.44,145.45,145.45,0,0,0,0,20.24c.82,10.73,3.2,20.8,9.38,29.93,5,7.39,10.24,14.73,13.26,23.28a35,35,0,0,1,1.58,5.24c1.31,7.09,5.25,13,8.61,19.14A3.35,3.35,0,0,1,1201.87,580.49Zm22.4-27.55A94.68,94.68,0,0,0,1213,564.88c-1,1.26-2.21.89-3,1-3.65.08-6.2-1-7.75-4.07-.77-1.54-1.88-2.91-2.79-4.38s-3.05-3.63-2.63-4.58c1.9-4.27.21-9.68,4.73-13.19,4-3.14,7.18-3.9,11.53-1.19,5,3.07,8.26,7.71,11.59,12.33C1225.31,551.71,1225,552.27,1224.27,552.94Zm8.52-8.4c-1.94,1.72-3.59,4.8-5.63,5.05-1.67.21-2.9-3.55-4.53-5.4a46.41,46.41,0,0,0-7.47-7.22c-6.32-4.53-12.07-3.22-17.09,3-2.29,2.86-2.86,6.35-2.72,10.84l-10.56-16.77c-.92-1.47-1.71-3-2.76-4.4-8-10.35-10.42-22.45-10.7-35.06-.39-16.9.31-33.77,4.49-50.27,1.25-4.93,2.53-9.91,5.57-14.17,4.56-6.37,11.09-9,18.59-9.67,1.82-.16,3.67,0,5.5-.13,8.62-.71,14,3.87,17.67,11a44.69,44.69,0,0,1,3.81,30.08,44.56,44.56,0,0,0-.64,8.91c0,10.61.32,21.24-2.9,31.55a5.55,5.55,0,0,0,.42,3.38c3.62,11.56,7.36,23.09,10.09,34.92C1234.35,542,1234.22,543.28,1232.79,544.54Zm60.87-160.49a4,4,0,0,1-1.66,2.28c-8,4.37-13.36,11.24-18.16,18.67-11.55,17.89-18.93,37.28-20.85,58.56-.47,5.27-.14,10.61-.09,15.92a14.6,14.6,0,0,1-1.14,5.9c-5.61,13.44-11.14,26.91-16.71,40.37a5.53,5.53,0,0,1-1.73,2.8c-2.07-6.68-3.63-13.27-6.17-19.45-2.1-5.14-.53-9.77.21-14.63a23.17,23.17,0,0,0,.61-4.86c-.63-9.49,3.7-17.58,7.15-25.92q42.09-101.68,84.16-203.38c.92-2.22,1.66-2.59,3.87-1.58,5.59,2.56,11.31,4.85,17,7.13,1.63.65,1.88,1.3,1.19,3Q1317.46,326.42,1293.66,384.05Z" transform="translate(0 18.88)"/><path class="cls-4" d="M777.87,488.14a5.6,5.6,0,0,1-.81,1c-5.72,4.56-9.1,10.87-12.75,17a12.83,12.83,0,0,1-.9,1.47,1,1,0,0,1-1.27.35,1,1,0,0,1-.56-1.2,3.13,3.13,0,0,1,.36-1.08c3.56-6.17,7.11-12.35,12.43-17.25A7.66,7.66,0,0,1,776.5,487C777.3,486.64,777.72,487.19,777.87,488.14Z" transform="translate(0 18.88)"/><path class="cls-5" d="M782.36,495c-.16.31-.36.74-.6,1.15a42.83,42.83,0,0,1-7.26,9.3c-.63.6-1.33,1.75-2.35.62-.79-.86-.06-1.6.59-2.2a42.72,42.72,0,0,0,7.21-9.33c.34-.57.65-1.31,1.5-1A1.34,1.34,0,0,1,782.36,495Z" transform="translate(0 18.88)"/><path class="cls-6" d="M907.83,187.89q-9-3-18.08-6c-.71-.24-2-.17-.9-1.59,5-6.63,5.14-14.34,4.58-22.11-.15-2,.26-2.91,2-3.75,7.69-3.65,15.5-6.85,24.08-7.71a14.59,14.59,0,0,1,7.13.63c6.78,2.86,14,4.67,20.29,8.68,9.87,6.32,15.35,15.64,17.86,26.88a27.94,27.94,0,0,1,.63,6.9c-.14,5.21-3.1,8.52-9.19,9.23-8.57,1-6.66,2-9.4-6.28a31.13,31.13,0,0,1-1.16-12.3c.1-1.32.07-2.38-1.65-2.8-9.44-2.35-18.87-4.83-28.65-5.13-7.24-.22-9.78,3-8.41,10.14.31,1.6.85,3.15,1.28,4.73Z" transform="translate(0 18.88)"/><path class="cls-7" d="M830.41,99.85a201.72,201.72,0,0,0,3.62,21.6,25,25,0,0,0,10.66,15.25c1.41,1,1.69,1.64.61,3.15-3.89,5.4-8.15,10.44-14.83,12.29-14.68,4.05-27.35-8.72-24.06-24.12a7.58,7.58,0,0,1,1.47-3.69C815,116.07,822.57,108.26,830.41,99.85Z" transform="translate(0 18.88)"/><path class="cls-6" d="M931.63,146.38c5.52-5.22,11.11-9.59,17.85-12.32a23.17,23.17,0,0,1,13.85-1c4.24.89,8.54,1.51,12.81,2.29,11.53,2.13,18.14,8.92,20,20.57a30.26,30.26,0,0,1,.65,6.91,8.39,8.39,0,0,1-5.87,7.25c2.52-6.19.73-12-1.2-17.73a6,6,0,0,0-5.5-4.35c-4.67-.54-9.23.34-13.83.75-3.93.36-7.88.59-11.8,1.1a10.47,10.47,0,0,0-7.36,4.14c-.47.63-.7,1.35-1.75.7C944,151.32,937.94,149.08,931.63,146.38Z" transform="translate(0 18.88)"/><path class="cls-6" d="M864.53,176.92c1.63-7-.28-13.63-4.6-19.73-.7-1-.29-1.26.62-1.6,6.06-2.23,12.24-4.11,18.12-6.82.93-.43,1.65.06,2.41.51a33,33,0,0,0,5.25,3c4.15,1.54,5.07,4.63,5,8.61a57.27,57.27,0,0,1-.69,9.8c-1.63,8.37-10.47,16.5-19,17.65a7.49,7.49,0,0,1-3.95-.44c-1.77-.75-3.33-1.56-2.89-4.18C865.17,181.72,864.68,179.55,864.53,176.92Z" transform="translate(0 18.88)"/><path class="cls-8" d="M964.82,173.72c-3.4-5.79-6.53-11.77-11.65-16.33-.92-.82-.37-1.53.2-2.23a7.8,7.8,0,0,1,5.21-2.84c7.83-1,15.68-1.79,23.57-2.12,3.15-.12,5,1.17,5.94,4.25A34.47,34.47,0,0,1,990,164.9c0,2.68-1.14,4.25-3.9,4.82a96.09,96.09,0,0,1-18.37,1.69c-1.45,0-3.12-.23-2.71,2.15Z" transform="translate(0 18.88)"/><path class="cls-8" d="M946.6,199.14c-6.42-.82-12.1-2.62-17.79-4.37-5.06-1.55-10.08-3.27-15.14-4.82-1.64-.5-2.58-1.08-3-3-.45-2.23-1.48-4.36-1.64-6.7-.25-3.83,1.14-5.4,4.92-5.39,9.53,0,18.64,2.68,27.85,4.63,1.24.26,1.49,1,1.42,2.07A36.24,36.24,0,0,0,946.6,199.14Z" transform="translate(0 18.88)"/><path class="cls-9" d="M790.12,158.62c5.12,5.12,10,10,14.91,14.89.94.93.61,1.38-.41,1.82q-10.05,4.35-20.1,8.73c-2.36,1-2.82-1.4-4.07-2.32-.81-.6-2.1-1.28-1.28-2.79C782.77,172.27,786.36,165.59,790.12,158.62Z" transform="translate(0 18.88)"/><path class="cls-9" d="M815.91,165c.05.65-7.4,8.1-7.83,7.89a5.69,5.69,0,0,1-1.31-1.11c-4.63-4.62-9.21-9.31-13.9-13.87-1.21-1.18-1.13-1.87.06-2.93,2.21-2,4.16-5.57,6.47-5.79s4.28,3.61,6.41,5.65c3.05,2.94,6,6,9,9Z" transform="translate(0 18.88)"/><path class="cls-8" d="M862.45,182.79c-5.05-5.32-8.34-11.55-11.92-17.59-3.06-5.15-3-5.16,2.62-7.08,4-1.34,4-1.33,6.12,2.39,2.48,4.25,4,8.64,3.26,13.74C862.1,177,862.45,179.94,862.45,182.79Z" transform="translate(0 18.88)"/><path class="cls-10" d="M907.64,126.74a3.42,3.42,0,0,1,1.92,1.36,18.77,18.77,0,0,1,4.7,10.33,3,3,0,0,0,2.63,2.83c2,.49,3.82,1.25,5.73,1.89.88.29,1.42.61,1.09,1.8-.42,1.54-1.15.35-1.71.32a10.31,10.31,0,0,1-1.35-.47c-5.42-1.06-9.51-3.24-9.74-9.72-.09-2.38-1.91-4.34-3.73-6-.38-.35-1-.68-.47-1.37C907,127.36,907.36,127,907.64,126.74Z" transform="translate(0 18.88)"/><path class="cls-6" d="M808.61,153.27c5.07,3.43,10,7.08,16,8.75a2.93,2.93,0,0,1-.31.72c-3.57,3.73-3.58,3.73-7.08.18q-4.56-4.6-9.09-9.24Z" transform="translate(0 18.88)"/><path class="cls-10" d="M984,173.56a64.19,64.19,0,0,1-16.7,2.58c-1.85.08-2.27-1-2.45-2.42l.17-.16a81.44,81.44,0,0,0,19-.94Z" transform="translate(0 18.88)"/><path class="cls-11" d="M804.55,126.23a26.18,26.18,0,0,0,1.9,18.72c.26.55,1,1.21.31,1.73-.92.65-1.32-.44-1.71-1-4.68-6.46-4.22-13.24-1.18-20.16Z" transform="translate(0 18.88)"/><path class="cls-10" d="M906.24,141.69c-1.54-.25-3.51-.57-5.48-.91-.68-.12-1.37-.35-1.27-1.23s.88-1.17,1.7-1.05c2,.28,3.94.64,5.92.92.88.13,1.53.53,1.38,1.44S907.47,141.83,906.24,141.69Z" transform="translate(0 18.88)"/><path class="cls-12" d="M804.14,149.63l-3.53-3.36c-.45-.43-.77-.84-.14-1.39s1-.25,1.39.29l2.68,4.06Z" transform="translate(0 18.88)"/><path class="cls-11" d="M806.46,147.39c.13-.27.19-.61.37-.71a.79.79,0,0,1,.75,0c1.25,1.18,2.5,2.36,3.64,3.64.28.32,0,1.13-.58.87C808.85,150.44,807.7,148.9,806.46,147.39Z" transform="translate(0 18.88)"/><path class="cls-9" d="M984,173.56v-.94l5.24-1.3,0,0C987.82,172.91,985.83,173.09,984,173.56Z" transform="translate(0 18.88)"/><path class="cls-9" d="M989.2,171.32a.6.6,0,0,1,.73-.54c.09,0,.17.2.25.31l-1,.25Z" transform="translate(0 18.88)"/><path class="cls-13" d="M908.28,187.39l.23.6-.68-.1Z" transform="translate(0 18.88)"/><path class="cls-12" d="M808,152.69l.58.58-.43.41-.58-.59Z" transform="translate(0 18.88)"/><path class="cls-12" d="M804.54,149.23l.56.6a4.44,4.44,0,0,0-.38.37l-.58-.57Z" transform="translate(0 18.88)"/><path class="cls-12" d="M805.29,150.75l-.57-.56c.12-.12.24-.24.38-.36l.55.6Z" transform="translate(0 18.88)"/><path class="cls-12" d="M805.88,151.28l-.58-.53.35-.32.56.61Z" transform="translate(0 18.88)"/><path class="cls-12" d="M806.45,151.91l-.57-.64.33-.23.6.56Z" transform="translate(0 18.88)"/><path class="cls-12" d="M806.81,151.6l.61.54c-.13.12-.26.25-.38.38l-.58-.61C806.57,151.8,806.69,151.7,806.81,151.6Z" transform="translate(0 18.88)"/><path class="cls-12" d="M807.42,152.14l.61.55-.43.4-.56-.57C807.16,152.39,807.29,152.26,807.42,152.14Z" transform="translate(0 18.88)"/><path class="cls-6" d="M862.46,526.24c1.48,6.93,2.95,12.79,3.48,18.85a7.65,7.65,0,0,1-3.45,7.48c-10.6,7-20.63,6.55-29.12-3.81-5.38-6.57-8.14-14.38-11.32-22-1.56-3.73-2.9-7.56-4.22-11.39a8,8,0,0,0-1.64-2.67c-5.72-6.53-11.31-13.18-17.2-19.56-3.61-3.92-8.42-6.42-12.74-9.46-4.88-3.43-8.22-7.76-9.4-13.67-.19-1-.14-2.49-1.67-2.16s-.85,1.75-.67,2.69a22.72,22.72,0,0,0,4.1,9.47c-2.73.21-4.91-.91-7.22-1.16a206.45,206.45,0,0,0-29.21-.78c-20.84.61-41.68.4-62.52-.3-1.8-.06-2.65-.47-2.61-2.41.07-2.7-.21-5.39-.1-8.1.28-6.89,3.4-11.72,9.52-15a181.92,181.92,0,0,1,28.84-12.63c13.94-4.6,27.16-11,40.94-16,7.17-2.58,14.36-5.06,21.62-7.37,8.57-2.73,15.69-.18,22.36,5,6.38,4.93,11.7,10.88,16.86,17,12.26,14.65,24.9,29,36,44.59a48.43,48.43,0,0,1,9.08,33.58c-.33,3.39,1.46,7.26-2.63,10.24-3.11,2.26-5.35,5.79-8.73,7.91-1.79,1.13-3.7,2.06-5.59,3-5.4,2.73-6.58,11.19-2.12,15.28.54.49,1.06.91,1.77.43.87-.6.55-1.33.06-2a10.14,10.14,0,0,1-2-4.42c-.55-3.33.67-5.83,3.75-7.25a37.35,37.35,0,0,0,14.17-11.15C861.2,528,861.58,527.45,862.46,526.24ZM774.67,437.8c.08.69-.18,1.61.93,1.75s1.36-.87,1.57-1.69c1.92-7.17,4.89-13.6,12-17.19.55-.29,1-.71.74-1.38-.29-.82-1-.87-1.67-.65a8,8,0,0,0-1.58.7C779.61,423.51,776.73,430.33,774.67,437.8ZM790,432.74a2.85,2.85,0,0,0,.86-.44,59.73,59.73,0,0,0,6.4-8.51,1,1,0,0,0-.27-1.51,1.12,1.12,0,0,0-1.73.34q-3,4-6.08,8.05a1.15,1.15,0,0,0-.1,1.56A2.86,2.86,0,0,0,790,432.74Z" transform="translate(0 18.88)"/><path class="cls-6" d="M739.3,427.11c13.68-17.46,26.05-35.9,40-53.19,6-7.44,13.61-7.37,21.72-6.72a5.39,5.39,0,0,1,2,1c16.07,9.94,32.31,19.61,48.14,29.93a75.35,75.35,0,0,1,21.7,21.4c2.45,3.67,4.91,7.32,7.5,11.19-7.41,0-10.93,5.6-15.42,9.83-4.19,3.93-3.92,8.13-1.91,13,4.35,10.55,20,16.95,28.38,16.12,1.64-.16,2.92-1.29,4.69-1.78.2,1.56-.77,2.25-1.55,3-9,8.65-22.48,12.44-35.45,1.86-7.32-6-14.07-12.45-18.87-20.58-4.22-7.15-9.74-12.23-17.87-14.31-3-.78-5-2.82-7-5.18-6.36-7.42-13.19-14.36-22.46-18.26a20,20,0,0,0-13.55-.84,343.94,343.94,0,0,0-36.23,12.83c-1.07.43-2.16.82-3.24,1.23Zm47.16-44.34c.9.1,1.21-.43,1.54-.89a37.87,37.87,0,0,1,2.34-3.26,26,26,0,0,1,9.06-6.5c.81-.36,2.05-.75,1.52-2s-1.62-.53-2.42-.18a30.62,30.62,0,0,0-6,3.44,22.48,22.48,0,0,0-6.43,6.92C785.61,381.17,785.09,382.28,786.46,382.77Zm73,27.15c-.1-.82-.75-1.18-1.77-.79-4.28,1.67-8.15,3.95-10.76,7.9a6.41,6.41,0,0,0-.77,1.85c-.15.55-.15,1.2.51,1.49a1,1,0,0,0,1.45-.54c1.91-4.47,6-6.3,9.93-8.38C858.7,411.09,859.45,410.81,859.43,409.92Zm-52.57-36c-.22-1-.71-1.79-1.75-1a53.41,53.41,0,0,1-8.85,5.27,1,1,0,0,0-.48,1.45,1,1,0,0,0,1.37.66,40.21,40.21,0,0,0,9.29-5.63A2.44,2.44,0,0,0,806.86,373.88Zm58.54,40.35c-.2-.75-.48-1.46-1.55-1-2.37,1-4.76,2-7.11,3-.88.39-1.13,1.51-.33,1.78,2.53.85,4.39-1.3,6.62-1.92C864,415.82,865.18,415.65,865.4,414.23Z" transform="translate(0 18.88)"/><path class="cls-6" d="M827.41,380.07a143.11,143.11,0,0,1-18.77-11.34c-6.33-4.55-13-4.79-20-3.56a2.78,2.78,0,0,1-3.44-1.57Q751.64,308,717.94,252.45c-4.11-6.74.45-14.8,8.74-17.23,4.64-1.36,7.72,0,10.67,4.6q36.38,56.24,72.73,112.48c5.91,9.15,11.73,18.35,17.59,27.53Z" transform="translate(0 18.88)"/><path class="cls-6" d="M847.91,466.17a141.31,141.31,0,0,0,12.44,10.3c9,6.42,18.4,6.72,28,1.72,1.89-1,2.67-.77,3.81,1,8,12.6,16.18,25.12,24.28,37.68.36.55.91,1,.77,1.82-13.66-1.79-23.12,3.44-27.81,16.71-.72.08-.8-.62-1.06-1q-20-33-39.93-66.08a17.72,17.72,0,0,1-.83-1.82Z" transform="translate(0 18.88)"/><path class="cls-6" d="M897.37,483.12c-.71-.93-1-1.28-1.28-1.67-1.09-1.7-2.87-3.35-3.06-5.15s2.44-2.84,3.72-4.29c4.3-4.85,4.72-10.06,2.11-15.81-4.09-9-9.74-17.06-15.39-25.12-3.6-5.13-7.05-10.37-10.58-15.55-.54-.8-1.3-1.51-.32-2.51,3.74-3.82,15.55-9.58,22.93-6.29,5,2.21,7.59,6.18,8.51,11.25,2.88,15.78.61,31.33-2.52,46.8C900.29,470.7,898.85,476.57,897.37,483.12Z" transform="translate(0 18.88)"/><path class="cls-14" d="M896,469c-.17-2.65-.6-3.93-2.87-2.3-1.47,1-3.36,1-5.06.72-7.72-1.15-14.6-4.07-19.93-10a16.11,16.11,0,0,1-1.68-2.34c-3.6-5.85-3.5-8.45.93-13.51,2.27-2.59,4.54-5.26,7.61-7,4-2.33,7.08-1.78,9.57,2.07,4.92,7.59,10.5,14.81,13.2,23.65C898.69,463.17,898.32,465.82,896,469Z" transform="translate(0 18.88)"/><path class="cls-6" d="M823.26,441c5,1.26,8.71,3.77,11.06,8.66,2.23,4.65,5.28,8.92,7.94,13.37.51.87,1.45,1.65.87,2.91Q833,453.66,822.84,441.42Z" transform="translate(0 18.88)"/><path class="cls-15" d="M739.87,427.71c-.3.19-.64.42-.91,0-.06-.09.22-.41.34-.63Z" transform="translate(0 18.88)"/><path class="cls-12" d="M847.63,466.47c-.07-.2-.25-.56-.21-.59.29-.2.4.05.49.29Z" transform="translate(0 18.88)"/><path class="cls-12" d="M827.67,379.83c.11.12.34.31.32.34-.24.34-.41.12-.58-.1Z" transform="translate(0 18.88)"/><path class="cls-16" d="M822.84,441.42c-.24-.12-.55-.28-.3-.57.08-.1.47.07.72.12Z" transform="translate(0 18.88)"/><path class="cls-6" d="M1195.35,550.84l-10.56-16.77c-.92-1.47-1.71-3-2.76-4.4-8-10.35-10.42-22.45-10.7-35.06-.39-16.9.31-33.77,4.49-50.27,1.25-4.93,2.53-9.91,5.57-14.17,4.56-6.37,11.09-9,18.59-9.67,1.82-.16,3.67,0,5.5-.13,8.62-.71,14,3.87,17.67,11a44.69,44.69,0,0,1,3.81,30.08,44.56,44.56,0,0,0-.64,8.91c0,10.61.32,21.24-2.9,31.55a5.55,5.55,0,0,0,.42,3.38c3.62,11.56,7.36,23.09,10.09,34.92.42,1.82.29,3.09-1.14,4.35-1.94,1.72-3.59,4.8-5.63,5.05-1.67.21-2.9-3.55-4.53-5.4a46.41,46.41,0,0,0-7.47-7.22c-6.32-4.53-12.07-3.22-17.08,3C1195.78,542.86,1195.21,546.35,1195.35,550.84Zm-6.82-40.17a72.47,72.47,0,0,0,13.9-6.34,1,1,0,0,0,.25-1.51.92.92,0,0,0-1.24-.39c-4.35,2.26-8.85,4.21-13.4,6a1,1,0,0,0-.61,1.4A1.19,1.19,0,0,0,1188.53,510.67Zm5.36-9.88c-.33-1.44-1.23-1.07-2.2-.74a21.66,21.66,0,0,0-10.41,7.77c-.53.7-1.25,1.47-.29,2.21s1.6-.07,2.12-.78a19.91,19.91,0,0,1,9.28-6.95C1193.12,502,1193.85,501.77,1193.89,500.79Zm4.7-.54c2-.41,3.54-.73,5-1,.79-.13,1.24-.48,1.14-1.32a1.08,1.08,0,0,0-1.41-1c-1.59.31-3.18.66-4.76,1a1.06,1.06,0,0,0-.85,1.51A1.11,1.11,0,0,0,1198.59,500.25Z" transform="translate(0 18.88)"/><path class="cls-6" d="M1194.33,594.13c-1.79,4.41-3.4,8.53-5.13,12.6-1,2.26-4.85,3.26-7.92,2.09-4.58-1.76-7.8-5.22-10.82-8.89a129.52,129.52,0,0,1-24.25-45.58c-3.27-10.88-6.92-21.65-9.43-32.74-2-9-3.85-18.1-.42-27.07,3.22-8.45,8-15.92,17.05-19.25a18.64,18.64,0,0,1,13.57,0,2.94,2.94,0,0,1,2.18,3.44,145.45,145.45,0,0,0,0,20.24c.82,10.73,3.2,20.8,9.38,29.93,5,7.39,10.24,14.73,13.26,23.28a35,35,0,0,1,1.58,5.24c1.31,7.09,5.24,13,8.61,19.14a3.35,3.35,0,0,1-.13,3.9c-1.85,3-3.55,6.19-5.17,9.37a3.39,3.39,0,0,1-3,2.11c-4.22.45-8.43,1.14-12,3.66a5.67,5.67,0,0,0-2.27,7.1c1.05,2.44,3.08,3.3,5.64,3.09,1-.07,2.16,0,2.14-1.33s-1.14-1-2-1c-1.68-.05-3.36-.15-3.84-2.25s.7-3.25,2.38-4.12C1187,595.38,1190.53,594.73,1194.33,594.13Zm-19-27.92a1.18,1.18,0,0,0-1.57-1.18,20.66,20.66,0,0,0-3.59,1c-2.84,1.12-5.8,2.06-7.83,4.56-.51.62-.9,1.32-.12,2a1,1,0,0,0,1.54-.13c2.73-2.78,6.33-3.8,9.89-4.88C1174.43,567.33,1175.14,567.08,1175.35,566.21Zm-5.73,9.33a70.56,70.56,0,0,0,13-6,1,1,0,0,0,.21-1.52,1,1,0,0,0-1.5-.33,102.77,102.77,0,0,1-12.27,5.72,1,1,0,0,0-.65,1.38A1.18,1.18,0,0,0,1169.62,575.54Z" transform="translate(0 18.88)"/><path class="cls-4" d="M774.67,437.8c2.06-7.47,4.94-14.29,11.94-18.46a8,8,0,0,1,1.58-.7c.69-.22,1.38-.17,1.67.65.23.67-.19,1.09-.74,1.38-7.06,3.59-10,10-12,17.19-.21.82-.38,1.83-1.57,1.69S774.75,438.49,774.67,437.8Z" transform="translate(0 18.88)"/><path class="cls-5" d="M790,432.74a2.86,2.86,0,0,1-.92-.51,1.15,1.15,0,0,1,.1-1.56q3-4,6.08-8.05a1.12,1.12,0,0,1,1.73-.34,1,1,0,0,1,.27,1.51,59.73,59.73,0,0,1-6.4,8.51A2.85,2.85,0,0,1,790,432.74Z" transform="translate(0 18.88)"/><path class="cls-5" d="M786.46,382.77c-1.37-.49-.85-1.6-.37-2.49a22.48,22.48,0,0,1,6.43-6.92,30.62,30.62,0,0,1,6-3.44c.8-.35,1.85-1.19,2.42.18s-.71,1.66-1.52,2a26,26,0,0,0-9.06,6.5,37.87,37.87,0,0,0-2.34,3.26C787.67,382.34,787.36,382.87,786.46,382.77Z" transform="translate(0 18.88)"/><path class="cls-5" d="M859.43,409.92c0,.89-.73,1.17-1.41,1.53-3.91,2.08-8,3.91-9.93,8.38a1,1,0,0,1-1.45.54c-.66-.29-.66-.94-.51-1.49a6.41,6.41,0,0,1,.77-1.85c2.61-3.95,6.48-6.23,10.76-7.9C858.68,408.74,859.33,409.1,859.43,409.92Z" transform="translate(0 18.88)"/><path class="cls-5" d="M806.86,373.88a2.44,2.44,0,0,1-.42.72,40.21,40.21,0,0,1-9.29,5.63,1,1,0,0,1-1.37-.66,1,1,0,0,1,.48-1.45,53.41,53.41,0,0,0,8.85-5.27C806.15,372.09,806.64,372.86,806.86,373.88Z" transform="translate(0 18.88)"/><path class="cls-5" d="M865.4,414.23c-.22,1.42-1.45,1.59-2.37,1.85-2.23.62-4.09,2.77-6.62,1.92-.8-.27-.55-1.39.33-1.78,2.35-1,4.74-2,7.11-3C864.92,412.77,865.2,413.48,865.4,414.23Z" transform="translate(0 18.88)"/><path class="cls-7" d="M811.75,190.6c8.4,61.38,62.63,102.45,119.73,116.07,39.4,9.4,81.81,8.53,121.77,3.24,52.14-6.91,102.31-23,150.4-44,48.94-21.33,95.12-49.08,135.82-83.7a465.3,465.3,0,0,0,37.72-35.78c8.3-8.84,15.88-18.28,23.93-27.34,21.81-24.51,47.7-45.72,74.58-64.42,27.6-19.21,57.35-37.17,89-49,44.32-16.54,92.23-25.3,139.54-20.41,45.91,4.75,88.57,24,124.64,52.33,39.4,31,70.72,74.45,72.93,126,2.89,67.2-38.21,127.76-73.6,181.41-8.42,12.77-17.3,25.2-26.76,37.21-1.18,1.5.93,3.64,2.12,2.13,19.16-24.34,36.13-50.47,52.32-76.86,17.24-28.09,33.09-57.65,42-89.53,8.18-29.15,9.74-60,1-89.27-7-23.55-20-44.88-36.11-63.27C1839,38.29,1807.78,15.84,1774.71,1,1721.79-22.72,1662-23.58,1606.3-10.18a332.11,332.11,0,0,0-76.89,28.75c-51,26.72-99.65,62.05-137,106.11C1352.46,171.75,1304.09,210.32,1250,240a613.36,613.36,0,0,1-136.18,54.83c-41.61,11.05-84.67,17-127.75,15.63-60.95-1.9-125.64-22.92-157.32-79a116.52,116.52,0,0,1-14.09-41.6c-.26-1.91-3.15-1.1-2.9.79Z" transform="translate(0 18.88)"/><path class="cls-3" d="M1143.15-1.85h-7.55c11.55,5.39,24.16,6.64,36.52,8.75,22.24,3.78,44.6,6.77,67,9.64q24.11,3.09,48.21,6.11c.94.12,2.37.77,2.48-.93.09-1.31-1.23-1.25-2.15-1.37-24.19-3.13-48.39-6.16-72.56-9.42-10.88-1.46-21.78-2.85-32.56-5C1169.17,4.09,1155.92,2.18,1143.15-1.85Z" transform="translate(0 18.88)"/><path class="cls-4" d="M833.64,648.64a5.16,5.16,0,0,1,1.63.25c.25-.32.51-.63.75-1h-2.77l-.65.81A5.73,5.73,0,0,1,833.64,648.64Z" transform="translate(0 18.88)"/><path class="cls-4" d="M759,639.44a86.63,86.63,0,0,1,6.22,8.86,18,18,0,0,1,2.93.05,85.92,85.92,0,0,0-8.41-11.8c-.52-.62-1-1.66-2.06-.91-1.2.87-.25,1.67.26,2.43C758.26,638.55,758.63,639,759,639.44Z" transform="translate(0 18.88)"/><path class="cls-5" d="M850.82,80.08c-.12-.83,0-1.63.95-1.79.8-.13,1.21.48,1.33,1.22A113.73,113.73,0,0,0,858.75,101a1.3,1.3,0,0,1-.75,1.9c-.76.24-1.21-.34-1.47-1A114.94,114.94,0,0,1,850.82,80.08Z" transform="translate(0 18.88)"/><path class="cls-5" d="M740.72,572.69c.51-4.46.47-9,1.81-13.41a9.85,9.85,0,0,1,3.44-5.21c.5-.38,1.09-.59,1.58-.15s.8,1,.24,1.52c-4.83,4.49-3.74,10.64-4.56,16.24a38.87,38.87,0,0,0-.17,4c0,.83-.24,1.64-1.25,1.6s-1.09-.9-1.09-1.7C740.71,574.65,740.72,573.69,740.72,572.69Z" transform="translate(0 18.88)"/><path class="cls-5" d="M1298.7,472a33.8,33.8,0,0,1-11.58-2.19c-.85-.35-1.69-.71-1.3-1.82s1.43-.74,2.17-.44a27.42,27.42,0,0,0,14.42,1.53c.86-.11,1.85-.39,1.95.94s-.81,1.36-1.71,1.47Z" transform="translate(0 18.88)"/><path class="cls-5" d="M1294.15,486.52c-3.92-.07-7.5-.94-10.23-4-.66-.73-1.76-1.63-.55-2.68s1.64.35,2.24,1c2.56,2.67,5.82,3.19,9.29,3.08.86,0,1.72-.24,2.58-.3s1.93-.41,2.19.76c.3,1.34-.83,1.54-1.81,1.68C1296.63,486.24,1295.38,486.37,1294.15,486.52Z" transform="translate(0 18.88)"/><path class="cls-5" d="M870.65,108.74c.1.81.07,1.48-.78,1.71s-1.28-.41-1.44-1.06a60.9,60.9,0,0,0-5.87-14.67A1.18,1.18,0,0,1,863,93c.85-.52,1.28.07,1.61.65A57,57,0,0,1,870.65,108.74Z" transform="translate(0 18.88)"/><path class="cls-5" d="M1300.45,464.79c-2.31.08-4.91-.18-7.42.71-.72.25-1.59.49-2-.45s.31-1.47,1.07-1.7c4.6-1.43,9.28-1.08,14-.46a1.09,1.09,0,0,1,1,1.2c-.1.82-.72,1.07-1.47,1C1304,465,1302.34,464.91,1300.45,464.79Z" transform="translate(0 18.88)"/><path class="cls-5" d="M809.6,584.91c-.6.13-1.18,0-1.38-.66a1.13,1.13,0,0,1,1-1.48,19.89,19.89,0,0,0,11.5-6.7,1.29,1.29,0,0,1,2-.17c.58.6.13,1.24-.33,1.79A20.53,20.53,0,0,1,809.6,584.91Z" transform="translate(0 18.88)"/><path class="cls-5" d="M867.62,117.76a1.17,1.17,0,0,1-.71,1.14,1,1,0,0,1-1.27-.35,49.47,49.47,0,0,1-5.62-9,1.15,1.15,0,0,1,.3-1.55.94.94,0,0,1,1.48.22c1.91,3,3.79,6,5.67,9A2.26,2.26,0,0,1,867.62,117.76Z" transform="translate(0 18.88)"/><path class="cls-5" d="M746.72,569.72c-1-.2-1.43-.78-1.19-1.67.62-2.32,1.28-4.62,2-6.92.17-.55.49-1.12,1.2-1s1.16.59,1,1.19c-.66,2.6-1.4,5.18-2.18,7.75C747.44,569.36,747,569.53,746.72,569.72Z" transform="translate(0 18.88)"/><path class="cls-6" d="M840-.48c-.65-.75-1.31-1.48-2-2.21H796.23c-3.46,15.24-7.3,30.4-10,45.8-1.26,7.11-3.21,14.3-1.94,21.51,3.06,17.36,6.46,34.67,10,51.95.9,4.44,2.18,8.93,5.68,12.86a40.59,40.59,0,0,1,6.24-12,267,267,0,0,1,20.4-22.9,10.54,10.54,0,0,0,2.87-6.66,58.49,58.49,0,0,0-2.94-25.94c-2-5.65-1.56-9.91,2.73-14.72,8.38-9.38,12.32-21.47,17.81-32.59.88-1.79.39-3.6-.37-5.31A40.32,40.32,0,0,0,840-.48ZM822,51.45c-.74.45-1.32.08-1.73-.52s-.72-1.36-1.12-2c-2.26-3.68-5.16-6.48-9.68-7-.91-.11-1.86-.25-1.61-1.49.22-1,1.14-.83,1.67-.84,5,.24,11.69,5.75,12.8,10.34C822.5,50.47,822.64,51.07,822,51.45Z" transform="translate(0 18.88)"/><path class="cls-6" d="M909.89-2.69a62.17,62.17,0,0,0,4.19,8.31c.46.79,1.27,1.81,0,2.47S912.49,7.5,912,6.71a54.93,54.93,0,0,1-3.86-7.42c-.35-.85-.58-1.5-.79-2H904l-.45.24c-3.31,1.77-6.64,3.54-10.06,5.07-11.69,5.24-24.2,7.74-36.62,10.34-5.36,1.12-8.4,3.39-10.59,8.46-4.54,10.51-9.11,21.13-17,29.77-1.95,2.16-2.15,4-1.43,6.69,2.25,8.37,5,16.67,4.29,25.54-.11,1.47,0,3,0,5,3.28-3.46,6.28-6.54,9.18-9.71,5.84-6.39,12.33-11.74,21.25-13a18.65,18.65,0,0,0,13-7.5,29.71,29.71,0,0,1-10.75-4.36c-.72-.43-1.31-.86-.78-1.8.44-.79,1-.66,1.7-.28a31.86,31.86,0,0,0,8.62,3.83c1.07.24.73,1.8,1.92,1.77,3.3-3.65,6.43-7.46,9.91-10.92q24.69-24.59,49.44-49.14ZM860.24,49.22c-.44.42-.9.2-1.27-.15a39,39,0,0,1-7-8.8,1.09,1.09,0,0,1,.34-1.53.92.92,0,0,1,1.31.13,86.08,86.08,0,0,0,6.94,8.85c.12.13.13.36.23.66A3.91,3.91,0,0,1,860.24,49.22Z" transform="translate(0 18.88)"/><path class="cls-6" d="M990.13-2.69Q971.46,16.6,952.77,35.88c-.73.75-1.61,1.84-2.61.66-.87-1,.37-1.72,1-2.35Q969,15.74,986.87-2.69H939Q913.17,23,887.39,48.65a156.06,156.06,0,0,0-11.77,13.14,2.57,2.57,0,0,1,.33.33c27.12-5.24,53.74-12.25,79.48-22.39a8.12,8.12,0,0,0,2.78-2q20.07-20.21,40.18-40.39Z" transform="translate(0 18.88)"/><path class="cls-10" d="M931.21,116.34a5.24,5.24,0,0,1,.78.28c5.9,2.82,11.17,6.44,14.89,12,.54.8,1.3,1.7.24,2.52-.84.65-1.42-.19-1.83-.82-3.58-5.39-8.6-9-14.38-11.68-.66-.31-1.6-.55-1.42-1.53C929.6,116.45,930.28,116.31,931.21,116.34Z" transform="translate(0 18.88)"/><path class="cls-5" d="M875.58,58.21a29.71,29.71,0,0,1-10.75-4.36c-.72-.43-1.31-.86-.78-1.8.44-.79,1-.66,1.7-.28a31.86,31.86,0,0,0,8.62,3.83c1.07.24.73,1.8,1.92,1.77Z" transform="translate(0 18.88)"/><path class="cls-4" d="M803.87,125.54a5,5,0,0,1,2-3.42c.67,1.94-1.35,2.68-1.31,4.11Z" transform="translate(0 18.88)"/><path class="cls-11" d="M806.91,121.51l-.51-.35a2.84,2.84,0,0,1,.57-.43c.07,0,.24.16.37.25Z" transform="translate(0 18.88)"/><path class="cls-11" d="M964.58,36.11c-.43.12-1.1.46-1.24.31-.51-.54.27-.68.5-1Z" transform="translate(0 18.88)"/><path class="cls-17" d="M876,62.12c-.24.21-.48.34-.71,0a4.32,4.32,0,0,1,.38-.34A2.57,2.57,0,0,1,876,62.12Z" transform="translate(0 18.88)"/><path class="cls-6" d="M926.43,545.09a13.71,13.71,0,0,0-9.94,2.09,14,14,0,0,0-6.09,7.43c-.33,1-.48,1.94-1.83.84-4.55-3.73-9.31-7.21-13.67-11.14-3.25-2.92-3.65-6.84-2.14-10.92a20.37,20.37,0,0,1,20.06-12.76c5.42.45,8.85,3.37,10.08,8.69C924.09,534.46,925.21,539.61,926.43,545.09Z" transform="translate(0 18.88)"/><path class="cls-8" d="M933.18,575,920.07,564c-2.14-1.79-4.22-3.66-6.43-5.36a2.56,2.56,0,0,1-1-3.42c1.75-4.69,7.13-8.38,11.91-8,1.19.1,2.31.21,2.65,1.7C929.11,557.39,931.06,565.81,933.18,575Z" transform="translate(0 18.88)"/><path class="cls-8" d="M816.08,601.07c-1,5.15-2.92,9.18-7.54,11.38-3.55,1.69-4.78,1.35-6.75-1.85-1.43-2.32-1.68-3.86-1.18-7.59C805.88,604.43,811.25,606.41,816.08,601.07Z" transform="translate(0 18.88)"/><path class="cls-11" d="M797.81,607.64l.21.18a1.46,1.46,0,0,1-.35.18s-.12-.11-.18-.17Z" transform="translate(0 18.88)"/><path class="cls-6" d="M1233.32,528.55c-2.07-6.68-3.63-13.27-6.17-19.45-2.1-5.14-.53-9.77.21-14.63a23.17,23.17,0,0,0,.61-4.86c-.63-9.49,3.7-17.58,7.15-25.92q42.09-101.68,84.16-203.38c.92-2.22,1.66-2.59,3.87-1.58,5.59,2.56,11.31,4.85,17,7.13,1.63.65,1.88,1.3,1.19,3q-23.91,57.6-47.71,115.23a4,4,0,0,1-1.66,2.28c-8,4.37-13.36,11.24-18.16,18.67-11.55,17.89-18.93,37.28-20.85,58.56-.47,5.27-.14,10.61-.09,15.92a14.6,14.6,0,0,1-1.14,5.9c-5.61,13.44-11.14,26.91-16.71,40.37A5.53,5.53,0,0,1,1233.32,528.55Z" transform="translate(0 18.88)"/><path class="cls-6" d="M1145.75,621.84c-6.5-2.81-11.43-6.61-16.18-10.68-8.6-7.36-13.43-17-16.6-27.61-2.26-7.56-5.45-14.85-7.1-22.57-2.39-11.18.8-21.29,7.2-30.34,4.37-6.17,13.31-8.57,20.33-6.37,1.4.44,1.52,1.52,1.87,2.63,4.79,15.53,9.34,31.12,15.37,46.25,3.34,8.37,8.95,15.23,13.62,22.72,2.35,3.76,4.81,7.46,7.39,11.06a5,5,0,0,1,.67,4.59c-.36,1.48-.8,1.51-1.83.56q-2.23-2.05-4.61-4c-2.05-1.64-4.05-1.84-6.25,0-4,3.3-8.81,4.16-13.83,4.13-3.45,0-4.16.89-3,4.11a23,23,0,0,0,1.29,2.58C1144.54,619.68,1145,620.43,1145.75,621.84ZM1137.19,594a3.73,3.73,0,0,0-.32-.36c.28-.37.55-.76.85-1.12.6-.72,1.58-1.44.5-2.4-.92-.82-1.59.07-2.18.66-2,2-4.06,4.12-6.09,6.18-.59.59-1,1.28-.36,2s1.18.33,1.84.06a150.61,150.61,0,0,0,14.17-6.46c.72-.37,1.46-.81,1.08-1.73-.52-1.23-1.38-.58-2.16-.22Z" transform="translate(0 18.88)"/><path class="cls-6" d="M1249.37,421.88c-5.18-9.39-10.45-18.69-15.45-28.13a43.8,43.8,0,0,0-8.42-11.2c-7.46-7.24-13.83-15.32-16.45-25.73a19.7,19.7,0,0,1-.57-2.83c-.71-7,2.9-11.22,10-11.73,7.49-.53,14.57,1.16,21.4,4a88.93,88.93,0,0,1,29.87,19.9c1.68,1.73,2,3.28,1,5.59-6.66,15.79-13.16,31.64-19.74,47.47A4.92,4.92,0,0,1,1249.37,421.88Zm-6.85-32.48a29.53,29.53,0,0,0,18-6c.76-.54,1.45-1.18.76-2.11s-1.38-.3-2,.12-1.27.86-1.93,1.26c-7.28,4.39-14.93,5.83-23.16,3-.75-.26-1.85-1.33-2.32.31-.37,1.32.85,1.54,1.69,1.89A23.76,23.76,0,0,0,1242.52,389.4Z" transform="translate(0 18.88)"/><path class="cls-8" d="M1210,565.83c-3.65.08-6.2-1-7.75-4.07-.77-1.54-1.88-2.91-2.79-4.38s-3.05-3.63-2.63-4.58c1.9-4.27.21-9.68,4.73-13.19,4-3.14,7.18-3.9,11.53-1.19,5,3.07,8.26,7.71,11.59,12.33.68,1,.35,1.52-.36,2.19A94.68,94.68,0,0,0,1213,564.88C1212,566.14,1210.74,565.77,1210,565.83Z" transform="translate(0 18.88)"/><path class="cls-9" d="M1357.25,229.76c-.2.55-.39,1.2-.65,1.82-2.08,5.07-4.22,10.12-6.24,15.22-.62,1.55-1.25,2-3,1.28-5.81-2.55-11.69-5-17.58-7.33-1.54-.62-2.06-1.19-1.28-2.92,2.27-5.09,4.3-10.3,6.49-15.43,1.28-3,2.48-3.45,5.42-2.25,4.63,1.89,9.25,3.83,13.86,5.75C1356,226.6,1357.43,227.5,1357.25,229.76Z" transform="translate(0 18.88)"/><path class="cls-8" d="M1348.28,251.64c-.07.21-.16.48-.27.75-1.44,3.46-2.92,6.91-4.3,10.4-.46,1.18-1,1.39-2.15.89q-9.3-3.93-18.68-7.7c-1.07-.44-1.59-.84-1-2.1,1.51-3.44,3-6.89,4.32-10.39.48-1.25,1-1.32,2.14-.87,6.21,2.59,12.45,5.12,18.67,7.71C1347.51,250.56,1348.39,250.58,1348.28,251.64Z" transform="translate(0 18.88)"/><path class="cls-8" d="M1145.06,614.69c6-.22,11.71-.93,16.41-4.9a2,2,0,0,1,2.88.05c1.81,1.58,3.58,3.21,5.41,4.76,1,.82.49,1.43,0,2.19-4.19,6-12.81,8.77-19.83,6.5a1.89,1.89,0,0,1-1.58-1.6C1147.67,619.31,1145.67,617.49,1145.06,614.69Z" transform="translate(0 18.88)"/><path class="cls-4" d="M809.56,39.56c5,.24,11.69,5.75,12.8,10.34.14.57.28,1.17-.33,1.55s-1.32.08-1.73-.52-.72-1.36-1.12-2c-2.26-3.68-5.16-6.48-9.68-7-.91-.11-1.86-.25-1.61-1.49C808.11,39.38,809,39.57,809.56,39.56Z" transform="translate(0 18.88)"/><path class="cls-4" d="M860.83,48.38a3.91,3.91,0,0,1-.59.84c-.44.42-.9.2-1.27-.15a39,39,0,0,1-7-8.8,1.09,1.09,0,0,1,.34-1.53.92.92,0,0,1,1.31.13,86.08,86.08,0,0,0,6.94,8.85C860.72,47.85,860.73,48.08,860.83,48.38Z" transform="translate(0 18.88)"/><path class="cls-3" d="M986.87-2.69Q969,15.75,951.15,34.19c-.62.63-1.86,1.33-1,2.35,1,1.18,1.88.09,2.61-.66q18.69-19.28,37.36-38.57Z" transform="translate(0 18.88)"/><path class="cls-5" d="M1188.53,510.67a1.19,1.19,0,0,1-1.1-.8,1,1,0,0,1,.61-1.4c4.55-1.83,9-3.78,13.4-6a.92.92,0,0,1,1.24.39,1,1,0,0,1-.25,1.51A72.47,72.47,0,0,1,1188.53,510.67Z" transform="translate(0 18.88)"/><path class="cls-4" d="M1193.89,500.79c0,1-.77,1.23-1.5,1.51a19.91,19.91,0,0,0-9.28,6.95c-.52.71-1.19,1.5-2.12.78s-.24-1.51.29-2.21a21.66,21.66,0,0,1,10.41-7.77C1192.66,499.72,1193.56,499.35,1193.89,500.79Z" transform="translate(0 18.88)"/><path class="cls-5" d="M1198.59,500.25a1.11,1.11,0,0,1-.84-.79,1.06,1.06,0,0,1,.85-1.51c1.58-.37,3.17-.72,4.76-1a1.08,1.08,0,0,1,1.41,1c.1.84-.35,1.19-1.14,1.32C1202.13,499.52,1200.63,499.84,1198.59,500.25Z" transform="translate(0 18.88)"/><path class="cls-4" d="M1175.36,566.21c-.22.87-.93,1.12-1.69,1.35-3.56,1.08-7.16,2.1-9.89,4.88a1,1,0,0,1-1.54.13c-.78-.69-.39-1.39.12-2,2-2.5,5-3.44,7.83-4.56a20.66,20.66,0,0,1,3.59-1A1.19,1.19,0,0,1,1175.36,566.21Z" transform="translate(0 18.88)"/><path class="cls-5" d="M1169.62,575.54a1.18,1.18,0,0,1-1.19-.73,1,1,0,0,1,.65-1.38,102.77,102.77,0,0,0,12.27-5.72,1,1,0,0,1,1.5.33,1,1,0,0,1-.21,1.52A70.56,70.56,0,0,1,1169.62,575.54Z" transform="translate(0 18.88)"/><path class="cls-4" d="M1137.19,594l7.33-3.37c.78-.36,1.64-1,2.16.22.38.92-.36,1.36-1.08,1.73a150.61,150.61,0,0,1-14.17,6.46c-.66.27-1.31.58-1.84-.06s-.23-1.43.36-2c2-2.06,4-4.14,6.09-6.18.59-.59,1.26-1.48,2.18-.66,1.08,1,.1,1.68-.5,2.4-.3.36-.57.75-.85,1.12-.25.06-.56.12-.36.45C1136.56,594.13,1137,594,1137.19,594Z" transform="translate(0 18.88)"/><path class="cls-5" d="M1242.52,389.4a23.76,23.76,0,0,1-9-1.51c-.84-.35-2.06-.57-1.69-1.89.47-1.64,1.57-.57,2.32-.31,8.23,2.8,15.88,1.36,23.16-3,.66-.4,1.28-.85,1.93-1.26s1.43-.93,2-.12,0,1.57-.76,2.11A29.53,29.53,0,0,1,1242.52,389.4Z" transform="translate(0 18.88)"/><path class="cls-15" d="M1137.19,594c-.24,0-.63.16-.68.09-.2-.33.11-.39.36-.45A3.73,3.73,0,0,1,1137.19,594Z" transform="translate(0 18.88)"/></svg>