<svg id="Capa_5" data-name="Capa 5" xmlns="http://www.w3.org/2000/svg" xmlns:xlink="http://www.w3.org/1999/xlink" viewBox="0 0 1919.98 666.53"><defs><style>.cls-1{fill:url(#Degradado_sin_nombre_152);}.cls-2,.cls-6{fill:none;}.cls-2{stroke:#000;stroke-miterlimit:10;}.cls-3{fill:#2f3b40;}.cls-4{fill:#303c41;}.cls-5{fill:#354046;}.cls-7{fill:#fff;}.cls-8{fill:#2197a3;}.cls-9{fill:#d1d1d1;}.cls-10{fill:#f2f3f3;}.cls-11{fill:#fefefe;}.cls-12{fill:#91e1a7;}.cls-13{fill:#fcfcfc;}.cls-14{fill:#f90066;}.cls-15{fill:#fcfdfd;}.cls-16{fill:#ddf5e4;}.cls-17{fill:#91e1a8;}</style><linearGradient id="Degradado_sin_nombre_152" x1="959.99" y1="1633.33" x2="959.99" y2="-2893.19" gradientUnits="userSpaceOnUse"><stop offset="0.23" stop-color="#2197a3"/><stop offset="0.25" stop-color="#3a899d"/><stop offset="0.28" stop-color="#73698e"/><stop offset="0.32" stop-color="#a24e82"/><stop offset="0.35" stop-color="#c73978"/><stop offset="0.38" stop-color="#e12a72"/><stop offset="0.41" stop-color="#f1216d"/><stop offset="0.43" stop-color="#f71e6c"/><stop offset="0.43" stop-color="#f6256c"/><stop offset="0.45" stop-color="#f4436a"/><stop offset="0.47" stop-color="#f25a69"/><stop offset="0.49" stop-color="#f16b69"/><stop offset="0.52" stop-color="#f07568"/><stop offset="0.55" stop-color="#f07868"/></linearGradient></defs><title>Banner5</title><rect class="cls-1" y="12.56" width="1919.98" height="653.96"/><path class="cls-2" d="M591.63,642.24A149.61,149.61,0,0,1,556,598.3c-10.07-18.8-16-39.81-18.61-60.91-2.85-22.62-4.11-45.31-2.72-68.08,1.41-23.29,5.45-46.26,8.26-69.39,2.76-22.83,5.57-45.66,9.6-68.31,4-22.23,9.1-44.3,14.43-66.23s11.47-43.73,17.85-65.39c6.29-21.35,13.05-42.57,20.54-63.53S621,95,630.13,74.74c4.45-9.85,7.16-20.41,11.81-30.27S651.81,25.19,657,15.69c2.6-4.71,5.19-9.43,7.7-14.19" transform="translate(0.39 16.09)"/><path class="cls-2" d="M841,642.42c7.34-12.76,12.81-26.92,18.38-40.52,5.65-13.82,10.92-27.79,16.11-41.78q4.43-12,8.84-23.92c.5,2.12-1,5.9-2.35,7.54.15-2.49,1.51-5.22,2.35-7.54.28,2.89,1.19,6.39-1.73,8.27a27.68,27.68,0,0,1,1.73-8.27,22.35,22.35,0,0,1,2.48,4.9,8.29,8.29,0,0,1-2.48-4.9c6,9.83,14.3,17.84,23.37,24.79,4.59,3.52,9.56,6.52,14.17,10,2.56,1.93,4.51,4.57,6.93,6.67,2,1.75,4.43,2.68,6.8,3.82-2.69-15.43-4.57-.43,0,0-5-29-8-59-31-82-2-3-6-8-6-12,3-26,19-52,2-77-7-11-20-3-30,3h-3c-5-2-7-8-11-11a261,261,0,0,1-27-19c-5-5-8-12-12-18l-6-12c-11-16-19-30-29-45-15-23-28-42-42-65-3-4-6-9-11-9-10,1-20,9-15,20,18,34,37,64,59,97,2,4,2,8,5,11,2,1,2,4,4,5-16,19-28,38-43,59-7,9-18,13-29,15s-21,7-30,14c-5,5-6,13-6,20a7.64,7.64,0,0,1-2,5c-10,3-21,7-25,17-7,19-1,42-17,56-9,30,7,60,11.9,88.86" transform="translate(0.39 16.09)"/><path class="cls-2" d="M1307.15,642.4c6.46-19.93,12.46-39.93,16.46-61.93,4-20,4-39,3-58-2-24-9-47-14-71-2-15,3-28,10-41,4-8,5-18-4-23a26.49,26.49,0,0,0-22.75-1.12c1.36-3.43,2.27-7.14,4.67-10-.22,3.56-1.28,8.16-4.67,10,21.75-48.88,38.75-98.88,61.75-147.88,1-3,2-5,1-8-3-9-15-11-23-10-7,6-9,14-13,22-17,42-33,84-50.08,126.25-1-1.15.24-1.61,0,0a90.16,90.16,0,0,0-32.84-23.17c-8.12-3.32-19.81-7.41-27.94-2.07-5.31,3.48-6.71,10-6,15.93.8,6.88,4.41,11.44,8.88,16.45,10,11.19,18.37,24,26,36.86,3.64,6.12,9.09,12.66,5.88,20-3.42,7.87-7.73,15.24-10.24,23.5a9.23,9.23,0,0,1,.51-3.42,32.79,32.79,0,0,1-.51,3.42c-.41-1-2.17-5.25,0-5.26s.44,4.3,0,5.26c-5-7.87-6.6-17.61-12.27-25.11a28.1,28.1,0,0,0-18.55-10.54c-17.32-2.37-29.37,10.51-33.27,26.29-2.32,9.35-2.44,19.05-3.56,28.57-1.7-.54-5.71-3.32-2.82-5.2,3.07-2,3.07,3.67,2.82,5.2-10.46-2.61-20.34-.72-27.63,7.57-9.37,11.43-11.37,27.43-7.07,41.44-2.1-1.32-2.83-4.22-2.68-6.56,1.54,1.86,2,4.31,2.68,6.56-1.29-.44-9.18-5.08-4.45-6.39,2.51-.69,4.14,4.67,4.45,6.39a12.2,12.2,0,0,1-4.28-.88,4.3,4.3,0,0,1,4.28.88c-10.3-1-20.3,1-26.3,10-5,8-6,18-4,27,2,13,9,24,10,37,1,14,1,29,2.76,43.47" transform="translate(0.39 16.09)"/><path class="cls-2" d="M791.22,1c-11.61,43.49-13.61,91.49,7.39,132.49,3,6,3,13-2,18-13,10-20,24-23,40,7.39-.93,1.31-3.3,0,0,21-4,38-17,57-27,14-7,23,8,26,20,2,6,9,11,16,9a98.3,98.3,0,0,1,16-5c15-1,27,9,41,13,12,3,28,9,37-3,3-5,2-11,0-16,8-1.5.73,4.77,0,0,11-1,25-2,31-13,7-14-4-30-19-33.75a5.2,5.2,0,0,1,2.21.3,1.9,1.9,0,0,1-2.21-.3c22,.75,42,7.75,62,16.75,2,1,3,0,5,1,4,2,9,4,13,6,2,1,3,0,5,1,19,10,40,11,60,12,27,2,55-1,80-14,3-1,7-3,11-3a101.54,101.54,0,0,1,25,6c13,4,26,5,39,8,15,5,29,6,44,10,23,7,44,10,68,15,1,0,3,2,4,2,14,4,29,4,42,10,35,44,43,104,41,159-2,25-8,49-11,73-6,10-6,23-10,34a180.28,180.28,0,0,0-8,21c-2,11-6,21-10,31-16,41-35,81-59.89,117.79" transform="translate(0.39 16.09)"/><path class="cls-3" d="M1463.39,209.06c-.46-.13-.93-.23-1.4-.33-77.37-17.37-154.68-34.94-232.26-51.34-6.84-1.45-13.53-3.21-20.72-.8a267.06,267.06,0,0,1-38.39,9.6c-15.71,2.78-31.5,4.67-47.47,4.14-25.14-.83-48.73-8.21-71.78-17.64-.33-.14-.72-.26-.57-1,6.53-.7,13.09-1.87,19.18-4.51,5.85-2.55,11.89-3.39,18.16-4a113.45,113.45,0,0,0,56.34-21.47c.79-.57,1.84-1.15,1.11-2.26s-1.71-.26-2.44.29a99.35,99.35,0,0,1-14.25,8.81c-21.26,11-43.75,15.16-67.53,11.94-13.61-1.84-26.66-6.06-39.82-9.74-18.64-5.22-36.95-11.71-56.23-14.45-14.38-2-28.65-2.55-42.58,2.48-6.74,2.43-13.57,5.08-18.35,10.59a73.14,73.14,0,0,1-21.37,17c-13,6.88-27.12,11-41.06,15.45-10.59,3.38-20.38,1.28-29.16-5.52-.86-.67-2.64-1.4-2-2.36.82-1.34,2,.33,2.82.79,10.16,5.35,19.91,3.9,27.95-4.29a63.86,63.86,0,0,0,6.2-7.62c1.46-2.05,1.53-3.28-1-4.72A22.08,22.08,0,0,1,836,123.68a168.14,168.14,0,0,1-3.55-21.38c-.13-1.2.35-2.85-1-3.41-1.6-.67-2.27,1.14-3.12,2-5.6,5.86-11.08,11.83-16.68,17.7-.67.7-1.22,2.6-2.44,1.57-.85-.72.68-1.76,1.32-2.48,12.22-13.79,24.77-27.29,37.81-40.33A18.89,18.89,0,0,1,856,72.75c3.39-1.11,6.8-2.17,10.27-3,13-3.08,26.11-5.93,39.12-9.09,27-6.54,52.78-16.47,78.31-27.18,2.22-.93,4.44-1.88,6.66-2.83.73-.31,1.55-.74,1.19-1.66s-1.26-1-2.18-.54-1.6.67-2.4,1L964.2,38.8c-.43.12-1.11.46-1.25.31-.5-.54.28-.68.5-1Q982.33,19,1001.22,0H998q-20.13,20.15-40.19,40.38a8.12,8.12,0,0,1-2.78,2C929.3,52.56,902.68,59.56,875.56,64.8c-.23.21-.48.34-.71,0,0,0,.25-.22.39-.34A157.7,157.7,0,0,1,887,51.33Q912.77,25.65,938.56,0h-3.3q-24.74,24.55-49.45,49.13c-3.48,3.46-6.61,7.26-9.9,10.91l-.72.84a18.65,18.65,0,0,1-13,7.5c-8.92,1.26-15.41,6.61-21.24,13-2.9,3.17-5.91,6.25-9.18,9.71,0-2-.1-3.53,0-5,.69-8.87-2-17.17-4.29-25.53-.72-2.67-.52-4.54,1.44-6.69,7.83-8.64,12.41-19.26,16.94-29.77,2.19-5.07,5.23-7.33,10.59-8.45,12.42-2.6,24.94-5.1,36.63-10.34C896.48,3.78,899.8,2,903.11.25l.46-.24h-4.78a89.26,89.26,0,0,1-14.58,6.22c-10.92,3.51-22.13,5.92-33.29,8.51-.78.18-1.37.34-1.71-.81C847.59,8.43,844.42,4,840.77,0h-3.15c.67.72,1.34,1.45,2,2.2A40.53,40.53,0,0,1,846.25,12c.77,1.7,1.26,3.51.37,5.3-5.49,11.12-9.43,23.21-17.81,32.59-4.29,4.8-4.71,9.07-2.73,14.71A58.59,58.59,0,0,1,829,90.51a10.47,10.47,0,0,1-2.88,6.66,268.43,268.43,0,0,0-20.39,22.9,40.3,40.3,0,0,0-6.24,12c-3.51-3.92-4.78-8.41-5.68-12.85-3.5-17.28-6.9-34.58-10-51.94-1.27-7.21.67-14.39,1.93-21.5,2.73-15.4,6.57-30.55,10-45.79h-2.13a4.93,4.93,0,0,1-.55,0c-3.34,14.77-6.6,29.56-9.64,44.4-1.83,8.93-3.66,18-1.42,27.21.92,3.83,1.52,7.75,2.26,11.63,2.32,12.11,4,24.35,7,36.34,1.13,4.58,2,9.5,5.42,12.92s1.13,8.12,2.89,11.84c-2.42,1.83-2.15,5.3-4.28,7.22a49,49,0,0,0-11.84,16.15c-2,4.46-4.57,8.7-6.86,13-.36.67-1.09,1.63-.87,2.05,1.41,2.73-.87,4.44-1.59,6.57-.26.77-1.13,1.52-.32,2.37s1.76.12,2.58-.29c1.55-.77,3.47-2.55,4.54-2.14,2.3.89,3.73-.36,5.41-1,2.7-1,5.29-2.31,8-3.43,8.07-3.38,16.31-6.48,21.79-13.92.12-.15.27-.27.4-.41.57-.61,1.16-.67,1.68,0,1.42,1.86,2.57.87,3.77-.28,1.4-1.33,2.88-2.57,4.28-3.9a3,3,0,0,1,2.55-1,36,36,0,0,0,13.73-1.43c1.77-.49,2.58,0,3.41,1.5,2.38,4.31,4.87,8.55,7.36,12.79a50.81,50.81,0,0,0,9.48,12.34,10.31,10.31,0,0,0,9.32,2.7,24.77,24.77,0,0,0,11.74-5.93,3.85,3.85,0,0,1,4.38-.74C904,192,919.8,197.41,935.83,202c6.5,1.86,13.1,3.2,20,2.1s12.27-5.2,11.55-13.53a33.32,33.32,0,0,0-.89-6.57c-.78-2.59.08-3,2.48-3.11,7.95-.37,15.71-1.71,22.8-5.65,5.38-3,7.71-7.37,6.85-13.43a52.88,52.88,0,0,0-1.82-8.46c-2.6-8.37-7.82-14.26-16.48-16.75-.55-.17-1.41.09-1.68-.87,4.85,0,9.67,0,14.49,0a19.9,19.9,0,0,1,6.21,1c24,7.33,47.16,16.94,70.75,25.38a177.61,177.61,0,0,0,79.77,9.42,300.43,300.43,0,0,0,60.73-12.86,18.63,18.63,0,0,1,9.65-.8c8.88,1.83,17.79,3.46,26.63,5.4q87.36,19.26,174.69,38.64c5.21,1.16,10.56,1.85,15.57,3.85,2.94-.12,5.69.93,8.5,1.51,5.76,1.2,11.48,2.55,17.22,3.8.69.16,1.64.61,1.93-.51S1464.17,209.26,1463.39,209.06ZM810.25,153.89c-1.78-.79-2.93-2.33-4.17-3.84.13-.27.18-.61.36-.71a.81.81,0,0,1,.76,0c1.24,1.17,2.49,2.35,3.63,3.63C811.12,153.34,810.85,154.15,810.25,153.89Zm-3.67-30.5c.07,0,.25.17.37.26l-.43.53-.5-.35A2.93,2.93,0,0,1,806.58,123.39Zm-.56,7.3a7.75,7.75,0,0,1,1.47-3.7c7.11-8.26,14.69-16.06,22.54-24.46a202,202,0,0,0,3.61,21.59,25.14,25.14,0,0,0,10.66,15.25c1.41.95,1.69,1.64.61,3.14-3.89,5.41-8.15,10.44-14.83,12.29C815.4,158.85,802.73,146.09,806,130.69Zm-2.53-2.49a5,5,0,0,1,2-3.41c.67,1.94-1.35,2.67-1.31,4.1a26.23,26.23,0,0,0,1.9,18.72c.27.56,1.06,1.21.31,1.73-.92.65-1.31-.44-1.7-1C800,141.91,800.44,135.13,803.49,128.2Zm.75,49.79-20.11,8.72c-2.35,1-2.82-1.4-4.06-2.31-.82-.61-2.11-1.29-1.29-2.8,3.6-6.67,7.2-13.35,11-20.32,5.12,5.12,10,10,14.91,14.88C805.59,177.1,805.25,177.55,804.24,178Zm3.46-2.42a5.05,5.05,0,0,1-1.31-1.1c-4.63-4.63-9.21-9.31-13.91-13.87-1.21-1.18-1.13-1.87.06-2.93,2.21-2,4.16-5.57,6.48-5.79s4.28,3.61,6.4,5.65c3.05,2.94,6,6,9,9,.41.41.79.83,1.12,1.17C815.57,168.34,808.12,175.79,807.7,175.57ZM824,165.39c-3.57,3.74-3.57,3.74-7.08.19q-4.56-4.61-9.09-9.24l-.58-.59-.55-.57c-.2-.2-.4-.41-.59-.62s-.38-.42-.57-.63l-.59-.52-.58-.56-.58-.56-3.53-3.36c-.45-.42-.77-.84-.13-1.39s1-.25,1.38.3l2.69,4,.55.61.56.6.55.6.6.56.62.54.6.55.58.58c5.07,3.43,10,7.08,16,8.75A2.8,2.8,0,0,1,824,165.39ZM929.1,119.74c.11-.62.8-.76,1.72-.73a4.24,4.24,0,0,1,.78.28c5.9,2.82,11.17,6.43,14.9,12,.53.8,1.29,1.7.24,2.52-.85.66-1.42-.19-1.84-.81-3.58-5.39-8.59-9-14.37-11.69C929.87,121,928.92,120.73,929.1,119.74Zm-22.78,10.64c.3-.36.65-.68.93-1a3.5,3.5,0,0,1,1.93,1.37,18.77,18.77,0,0,1,4.69,10.32,3,3,0,0,0,2.63,2.83c2,.49,3.83,1.25,5.74,1.89.88.3,1.42.61,1.09,1.8-.43,1.54-1.16.35-1.72.32s-.88-.37-1.35-.46c-5.41-1.07-9.51-3.25-9.74-9.73-.08-2.37-1.91-4.33-3.72-6C906.41,131.4,905.75,131.08,906.32,130.38Zm-7.21,11.83c.12-1,.87-1.17,1.69-1.05,2,.29,4,.65,5.92.93.89.12,1.54.52,1.39,1.43s-1,1-2.26.83c-1.53-.25-3.51-.57-5.47-.91C899.7,143.32,899,143.09,899.11,142.21Zm-37,34.69c-.42,2.79-.08,5.7-.08,8.55-5-5.32-8.33-11.56-11.92-17.59-3-5.15-3-5.16,2.63-7.08,4-1.34,4-1.33,6.12,2.38C861.36,167.42,862.92,171.8,862.14,176.9ZM871.28,191a7.39,7.39,0,0,1-3.95-.45c-1.76-.75-3.32-1.56-2.89-4.17.34-2-.15-4.22-.3-6.85,1.63-6.95-.28-13.63-4.6-19.72-.7-1-.29-1.26.63-1.6,6.05-2.23,12.24-4.11,18.11-6.82.93-.43,1.66.06,2.41.52a33.67,33.67,0,0,0,5.25,3c4.16,1.54,5.08,4.63,5,8.61a57.14,57.14,0,0,1-.68,9.79C888.62,181.75,879.78,189.89,871.28,191Zm57.15,6.38c-5.07-1.55-10.08-3.27-15.15-4.82-1.63-.49-2.57-1.08-3-3-.44-2.23-1.48-4.36-1.63-6.7-.25-3.83,1.13-5.4,4.91-5.38,9.53,0,18.64,2.68,27.86,4.62,1.23.26,1.48,1,1.41,2.07a36.24,36.24,0,0,0,3.35,17.62C939.8,201,934.12,199.17,928.43,197.42Zm27.45,4.26c-8.57,1-6.65,2-9.4-6.28a31.29,31.29,0,0,1-1.16-12.29c.1-1.32.07-2.38-1.65-2.81-9.44-2.34-18.86-4.83-28.64-5.13-7.24-.22-9.78,3-8.42,10.15.31,1.59.85,3.15,1.29,4.72l.22.6-.67-.1q-9-3-18.09-6c-.71-.24-2-.18-.9-1.6,5-6.62,5.14-14.33,4.58-22.1-.14-2,.27-2.91,2.05-3.75,7.69-3.65,15.49-6.85,24.08-7.71a14.43,14.43,0,0,1,7.12.64c6.78,2.85,14,4.66,20.29,8.67,9.87,6.31,15.36,15.64,17.87,26.87a28.47,28.47,0,0,1,.62,6.9C964.93,197.66,962,201,955.88,201.68Zm33-27.68c-1.4,1.56-3.39,1.75-5.25,2.22a63.74,63.74,0,0,1-16.69,2.57c-1.86.09-2.27-1-2.46-2.42-3.4-5.78-6.52-11.76-11.64-16.32-.93-.82-.38-1.53.2-2.23a7.8,7.8,0,0,1,5.2-2.84c7.83-1,15.68-1.79,23.58-2.12,3.14-.12,5,1.17,5.93,4.25a34.49,34.49,0,0,1,1.89,10.45c-.05,2.68-1.14,4.25-3.91,4.82a96,96,0,0,1-18.37,1.69c-1.45,0-3.12-.23-2.71,2.14a81.52,81.52,0,0,0,19-.93l5.23-1.3a.6.6,0,0,1,.73-.55c.1,0,.17.21.26.32Zm6.94-15.38a31.43,31.43,0,0,1,.65,6.91,8.41,8.41,0,0,1-5.88,7.25c2.52-6.19.73-12-1.19-17.73a6,6,0,0,0-5.51-4.35c-4.66-.54-9.22.34-13.82.75-3.94.36-7.89.6-11.81,1.1a10.53,10.53,0,0,0-7.36,4.14c-.46.63-.69,1.35-1.75.7-5.49-3.41-11.55-5.65-17.85-8.35,5.52-5.22,11.1-9.59,17.84-12.31a23.17,23.17,0,0,1,13.85-1c4.25.9,8.54,1.51,12.81,2.3C987.29,140.18,993.9,147,995.77,158.62Z" transform="translate(0.39 16.09)"/><path class="cls-4" d="M637.58,622.29c2.33,7.36,4.26,14.81,6,22.31H646c-2.23-9.69-4.8-19.31-8-28.79a143.82,143.82,0,0,1-7.63-39.33c-.53-12.35,2.33-24,10.63-33.69a6.83,6.83,0,0,0,1.55-3.63c2-13.34,3.74-26.73,8-39.62a25.23,25.23,0,0,1,24.9-17c24.11,1.1,48.24,1,72.37.42a157.24,157.24,0,0,1,22.24.89c7.5.87,13.43,4.1,17.81,10.46A480.85,480.85,0,0,1,820.43,549c4.33,8.5,7.73,17.23,7.8,27a26.76,26.76,0,0,1-4,14.57c-3.69,6-6.12,8.6-9.63,10.5a1.31,1.31,0,0,0-.39.42c-2.73,3.7-6.39,3.71-10.41,2.81-5.55-1.25-5.57-1.17-6.2,4.37-.06.46.07,1-.5,1.21-.75.27-1-.44-1.29-.85a55,55,0,0,1-5.59-8.77,18.09,18.09,0,0,1-2.37-8.77,26.65,26.65,0,0,0-5-16c-6.79-9.6-14.07-18.86-20.13-29-.8-1.33-1.9-1.34-3.19-1.42-5.88-.35-11.61.83-17.7-.7-10.61-2.68-21.62-3.79-32.46-5.55-5.89-1-11.77-1.93-17.67-2.86-1.52-.24-3.86-2.23-4.36.07-.42,1.92,2.54,2,4.24,2.3,14,2.32,27.92,4.83,42,6.73,8.62,1.17,16.35,3.49,22.07,10.48,8.27,10.08,17.52,19.27,26.44,28.75a12,12,0,0,1,3.32,11.63,44.42,44.42,0,0,1-3.95,11.42c-5.4,10.24-18.68,16.63-29.81,14.4-5.4-1.08-8.2-4.91-7.48-10.22.16-1.15.23-2.25,1.85-1.06,3,2.19,6.38,2.49,9.92,2,1-.14,2.47-.06,2.29-1.53-.2-1.63-1.66-.9-2.6-.81-4.25.37-8.08-.23-10.78-4a5.35,5.35,0,0,0-1.86-1.31c-3.9-2.1-7.88-4.07-11.7-6.29-2.58-1.5-5-2-7.94-1a13.16,13.16,0,0,1-6.88.18A148.92,148.92,0,0,0,694,595.43c-6.8-.16-13.39-2-17.91-7.91-.58-.75-1.08-1.91-2.22-1s-.11,1.73.4,2.45c3.85,5.28,9.5,7.36,15.6,8.42,3.14.55,6.36.64,10.16,1-6.82,4.87-13.7,5.27-20.85,3.4a68.11,68.11,0,0,1-7.54-2.85c-.73-.29-1.32-.3-1.76.39s.07,1.26.67,1.62a14,14,0,0,0,1.55.78,33,33,0,0,0,20.73,2.95c-5.71,5.75-11.83,9-19.53,9a60,60,0,0,1-14.62-1.76c-.78-.2-1.88-.5-2.19.67s.66,1.41,1.52,1.68a46,46,0,0,0,19.19,1.54c4.34-.5,8.62-1.8,11.84-4.87,2.82-2.69,5.79-2.79,9.29-2.3,5.34.74,10.77,1.56,16.12.39,4.75-1,8.72.33,12.49,3,4,2.81,8,5.78,12.1,8.42s8.25,4.92,13.37,4.86c11.47-.14,21.27-4.11,29.24-12.38,1.54-1.58,2.23-1.77,3.31.52,1.81,3.81,5,6.69,9.34,5.91a77,77,0,0,1,10.5-1.14,12.72,12.72,0,0,0,11.7-9A53.45,53.45,0,0,1,825,593.42c5.31-6.94,6.62-14.83,5.32-23.27-.52-3.36-1.24-6.67-1.92-10.27a28.6,28.6,0,0,0,2.92,1.34c3.05,1,6.15,2.87,9.12-.21.41-.44.9-.2,1.33,0,5.79,2.5,11.4,1.13,16.84-1s10.36-6.5,9.14-13.32c-.38-2.09-.58-4.2-1-6.28-1.48-7.85-3.49-15.6-2.48-23.75.62-5-.31-9.94-1.43-15.16a4.37,4.37,0,0,1,2.14,2.37c5.45,9,10.82,18,16.36,27a5.6,5.6,0,0,1,.52,5.34c-4.77,14-10.19,27.67-15.78,41.33-7.85,19.17-15,38.62-23.86,57.4a92.1,92.1,0,0,1-5.32,9.74h2.75a86.93,86.93,0,0,0,6.65-12.76c12.62-30.05,24.9-60.23,36.4-90.72.55-1.46,1-3,1.65-4.92a29.84,29.84,0,0,1,1.8,2.67A43.83,43.83,0,0,0,899.26,554c11.35,8.65,22.3,17.82,33.43,26.76.77.61,1.48,1.77,2.72,1.07s.46-1.84.24-2.81c-3-13.11-6.21-26.17-8.8-39.35a57.38,57.38,0,0,0-9.37-22.07c-6.1-8.79-11.65-18-17.51-26.91a5,5,0,0,1-.81-4.32,278.16,278.16,0,0,0,7.13-36c1.24-10.68,1.83-21.37-.83-31.93-2.17-8.62-8.83-13.16-17.67-12.24a29.58,29.58,0,0,0-16.2,7c-1.39,1.16-2.11,1.2-3.44-.16-5.65-5.8-11.39-11.54-18.36-15.82-4.77-2.93-9.44-6-14.22-8.92a14.1,14.1,0,0,1-4.68-4.57q-29.77-46.22-59.62-92.38-16-24.8-32-49.59c-2-3.11-4.33-5.82-8.16-6.39-6.66-1-11.6,2.14-15.37,7.26-3.44,4.68-2.93,9.36.06,14.26q22.13,36.32,44,72.78c7.43,12.3,14.83,24.62,22.31,36.89,1.08,1.76,1.21,2.73-.67,4.13-2.78,2.07-4.9,4.9-7.08,7.61-11.19,13.91-21.32,28.62-32,42.91-9.29,12.42-9.3,12.4-23.94,17.42A240.15,240.15,0,0,0,687,451.88c-8.61,4.39-13.37,10.74-12.93,20.59a28.35,28.35,0,0,0,.17,4.62c.51,2.45-.51,2.89-2.74,3.31-11,2.05-19.62,7.08-23.25,18.57-3.75,11.92-5.75,24.18-7.48,36.49a14.15,14.15,0,0,1-2.85,7.34c-4,5.08-7.52,10.54-8.54,17.15a86.5,86.5,0,0,0-1,20.35C629.53,594.76,633.24,608.58,637.58,622.29Zm159.7-11.74s-.12-.11-.18-.17l.33-.19.21.19A1.69,1.69,0,0,1,797.28,610.55ZM808.15,615c-3.55,1.69-4.77,1.36-6.75-1.85-1.43-2.31-1.67-3.85-1.18-7.59,5.28,1.42,10.65,3.4,15.47-1.94C814.66,608.78,812.77,612.8,808.15,615Zm118.64-63.46c1.93,8.42,3.89,16.83,6,26-4.74-3.93-8.93-7.42-13.11-10.91-2.15-1.78-4.23-3.65-6.44-5.35a2.56,2.56,0,0,1-1-3.42c1.75-4.69,7.13-8.38,11.91-8C925.33,550,926.45,550.06,926.79,551.54Zm-4.27-19.64c1.19,5.13,2.3,10.28,3.52,15.76a13.63,13.63,0,0,0-9.93,2.09,14,14,0,0,0-6.1,7.43c-.33,1-.48,1.93-1.82.83-4.55-3.72-9.31-7.2-13.68-11.13-3.25-2.92-3.65-6.84-2.14-10.92a20.37,20.37,0,0,1,20.06-12.75C917.85,523.66,921.29,526.58,922.52,531.9Zm-6.41-12.45c.35.55.9,1,.77,1.83-13.67-1.79-23.12,3.44-27.81,16.71-.73.07-.81-.63-1.06-1q-20-33-39.94-66.06a16.57,16.57,0,0,1-.82-1.82c-.08-.21-.26-.56-.22-.59.3-.2.4,0,.49.28A141,141,0,0,0,860,479.05c9,6.42,18.41,6.73,28,1.73,1.89-1,2.68-.77,3.81,1C899.85,494.38,908,506.9,916.11,519.45ZM872.18,415.62c3.74-3.82,15.55-9.57,22.93-6.29,4.95,2.21,7.59,6.18,8.51,11.25,2.89,15.77.61,31.32-2.52,46.79-1.19,5.92-2.63,11.78-4.12,18.33-.71-.92-1-1.27-1.28-1.67-1.09-1.7-2.86-3.34-3.06-5.15s2.44-2.83,3.73-4.28c4.3-4.85,4.71-10.06,2.1-15.81-4.09-9-9.74-17.06-15.39-25.11-3.6-5.14-7.05-10.37-10.57-15.55C872,417.33,871.2,416.62,872.18,415.62ZM717.55,255.09c-4.11-6.74.45-14.8,8.74-17.23,4.65-1.36,7.73,0,10.67,4.6q36.38,56.22,72.73,112.46c5.91,9.14,11.73,18.34,17.59,27.52.11.11.34.31.32.33-.24.35-.41.13-.57-.09a142.57,142.57,0,0,1-18.78-11.34c-6.33-4.55-13-4.78-20-3.56a2.77,2.77,0,0,1-3.43-1.57Q751.24,310.61,717.55,255.09Zm21.36,174.62c13.68-17.46,26.05-35.89,40-53.18,6-7.44,13.61-7.37,21.72-6.72a5.36,5.36,0,0,1,2,1c16.07,9.93,32.32,19.61,48.14,29.93a75.35,75.35,0,0,1,21.71,21.39c2.44,3.67,4.9,7.32,7.5,11.18-7.42,0-10.94,5.61-15.43,9.83-4.18,3.94-3.92,8.13-1.9,13,4.34,10.55,20,17,28.37,16.12,1.58-.16,2.84-1.22,4.52-1.72-.23-2-.81-2.78-2.78-1.37-1.47,1.06-3.37,1-5.07.73-7.72-1.15-14.59-4.08-19.93-10a16.9,16.9,0,0,1-1.68-2.34c-3.6-5.85-3.5-8.45.93-13.5,2.27-2.6,4.55-5.27,7.61-7.05,4-2.33,7.08-1.77,9.58,2.07,4.92,7.59,10.49,14.81,13.19,23.65.9,2.94.53,5.57-1.71,8.67a4.07,4.07,0,0,1-1.52,2.08c-9,8.66-22.48,12.45-35.45,1.86-7.32-6-14.06-12.44-18.87-20.57-4.21-7.14-9.74-12.23-17.87-14.31-3-.77-5-2.82-7-5.17-6.36-7.42-13.19-14.36-22.46-18.26a20,20,0,0,0-13.55-.84,346.15,346.15,0,0,0-36.23,12.82c-1.07.43-2.16.82-3.24,1.23-.3.2-.64.42-.91,0C738.51,430.25,738.79,429.92,738.91,429.71ZM842.74,468.5,822.45,444c-.24-.13-.55-.28-.3-.58.08-.09.47.07.72.12,5,1.27,8.71,3.78,11.06,8.66,2.24,4.65,5.28,8.92,7.94,13.37C842.39,466.46,843.32,467.23,842.74,468.5Zm-166.18,1.33c.28-6.89,3.4-11.72,9.53-15a180.86,180.86,0,0,1,28.83-12.62c13.94-4.6,27.16-11,41-16,7.16-2.58,14.35-5.06,21.61-7.37,8.57-2.73,15.7-.18,22.37,5,6.37,4.93,11.69,10.88,16.85,17,12.26,14.64,24.9,29,36,44.58A48.39,48.39,0,0,1,861.74,519c-.32,3.39,1.46,7.27-2.62,10.24-3.11,2.26-5.35,5.79-8.74,7.92-1.78,1.12-3.7,2.06-5.58,3-5.41,2.73-6.59,11.19-2.13,15.27.54.49,1.06.92,1.77.44.88-.61.55-1.33.06-2a10.12,10.12,0,0,1-2-4.42c-.56-3.33.66-5.83,3.75-7.25a37.39,37.39,0,0,0,14.16-11.15c.42-.53.8-1.09,1.68-2.3,1.47,6.93,2.95,12.79,3.47,18.85a7.59,7.59,0,0,1-3.45,7.47c-10.6,7-20.63,6.56-29.11-3.8-5.39-6.57-8.15-14.38-11.33-22-1.56-3.73-2.9-7.56-4.22-11.38a7.86,7.86,0,0,0-1.64-2.67c-5.72-6.53-11.31-13.18-17.19-19.56-3.61-3.92-8.42-6.41-12.75-9.46-4.88-3.43-8.21-7.75-9.39-13.66-.2-1-.15-2.5-1.68-2.16s-.85,1.75-.67,2.68a22.56,22.56,0,0,0,4.11,9.47c-2.74.21-4.92-.9-7.23-1.16a206.45,206.45,0,0,0-29.21-.77c-20.84.61-41.68.39-62.52-.31-1.8-.06-2.65-.47-2.6-2.41C676.73,475.23,676.45,472.54,676.56,469.83Z" transform="translate(0.39 16.09)"/><path class="cls-4" d="M1111.91,593.42c1.8,15.81,2.91,31.7,4.33,47.56.11,1.21.24,2.41.36,3.62H1119q-1.92-17.34-3.35-34.73c-.27-3.18-.93-6.35-.33-9.65,2.38,4.18,4.44,8.48,6.63,12.72,5.24,10.11,12.37,18.16,23.83,21.32a48.45,48.45,0,0,0,20.92.87c2.31-.38,4.28-.32,6.22,1.15a45.36,45.36,0,0,0,5.39,3.36c1.24.67,1.42,1.39,1.12,2.77l-.45,2.19h2.49c1.43-6.53,3-13,4.79-19.5,7.74-28.07,21.17-52.6,43.47-71.93,8-7,14.9-15.09,19-25.16,1.25-3,2.94-5.86,4.44-8.78a6.94,6.94,0,0,0,.86-3c.41-12.44,1.14-24.89.68-37.34-1-28.23,8.61-52.95,24.53-75.61a39.52,39.52,0,0,1,20.46-15.39c4.2-1.35,8.19-.72,12.39.64-.81,1-1.65.78-2.38.83-4.66.37-8.14,2.25-10.21,6.77-3,6.5-5.69,13.07-7.1,20.09-.6,3-1.37,6.14.17,9.08,2.28,4.35,11.61,8.28,16.48,7.07.85-.2,1.86-.32,1.74-1.5-.14-1.37-1.24-.9-2-.83a18.25,18.25,0,0,1-11-2.82c-3-1.77-4.08-4.33-3.52-7.81a78.87,78.87,0,0,1,7.83-23.15,5.8,5.8,0,0,1,2.39-2.83c4.88-2.47,10.12-1.63,15.27-1.61.24,0,.47.31.72.46,2.88,1.66,2.89,4.23,2.3,7.05a135.66,135.66,0,0,1-5.86,19.35c-5,13.57-8.72,27.36-8.12,42a76.33,76.33,0,0,1-.69,9.52c-1.74,19.7-3.72,39.38-3.75,59.2,0,10.81-.38,21.63-1.39,32.39-2.39,25.54-5.48,51-8.86,76.44-.28,2.11-.52,4.23-.74,6.35h2.38c1.84-15.06,3.74-30.11,5.51-45.17,2.07-17.53,4.44-35,5-52.71.72-24.79,1.31-49.58,4-74.26.3-2.79.59-5.57.89-8.35a56.35,56.35,0,0,1,3.49,9.35c2.4,8.13,5.18,16.17,6.6,24.55,1.76,10.4,1.8,20.94,2,31.46.37,24.47-.92,48.78-6.56,72.71a324.37,324.37,0,0,1-13.42,42.42h2.39c.56-1.47,1.13-2.94,1.73-4.4,5.52-13.39,9.18-27.38,12.32-41.53a253.74,253.74,0,0,0,5.23-41.27c1-17.95,1.3-35.9-.55-53.79-1.35-13.1-6-25.48-9.66-38.07-.93-3.23-2.24-6.35-2.72-9.72-1.08-7.54.44-14.77,2.57-21.94,3.34-11.27,7.88-22.17,10.51-33.66.76-3.3,1.13-6.66-2-9-7-5.13-14.66-7.59-23.37-5.76-1.18.25-2.18,1.24-3.79.88l6.75-16.3q27.75-66.82,55.49-133.66c2.46-5.93,1.46-8.27-4.53-10.7L1342.09,221c-5.67-2.3-8-1.34-10.32,4.34-5,12.06-9.87,24.13-14.85,36.18q-15,36.36-30.09,72.69l-14.3,34.49a3.38,3.38,0,0,1-.86-.49c-6.49-8.09-15.21-13.3-24.1-18.16-9.26-5.06-19.11-8.28-29.88-7.57-7.64.5-12.11,5.11-12,12.44a29.07,29.07,0,0,0,3.4,12.74,74.21,74.21,0,0,0,16.39,21.15,13.17,13.17,0,0,1,2.91,3.18q9.28,16.86,18.66,33.65a4.38,4.38,0,0,1,.17,4.32c-2.62,6.1-5.11,12.27-7.65,18.41-1,2.41-2,4.81-3.3,7.87-3.16-6.74-7-12.29-9.39-18.63-3.29-8.68-8.1-15.85-18.43-17a46.9,46.9,0,0,0-8.38.05c-13.15.83-21.21,7.22-25.24,19.66-3.5,10.82-5,22-5.79,33.25-.13,2.1-.48,2.65-2.62,1.85-5.64-2.13-11.17-1.49-16.51,1.16-11.54,5.72-19.59,21.49-18,35.33a97.59,97.59,0,0,0,2,12.55c-1.54-.14-2.76-.3-4-.36-7.84-.4-14.79,1.5-19.62,8.18a46.2,46.2,0,0,0-6.21,13c-2.94,9-1.83,17.81,1.28,26.61C1107.88,579,1111.06,586,1111.91,593.42Zm57.42,25.92c-4.19,5.95-12.82,8.77-19.84,6.51a1.93,1.93,0,0,1-1.58-1.61c-.63-2.38-2.63-4.2-3.23-7,6-.22,11.7-.93,16.4-4.9a2,2,0,0,1,2.88.06c1.82,1.57,3.58,3.21,5.41,4.76C1170.34,618,1169.86,618.58,1169.33,619.34Zm54.55-63.83a95.28,95.28,0,0,0-11.32,11.93c-1,1.27-2.21.89-3,.95-3.65.08-6.2-1-7.74-4.07-.77-1.54-1.88-2.9-2.8-4.37s-3-3.63-2.63-4.58c1.91-4.27.21-9.68,4.73-13.19,4-3.14,7.18-3.9,11.53-1.19,4.95,3.07,8.26,7.71,11.59,12.33C1224.93,554.28,1224.6,554.84,1223.88,555.51Zm104.27-315c2.27-5.09,4.3-10.29,6.5-15.42,1.27-3,2.47-3.45,5.42-2.25,4.63,1.88,9.24,3.82,13.86,5.75,1.68.7,3.11,1.6,2.93,3.85-.19.55-.39,1.2-.64,1.82-2.09,5.07-4.22,10.12-6.25,15.22-.61,1.54-1.24,2-3,1.28-5.82-2.55-11.69-5-17.58-7.33C1327.89,242.77,1327.37,242.2,1328.15,240.47Zm-6.69,16c1.5-3.44,3-6.89,4.32-10.39.48-1.25,1-1.32,2.13-.87,6.22,2.59,12.46,5.12,18.67,7.71.55.23,1.43.25,1.32,1.31-.08.2-.16.48-.27.75-1.44,3.46-2.93,6.9-4.31,10.39-.46,1.18-1,1.39-2.15.89q-9.3-3.93-18.67-7.69C1321.42,258.18,1320.91,257.77,1321.46,256.52Zm-87.93,139.84a44.22,44.22,0,0,0-8.41-11.21c-7.47-7.23-13.84-15.31-16.46-25.71a18.52,18.52,0,0,1-.56-2.84c-.71-7,2.89-11.22,10-11.72,7.48-.53,14.57,1.15,21.39,4a88.69,88.69,0,0,1,29.87,19.9c1.68,1.72,2,3.27,1,5.58-6.66,15.78-13.16,31.63-19.73,47.45a4.87,4.87,0,0,1-1.58,2.66C1243.8,415.09,1238.54,405.79,1233.53,396.36Zm85.37-133.42c.91-2.22,1.66-2.58,3.86-1.57,5.6,2.55,11.32,4.84,17,7.12,1.63.65,1.88,1.31,1.19,3q-23.91,57.58-47.7,115.21a4,4,0,0,1-1.67,2.27c-7.95,4.38-13.36,11.24-18.16,18.68-11.55,17.87-18.93,37.27-20.84,58.54-.48,5.27-.14,10.61-.09,15.92a14.76,14.76,0,0,1-1.15,5.89c-5.6,13.44-11.13,26.91-16.71,40.36a5.43,5.43,0,0,1-1.72,2.8c-2.07-6.68-3.64-13.26-6.18-19.45-2.1-5.13-.53-9.76.22-14.61a23.33,23.33,0,0,0,.6-4.87c-.63-9.49,3.7-17.58,7.15-25.91Q1276.84,364.61,1318.9,262.94Zm-143.47,184c1.25-4.92,2.53-9.91,5.58-14.16,4.56-6.37,11.09-9,18.59-9.67,1.82-.17,3.67,0,5.49-.13,8.62-.71,14,3.87,17.67,11a44.72,44.72,0,0,1,3.82,30.07,43.13,43.13,0,0,0-.64,8.91c0,10.6.32,21.23-2.9,31.54a5.4,5.4,0,0,0,.42,3.38c3.62,11.56,7.35,23.09,10.09,34.91.41,1.82.28,3.09-1.14,4.35-2,1.72-3.59,4.8-5.64,5-1.66.2-2.9-3.56-4.52-5.4a46.06,46.06,0,0,0-7.48-7.22c-6.31-4.53-12.07-3.22-17.08,3-2.3,2.85-2.87,6.35-2.72,10.84l-10.57-16.77c-.92-1.47-1.71-3-2.76-4.4-8-10.34-10.41-22.45-10.7-35.05C1170.55,480.29,1171.25,463.43,1175.43,446.93ZM1136,497.12c3.23-8.45,8-15.92,17.06-19.25a18.61,18.61,0,0,1,13.56,0,2.93,2.93,0,0,1,2.18,3.44,143.92,143.92,0,0,0,0,20.24c.81,10.73,3.2,20.8,9.38,29.92,5,7.39,10.24,14.73,13.25,23.28A35,35,0,0,1,1193,560c1.31,7.09,5.25,13,8.61,19.13a3.33,3.33,0,0,1-.13,3.9c-1.84,3.05-3.55,6.19-5.16,9.36a3.4,3.4,0,0,1-3,2.11c-4.22.46-8.43,1.15-12,3.67a5.69,5.69,0,0,0-2.27,7.1c1.06,2.44,3.08,3.29,5.64,3.09,1-.08,2.16,0,2.15-1.33s-1.15-1-2-1c-1.68-.06-3.36-.15-3.83-2.25s.7-3.25,2.37-4.12c3.29-1.71,6.84-2.37,10.64-3-1.79,4.41-3.39,8.53-5.13,12.6-1,2.26-4.84,3.27-7.91,2.09-4.58-1.75-7.81-5.21-10.83-8.88a129.72,129.72,0,0,1-24.25-45.57c-3.26-10.88-6.91-21.65-9.42-32.74C1134.37,515.21,1132.54,506.08,1136,497.12Zm-23.29,36.1c4.37-6.18,13.31-8.57,20.33-6.38,1.4.44,1.52,1.52,1.87,2.64,4.79,15.52,9.34,31.11,15.37,46.23,3.34,8.37,9,15.23,13.63,22.72,2.35,3.76,4.8,7.46,7.39,11.05a5,5,0,0,1,.67,4.59c-.37,1.48-.81,1.51-1.84.56q-2.24-2-4.61-4c-2-1.65-4-1.84-6.24,0-4,3.29-8.82,4.15-13.84,4.12-3.44,0-4.16.9-2.94,4.11a25.93,25.93,0,0,0,1.28,2.59c.4.76.83,1.51,1.61,2.92-6.5-2.81-11.42-6.6-16.17-10.67-8.61-7.36-13.43-17-16.61-27.61-2.26-7.56-5.45-14.84-7.1-22.57C1103.09,552.37,1106.28,542.26,1112.68,533.22Z" transform="translate(0.39 16.09)"/><path class="cls-4" d="M777.48,490.72a5.65,5.65,0,0,1-.81,1c-5.72,4.55-9.09,10.86-12.75,17a12.83,12.83,0,0,1-.9,1.47,1,1,0,0,1-1.26.35,1,1,0,0,1-.57-1.2,3.62,3.62,0,0,1,.36-1.08c3.56-6.17,7.11-12.35,12.43-17.25a7.93,7.93,0,0,1,2.13-1.42C776.91,489.22,777.33,489.78,777.48,490.72Z" transform="translate(0.39 16.09)"/><path class="cls-5" d="M782,497.61c-.17.31-.37.74-.61,1.15a42.23,42.23,0,0,1-7.26,9.3c-.63.6-1.32,1.75-2.35.62-.79-.87-.06-1.6.59-2.2a42.41,42.41,0,0,0,7.21-9.33c.34-.57.65-1.31,1.5-1A1.35,1.35,0,0,1,782,497.61Z" transform="translate(0.39 16.09)"/><path class="cls-6" d="M907.45,190.55c-6-2-12.06-4-18.09-6-.71-.24-2-.18-.9-1.6,5-6.62,5.14-14.33,4.58-22.1-.14-2,.27-2.91,2.05-3.75,7.69-3.65,15.49-6.85,24.08-7.71a14.43,14.43,0,0,1,7.12.64c6.78,2.85,14,4.66,20.29,8.67,9.87,6.31,15.36,15.64,17.87,26.87a28.47,28.47,0,0,1,.62,6.9c-.14,5.21-3.09,8.51-9.19,9.23-8.57,1-6.65,2-9.4-6.28a31.29,31.29,0,0,1-1.16-12.29c.1-1.32.07-2.38-1.65-2.81-9.44-2.34-18.86-4.83-28.64-5.13-7.24-.22-9.78,3-8.42,10.15.31,1.59.85,3.15,1.29,4.72Z" transform="translate(0.39 16.09)"/><path class="cls-7" d="M830,102.53a204.53,204.53,0,0,0,3.61,21.59,25.14,25.14,0,0,0,10.66,15.25c1.41.95,1.69,1.64.61,3.14-3.89,5.41-8.15,10.44-14.83,12.29-14.68,4-27.35-8.71-24.06-24.11a7.75,7.75,0,0,1,1.47-3.7C814.6,118.73,822.18,110.93,830,102.53Z" transform="translate(0.39 16.09)"/><path class="cls-6" d="M931.25,149c5.52-5.22,11.1-9.59,17.84-12.31a23.17,23.17,0,0,1,13.85-1c4.25.9,8.54,1.51,12.81,2.3,11.54,2.12,18.15,8.91,20,20.56a31.43,31.43,0,0,1,.65,6.91,8.41,8.41,0,0,1-5.88,7.25c2.52-6.19.73-12-1.19-17.73a6,6,0,0,0-5.51-4.35c-4.66-.54-9.22.34-13.82.75-3.94.36-7.89.6-11.81,1.1a10.53,10.53,0,0,0-7.36,4.14c-.46.63-.69,1.35-1.75.7C943.61,154,937.55,151.74,931.25,149Z" transform="translate(0.39 16.09)"/><path class="cls-6" d="M864.14,179.57c1.63-6.95-.28-13.63-4.6-19.72-.7-1-.29-1.26.63-1.6,6.05-2.23,12.24-4.11,18.11-6.82.93-.43,1.66.06,2.41.52a33.67,33.67,0,0,0,5.25,3c4.16,1.54,5.08,4.63,5,8.61a57.14,57.14,0,0,1-.68,9.79c-1.63,8.37-10.47,16.51-19,17.66a7.39,7.39,0,0,1-3.95-.45c-1.76-.75-3.32-1.56-2.89-4.17C864.78,184.38,864.29,182.2,864.14,179.57Z" transform="translate(0.39 16.09)"/><path class="cls-8" d="M964.43,176.37c-3.4-5.78-6.52-11.76-11.64-16.32-.93-.82-.38-1.53.2-2.23a7.8,7.8,0,0,1,5.2-2.84c7.83-1,15.68-1.79,23.58-2.12,3.14-.12,5,1.17,5.93,4.25a34.49,34.49,0,0,1,1.89,10.45c-.05,2.68-1.14,4.25-3.91,4.82a96,96,0,0,1-18.37,1.69c-1.45,0-3.12-.23-2.71,2.14Z" transform="translate(0.39 16.09)"/><path class="cls-8" d="M946.21,201.79c-6.41-.82-12.09-2.62-17.78-4.37-5.07-1.55-10.08-3.27-15.15-4.82-1.63-.49-2.57-1.08-3-3-.44-2.23-1.48-4.36-1.63-6.7-.25-3.83,1.13-5.4,4.91-5.38,9.53,0,18.64,2.68,27.86,4.62,1.23.26,1.48,1,1.41,2.07A36.24,36.24,0,0,0,946.21,201.79Z" transform="translate(0.39 16.09)"/><path class="cls-9" d="M789.73,161.28c5.12,5.12,10,10,14.91,14.88,1,.94.61,1.39-.4,1.83l-20.11,8.72c-2.35,1-2.82-1.4-4.06-2.31-.82-.61-2.11-1.29-1.29-2.8C782.38,174.93,786,168.25,789.73,161.28Z" transform="translate(0.39 16.09)"/><path class="cls-9" d="M815.52,167.69c.05.65-7.4,8.1-7.82,7.88a5.05,5.05,0,0,1-1.31-1.1c-4.63-4.63-9.21-9.31-13.91-13.87-1.21-1.18-1.13-1.87.06-2.93,2.21-2,4.16-5.57,6.48-5.79s4.28,3.61,6.4,5.65c3.05,2.94,6,6,9,9C814.81,166.93,815.19,167.35,815.52,167.69Z" transform="translate(0.39 16.09)"/><path class="cls-8" d="M862.06,185.45c-5-5.32-8.33-11.56-11.92-17.59-3-5.15-3-5.16,2.63-7.08,4-1.34,4-1.33,6.12,2.38,2.47,4.26,4,8.64,3.25,13.74C861.72,179.69,862.06,182.6,862.06,185.45Z" transform="translate(0.39 16.09)"/><path class="cls-10" d="M907.25,129.4a3.5,3.5,0,0,1,1.93,1.37,18.77,18.77,0,0,1,4.69,10.32,3,3,0,0,0,2.63,2.83c2,.49,3.83,1.25,5.74,1.89.88.3,1.42.61,1.09,1.8-.43,1.54-1.16.35-1.72.32s-.88-.37-1.35-.46c-5.41-1.07-9.51-3.25-9.74-9.73-.08-2.37-1.91-4.33-3.72-6-.39-.35-1-.67-.48-1.37C906.62,130,907,129.7,907.25,129.4Z" transform="translate(0.39 16.09)"/><path class="cls-6" d="M808.22,155.93c5.07,3.43,10,7.08,16,8.75a2.8,2.8,0,0,1-.31.71c-3.57,3.74-3.57,3.74-7.08.19q-4.56-4.61-9.09-9.24Z" transform="translate(0.39 16.09)"/><path class="cls-10" d="M983.58,176.22a63.74,63.74,0,0,1-16.69,2.57c-1.86.09-2.27-1-2.46-2.42l.17-.16a81.52,81.52,0,0,0,19-.93Z" transform="translate(0.39 16.09)"/><path class="cls-11" d="M804.16,128.89a26.23,26.23,0,0,0,1.9,18.72c.27.56,1.06,1.21.31,1.73-.92.65-1.31-.44-1.7-1-4.69-6.46-4.23-13.24-1.18-20.17Z" transform="translate(0.39 16.09)"/><path class="cls-10" d="M905.85,144.35c-1.53-.25-3.51-.57-5.47-.91-.68-.12-1.38-.35-1.27-1.23s.87-1.17,1.69-1.05c2,.29,4,.65,5.92.93.89.12,1.54.52,1.39,1.43S907.09,144.5,905.85,144.35Z" transform="translate(0.39 16.09)"/><path class="cls-12" d="M803.75,152.29l-3.53-3.36c-.45-.42-.77-.84-.13-1.39s1-.25,1.38.3l2.69,4A5.18,5.18,0,0,0,803.75,152.29Z" transform="translate(0.39 16.09)"/><path class="cls-11" d="M806.08,150.05c.13-.27.18-.61.36-.71a.81.81,0,0,1,.76,0c1.24,1.17,2.49,2.35,3.63,3.63.29.32,0,1.13-.58.87C808.47,153.1,807.32,151.56,806.08,150.05Z" transform="translate(0.39 16.09)"/><path class="cls-9" d="M983.58,176.22v-.94l5.23-1.3,0,0C987.43,175.56,985.44,175.75,983.58,176.22Z" transform="translate(0.39 16.09)"/><path class="cls-9" d="M988.81,174a.6.6,0,0,1,.73-.55c.1,0,.17.21.26.32l-1,.25Z" transform="translate(0.39 16.09)"/><path class="cls-13" d="M907.9,190l.22.6-.67-.09Z" transform="translate(0.39 16.09)"/><path class="cls-12" d="M807.64,155.35l.58.58-.43.41-.58-.59Z" transform="translate(0.39 16.09)"/><path class="cls-12" d="M804.16,151.89l.55.61a4.27,4.27,0,0,0-.38.36l-.58-.57A5.18,5.18,0,0,1,804.16,151.89Z" transform="translate(0.39 16.09)"/><path class="cls-12" d="M804.91,153.41l-.58-.56.38-.35.56.6A3.65,3.65,0,0,0,804.91,153.41Z" transform="translate(0.39 16.09)"/><path class="cls-12" d="M805.49,153.94l-.58-.53a3.65,3.65,0,0,1,.36-.31l.55.6Z" transform="translate(0.39 16.09)"/><path class="cls-12" d="M806.07,154.57l-.57-.64.32-.23.6.56C806.3,154.36,806.18,154.46,806.07,154.57Z" transform="translate(0.39 16.09)"/><path class="cls-12" d="M806.42,154.26l.62.54a4.68,4.68,0,0,0-.39.38l-.58-.61C806.18,154.46,806.3,154.36,806.42,154.26Z" transform="translate(0.39 16.09)"/><path class="cls-12" d="M807,154.8l.6.55-.43.4-.56-.57A4.68,4.68,0,0,1,807,154.8Z" transform="translate(0.39 16.09)"/><path class="cls-6" d="M862.08,528.81c1.47,6.93,2.95,12.79,3.47,18.85a7.59,7.59,0,0,1-3.45,7.47c-10.6,7-20.63,6.56-29.11-3.8-5.39-6.57-8.15-14.38-11.33-22-1.56-3.73-2.9-7.56-4.22-11.38a7.86,7.86,0,0,0-1.64-2.67c-5.72-6.53-11.31-13.18-17.19-19.56-3.61-3.92-8.42-6.41-12.75-9.46-4.88-3.43-8.21-7.75-9.39-13.66-.2-1-.15-2.5-1.68-2.16s-.85,1.75-.67,2.68a22.56,22.56,0,0,0,4.11,9.47c-2.74.21-4.92-.9-7.23-1.16a206.45,206.45,0,0,0-29.21-.77c-20.84.61-41.68.39-62.52-.31-1.8-.06-2.65-.47-2.6-2.41.06-2.69-.22-5.38-.11-8.09.28-6.89,3.4-11.72,9.53-15a180.86,180.86,0,0,1,28.83-12.62c13.94-4.6,27.16-11,41-16,7.16-2.58,14.35-5.06,21.61-7.37,8.57-2.73,15.7-.18,22.37,5,6.37,4.93,11.69,10.88,16.85,17,12.26,14.64,24.9,29,36,44.58A48.39,48.39,0,0,1,861.74,519c-.32,3.39,1.46,7.27-2.62,10.24-3.11,2.26-5.35,5.79-8.74,7.92-1.78,1.12-3.7,2.06-5.58,3-5.41,2.73-6.59,11.19-2.13,15.27.54.49,1.06.92,1.77.44.88-.61.55-1.33.06-2a10.12,10.12,0,0,1-2-4.42c-.56-3.33.66-5.83,3.75-7.25a37.39,37.39,0,0,0,14.16-11.15C860.82,530.58,861.2,530,862.08,528.81Zm-87.8-88.42c.08.69-.17,1.61.94,1.75s1.35-.87,1.57-1.69c1.92-7.16,4.88-13.59,11.94-17.19.55-.28,1-.7.74-1.37s-1-.87-1.67-.65a7.6,7.6,0,0,0-1.57.7C779.22,426.1,776.34,432.93,774.28,440.39Zm15.34-5.05a3.16,3.16,0,0,0,.85-.44,61,61,0,0,0,6.41-8.51,1,1,0,0,0-.27-1.51,1.12,1.12,0,0,0-1.73.34l-6.09,8a1.16,1.16,0,0,0-.1,1.57A3.5,3.5,0,0,0,789.62,435.34Z" transform="translate(0.39 16.09)"/><path class="cls-6" d="M738.91,429.71c13.68-17.46,26.05-35.89,40-53.18,6-7.44,13.61-7.37,21.72-6.72a5.36,5.36,0,0,1,2,1c16.07,9.93,32.32,19.61,48.14,29.93a75.35,75.35,0,0,1,21.71,21.39c2.44,3.67,4.9,7.32,7.5,11.18-7.42,0-10.94,5.61-15.43,9.83-4.18,3.94-3.92,8.13-1.9,13,4.34,10.55,20,17,28.37,16.12,1.64-.17,2.93-1.29,4.69-1.78.2,1.56-.77,2.25-1.55,3-9,8.66-22.48,12.45-35.45,1.86-7.32-6-14.06-12.44-18.87-20.57-4.21-7.14-9.74-12.23-17.87-14.31-3-.77-5-2.82-7-5.17-6.36-7.42-13.19-14.36-22.46-18.26a20,20,0,0,0-13.55-.84,346.15,346.15,0,0,0-36.23,12.82c-1.07.43-2.16.82-3.24,1.23Zm47.17-44.33c.89.1,1.2-.43,1.54-.89a37.92,37.92,0,0,1,2.33-3.27,26.15,26.15,0,0,1,9.06-6.49c.82-.36,2.06-.75,1.52-2s-1.62-.53-2.42-.18a30.26,30.26,0,0,0-6,3.44,22.14,22.14,0,0,0-6.43,6.92C785.22,383.77,784.7,384.89,786.08,385.38Zm73,27.14c-.1-.82-.76-1.18-1.77-.79-4.29,1.67-8.16,3.95-10.77,7.9a6.41,6.41,0,0,0-.77,1.85c-.15.55-.15,1.2.51,1.49a1,1,0,0,0,1.46-.55c1.9-4.46,6-6.29,9.92-8.37C858.32,413.69,859.07,413.41,859.05,412.52Zm-52.57-36c-.23-1-.72-1.79-1.75-1a53.91,53.91,0,0,1-8.86,5.27,1,1,0,0,0-.48,1.45,1,1,0,0,0,1.37.65,40.24,40.24,0,0,0,9.3-5.62A2.67,2.67,0,0,0,806.48,376.49ZM865,416.83c-.2-.75-.48-1.46-1.54-1-2.38,1-4.76,2-7.12,3-.87.39-1.12,1.51-.32,1.78,2.53.85,4.39-1.3,6.61-1.92C863.56,418.42,864.79,418.25,865,416.83Z" transform="translate(0.39 16.09)"/><path class="cls-6" d="M827,382.68a143.11,143.11,0,0,1-18.77-11.34c-6.33-4.55-13-4.78-20-3.56a2.77,2.77,0,0,1-3.43-1.57q-33.54-55.6-67.23-111.12c-4.11-6.74.45-14.8,8.74-17.23,4.65-1.36,7.73,0,10.67,4.6q36.38,56.22,72.73,112.46c5.91,9.14,11.73,18.34,17.59,27.52Z" transform="translate(0.39 16.09)"/><path class="cls-6" d="M847.52,468.75A141,141,0,0,0,860,479.05c9,6.42,18.41,6.73,28,1.73,1.89-1,2.68-.77,3.81,1,8,12.59,16.18,25.11,24.29,37.66.35.55.9,1,.77,1.83-13.67-1.79-23.12,3.44-27.81,16.71-.72.07-.81-.63-1.06-1q-20-33-39.94-66.06a16.57,16.57,0,0,1-.82-1.82Z" transform="translate(0.39 16.09)"/><path class="cls-6" d="M897,485.7c-.71-.92-1-1.27-1.28-1.67-1.09-1.7-2.86-3.34-3.06-5.15s2.44-2.83,3.73-4.28c4.3-4.85,4.71-10.06,2.1-15.81-4.09-9-9.74-17.06-15.39-25.11-3.6-5.14-7.05-10.37-10.57-15.55-.54-.8-1.31-1.51-.33-2.51,3.74-3.82,15.55-9.57,22.93-6.29,4.95,2.21,7.59,6.18,8.51,11.25,2.89,15.77.61,31.32-2.52,46.79C899.91,473.29,898.47,479.15,897,485.7Z" transform="translate(0.39 16.09)"/><path class="cls-14" d="M895.63,471.54c-.17-2.64-.6-3.92-2.86-2.3-1.47,1.06-3.37,1-5.07.73-7.72-1.15-14.59-4.08-19.93-10a16.9,16.9,0,0,1-1.68-2.34c-3.6-5.85-3.5-8.45.93-13.5,2.27-2.6,4.55-5.27,7.61-7.05,4-2.33,7.08-1.77,9.58,2.07,4.92,7.59,10.49,14.81,13.19,23.65C898.31,465.76,897.93,468.41,895.63,471.54Z" transform="translate(0.39 16.09)"/><path class="cls-6" d="M822.88,443.56c5,1.27,8.7,3.78,11,8.66,2.24,4.65,5.28,8.92,7.94,13.37.52.87,1.45,1.64.87,2.91Q832.59,456.23,822.45,444Z" transform="translate(0.39 16.09)"/><path class="cls-15" d="M739.48,430.3c-.3.2-.64.42-.91,0-.06-.08.22-.41.34-.62Z" transform="translate(0.39 16.09)"/><path class="cls-12" d="M847.25,469.06c-.08-.21-.26-.56-.22-.59.3-.2.4,0,.49.28Z" transform="translate(0.39 16.09)"/><path class="cls-12" d="M827.28,382.44c.11.11.34.31.32.33-.24.35-.41.13-.58-.09Z" transform="translate(0.39 16.09)"/><path class="cls-16" d="M822.45,444c-.24-.13-.55-.28-.3-.58.08-.09.47.07.72.12Z" transform="translate(0.39 16.09)"/><path class="cls-6" d="M1195,553.4c-3.84-6.09-7.21-11.42-10.57-16.76-.92-1.47-1.71-3-2.76-4.4-8-10.34-10.41-22.45-10.7-35.05-.39-16.9.31-33.76,4.49-50.26,1.25-4.92,2.53-9.91,5.58-14.16,4.56-6.37,11.09-9,18.59-9.67,1.82-.17,3.67,0,5.49-.13,8.62-.71,14,3.87,17.67,11a44.72,44.72,0,0,1,3.82,30.07,43.13,43.13,0,0,0-.64,8.91c0,10.6.32,21.23-2.9,31.54a5.4,5.4,0,0,0,.42,3.38c3.62,11.56,7.35,23.09,10.09,34.91.41,1.82.28,3.09-1.14,4.35-2,1.72-3.59,4.8-5.64,5-1.66.2-2.9-3.56-4.52-5.4a46.06,46.06,0,0,0-7.48-7.22c-6.31-4.53-12.07-3.22-17.08,3C1195.39,545.42,1194.82,548.92,1195,553.4Zm-6.82-40.15a73.37,73.37,0,0,0,13.9-6.34,1,1,0,0,0,.24-1.51.91.91,0,0,0-1.23-.39c-4.36,2.25-8.85,4.21-13.4,6a1,1,0,0,0-.61,1.4A1.17,1.17,0,0,0,1188.15,513.25Zm5.36-9.88c-.33-1.44-1.24-1.07-2.2-.74a21.64,21.64,0,0,0-10.42,7.77c-.52.69-1.24,1.46-.29,2.21s1.6-.07,2.12-.78a20,20,0,0,1,9.28-6.95C1192.73,504.6,1193.47,504.35,1193.51,503.37Zm4.7-.55c2-.4,3.53-.72,5-1,.8-.13,1.24-.48,1.14-1.32a1.07,1.07,0,0,0-1.41-1c-1.59.31-3.17.66-4.75,1a1.06,1.06,0,0,0-.86,1.51A1.08,1.08,0,0,0,1198.21,502.82Z" transform="translate(0.39 16.09)"/><path class="cls-6" d="M1193.94,596.68c-1.79,4.41-3.39,8.53-5.13,12.6-1,2.26-4.84,3.27-7.91,2.09-4.58-1.75-7.81-5.21-10.83-8.88a129.72,129.72,0,0,1-24.25-45.57c-3.26-10.88-6.91-21.65-9.42-32.74-2-9-3.86-18.1-.43-27.06,3.23-8.45,8-15.92,17.06-19.25a18.61,18.61,0,0,1,13.56,0,2.93,2.93,0,0,1,2.18,3.44,143.92,143.92,0,0,0,0,20.24c.81,10.73,3.2,20.8,9.38,29.92,5,7.39,10.24,14.73,13.25,23.28A35,35,0,0,1,1193,560c1.31,7.09,5.25,13,8.61,19.13a3.33,3.33,0,0,1-.13,3.9c-1.84,3.05-3.55,6.19-5.16,9.36a3.4,3.4,0,0,1-3,2.11c-4.22.46-8.43,1.15-12,3.67a5.69,5.69,0,0,0-2.27,7.1c1.06,2.44,3.08,3.29,5.64,3.09,1-.08,2.16,0,2.15-1.33s-1.15-1-2-1c-1.68-.06-3.36-.15-3.83-2.25s.7-3.25,2.37-4.12C1186.59,597.94,1190.14,597.28,1193.94,596.68Zm-19-27.91a1.18,1.18,0,0,0-1.58-1.18,22.12,22.12,0,0,0-3.59,1c-2.84,1.12-5.8,2.07-7.83,4.57-.5.62-.9,1.32-.12,2a1.05,1.05,0,0,0,1.54-.14c2.74-2.77,6.33-3.8,9.9-4.88C1174,569.89,1174.75,569.65,1175,568.77Zm-5.73,9.33a70.86,70.86,0,0,0,13-6,1,1,0,0,0,.21-1.52,1,1,0,0,0-1.51-.32,104.3,104.3,0,0,1-12.27,5.71,1,1,0,0,0-.65,1.39A1.2,1.2,0,0,0,1169.24,578.1Z" transform="translate(0.39 16.09)"/><path class="cls-4" d="M774.28,440.39c2.06-7.46,4.94-14.29,12-18.45a7.6,7.6,0,0,1,1.57-.7c.7-.22,1.38-.17,1.67.65s-.19,1.09-.74,1.37c-7.06,3.6-10,10-11.94,17.19-.22.82-.38,1.84-1.57,1.69S774.36,441.08,774.28,440.39Z" transform="translate(0.39 16.09)"/><path class="cls-5" d="M789.62,435.34a3.5,3.5,0,0,1-.93-.51,1.16,1.16,0,0,1,.1-1.57l6.09-8a1.12,1.12,0,0,1,1.73-.34,1,1,0,0,1,.27,1.51,61,61,0,0,1-6.41,8.51A3.16,3.16,0,0,1,789.62,435.34Z" transform="translate(0.39 16.09)"/><path class="cls-5" d="M786.08,385.38c-1.38-.49-.86-1.61-.37-2.49a22.14,22.14,0,0,1,6.43-6.92,30.26,30.26,0,0,1,6-3.44c.8-.35,1.85-1.19,2.42.18s-.7,1.66-1.52,2a26.15,26.15,0,0,0-9.06,6.49,37.92,37.92,0,0,0-2.33,3.27C787.28,385,787,385.48,786.08,385.38Z" transform="translate(0.39 16.09)"/><path class="cls-5" d="M859.05,412.52c0,.89-.73,1.17-1.42,1.53-3.9,2.08-8,3.91-9.92,8.37a1,1,0,0,1-1.46.55c-.66-.29-.66-.94-.51-1.49a6.41,6.41,0,0,1,.77-1.85c2.61-3.95,6.48-6.23,10.77-7.9C858.29,411.34,859,411.7,859.05,412.52Z" transform="translate(0.39 16.09)"/><path class="cls-5" d="M806.48,376.49a2.67,2.67,0,0,1-.42.72,40.24,40.24,0,0,1-9.3,5.62,1,1,0,0,1-1.37-.65,1,1,0,0,1,.48-1.45,53.91,53.91,0,0,0,8.86-5.27C805.76,374.7,806.25,375.47,806.48,376.49Z" transform="translate(0.39 16.09)"/><path class="cls-5" d="M865,416.83c-.22,1.42-1.45,1.59-2.37,1.85-2.22.62-4.08,2.77-6.61,1.92-.8-.27-.55-1.39.32-1.78,2.36-1.05,4.74-2,7.12-3C864.53,415.37,864.81,416.08,865,416.83Z" transform="translate(0.39 16.09)"/><path class="cls-7" d="M1895.58,642.39c2-15.86-2.62-31.74-10.08-45.65a118.39,118.39,0,0,0-7.09-11.53c-1.1-1.57-3.7-.07-2.59,1.52,8.74,12.59,15.61,27.13,17,42.58a61.5,61.5,0,0,1-.22,13.08c-.23,1.91,2.77,1.9,3,0Z" transform="translate(0.39 16.09)"/><path class="cls-7" d="M811.37,193.26c7.17,52.35,49.09,91.89,97.06,109.3,26.84,9.74,55.31,13.24,83.73,13.64a436.31,436.31,0,0,0,92.8-9c60.86-12.34,120.41-35.85,174.32-66.54a524.67,524.67,0,0,0,73.38-50.34c23.81-19.55,44.42-41.49,64.67-64.61,40.19-45.9,92.87-83.21,147.92-109.2,57.36-27.07,127.15-38.35,189.26-23.18,29.08,7.1,56.3,20.39,80.86,37.37,24.4,16.88,46.59,37.83,62.53,63,16.11,25.45,24.62,54.51,23.42,84.71-1.25,31.76-12,62.26-26,90.49-13.55,27.27-30.25,52.84-47,78.2-8.63,13-18.72,25-27.36,38a395.22,395.22,0,0,0-23.06,40.15,433.39,433.39,0,0,0-32.64,85.17c-7.83,29.7-12.54,60.78-9.48,91.52a141.67,141.67,0,0,0,10.2,41.28c.75,1.77,3.33.24,2.59-1.52-12.76-30.22-12.66-64.56-7.65-96.49,4.9-31.24,14.43-61.88,26.78-90.95,12.05-28.4,26.75-56.13,45.21-80.9a807.69,807.69,0,0,0,50.88-76.76c29.26-50.36,52.83-110.34,33.81-168.61-17.35-53.13-63.38-93.9-112-118.68-53.87-27.48-115-31.11-173.53-18.17-59.84,13.24-114,43.6-162,81.24-24.23,19-45.36,40.31-65.53,63.54a454.63,454.63,0,0,1-67.48,63c-49.63,37.92-106.18,66.3-165.08,86.74-59.64,20.69-124.22,32.3-187.41,26.2-55.61-5.37-112-30.43-138.61-82.22a115.44,115.44,0,0,1-11.69-37.11c-.26-1.91-3.15-1.09-2.89.8Z" transform="translate(0.39 16.09)"/><path class="cls-3" d="M1142.86-1.6h-7.55c11.55,5.39,24.16,6.65,36.52,8.75,22.24,3.78,44.6,6.77,67,9.64q24.1,3.09,48.21,6.11c.94.12,2.37.77,2.49-.93.08-1.31-1.24-1.26-2.16-1.38-24.19-3.13-48.39-6.15-72.56-9.41-10.88-1.46-21.78-2.85-32.56-5C1168.88,4.34,1155.63,2.43,1142.86-1.6Z" transform="translate(0.39 16.09)"/><path class="cls-4" d="M758.61,642c.68.86,1.35,1.73,2,2.61h3q-2-2.83-4.27-5.51c-.53-.61-1-1.66-2.07-.9s-.25,1.67.27,2.43C757.87,641.09,758.25,641.54,758.61,642Z" transform="translate(0.39 16.09)"/><path class="cls-5" d="M850.44,82.76c-.13-.83,0-1.63.95-1.79.8-.13,1.2.48,1.33,1.21a113.7,113.7,0,0,0,5.64,21.47,1.3,1.3,0,0,1-.74,1.9c-.77.24-1.22-.34-1.48-1A114.36,114.36,0,0,1,850.44,82.76Z" transform="translate(0.39 16.09)"/><path class="cls-5" d="M740.33,575.26c.51-4.47.47-9,1.81-13.41a9.88,9.88,0,0,1,3.44-5.22c.5-.37,1.1-.59,1.59-.15s.79,1,.23,1.52c-4.83,4.49-3.74,10.64-4.56,16.24-.19,1.33-.11,2.7-.17,4,0,.82-.24,1.63-1.25,1.59s-1.09-.9-1.09-1.7Z" transform="translate(0.39 16.09)"/><path class="cls-5" d="M1298.31,474.54a33.7,33.7,0,0,1-11.57-2.19c-.86-.35-1.7-.71-1.31-1.82s1.44-.75,2.18-.44a27.51,27.51,0,0,0,14.42,1.53c.86-.12,1.84-.39,2,.94s-.81,1.35-1.71,1.47Z" transform="translate(0.39 16.09)"/><path class="cls-5" d="M1293.76,489.1c-3.92-.07-7.5-.94-10.22-4-.66-.73-1.77-1.63-.55-2.68s1.63.35,2.23,1c2.56,2.67,5.82,3.2,9.29,3.08.86,0,1.72-.23,2.59-.3s1.93-.4,2.19.76c.29,1.35-.83,1.54-1.82,1.68C1296.24,488.82,1295,489,1293.76,489.1Z" transform="translate(0.39 16.09)"/><path class="cls-5" d="M870.26,111.42c.1.8.07,1.47-.78,1.7s-1.27-.41-1.44-1.06a60.66,60.66,0,0,0-5.87-14.67,1.17,1.17,0,0,1,.45-1.73c.84-.53,1.27.06,1.6.65A56.74,56.74,0,0,1,870.26,111.42Z" transform="translate(0.39 16.09)"/><path class="cls-5" d="M1300.07,467.38c-2.32.07-4.92-.19-7.42.7-.72.26-1.6.5-2-.44s.31-1.47,1.07-1.71c4.6-1.42,9.27-1.08,13.94-.45a1.09,1.09,0,0,1,1,1.2c-.1.82-.72,1.07-1.47,1C1303.58,467.61,1302,467.5,1300.07,467.38Z" transform="translate(0.39 16.09)"/><path class="cls-5" d="M809.22,587.47c-.61.13-1.18,0-1.38-.66a1.12,1.12,0,0,1,1-1.48,19.78,19.78,0,0,0,11.5-6.7,1.3,1.3,0,0,1,2-.17c.57.6.12,1.24-.34,1.79A20.5,20.5,0,0,1,809.22,587.47Z" transform="translate(0.39 16.09)"/><path class="cls-5" d="M867.24,120.43a1.18,1.18,0,0,1-.72,1.14,1,1,0,0,1-1.27-.35,50,50,0,0,1-5.62-9,1.16,1.16,0,0,1,.31-1.55.94.94,0,0,1,1.48.22q2.85,4.45,5.66,9A1.88,1.88,0,0,1,867.24,120.43Z" transform="translate(0.39 16.09)"/><path class="cls-5" d="M746.33,572.29c-1-.2-1.43-.79-1.19-1.68.62-2.31,1.29-4.62,2-6.92.17-.55.49-1.11,1.21-1s1.16.59,1,1.2c-.66,2.6-1.41,5.17-2.19,7.74C747.06,571.92,746.58,572.09,746.33,572.29Z" transform="translate(0.39 16.09)"/><path class="cls-6" d="M839.61,2.21c-.65-.75-1.32-1.48-2-2.2H795.85c-3.46,15.24-7.3,30.39-10,45.79-1.26,7.11-3.2,14.29-1.93,21.5,3.05,17.36,6.45,34.66,10,51.94.9,4.44,2.17,8.93,5.68,12.85a40.3,40.3,0,0,1,6.24-12,268.43,268.43,0,0,1,20.39-22.9A10.47,10.47,0,0,0,829,90.51a58.59,58.59,0,0,0-2.95-25.93c-2-5.64-1.56-9.91,2.73-14.71,8.38-9.38,12.32-21.47,17.81-32.59.89-1.79.4-3.6-.37-5.3A40.53,40.53,0,0,0,839.61,2.21Zm-18,51.92a1.18,1.18,0,0,1-1.72-.51c-.43-.64-.72-1.36-1.13-2-2.25-3.67-5.16-6.47-9.68-7-.9-.11-1.86-.24-1.6-1.48.21-1,1.13-.83,1.67-.84,5,.24,11.69,5.74,12.8,10.34C822.11,53.15,822.25,53.76,821.64,54.13Z" transform="translate(0.39 16.09)"/><path class="cls-6" d="M909.5,0a63.89,63.89,0,0,0,4.19,8.3c.46.8,1.27,1.81,0,2.48s-1.61-.59-2.07-1.38A55.59,55.59,0,0,1,907.77,2c-.34-.85-.58-1.5-.78-2h-3.42l-.46.24C899.8,2,896.48,3.78,893.06,5.32c-11.69,5.24-24.21,7.74-36.63,10.34-5.36,1.12-8.4,3.38-10.59,8.45-4.53,10.51-9.11,21.13-16.94,29.77-2,2.15-2.16,4-1.44,6.69,2.25,8.36,5,16.66,4.29,25.53-.11,1.47,0,3,0,5,3.27-3.46,6.28-6.54,9.18-9.71,5.83-6.39,12.32-11.74,21.24-13a18.65,18.65,0,0,0,13-7.5,30,30,0,0,1-10.75-4.35c-.72-.43-1.31-.86-.78-1.8s1-.66,1.7-.29A31.25,31.25,0,0,0,874,58.28c1.08.24.73,1.8,1.93,1.77,3.29-3.65,6.42-7.45,9.9-10.91Q910.52,24.56,935.26,0Zm-49.64,51.9c-.44.41-.91.19-1.27-.15a39.24,39.24,0,0,1-7-8.8,1.08,1.08,0,0,1,.35-1.53.91.91,0,0,1,1.3.13,88.3,88.3,0,0,0,6.94,8.85c.12.13.13.35.23.66A4.54,4.54,0,0,1,859.86,51.91Z" transform="translate(0.39 16.09)"/><path class="cls-6" d="M989.74,0q-18.68,19.27-37.36,38.56c-.73.75-1.6,1.84-2.61.66-.87-1,.38-1.72,1-2.35Q968.61,18.43,986.49,0H938.56Q912.78,25.66,887,51.33a157.7,157.7,0,0,0-11.76,13.14,3.34,3.34,0,0,1,.32.33C902.68,59.56,929.3,52.56,955,42.42a8.12,8.12,0,0,0,2.78-2Q977.91,20.19,998,0Z" transform="translate(0.39 16.09)"/><path class="cls-10" d="M930.82,119a4.24,4.24,0,0,1,.78.28c5.9,2.82,11.17,6.43,14.9,12,.53.8,1.29,1.7.24,2.52-.85.66-1.42-.19-1.84-.81-3.58-5.39-8.59-9-14.37-11.69-.66-.3-1.61-.54-1.43-1.53C929.21,119.12,929.9,119,930.82,119Z" transform="translate(0.39 16.09)"/><path class="cls-5" d="M875.19,60.89a30,30,0,0,1-10.75-4.35c-.72-.43-1.31-.86-.78-1.8s1-.66,1.7-.29A31.25,31.25,0,0,0,874,58.28c1.08.24.73,1.8,1.93,1.77Z" transform="translate(0.39 16.09)"/><path class="cls-4" d="M803.49,128.2a5,5,0,0,1,2-3.41c.67,1.94-1.35,2.67-1.31,4.1Z" transform="translate(0.39 16.09)"/><path class="cls-11" d="M806.52,124.18l-.5-.35a2.93,2.93,0,0,1,.56-.44c.07,0,.25.17.37.26Z" transform="translate(0.39 16.09)"/><path class="cls-11" d="M964.2,38.8c-.43.12-1.11.46-1.25.31-.5-.54.28-.68.5-1Z" transform="translate(0.39 16.09)"/><path class="cls-17" d="M875.56,64.8c-.23.21-.48.34-.71,0,0,0,.25-.22.39-.34A3.34,3.34,0,0,1,875.56,64.8Z" transform="translate(0.39 16.09)"/><path class="cls-6" d="M926,547.66a13.63,13.63,0,0,0-9.93,2.09,14,14,0,0,0-6.1,7.43c-.33,1-.48,1.93-1.82.83-4.55-3.72-9.31-7.2-13.68-11.13-3.25-2.92-3.65-6.84-2.14-10.92a20.37,20.37,0,0,1,20.06-12.75c5.42.45,8.86,3.37,10.09,8.69C923.71,537,924.82,542.18,926,547.66Z" transform="translate(0.39 16.09)"/><path class="cls-8" d="M932.8,577.51c-4.74-3.93-8.93-7.42-13.11-10.91-2.15-1.78-4.23-3.65-6.44-5.35a2.56,2.56,0,0,1-1-3.42c1.75-4.69,7.13-8.38,11.91-8,1.18.1,2.3.21,2.64,1.69C928.72,560,930.68,568.37,932.8,577.51Z" transform="translate(0.39 16.09)"/><path class="cls-8" d="M815.69,603.62c-1,5.16-2.92,9.18-7.54,11.38-3.55,1.69-4.77,1.36-6.75-1.85-1.43-2.31-1.67-3.85-1.18-7.59C805.5,607,810.86,609,815.69,603.62Z" transform="translate(0.39 16.09)"/><path class="cls-11" d="M797.43,610.19l.21.19a1.69,1.69,0,0,1-.36.17s-.12-.11-.18-.17Z" transform="translate(0.39 16.09)"/><path class="cls-6" d="M1232.94,531.12c-2.07-6.68-3.64-13.26-6.18-19.45-2.1-5.13-.53-9.76.22-14.61a23.33,23.33,0,0,0,.6-4.87c-.63-9.49,3.7-17.58,7.15-25.91q42.11-101.67,84.17-203.34c.91-2.22,1.66-2.58,3.86-1.57,5.6,2.55,11.32,4.84,17,7.12,1.63.65,1.88,1.31,1.19,3q-23.91,57.58-47.7,115.21a4,4,0,0,1-1.67,2.27c-7.95,4.38-13.36,11.24-18.16,18.68-11.55,17.87-18.93,37.27-20.84,58.54-.48,5.27-.14,10.61-.09,15.92a14.76,14.76,0,0,1-1.15,5.89c-5.6,13.44-11.13,26.91-16.71,40.36A5.43,5.43,0,0,1,1232.94,531.12Z" transform="translate(0.39 16.09)"/><path class="cls-6" d="M1145.36,624.39c-6.5-2.81-11.42-6.6-16.17-10.67-8.61-7.36-13.43-17-16.61-27.61-2.26-7.56-5.45-14.84-7.1-22.57-2.39-11.17.8-21.28,7.2-30.32,4.37-6.18,13.31-8.57,20.33-6.38,1.4.44,1.52,1.52,1.87,2.64,4.79,15.52,9.34,31.11,15.37,46.23,3.34,8.37,9,15.23,13.63,22.72,2.35,3.76,4.8,7.46,7.39,11.06a5,5,0,0,1,.67,4.58c-.37,1.48-.81,1.51-1.84.56q-2.24-2-4.61-4c-2-1.65-4-1.84-6.24,0-4,3.29-8.82,4.15-13.84,4.12-3.44,0-4.16.9-2.94,4.11a25.93,25.93,0,0,0,1.28,2.59C1144.15,622.23,1144.58,623,1145.36,624.39Zm-8.56-27.87a2.6,2.6,0,0,0-.32-.35c.28-.37.55-.76.85-1.12.6-.72,1.58-1.45.5-2.4-.91-.82-1.59.07-2.18.66-2.05,2-4.06,4.11-6.09,6.17-.59.6-1,1.29-.36,2s1.18.33,1.85.06a154.23,154.23,0,0,0,14.16-6.46c.72-.38,1.47-.81,1.08-1.73-.51-1.23-1.38-.58-2.15-.22C1141.7,594.29,1139.25,595.4,1136.8,596.52Z" transform="translate(0.39 16.09)"/><path class="cls-6" d="M1249,424.48c-5.18-9.39-10.44-18.69-15.45-28.12a44.22,44.22,0,0,0-8.41-11.21c-7.47-7.23-13.84-15.31-16.46-25.71a18.52,18.52,0,0,1-.56-2.84c-.71-7,2.89-11.22,10-11.72,7.48-.53,14.57,1.15,21.39,4a88.69,88.69,0,0,1,29.87,19.9c1.68,1.72,2,3.27,1,5.58-6.66,15.78-13.16,31.63-19.73,47.45A4.87,4.87,0,0,1,1249,424.48ZM1242.14,392a29.64,29.64,0,0,0,18-6c.75-.54,1.45-1.18.75-2.11s-1.38-.3-2,.12-1.27.86-1.93,1.25c-7.27,4.4-14.93,5.84-23.16,3-.75-.26-1.85-1.33-2.31.3-.38,1.33.84,1.54,1.69,1.9A23.89,23.89,0,0,0,1242.14,392Z" transform="translate(0.39 16.09)"/><path class="cls-8" d="M1209.56,568.39c-3.65.08-6.2-1-7.74-4.07-.77-1.54-1.88-2.9-2.8-4.37s-3-3.63-2.63-4.58c1.91-4.27.21-9.68,4.73-13.19,4-3.14,7.18-3.9,11.53-1.19,4.95,3.07,8.26,7.71,11.59,12.33.69,1,.36,1.52-.36,2.19a95.28,95.28,0,0,0-11.32,11.93C1211.61,568.71,1210.35,568.33,1209.56,568.39Z" transform="translate(0.39 16.09)"/><path class="cls-9" d="M1356.86,232.4c-.19.55-.39,1.2-.64,1.82-2.09,5.07-4.22,10.12-6.25,15.22-.61,1.54-1.24,2-3,1.28-5.82-2.55-11.69-5-17.58-7.33-1.55-.62-2.07-1.19-1.29-2.92,2.27-5.09,4.3-10.29,6.5-15.42,1.27-3,2.47-3.45,5.42-2.25,4.63,1.88,9.24,3.82,13.86,5.75C1355.61,229.25,1357,230.15,1356.86,232.4Z" transform="translate(0.39 16.09)"/><path class="cls-8" d="M1347.9,254.28c-.08.2-.16.48-.27.75-1.44,3.46-2.93,6.9-4.31,10.39-.46,1.18-1,1.39-2.15.89q-9.3-3.93-18.67-7.69c-1.08-.44-1.59-.85-1-2.1,1.5-3.44,3-6.89,4.32-10.39.48-1.25,1-1.32,2.13-.87,6.22,2.59,12.46,5.12,18.67,7.71C1347.13,253.2,1348,253.22,1347.9,254.28Z" transform="translate(0.39 16.09)"/><path class="cls-8" d="M1144.68,617.24c6-.22,11.7-.93,16.4-4.9a2,2,0,0,1,2.88.06c1.82,1.57,3.58,3.21,5.41,4.76,1,.81.49,1.42,0,2.18-4.19,5.95-12.82,8.77-19.84,6.51a1.93,1.93,0,0,1-1.58-1.61C1147.28,621.86,1145.28,620,1144.68,617.24Z" transform="translate(0.39 16.09)"/><path class="cls-4" d="M809.18,42.25c5,.24,11.69,5.74,12.8,10.34.13.56.27,1.17-.34,1.54a1.18,1.18,0,0,1-1.72-.51c-.43-.64-.72-1.36-1.13-2-2.25-3.67-5.16-6.47-9.68-7-.9-.11-1.86-.24-1.6-1.48C807.72,42.06,808.64,42.26,809.18,42.25Z" transform="translate(0.39 16.09)"/><path class="cls-4" d="M860.44,51.07a4.54,4.54,0,0,1-.58.84c-.44.41-.91.19-1.27-.15a39.24,39.24,0,0,1-7-8.8,1.08,1.08,0,0,1,.35-1.53.91.91,0,0,1,1.3.13,88.3,88.3,0,0,0,6.94,8.85C860.33,50.54,860.34,50.76,860.44,51.07Z" transform="translate(0.39 16.09)"/><path class="cls-3" d="M986.49,0q-17.88,18.42-35.73,36.87c-.61.63-1.86,1.33-1,2.35,1,1.18,1.88.09,2.61-.66Q971.07,19.29,989.74,0Z" transform="translate(0.39 16.09)"/><path class="cls-5" d="M1188.15,513.25a1.17,1.17,0,0,1-1.1-.8,1,1,0,0,1,.61-1.4c4.55-1.83,9-3.79,13.4-6a.91.91,0,0,1,1.23.39,1,1,0,0,1-.24,1.51A73.37,73.37,0,0,1,1188.15,513.25Z" transform="translate(0.39 16.09)"/><path class="cls-4" d="M1193.51,503.37c0,1-.78,1.23-1.51,1.51a20,20,0,0,0-9.28,6.95c-.52.71-1.19,1.5-2.12.78s-.23-1.52.29-2.21a21.64,21.64,0,0,1,10.42-7.77C1192.27,502.3,1193.18,501.93,1193.51,503.37Z" transform="translate(0.39 16.09)"/><path class="cls-5" d="M1198.21,502.82a1.08,1.08,0,0,1-.85-.78,1.06,1.06,0,0,1,.86-1.51c1.58-.37,3.16-.72,4.75-1a1.07,1.07,0,0,1,1.41,1c.1.84-.34,1.19-1.14,1.32C1201.74,502.1,1200.24,502.42,1198.21,502.82Z" transform="translate(0.39 16.09)"/><path class="cls-4" d="M1175,568.77c-.22.88-.93,1.12-1.68,1.35-3.57,1.08-7.16,2.11-9.9,4.88a1.05,1.05,0,0,1-1.54.14c-.78-.69-.38-1.39.12-2,2-2.5,5-3.45,7.83-4.57a22.12,22.12,0,0,1,3.59-1A1.18,1.18,0,0,1,1175,568.77Z" transform="translate(0.39 16.09)"/><path class="cls-5" d="M1169.24,578.1a1.2,1.2,0,0,1-1.2-.72,1,1,0,0,1,.65-1.39,104.3,104.3,0,0,0,12.27-5.71,1,1,0,0,1,1.51.32,1,1,0,0,1-.21,1.52A70.86,70.86,0,0,1,1169.24,578.1Z" transform="translate(0.39 16.09)"/><path class="cls-4" d="M1136.8,596.52c2.45-1.12,4.9-2.23,7.34-3.36.77-.36,1.64-1,2.15.22.39.92-.36,1.35-1.08,1.73a154.23,154.23,0,0,1-14.16,6.46c-.67.27-1.32.57-1.85-.06s-.23-1.43.36-2c2-2.06,4-4.13,6.09-6.17.59-.59,1.27-1.48,2.18-.66,1.08,1,.1,1.68-.5,2.4-.3.36-.57.75-.85,1.12-.25.06-.55.12-.36.44C1136.17,596.69,1136.57,596.56,1136.8,596.52Z" transform="translate(0.39 16.09)"/><path class="cls-5" d="M1242.14,392a23.89,23.89,0,0,1-9-1.51c-.85-.36-2.07-.57-1.69-1.9.46-1.63,1.56-.56,2.31-.3,8.23,2.8,15.89,1.36,23.16-3,.66-.39,1.28-.84,1.93-1.25s1.44-.93,2-.12,0,1.57-.75,2.11A29.64,29.64,0,0,1,1242.14,392Z" transform="translate(0.39 16.09)"/><path class="cls-15" d="M1136.8,596.52c-.23,0-.63.17-.68.09-.19-.32.11-.38.36-.44A2.6,2.6,0,0,1,1136.8,596.52Z" transform="translate(0.39 16.09)"/></svg>